<?xml version="1.0" encoding="utf-8"?>
<!-- Generator: Adobe Illustrator 24.0.2, SVG Export Plug-In . SVG Version: 6.00 Build 0)  -->
<svg version="1.1" id="Capa_1" xmlns="http://www.w3.org/2000/svg" xmlns:xlink="http://www.w3.org/1999/xlink" x="0px" y="0px"
	 viewBox="0 0 700 125" style="enable-background:new 0 0 700 125;" xml:space="preserve">
<style type="text/css">
	.st0{fill:#FFFFFF;}
</style>
<g>
	<path class="st0" d="M195.89,0.02c36.58,0,73.17-0.01,109.74,0.02c1.88,0,3.8,0.1,5.63,0.48c5.34,1.11,9.2,4.37,12.13,8.84
		c0.62,0.93,1.17,1.9,1.67,2.9c1.65,3.39,4.45,4.84,8.1,4.91c0.92,0.02,1.85,0.02,2.76,0.02c9.8,0,19.6,0.01,29.4-0.01
		c1.16,0,2.32-0.09,3.48-0.23c2.24-0.27,4.04-1.33,5.26-3.25c0.89-1.39,1.64-2.86,2.53-4.24c2.9-4.47,6.75-7.74,12.07-8.91
		c1.6-0.35,3.27-0.46,4.91-0.5c3.98-0.07,7.96-0.02,11.94-0.02c69.82,0,139.63,0,209.45,0.01c1.16,0,2.34,0.05,3.47,0.29
		c4.77,1.01,7.27,5.26,5.86,9.91c-0.26,0.87-0.65,1.73-1.1,2.52c-1.41,2.44-2.84,4.85-4.32,7.25c-1.31,2.13-3.22,3.45-5.67,3.96
		c-0.14,0.03-0.28,0.09-0.42,0.1c-2.75,0.13-4.38,1.73-5.54,4.07c-1,1.99-2.18,3.89-3.24,5.85c-1.75,3.24-4.35,5.3-8.08,5.7
		c-2.44,0.26-4.13,1.51-5.32,3.57c-0.75,1.3-1.49,2.61-2.25,3.91c-3.18,5.37-7.69,8.88-13.77,10.63
		c-20.58,5.92-41.11,12.02-61.67,18.04c-6.23,1.83-12.49,3.58-18.68,5.51c-2.44,0.76-4.8,1.81-7.1,2.93
		c-2.44,1.18-4.34,3.08-5.94,5.25c-0.49,0.66-0.98,1.33-1.43,2.02c-3.71,5.78-8.96,9.46-15.52,11.28
		c-10.65,2.95-21.32,5.8-31.99,8.69c-15.34,4.16-30.68,8.33-46.03,12.46c-1.63,0.44-3.31,0.78-4.99,0.94
		c-4.27,0.42-8.05-0.96-11.34-3.64c-1.77-1.44-3.38-3.05-5.04-4.62c-3.49-3.3-6.95-6.62-10.44-9.91c-0.67-0.63-1.39-1.21-2.13-1.76
		c-1.46-1.06-3-1.1-4.44,0c-1.12,0.85-2.18,1.77-3.2,2.74c-4.33,4.1-8.63,8.24-12.97,12.34c-2.48,2.33-5.32,4.05-8.73,4.67
		c-2.47,0.45-4.93,0.34-7.35-0.31c-7.86-2.11-15.72-4.23-23.58-6.36c-12.68-3.43-25.36-6.86-38.03-10.31
		c-6.03-1.64-12.08-3.24-18.09-4.95c-6.43-1.83-11.75-5.38-15.32-11.09c-3.36-5.38-8.16-8.52-14.12-10.24
		c-9.5-2.74-18.97-5.56-28.46-8.35c-16.18-4.75-32.36-9.49-48.54-14.24c-1.53-0.45-3.07-0.9-4.61-1.32
		c-5.1-1.37-9.05-4.32-11.97-8.69c-0.81-1.21-1.51-2.48-2.27-3.72c-0.46-0.74-0.9-1.49-1.37-2.23c-1.16-1.81-2.78-2.88-4.94-3.26
		c-1.23-0.22-2.45-0.59-3.6-1.09c-2.03-0.89-3.39-2.54-4.48-4.42c-1.29-2.22-2.61-4.43-3.83-6.69c-1.05-1.94-2.52-3.06-4.76-3.34
		c-2.73-0.34-4.95-1.69-6.43-4.05c-1.6-2.54-3.13-5.13-4.64-7.73c-1.17-2.01-1.49-4.21-0.93-6.46c0.82-3.36,3.71-5.56,7.5-5.82
		c0.68-0.05,1.36-0.03,2.04-0.03C122.06,0.02,158.97,0.02,195.89,0.02z M227.7,60.82c81.62,0,163.09,0,244.61,0
		c0-12.82,0-25.55,0-38.28c-81.59,0-163.07,0-244.61,0C227.7,35.32,227.7,48.01,227.7,60.82z M378.41,17.49
		c0.06,0.12,0.11,0.24,0.17,0.36c0.52,0,1.04,0,1.56,0c74.81,0,149.62,0,224.43-0.01c1.6,0,3.2-0.03,4.8-0.1
		c2.71-0.11,4.84-1.25,6.26-3.62c0.85-1.41,1.73-2.8,2.56-4.23c0.22-0.37,0.38-0.79,0.47-1.21c0.34-1.57-0.34-2.57-1.93-2.8
		c-0.58-0.08-1.16-0.06-1.74-0.06c-73.36,0-146.71,0-220.07,0c-0.77,0-1.55,0.02-2.32,0.03c-3.81,0.11-7.01,1.58-9.36,4.57
		C381.49,12.69,380.01,15.14,378.41,17.49z M321.66,17.86c-1.44-2.28-2.64-4.31-3.97-6.26c-1.42-2.06-3.24-3.73-5.58-4.75
		c-2.05-0.89-4.22-1.01-6.42-1.01c-73.68,0-147.37,0-221.05,0.01c-0.44,0-0.88-0.02-1.31,0.04c-1.67,0.21-2.44,1.41-1.93,3.03
		c0.1,0.32,0.26,0.63,0.43,0.92c0.85,1.41,1.71,2.82,2.56,4.23c1.41,2.36,3.51,3.56,6.22,3.68c1.79,0.08,3.59,0.11,5.38,0.11
		c74.6,0.01,149.21,0.01,223.81,0.01C320.32,17.86,320.85,17.86,321.66,17.86z M476.95,27.85c0.26,0.05,0.45,0.11,0.63,0.12
		c6.1,0.37,12.19,0.75,18.3,1.1c7.6,0.44,15.2,0.85,22.8,1.29c7.94,0.46,15.87,0.93,23.82,1.41c6.63,0.39,13.26,0.77,19.89,1.16
		c5.76,0.34,11.52,0.74,17.28,1.03c3.63,0.19,7.27,0.37,10.9,0.36c4.51-0.02,7.87-2.09,10.01-6.09c0.77-1.45,1.6-2.88,2.4-4.32
		c0.15-0.27,0.26-0.57,0.48-1.05c-42.27-0.17-84.34-0.34-126.5-0.51C476.95,24.25,476.95,25.97,476.95,27.85z M96.66,22.99
		c0.52,0.97,0.93,1.73,1.33,2.49c0.83,1.59,1.61,3.2,2.51,4.75c1.25,2.2,3.16,3.59,5.68,3.84c2.36,0.25,4.74,0.38,7.1,0.29
		c4.94-0.18,9.87-0.54,14.81-0.81c6.05-0.34,12.1-0.66,18.15-1.01c8.81-0.52,17.62-1.07,26.43-1.58c6.2-0.36,12.39-0.68,18.59-1.03
		c9.92-0.57,19.85-1.15,29.77-1.73c0.72-0.04,1.44-0.13,2.21-0.2c0-1.86,0-3.63,0-5.56C181.07,22.62,138.99,22.8,96.66,22.99z
		 M343.41,65.5c-0.14,0.37-0.27,0.63-0.36,0.91c-4.19,12.54-8.37,25.09-12.56,37.63c-1.52,4.55-2.89,9.16-5.54,13.23
		c-0.04,0.06,0.01,0.17,0.03,0.38c0.23-0.1,0.46-0.14,0.62-0.27c0.8-0.62,1.63-1.22,2.37-1.92c4.51-4.26,9-8.54,13.5-12.81
		c1.45-1.37,2.99-2.61,4.83-3.45c2.49-1.14,4.97-1.13,7.45-0.01c1.74,0.79,3.24,1.94,4.62,3.25c4.11,3.91,8.21,7.83,12.34,11.72
		c1.16,1.09,2.42,2.09,3.65,3.1c0.22,0.18,0.55,0.24,0.83,0.36c-1.77-2.89-2.96-5.95-4-9.08c-4.02-11.99-8.01-23.98-12.02-35.98
		c-0.78-2.33-1.57-4.67-2.37-7.05C352.31,65.5,347.91,65.5,343.41,65.5z M294.92,112.64c0.47,0.17,0.81,0.31,1.17,0.41
		c2.8,0.77,5.61,1.53,8.41,2.29c2.62,0.7,5.22,1.47,7.87,2.07c3.55,0.8,6.38-0.34,8.42-3.4c1.22-1.84,1.99-3.87,2.71-5.93
		c4.52-13.09,9.05-26.19,13.57-39.28c0.36-1.04,0.67-2.1,1.08-3.36c-0.66,0-1.13,0-1.59,0c-2.81,0-5.62,0.05-8.44-0.02
		c-1.06-0.02-1.63,0.36-2.18,1.25c-8.06,12.91-16.17,25.79-24.25,38.68c-1.64,2.62-3.62,4.91-6.11,6.75
		C295.39,112.22,295.22,112.38,294.92,112.64z M405.05,112.65c-0.37-0.3-0.58-0.49-0.8-0.66c-2.28-1.72-4.1-3.82-5.61-6.23
		c-8.17-13.07-16.39-26.11-24.56-39.19c-0.52-0.83-1.07-1.2-2.08-1.17c-2.91,0.07-5.82,0.02-8.73,0.03c-0.42,0-0.83,0.06-1.34,0.09
		c0.17,0.54,0.28,0.96,0.42,1.36c1.11,3.26,2.21,6.52,3.33,9.76c3.85,11.12,7.69,22.25,11.6,33.36c0.51,1.45,1.27,2.83,2.11,4.12
		c1.77,2.75,4.37,3.87,7.62,3.42c0.72-0.1,1.43-0.27,2.13-0.46c4.82-1.3,9.63-2.62,14.44-3.94
		C404.04,113.02,404.47,112.85,405.05,112.65z M223.14,32.62c-0.66,0-1.24-0.03-1.81,0.01c-4.26,0.26-8.52,0.54-12.77,0.81
		c-9.44,0.58-18.87,1.17-28.31,1.75c-9.44,0.58-18.87,1.17-28.31,1.74c-10.51,0.64-21,1.26-31.51,1.9c-2.07,0.13-4.14,0.3-6.49,0.47
		c1.26,2.16,2.41,4.11,3.55,6.06c1.17,2.01,2.98,2.94,5.2,3.32c2.92,0.49,5.81,0.14,8.7-0.18c3.61-0.39,7.21-0.89,10.83-1.29
		c5.98-0.66,11.95-1.27,17.93-1.91c6.7-0.72,13.4-1.46,20.09-2.18c5.83-0.62,11.66-1.22,17.5-1.85c6.99-0.75,13.97-1.51,20.96-2.27
		c1.48-0.16,2.96-0.35,4.44-0.53C223.14,36.45,223.14,34.58,223.14,32.62z M586.16,39.35c-36.54-2.25-72.84-4.49-109.2-6.73
		c0,2.11,0,4.02,0,5.99c0.36,0.05,0.64,0.1,0.92,0.13c3.32,0.36,6.65,0.72,9.97,1.08c4.87,0.52,9.73,1.04,14.6,1.56
		c4.87,0.52,9.73,1.04,14.6,1.57c5.83,0.63,11.66,1.27,17.49,1.89c6.02,0.65,12.05,1.29,18.07,1.93c6.31,0.68,12.61,1.44,18.93,2.03
		c1.96,0.18,3.97,0.04,5.94-0.17c2.23-0.23,3.99-1.34,5.14-3.37C583.7,43.35,584.86,41.5,586.16,39.35z M321,65.26
		c-4.42,0-8.48,0.02-12.56-0.02c-0.7-0.01-1.04,0.42-1.44,0.84c-8.83,9.2-17.66,18.39-26.49,27.58c-3.93,4.08-7.65,8.39-12.45,11.52
		c-0.03,0.02-0.03,0.08-0.07,0.18c0.16,0.09,0.31,0.21,0.49,0.26c4.95,1.35,9.88,2.8,14.87,4.01c3.52,0.85,6.82,0.14,9.71-2.17
		c1.81-1.45,3.17-3.25,4.4-5.19c7.47-11.73,14.95-23.45,22.43-35.18C320.22,66.57,320.52,66.05,321,65.26z M379.29,65.52
		c0.34,0.58,0.59,1.04,0.87,1.48c6.41,10.06,12.81,20.12,19.23,30.18c1.61,2.53,3.17,5.12,4.95,7.54c3.43,4.67,7.94,6.17,13.45,4.66
		c4.16-1.13,8.32-2.27,12.48-3.4c0.59-0.16,1.18-0.34,1.96-0.58c-0.39-0.32-0.59-0.51-0.81-0.66c-2.82-1.85-5.25-4.13-7.57-6.56
		c-10.19-10.65-20.41-21.28-30.59-31.95c-0.6-0.62-1.21-0.83-2.04-0.82c-3.49,0.03-6.99,0.02-10.48,0.02
		C380.3,65.43,379.88,65.48,379.29,65.52z M300.81,65.26c-4.7,0-9.01,0.02-13.33-0.02c-0.93-0.01-1.65,0.26-2.4,0.81
		c-11.26,8.18-22.53,16.34-33.81,24.49c-3.3,2.39-6.55,4.84-10.25,6.62c-0.31,0.15-0.62,0.34-1.05,0.59
		c0.4,0.16,0.61,0.27,0.84,0.34c5.19,1.41,10.38,2.83,15.57,4.23c0.33,0.09,0.66,0.14,1,0.18c3.14,0.39,6.01-0.43,8.52-2.24
		c2.03-1.47,4-3.08,5.76-4.87c9.37-9.56,18.66-19.19,27.98-28.8C299.97,66.24,300.26,65.88,300.81,65.26z M460.11,97.71
		c-3.13-1.38-5.76-3.11-8.32-4.95c-12.34-8.92-24.69-17.83-37.02-26.76c-0.71-0.51-1.4-0.75-2.27-0.74
		c-3.98,0.03-7.96,0.02-11.94,0.02c-0.37,0-0.74,0-1.49,0c0.6,0.64,0.94,1.01,1.29,1.37c7.37,7.57,14.74,15.16,22.13,22.73
		c2.71,2.77,5.43,5.54,8.2,8.24c1.61,1.57,3.43,2.85,5.47,3.8c2.65,1.23,5.38,1.5,8.21,0.71c4.81-1.34,9.62-2.65,14.44-3.98
		C459.19,98.04,459.53,97.91,460.11,97.71z M132.38,53.34c-0.01,0.08-0.02,0.16-0.02,0.25c0.4,0.14,0.8,0.3,1.21,0.42
		c4.14,1.22,8.27,2.45,12.41,3.66c6.34,1.85,12.8,2.3,19.3,1.33c9.87-1.47,19.73-3.11,29.58-4.69c7.61-1.21,15.22-2.44,22.83-3.68
		c1.81-0.3,3.61-0.62,5.54-0.94c0-2.22,0.06-4.36-0.03-6.62C192.76,46.51,162.57,49.93,132.38,53.34z M567.63,53.56
		c-0.01-0.07-0.02-0.14-0.03-0.21c-30.19-3.42-60.38-6.84-90.63-10.26c0,2.32,0,4.47,0,6.66c8.61,1.39,17.13,2.76,25.65,4.14
		c9.9,1.61,19.81,3.2,29.7,4.83c6.97,1.14,13.91,1.11,20.76-0.79c4.67-1.29,9.3-2.71,13.95-4.07
		C567.24,53.78,567.43,53.66,567.63,53.56z M220.48,82.24c0.24,0.32,0.37,0.5,0.5,0.68c1.45,1.87,2.88,3.76,4.38,5.6
		c1.16,1.42,2.4,2.77,3.64,4.14c1.17,1.31,2.69,1.67,4.36,1.47c1.05-0.13,2.12-0.3,3.12-0.62c2.8-0.89,5.3-2.36,7.69-4.05
		c10.79-7.66,21.55-15.34,32.33-23.01c0.42-0.3,0.82-0.6,1.52-1.1c-0.61-0.05-0.83-0.07-1.05-0.07c-5.19,0-10.38-0.02-15.56,0.02
		c-0.65,0.01-1.34,0.21-1.93,0.5c-8.28,4.03-16.52,8.12-24.81,12.12c-3.75,1.81-7.57,3.48-11.76,4.06
		C222.16,82.07,221.4,82.14,220.48,82.24z M479.33,82.26c-1.29-0.21-2.63-0.38-3.95-0.64c-4.14-0.81-7.89-2.65-11.64-4.47
		c-7.64-3.68-15.25-7.44-22.89-11.13c-0.67-0.33-1.46-0.58-2.2-0.58c-5.05-0.05-10.09-0.03-15.14-0.02c-0.35,0-0.7,0.08-1.22,0.14
		c0.36,0.3,0.54,0.46,0.73,0.6c10.63,7.57,21.23,15.17,31.89,22.69c2.05,1.45,4.27,2.66,6.5,3.85c1.63,0.87,3.42,1.36,5.29,1.45
		c1.61,0.09,3.08-0.18,4.23-1.45c1.01-1.11,2.15-2.12,3.07-3.29C475.81,87.11,477.52,84.71,479.33,82.26z M476.79,61.55
		c0.54,0.18,0.95,0.32,1.37,0.44c4.94,1.41,9.88,2.78,14.81,4.22c4.75,1.39,9.54,2.58,14.49,2.97c3.16,0.25,6.3,0.29,9.38-0.58
		c4.85-1.37,9.67-2.8,14.51-4.22c0.23-0.06,0.46-0.14,0.69-0.22c0.18-0.07,0.34-0.17,0.73-0.36c-18.81-3.12-37.35-6.29-55.97-9.37
		C476.79,56.91,476.79,59.17,476.79,61.55z M167.43,63.77c0,0.06,0,0.12,0,0.18c0.46,0.14,0.9,0.3,1.37,0.44
		c4.61,1.34,9.22,2.67,13.82,4.03c1.88,0.55,3.78,0.84,5.73,0.88c5.49,0.11,10.8-0.97,16.06-2.36c4.91-1.3,9.79-2.76,14.68-4.15
		c1.39-0.39,2.76-0.81,4.15-1.21c0-2.44,0-4.75,0-7.16C204.57,57.55,186,60.65,167.43,63.77z M450.74,65.42
		c-0.01,0.1-0.02,0.2-0.03,0.3c0.16,0.1,0.31,0.22,0.48,0.3c6.3,2.97,12.62,5.93,18.92,8.92c5.07,2.4,10.37,3.19,15.86,2.18
		c3.42-0.63,6.77-1.62,10.14-2.5c1.51-0.39,3-0.89,4.5-1.33c-1.45-0.62-2.91-0.93-4.34-1.34c-7.02-2.03-14.03-4.1-21.06-6.11
		c-0.87-0.25-1.81-0.38-2.71-0.39c-6.78-0.03-13.57-0.02-20.35-0.02C451.68,65.42,451.2,65.42,450.74,65.42z M199.2,73.22
		c1.14,0.34,2.01,0.62,2.9,0.88c4.37,1.28,8.7,2.71,13.26,3.18c4.56,0.47,9.04,0.1,13.25-1.81c6.14-2.78,12.22-5.68,18.31-8.54
		c0.81-0.38,1.61-0.79,2.4-1.18c-0.02-0.1-0.04-0.22-0.06-0.32c-0.5,0-1.01,0-1.52,0c-5.97,0-11.94,0.06-17.9-0.03
		c-2.51-0.04-4.89,0.34-7.29,1.04c-7.53,2.19-15.09,4.29-22.64,6.43C199.75,72.92,199.59,73.03,199.2,73.22z"/>
	<path class="st0" d="M370.71,30.62c0.89,7.48,1.78,14.92,2.69,22.55c-1.67,0.14-3.2,0.06-4.88,0.06
		c-0.42-4.46-0.82-8.86-1.24-13.26c-0.11-0.02-0.23-0.03-0.34-0.05c-2.48,4.14-4.51,8.52-6.52,12.85c-1.5,0.24-1.5,0.23-2.09-0.96
		c-1.77-3.56-3.52-7.12-5.3-10.68c-0.17-0.34-0.38-0.66-0.7-0.97c-0.69,4.29-0.97,8.6-1.37,12.99c-1.25,0-2.39,0-3.75,0
		c0.9-7.53,1.95-14.98,2.96-22.5c0.4-0.06,0.72-0.1,1.04-0.16c1.03-0.18,1.53,0.33,1.98,1.23c2.02,4.03,4.12,8.01,6.2,12.02
		c0.29,0.54,0.62,1.06,1.02,1.75c0.28-0.47,0.48-0.78,0.65-1.1c2.22-4.15,4.43-8.29,6.66-12.43
		C368.6,30.38,368.62,30.39,370.71,30.62z"/>
	<path class="st0" d="M313.27,41.81c-0.02,5.03-2.02,8.95-6.73,11.07c-6.9,3.12-15.6-0.58-16.59-9.24
		c-0.41-3.53,0.15-6.86,2.41-9.74c2.92-3.72,8.09-5.19,12.87-3.71c4.61,1.43,7.71,5.34,8.03,10.16
		C313.3,40.84,313.27,41.33,313.27,41.81z M308.36,41.83c-0.01-2.41-0.58-4.5-1.68-6.07c-2.88-4.14-8.36-3.87-10.69,0.61
		c-0.63,1.21-1.02,2.64-1.2,4c-0.38,2.92,0.06,5.72,1.93,8.13c1.41,1.82,3.28,2.73,5.59,2.41c2.06-0.29,3.53-1.5,4.59-3.24
		C308.02,45.89,308.37,43.9,308.36,41.83z"/>
	<path class="st0" d="M442.97,30.64c1.51-0.35,2.61-0.1,3.67,1.09c3.49,3.96,7.1,7.82,10.67,11.71c0.41,0.45,0.84,0.88,1.26,1.32
		c0.1-0.04,0.19-0.07,0.29-0.11c0-4.67,0-9.32,0-14.08c1.28,0,2.37,0,3.56,0c0,7.53,0,15.02,0,22.55c-1.3,0.23-2.28,0.16-3.25-0.96
		c-3.87-4.47-7.85-8.84-11.78-13.25c-0.18-0.21-0.32-0.46-0.66-0.62c-0.3,4.99-0.18,9.88-0.26,14.86c-1.24,0-2.32,0-3.5,0
		C442.97,45.6,442.97,38.12,442.97,30.64z"/>
	<path class="st0" d="M316.27,30.63c1.5-0.34,2.6-0.1,3.66,1.1c3.56,4.03,7.24,7.96,10.88,11.91c0.35,0.38,0.73,0.76,1.34,1.4
		c0.08-1.82,0.03-3.34,0.04-4.85c0.01-1.6,0-3.2,0-4.79c0-1.54,0-3.09,0-4.6c1.13-0.38,2.04-0.4,3.51-0.1c0,7.46,0,14.93,0,22.4
		c-1.44,0.41-2.4,0.03-3.36-1.07c-3.71-4.29-7.53-8.48-11.3-12.7c-0.31-0.35-0.65-0.69-1.24-1.31c0,5.25,0,10.15,0,15.14
		c-1.27,0-2.36,0-3.53,0C316.27,45.63,316.27,38.2,316.27,30.63z"/>
	<path class="st0" d="M397.37,30.3c3.3-0.13,6.4-0.38,9.48,0.06c2.88,0.41,4.9,2.36,5.46,5.11c0.55,2.7-0.52,5.14-2.97,6.71
		c-0.48,0.31-0.98,0.59-1.65,0.99c1.41,1.68,2.76,3.29,4.11,4.91c1.33,1.59,2.65,3.18,4.2,5.04c-1.96,0-3.6,0.06-5.22-0.04
		c-0.38-0.02-0.79-0.5-1.09-0.85c-2.1-2.54-4.18-5.1-6.25-7.66c-0.42-0.51-0.82-0.98-1.73-0.58c0,2.96,0,5.99,0,9.11
		c-1.52,0.26-2.88,0.17-4.35,0.07C397.37,45.55,397.37,38.01,397.37,30.3z M401.76,33.27c0,2.58,0,5.02,0,7.51
		c1.59,0.44,3.04,0.24,4.38-0.54c1.38-0.8,1.97-2.08,1.8-3.67c-0.17-1.54-1.01-2.57-2.47-3.08
		C404.31,33.08,403.12,33.09,401.76,33.27z"/>
	<path class="st0" d="M386.22,30.13c3.26,7.63,6.51,15.23,9.83,22.99c-1.82,0.24-3.48,0.11-5.21,0.1c-0.81-2.12-1.61-4.18-2.42-6.27
		c-2.69,0-5.3,0-8.07,0c-0.74,2.05-1.49,4.13-2.24,6.22c-1.33,0-2.61,0-4.09,0c0.25-0.6,0.44-1.09,0.65-1.55
		c3-6.72,5.99-13.45,9-20.16C384.33,29.98,384.33,29.98,386.22,30.13z M387.19,43.71c-0.95-2.19-1.8-4.14-2.64-6.1
		c-0.1,0.01-0.21,0.02-0.31,0.02c-0.82,1.98-1.65,3.96-2.52,6.07C383.58,43.71,385.25,43.71,387.19,43.71z"/>
	<path class="st0" d="M244.91,30.1c0.73,0,1.29,0,1.95,0c3.27,7.65,6.53,15.28,9.86,23.06c-1.89,0-3.51,0-5.24,0
		c-0.8-2.05-1.6-4.11-2.4-6.21c-2.68,0-5.29,0-8.07,0c-0.73,2.02-1.48,4.1-2.24,6.22c-1.33,0-2.62,0-4.13,0
		C238.07,45.41,241.48,37.79,244.91,30.1z M245.31,37.66c-0.12,0.01-0.23,0.01-0.35,0.02c-0.81,1.97-1.62,3.95-2.48,6.03
		c1.88,0,3.54,0,5.43,0C247.01,41.58,246.16,39.62,245.31,37.66z"/>
	<path class="st0" d="M256.96,46.79c1.42-0.37,2.07,0.02,2.67,1.13c1.55,2.86,4.42,2.92,6.39,2.13c1.17-0.46,1.9-1.32,1.97-2.63
		c0.06-1.29-0.48-2.28-1.63-2.84c-0.86-0.43-1.79-0.74-2.68-1.12c-0.93-0.39-1.91-0.72-2.8-1.21c-2.21-1.22-3.75-2.98-3.64-5.67
		c0.11-2.8,1.73-4.67,4.12-5.9c1.94-0.99,4.03-1.01,6.11-0.57c1.08,0.23,2.12,0.65,3.21,1c0,1.46,0,2.8,0,4.27
		c-0.47,0.04-0.93,0.08-1.43,0.12c-0.3-0.42-0.55-0.82-0.86-1.18c-1.37-1.65-3.99-1.87-5.63-0.5c-1.46,1.21-1.45,3.07,0.08,4.21
		c0.58,0.42,1.25,0.73,1.93,1.01c1.21,0.51,2.42,0.99,3.64,1.45c4.41,1.65,5.63,7.66,1.56,11.06c-3.15,2.62-8.91,2.98-12.34,0.76
		c-0.29-0.19-0.64-0.56-0.65-0.85C256.92,49.89,256.96,48.35,256.96,46.79z"/>
	<path class="st0" d="M290.1,30.65c0,1.23,0,2.38,0,3.64c-2.21-0.16-4.35-0.31-6.69-0.48c0,6.54,0,12.9,0,19.35
		c-1.53,0-2.88,0-4.41,0c-0.09-1.57-0.03-3.16-0.04-4.73c-0.01-1.6,0-3.2,0-4.79c0-1.6,0-3.2,0-4.79c0-1.59,0-3.18,0-4.95
		c-2.37-0.09-4.62,0.22-6.95,0.32c0-1.19,0-2.33,0-3.47C273.03,30.44,288.03,30.34,290.1,30.65z"/>
	<path class="st0" d="M420.43,33.82c-2.43,0.13-4.63,0.25-6.94,0.38c0-1.17,0-2.36,0-3.62c6.01,0,11.94,0,17.97,0
		c0.28,1.24,0.21,2.45,0.06,3.73c-2.19-0.16-4.3-0.32-6.61-0.49c0,6.53,0,12.89,0,19.34c-1.53,0-2.87,0-4.37,0
		c-0.21-1.54-0.07-3.12-0.1-4.7c-0.02-1.6-0.01-3.2-0.01-4.79s0-3.2,0-4.79C420.44,37.27,420.43,35.68,420.43,33.82z"/>
	<path class="st0" d="M433.9,30.57c1.48,0,2.87,0,4.24,0c0.3,1.05,0.38,20.64,0.09,22.57c-1.41,0-2.83,0-4.34,0
		C433.9,45.64,433.9,38.2,433.9,30.57z"/>
</g>
</svg>
