<?xml version="1.0" encoding="utf-8"?>
<!-- Generator: Adobe Illustrator 24.0.2, SVG Export Plug-In . SVG Version: 6.00 Build 0)  -->
<svg version="1.1" id="Capa_1" xmlns="http://www.w3.org/2000/svg" xmlns:xlink="http://www.w3.org/1999/xlink" x="0px" y="0px"
	 viewBox="0 0 700 125" style="enable-background:new 0 0 700 125;" xml:space="preserve">
<style type="text/css">
	.st0{fill:#FFFFFF;}
</style>
<g>
	<path class="st0" d="M412.57,58.84c0,2.34,0,4.67,0,7.01c-0.42,2.97-0.7,5.96-1.27,8.9c-6.67,34.3-41.46,56.7-75.44,48.6
		c-33.13-7.9-53.7-39.81-47.23-73.27c4.7-24.27,24.56-44.15,48.83-48.82c2.81-0.54,5.68-0.84,8.52-1.25c2.67,0,5.34,0,8.01,0
		c1.81,0.24,3.63,0.45,5.44,0.71c25.28,3.67,46.24,23.18,51.62,48.14C411.74,52.14,412.06,55.51,412.57,58.84z M313.16,47.22
		c-0.16,0.32-0.32,0.64-0.49,0.96c-0.67,2.52-1.34,5.04-2.02,7.55c-0.03,0.35-0.07,0.69-0.1,1.04c-0.13,0.34-0.33,0.68-0.37,1.03
		c-0.46,3.96-0.31,7.9,0.41,11.82c3.89,21.19,24.03,35.59,45.25,32.34c22.48-3.45,37.74-24.59,33.42-46.79
		c-2.98-15.3-12.1-25.84-26.92-30.6c-15.28-4.9-29.03-1.38-40.75,9.67c-0.77,0.73-1.34,1.66-2,2.5c-1.39,1.89-2.78,3.79-4.17,5.68
		C314.67,44.02,313.92,45.62,313.16,47.22z M387.18,41.27c4.99-2.43,9.95-4.84,15.01-7.29c-0.91-1.13-1.71-2.13-2.55-3.18
		c-3.04,1.52-6.04,3.01-9.04,4.5c-0.05-0.06-0.1-0.12-0.16-0.18c1.97-2.8,3.95-5.61,5.94-8.44c-0.94-1.16-1.83-2.25-2.77-3.4
		c-3.18,1.37-6.32,2.73-9.46,4.08c-0.04-0.07-0.09-0.14-0.13-0.22c2.02-2.64,4.05-5.28,6.13-7.99c-0.85-1.06-1.67-2.08-2.56-3.18
		c-3.47,4.48-6.85,8.85-10.29,13.29c0.83,1.01,1.65,1.95,2.39,2.95c0.43,0.59,0.83,0.63,1.47,0.35c2.56-1.1,5.15-2.15,7.72-3.21
		c0.31-0.13,0.63-0.21,1.22-0.39c-1.91,2.81-3.63,5.37-5.39,7.9c-0.39,0.56-0.51,0.94,0.01,1.5
		C385.58,39.25,386.33,40.24,387.18,41.27z M311.84,41.01c0.21-0.19,0.35-0.28,0.45-0.4c2.73-3.2,5.47-6.39,8.16-9.63
		c0.55-0.66,0.99-1.46,1.28-2.26c0.97-2.72-0.96-5.46-3.83-5.47c-0.8,0-1.59,0.22-2.39,0.34c-0.01-2.4-1.13-4.42-2.94-5.02
		c-2.21-0.74-3.61,0.66-4.95,2.07c-0.14,0.15-0.27,0.32-0.4,0.48c-1.72,2.04-3.44,4.08-5.15,6.12c-0.85,1.01-1.69,2.03-2.59,3.11
		C303.63,33.93,307.69,37.43,311.84,41.01z M359.5,19.74c0-5.46,0-10.81,0-16.24c-1.34,0-2.59,0.05-3.83-0.02
		c-0.78-0.05-1.09,0.27-1.34,0.95c-1.17,3.12-2.4,6.21-3.61,9.32c-0.14,0.35-0.3,0.69-0.56,1.29c-1.39-3.76-2.66-7.2-3.96-10.62
		c-0.13-0.34-0.43-0.86-0.67-0.87c-1.56-0.08-3.12-0.04-4.69-0.04c0,5.51,0,10.83,0,16.21c1.09,0,2.12,0,3.32,0
		c0-3.56,0-7.09,0-10.63c0.09-0.01,0.18-0.02,0.27-0.03c1.35,3.56,2.7,7.13,4.06,10.72c0.91,0,1.74-0.06,2.57,0.02
		c0.8,0.07,1.16-0.22,1.43-0.98c1.05-2.94,2.18-5.85,3.28-8.77c0.14-0.36,0.31-0.7,0.47-1.05c0.09,0.02,0.19,0.05,0.28,0.07
		c0,3.55,0,7.1,0,10.67C357.58,19.74,358.48,19.74,359.5,19.74z"/>
	<path class="st0" d="M319.6,36.74c2.69-2.35,5.2-4.95,8.1-7c6.28-4.43,13.37-6.61,21.08-6.76c0.32-0.01,0.64,0,1.11,0
		c0,0.61,0,1.1,0,1.59c0,12.09,0,24.17,0.01,36.26c0,0.49,0.07,0.99,0.11,1.48l0.04-0.04c-0.42,0.03-0.83,0.07-1.25,0.07
		c-12.46,0.01-24.93,0-37.39,0c-0.36,0-0.73-0.04-1.28-0.07c0.15-1.89,0.29-3.7,0.44-5.5c0.03-0.35,0.07-0.69,0.1-1.04
		c0.14-0.5,0.29-1.01,0.42-1.51c0.53-2.01,1.07-4.03,1.6-6.04c0.16-0.32,0.32-0.64,0.49-0.96c0.76-1.6,1.51-3.2,2.27-4.79
		C316.82,40.53,318.21,38.64,319.6,36.74z"/>
	<path class="st0" d="M350,62.31c0.5,0.02,1,0.06,1.5,0.07c12.14,0,24.28,0,36.42,0c0.49,0,0.99,0,1.67,0
		c-0.12,9.9-3.26,18.56-9.68,25.93c-7.84,9.01-17.85,13.5-29.9,13.82c-0.03-0.52-0.08-0.92-0.08-1.32c0-12.43-0.01-24.86,0-37.29
		c0-0.41,0.07-0.83,0.11-1.24C350.04,62.27,350,62.31,350,62.31z"/>
	<path class="st0" d="M309.23,33.35c1.82-2.12,3.5-4.13,5.24-6.09c0.82-0.92,2.01-0.94,2.9-0.15c0.88,0.78,1.07,2.01,0.32,2.92
		c-1.64,1.99-3.35,3.93-5.12,6C311.46,35.14,310.41,34.29,309.23,33.35z"/>
	<path class="st0" d="M307.42,31.51c-1.1-0.86-2.04-1.6-3.14-2.46c1.69-2.04,3.27-4.11,5.03-6c0.74-0.79,1.81-0.43,2.58,0.28
		c0.78,0.72,0.94,1.65,0.3,2.47C310.68,27.71,309.06,29.55,307.42,31.51z"/>
</g>
</svg>
