<?xml version="1.0" encoding="utf-8"?>
<!-- Generator: Adobe Illustrator 24.0.2, SVG Export Plug-In . SVG Version: 6.00 Build 0)  -->
<svg version="1.1" id="Capa_1" xmlns="http://www.w3.org/2000/svg" xmlns:xlink="http://www.w3.org/1999/xlink" x="0px" y="0px"
	 viewBox="0 0 700 700" style="enable-background:new 0 0 700 700;" xml:space="preserve">
<style type="text/css">
	.st0{fill:#FFFFFF;}
</style>
<path class="st0" d="M217.65,365.56c-72.25,0-142.58,0-214.68,0c1.81-4.55,2.9-7.86,4.4-10.97c18.58-38.59,37.39-77.07,55.66-115.8
	c2.75-5.84,6.37-6.71,11.81-6.7c43.14,0.11,86.27,0.06,129.41,0.06c3.97,0,7.93,0,13.06,0c0-13.85,0-26.52,0-39.87
	c80.53,0,159.88,0,240.96,0c0,9.49,0.56,18.84-0.16,28.09c-0.7,9.14,2.14,12.06,11.65,12c63.35-0.42,126.71-0.22,190.07-0.22
	c4,0,8,0,13.81,0c-2.06,4.56-3.39,7.8-4.96,10.92c-19.07,37.98-38.35,75.85-57.09,113.99c-3.18,6.48-6.93,8.59-13.91,8.54
	c-43.13-0.28-86.27,0.06-129.41-0.32c-8.15-0.07-10.59,2.55-10.14,10.41c0.58,10.09,0.14,20.24,0.14,31.37
	c-80.24,0-159.85,0-240.62,0C217.65,393.75,217.65,380.39,217.65,365.56z M66.62,324.67c63.87,0,126.02,0,189.01,0
	c0,13.84,0,26.58,0,39.68c56.15,0,111.45,0,167.63,0c0-13.64,0-26.35,0-40.02c4.48,0,8.12,0,11.75,0c45.18,0,90.36,0.06,135.53-0.12
	c3.34-0.01,8.48-0.76,9.71-2.93c9.08-15.99,17.38-32.43,26.83-50.47c-62.62,0-123.11,0-184.43,0c0-13.18,0-25.24,0-37.85
	c-55.93,0-111.01,0-167.31,0c0,12.88,0,25.19,0,38.32c-4.85,0-8.49,0-12.13,0c-47.54,0-95.08-0.1-142.61,0.2
	c-3.64,0.02-9.16,1.85-10.58,4.55C82.02,291.2,75.02,306.9,66.62,324.67z"/>
</svg>
