<?xml version="1.0" encoding="utf-8"?>
<!-- Generator: Adobe Illustrator 24.0.2, SVG Export Plug-In . SVG Version: 6.00 Build 0)  -->
<svg version="1.1" id="Capa_1" xmlns="http://www.w3.org/2000/svg" xmlns:xlink="http://www.w3.org/1999/xlink" x="0px" y="0px"
	 viewBox="0 0 700 125" style="enable-background:new 0 0 700 125;" xml:space="preserve">
<style type="text/css">
	.st0{fill:#FFFFFF;}
</style>
<g>
	<path class="st0" d="M279.78,100.85c-42.05,0-82.98,0-124.94,0c1.05-2.65,1.69-4.57,2.56-6.38c10.81-22.46,21.76-44.85,32.39-67.39
		c1.6-3.4,3.71-3.91,6.87-3.9c25.11,0.06,50.21,0.03,75.32,0.03c2.31,0,4.62,0,7.6,0c0-8.06,0-15.43,0-23.2
		c46.87,0,93.05,0,140.24,0c0,5.52,0.33,10.96-0.09,16.35c-0.41,5.32,1.25,7.02,6.78,6.98c36.87-0.24,73.74-0.13,110.62-0.13
		c2.33,0,4.66,0,8.04,0c-1.2,2.65-1.97,4.54-2.89,6.36c-11.1,22.1-22.32,44.14-33.23,66.34c-1.85,3.77-4.03,5-8.1,4.97
		c-25.1-0.16-50.21,0.03-75.32-0.19c-4.74-0.04-6.16,1.48-5.9,6.06c0.34,5.87,0.08,11.78,0.08,18.26c-46.7,0-93.03,0-140.04,0
		C279.78,117.25,279.78,109.48,279.78,100.85z M191.88,77.05c37.17,0,73.34,0,110,0c0,8.05,0,15.47,0,23.09c32.68,0,64.86,0,97.56,0
		c0-7.94,0-15.34,0-23.29c2.61,0,4.73,0,6.84,0c26.29,0,52.59,0.03,78.88-0.07c1.94-0.01,4.94-0.44,5.65-1.71
		c5.28-9.31,10.11-18.87,15.61-29.37c-36.44,0-71.65,0-107.34,0c0-7.67,0-14.69,0-22.03c-32.55,0-64.61,0-97.37,0
		c0,7.5,0,14.66,0,22.3c-2.82,0-4.94,0-7.06,0c-27.67,0-55.34-0.06-83,0.12c-2.12,0.01-5.33,1.08-6.16,2.65
		C200.84,57.57,196.77,66.71,191.88,77.05z"/>
</g>
</svg>
