<?xml version="1.0" encoding="utf-8"?>
<!-- Generator: Adobe Illustrator 24.0.2, SVG Export Plug-In . SVG Version: 6.00 Build 0)  -->
<svg version="1.1" id="Capa_1" xmlns="http://www.w3.org/2000/svg" xmlns:xlink="http://www.w3.org/1999/xlink" x="0px" y="0px"
	 viewBox="0 0 700 125" style="enable-background:new 0 0 700 125;" xml:space="preserve">
<style type="text/css">
	.st0{fill:#FFFFFF;}
</style>
<g>
	<path class="st0" d="M347.17,0c1.03,1.11,1.95,2.35,3.13,3.27c0.57,0.45,1.6,0.29,2.53,0.43c-0.38-0.45-0.95-0.84-0.89-1.1
		c0.15-0.75,0.53-1.47,0.89-2.16c0.05-0.09,0.63-0.07,0.78,0.08c0.64,0.68,1.3,1.38,1.79,2.16c0.38,0.61,0.46,1.34-0.51,1.58
		c0.58,0.52,1.1,1.06,1.69,1.48c0.31,0.22,0.76,0.35,1.15,0.36c1.52,0.04,3.05-0.02,4.57,0.02c0.43,0.01,0.86,0.22,1.29,0.34
		c0.03,0.13,0.05,0.27,0.08,0.4c-1.4,0.58-2.81,1.16-4.21,1.73c0,0.13-0.01,0.27-0.01,0.4c1.89,0.25,3.09,1.49,4.41,2.64
		c0.87,0.75,2.22,0.92,3.18,1.6c0.76,0.54,1.28,1.44,1.87,2.2c0.09,0.12,0.03,0.35,0.04,0.53c-0.21,0.01-0.42,0.03-0.62,0.01
		c-0.1-0.01-0.23-0.1-0.29-0.19c-1.01-1.4-2.51-1.57-4.07-1.84c-1.3-0.22-2.53-0.88-4.14-1.47c0.37,0.45,0.49,0.66,0.67,0.8
		c0.46,0.36,1.09,0.59,1.4,1.04c1,1.47,2.37,1.76,4.04,1.77c1.82,0.01,3.14,1.1,4.04,2.74c-0.23-0.08-0.52-0.09-0.68-0.25
		c-1.1-0.99-2.39-1.01-3.75-0.89c-0.94,0.09-1.9,0.02-2.94,0.02c1.73,1.64,4.05,2.28,6.32,3.22c-0.95,1.03-1.9,0.56-2.83,0.29
		c-1.8-0.53-3.61-1.06-5.33-1.56c2.26,2.98,4.57,6.03,6.99,9.21c-0.18,0.05-0.48,0.23-0.64,0.15c-0.66-0.33-1.3-0.71-1.9-1.14
		c-1.74-1.24-3.45-2.51-5.17-3.77c-0.08,0.09-0.15,0.19-0.23,0.28c0.72,0.58,1.41,1.21,2.18,1.71c1.16,0.77,2.41,1.39,2.91,2.88
		c0.32,0.94,1.09,1.47,2.15,1.55c0.47,0.04,0.92,0.31,1.38,0.48c0.01,0.11,0.01,0.22,0.02,0.33c-0.35,0.14-0.72,0.43-1.06,0.4
		c-1.25-0.11-2.45-0.13-3.52-1.19c-1.06-1.05-2.65-1.17-4.1-1.34c-0.04,0.1-0.07,0.2-0.11,0.3c2.57,2.25,5.14,4.51,7.72,6.77
		c-0.71,0.69-1.54,0.56-2.2-0.39c-0.91-1.32-2.42-0.95-3.55-1.62c-0.05,0.08-0.1,0.17-0.14,0.25c0.31,0.36,0.61,0.71,0.92,1.07
		c-0.04,0.1-0.09,0.2-0.13,0.3c-0.93-0.3-1.86-0.6-2.78-0.91c0.68,1.74,2.46,1.15,3.62,1.91c1.12,0.74,2.43,1.19,3.86,1.86
		c-0.34,0.18-0.76,0.61-1.11,0.55c-1.13-0.18-2.24-0.5-3.34-0.85c-0.93-0.3-1.82-0.92-2.87,0.01c2.39-0.2,3.83,1.49,5.67,2.68
		c-2.68-0.17-5.25-0.33-7.82-0.49c-0.04,0.16-0.08,0.32-0.12,0.48c0.84,0.29,1.71,0.52,2.52,0.89c0.83,0.37,1.74,0.73,2.37,1.34
		c1.9,1.85,3.14,2.04,5.47,0.58c0.09-0.05,0.21-0.06,0.33-0.09c-0.31,1.09-2.18,2.16-3.69,1.98c-0.99-0.12-1.95-0.47-2.91-0.77
		c-1.69-0.52-3.37-1.08-5.05-1.63c-0.05,0.12-0.1,0.23-0.15,0.35c1.12,0.52,2.29,0.97,3.35,1.59c1.04,0.61,1.97,1.4,2.95,2.1
		c-0.1,0.18-0.2,0.36-0.3,0.54c-1.42-0.62-2.85-1.25-4.27-1.88c-0.06,0.14-0.12,0.28-0.18,0.42c0.3,0.12,0.65,0.19,0.9,0.39
		c0.87,0.69,1.73,1.39,2.54,2.15c0.52,0.48,0.95,1.06,1.61,1.79c-0.62-0.17-1.23-0.21-1.72-0.49c-0.85-0.48-1.56-1.22-2.43-1.64
		c-0.84-0.41-1.83-0.5-2.72-0.83c-0.91-0.34-1.77-0.79-2.94-1.32c-0.04,0.82-0.28,1.65-0.08,2.34c1.23,4.3,3.71,7.85,7.06,10.72
		c2.76,2.36,5.82,4.38,8.62,6.69c3.06,2.54,5.77,5.41,7.23,9.24c0.19,0.5,1.84,0.75,2.66,0.3c4.95-2.68,7.58-5.93,7.09-11.93
		c-0.35-4.29-1.67-8.36-2.78-12.47c-1.16-4.29,0.11-7.99,2.98-11.16c1.14-1.26,2.64-2.18,4-3.23c0.17-0.13,0.41-0.15,0.83,0
		c-0.35,0.34-0.67,0.71-1.04,1.03c-2.71,2.35-4.22,5.28-4.38,8.89c-0.02,0.45,0.06,0.91,0.13,1.74c1.38-1.45,2.56-2.64,3.67-3.89
		c1.11-1.26,2.15-2.59,3.39-4.09c-0.16,0.93-0.11,1.88-0.49,2.61c-0.9,1.73-1.97,3.38-3.02,5.03c-0.94,1.49-0.98,3.11-0.76,4.76
		c0.04,0.33,0.49,0.61,0.76,0.91c0.24-0.22,0.52-0.4,0.71-0.66c0.99-1.3,1.96-2.61,2.92-3.94c0.27-0.37,0.45-0.79,0.71-1.24
		c0.7,0.16,0.82,0.68,0.62,1.31c-0.14,0.44-0.31,0.91-0.58,1.28c-2.43,3.24-2.45,6.8-1.57,10.54c0.59,2.52,0.87,5.07,0.64,7.69
		c-0.35,3.99-3.14,7.74-6.93,9.08c-0.28,0.1-0.55,0.24-1.04,0.47c1.98,1.96,1.59,4.25,1.34,6.58c-0.12,1.13,0.12,2.3,0.22,3.69
		c-0.32-0.29-0.59-0.42-0.65-0.61c-0.43-1.41-0.78-2.84-1.22-4.25c-0.35-1.14-0.75-2.27-1.21-3.36c-0.13-0.32-0.57-0.51-1.14-0.99
		c0.08,0.55,0.04,0.77,0.13,0.88c1.62,1.99,1.19,4.24,0.91,6.51c-0.31,2.55-2.02,4.36-3.14,6.49c-0.28,0.54-0.33,1.19-0.52,1.78
		c-0.09,0.29-0.26,0.56-0.4,0.83c-0.23-0.21-0.65-0.42-0.66-0.64c-0.04-0.96-0.13-1.97,0.12-2.88c0.32-1.16,0.96-2.22,1.42-3.34
		c0.7-1.7,1.02-3.44,0.41-5.24c-0.06-0.17-0.18-0.32-0.28-0.47c-0.12,0-0.23-0.01-0.35-0.02c-0.32,2.07-0.63,4.14-1,6.52
		c-0.24-0.58-0.55-0.99-0.57-1.42c-0.07-1.41-0.02-2.82-0.05-4.23c-0.02-0.93-0.05-1.87-0.21-2.79c-0.05-0.32-0.5-0.58-0.76-0.87
		c-0.22,0.33-0.63,0.67-0.62,1c0.05,2.39-0.91,4.44-2.08,6.4c-1.9,3.18-4.54,5.68-7.57,7.75c-1.95,1.33-2.6,4.67-1.14,6.56
		c0.91,1.18,1.48,2.42,1.6,3.95c0.09,1.16-0.44,1.68-1.25,2.25c-1.53,1.08-3.03,2.2-4.47,3.39c-1.09,0.9-1.55,2.43-3.01,2.99
		c-0.19,0.07-0.22,0.54-0.33,0.82c-0.66,1.65-1.4,3.22-3.32,3.77c0.35,2.19-0.13,3-2.44,4.32c-1.22,0.7-2.47,1.06-3.9,0.98
		c-1.07-0.06-1.44-0.6-1.29-1.5c0.26-1.64,0.83-3.16,1.97-4.45c1.11-1.26,2.12-2.6,3.19-3.88c0.27-0.33,0.58-0.75,0.95-0.84
		c1.58-0.38,2.49-1.6,3.45-2.71c1.31-1.51,2.51-3.11,3.76-4.66c0.75-0.94,0.71-1.76-0.09-2.72c-2.54-3.05-4.29-6.56-5.27-10.39
		c-0.81-3.15-0.26-6.22,1.58-8.99c1.03-1.55,1.86-3.12,1.75-5.12c-0.04-0.81,0.54-1.66,0.68-2.72c-0.33,0.31-0.76,0.56-0.97,0.93
		c-0.19,0.35-0.09,0.85-0.21,1.26c-0.46,1.63-0.85,3.29-1.48,4.86c-0.28,0.68-0.91,1.39-1.95,1.18c-1.08-0.22-2.29-1.13-2.39-2.15
		c-0.19-1.85-1.33-3.13-2.64-4.13c-2.35-1.81-4.77-3.59-7.36-5c-4.02-2.18-7.21-5.23-10.08-8.67c-0.61-0.73-0.86-1.77-1.27-2.67
		c0.1-0.08,0.21-0.15,0.31-0.23c-0.62,0-1.24-0.07-1.85,0.01c-1.61,0.21-2.99-0.38-4.34-1.13c-0.17-0.09-0.44-0.23-0.45-0.35
		c-0.02-1.21-1.07-1.31-1.81-1.71c-2.05-1.12-4.12-2.22-6.2-3.27c-0.29-0.15-0.9-0.18-1.05-0.01c-0.38,0.44-0.7,1.01-0.83,1.57
		c-0.1,0.46,0.05,1.02,0.2,1.5c0.66,2.16,1.32,4.33,2.05,6.47c0.21,0.61,0.65,1.14,0.99,1.7c0.14,0.23,0.44,0.48,0.41,0.67
		c-0.27,1.3,0.64,1.52,1.54,1.89c1.19,0.5,1.9,1.44,2.13,2.74c0.26,1.49,0.35,2.92-0.43,4.32c-0.5,0.91-1.23,1.14-1.89,0.52
		c-1.15-1.07-2.16-2.31-3.15-3.53c-0.89-1.11-1.69-2.29-2.51-3.45c-0.28-0.41-0.62-0.83-0.73-1.29c-1.02-4.38-1.95-8.78-3-13.15
		c-0.45-1.9,0.1-3.49,1.14-4.97c0.83-1.18,1.96-1.85,3.53-1.61c2.16,0.34,4.33,0.59,6.5,0.87c0.21,0.03,0.42,0,0.87,0
		c-0.31-0.35-0.45-0.54-0.63-0.71c-1.29-1.23-2.59-2.45-3.88-3.69c-0.22-0.21-0.32-0.58-0.57-0.74c-0.59-0.39-1.23-0.7-1.86-1.03
		c-0.23,0.58-0.57,1.15-0.67,1.76c-0.29,1.73-0.97,3.05-2.77,3.7c-0.58,0.21-1.1,0.9-1.4,1.49c-0.9,1.74-1.36,3.58-0.79,5.56
		c0.26,0.9,0.37,1.86,0.71,2.72c0.58,1.46,0.21,2.66-0.71,3.8c-0.27,0.33-0.5,0.7-0.79,1.03c-1.32,1.49-1.72,1.44-2.6-0.31
		c0-0.94,0-1.88,0-2.82c0.08-0.57,0.2-1.13,0.24-1.7c0.09-1.24-0.06-2.54,0.26-3.72c0.73-2.66,1.72-5.24,2.53-7.88
		c0.83-2.71,1.69-5.42,2.31-8.19c0.62-2.76,4.83-4.12,7.08-2.09c2.35,2.11,5.2,3.3,7.83,4.9c0.97,0.59,1.9,0.35,2.4-0.4
		c0.91-1.36,2.34-1.9,3.56-2.78c1-0.72,1.91-1.59,2.74-2.5c0.68-0.75,1.04-1.83,1.79-2.49c3.67-3.24,6.05-7.22,7.26-11.94
		c0.45-1.76,0.08-2.13-1.71-2.22c-1.42-0.06-2.82-0.41-4.23-0.62c-1.27-0.19-2.5-0.37-3.77,0.21c-0.85,0.38-1.87,0.45-2.83,0.53
		c-0.31,0.03-0.65-0.37-0.98-0.56c0.26-0.23,0.49-0.54,0.8-0.68c0.56-0.27,1.18-0.42,1.75-0.67c0.22-0.1,0.36-0.36,0.53-0.55
		c-0.06-0.09-0.12-0.18-0.18-0.27c-0.36,0.09-0.72,0.17-1.07,0.29c-0.67,0.22-1.32,0.5-2,0.67c-1.39,0.35-2.06-0.14-1.98-1.53
		c0.04-0.7,0.27-1.42,0.56-2.07c0.35-0.78,0.99-1.44,1.26-2.24c0.3-0.89,0.82-1.16,1.66-1.09c1.37,0.12,2.63-0.2,3.8-0.94
		c0.56-0.35,1.16-0.63,1.73-0.97c1.6-0.95,3.18-1.92,4.95-2.99c-1.77-0.77-3.33-1.64-5.24-1.11c-0.36,0.1-0.78-0.04-1.18-0.07
		c0.01-0.15,0.01-0.31,0.02-0.46c1.17-0.24,2.35-0.48,3.86-0.79c-0.74-0.19-1.15-0.29-1.55-0.4c-0.08-0.12-0.15-0.23-0.22-0.35
		c0.18-0.06,0.36-0.15,0.54-0.16c0.96-0.06,1.94-0.24,2.89-0.12c1.31,0.15,2.58,0.6,3.88,0.78c0.78,0.11,1.22-0.21,0.68-1.12
		c-0.19-0.32-0.11-0.88,0.01-1.28c0.14-0.47,0.45-0.9,0.69-1.34C346.86,0,347.01,0,347.17,0z M387.82,61.08c0,0.32-0.01,0.64,0,0.96
		c0.06,1.68,0.25,3.36,0.15,5.03c-0.13,2.38-1.55,4.2-2.91,6.04c-0.42,0.57-0.7,1.25-1.05,1.88
		C388.15,73.78,390.79,66.82,387.82,61.08z M345.57,73.98c0.06-0.07,0.12-0.14,0.18-0.21c-0.1-0.14-0.18-0.31-0.31-0.43
		c-2.67-2.63-5.33-5.26-8.03-7.86c-0.35-0.34-0.86-0.51-1.29-0.76c-0.13,0.1-0.25,0.2-0.38,0.3c0.22,0.61,0.29,1.37,0.7,1.81
		c1.12,1.19,2.33,2.32,3.63,3.31C341.84,71.49,343.73,72.7,345.57,73.98z M357.41,60.37c-0.53-0.71-0.9-1.15-1.21-1.63
		c-1.59-2.43-3.69-4.57-4.23-7.6c-0.08-0.46-0.6-0.84-0.91-1.26c-0.12,0.5-0.42,1.04-0.33,1.49c0.73,3.58,2.95,6.22,5.58,8.57
		C356.51,60.12,356.85,60.16,357.41,60.37z M347.39,24.7c-1.07,0.37-5.19,7.24-5.57,9.19C343.75,33.55,347.53,27.39,347.39,24.7z
		 M342.8,40.24c-0.39-1.17-1.37-1.39-2.39-1.43c-1.81-0.08-3.51,0.26-5.26,1.43C337.89,40.24,340.28,40.24,342.8,40.24z
		 M323.88,50.98c1.85-0.17,3.49-3.5,2.95-5.62C325.1,46.89,325.63,49.41,323.88,50.98z M356.33,113.22c0.13,0.12,0.27,0.25,0.4,0.37
		c1.77-1.58,3.64-3.07,4.84-5.19c-0.11-0.11-0.22-0.21-0.33-0.32C359.6,109.79,357.96,111.5,356.33,113.22z M342.52,10.16
		c-0.18,0.17-0.55,0.55-0.93,0.92c0.72,0.45,1.43,0.93,2.19,1.3c0.13,0.06,0.7-0.37,0.73-0.6
		C344.61,10.86,343.85,10.16,342.52,10.16z M356.13,12.32c-0.04-0.1-0.07-0.2-0.11-0.29c-0.55,0.08-1.09,0.15-1.67,0.23
		c-0.08-0.33-0.16-0.6-0.27-1.01c-0.86,0.67-1.41,1.3-0.87,2.5C354.19,13.27,355.16,12.8,356.13,12.32z M358.13,86.48
		c-1.63,0.8-2.2,2.63-1.52,4.29C357.16,89.22,357.65,87.85,358.13,86.48z M311.5,45.63c0.96-0.87,1.49-2.64,1.09-3.65
		C311.46,42.89,311.02,44.38,311.5,45.63z M355.55,71.21c0.16,0.06,0.32,0.11,0.47,0.17c0.43-0.81,0.91-1.6,1.25-2.44
		c0.08-0.2-0.33-0.59-0.51-0.9c-0.25,0.2-0.65,0.36-0.72,0.61C355.82,69.48,355.71,70.35,355.55,71.21z M335.54,11.8
		c0.06,0.18,0.13,0.35,0.19,0.53c1.41-0.58,2.83-1.16,4.24-1.74c-0.07-0.18-0.14-0.37-0.21-0.55
		C338.22,10.28,336.9,11.09,335.54,11.8z M313.47,63.5c0.14-0.03,0.28-0.06,0.42-0.09c-0.36-1.53-0.73-3.05-1.09-4.58
		C312.15,60.56,312.62,62.07,313.47,63.5z M330.07,16.16c0.96-0.13,1.7-0.41,1.72-1.37c0-0.21-0.72-0.7-0.91-0.62
		C330.09,14.52,329.79,15.2,330.07,16.16z M350.02,18.2c-1.17,0.68-2.13,1.24-3.32,1.94C348.75,20.36,349.71,19.82,350.02,18.2z
		 M373.16,82.51c0.13,0,0.26,0.01,0.4,0.01c0.02-0.72,0.11-1.46,0.03-2.17c-0.02-0.2-0.58-0.33-0.89-0.48
		c-0.1,0.33-0.35,0.71-0.28,1C372.57,81.44,372.9,81.96,373.16,82.51z M346.7,45.16c-0.5-0.5-0.89-1.08-1.04-1.02
		c-0.41,0.16-0.71,0.58-1.06,0.9c0.35,0.28,0.66,0.67,1.05,0.8C345.84,45.91,346.2,45.5,346.7,45.16z M344.93,15.95
		c-0.86,0.58-1.72,1.16-2.8,1.88C343.96,18.03,344.33,17.79,344.93,15.95z M359.02,96.88c-0.26,0.07-0.52,0.14-0.78,0.21
		c0.33,1.03,0.67,2.05,1,3.07c0.14-0.04,0.29-0.09,0.43-0.13C359.46,98.98,359.24,97.93,359.02,96.88z M319.85,55.65
		c-0.05,0.1-0.09,0.21-0.14,0.31c0.96,0.53,1.68,1.58,2.94,1.47c0.07-0.15,0.14-0.3,0.21-0.45
		C321.85,56.53,320.85,56.09,319.85,55.65z M348.37,16.44c-0.69,0.66-1.23,1.18-1.99,1.92C348.02,18.26,348.48,17.81,348.37,16.44z
		 M349.02,122.3c0.13,0.1,0.26,0.21,0.39,0.31c0.87-0.14,1.17-0.72,1.16-1.56c-0.12-0.09-0.24-0.19-0.36-0.28
		C349.82,121.28,349.42,121.79,349.02,122.3z"/>
	<path class="st0" d="M330.52,94.42c1.63,0.25,3.13,0.54,4.63,0.7c0.87,0.09,1.77-0.07,2.65,0c0.8,0.06,1.66,0.14,2.38,0.46
		c3.16,1.39,6.5,1.68,9.87,1.78c0.52,0.02,1.04-0.33,1.57-0.5c-0.19-0.52-0.26-1.12-0.57-1.56c-3.45-4.88-6.13-10.1-7.29-16.01
		c-0.12-0.62-0.08-1.49,0.28-1.92c0.61-0.73,1.49-0.26,2.13,0.17c1.93,1.28,4.03,2.55,4.83,4.81c0.57,1.62,1.3,2.87,2.72,3.83
		c0.35,0.23,0.53,1.07,0.43,1.57c-0.79,4.08,0.06,7.86,2.02,11.44c0.56,1.03,0.85,1.95,0.2,3.08c-0.71,1.23-2.07,1.74-3.32,1.04
		c-3.2-1.79-6.71-2.55-10.29-3.01c-1.41-0.18-2.85-0.15-4.28-0.28c-0.42-0.04-0.82-0.32-1.24-0.43c-0.34-0.08-0.75-0.18-1.06-0.08
		c-2.95,0.95-5.73,0.81-8.17-1.28c-0.69-0.59-1.21-1.42-1.68-2.22c-0.11-0.19,0.26-0.94,0.5-1
		C328.07,94.72,329.34,94.59,330.52,94.42z M348.49,98.81c0.02-0.14,0.04-0.27,0.07-0.41c-2.19-0.38-4.37-0.76-6.56-1.14
		C344.03,98.45,346.23,98.76,348.49,98.81z"/>
</g>
</svg>
