<?xml version="1.0" encoding="utf-8"?>
<!-- Generator: Adobe Illustrator 24.0.2, SVG Export Plug-In . SVG Version: 6.00 Build 0)  -->
<svg version="1.1" id="Capa_1" xmlns="http://www.w3.org/2000/svg" xmlns:xlink="http://www.w3.org/1999/xlink" x="0px" y="0px"
	 viewBox="0 0 700 125" style="enable-background:new 0 0 700 125;" xml:space="preserve">
<style type="text/css">
	.st0{fill:#FFFFFF;}
</style>
<g>
	<path class="st0" d="M349.86,125c-13.8-0.89-27.61-1.76-41.4-2.71c-1.97-0.14-3.92-0.67-5.87-1.04
		c-12.78-2.4-20.98-9.78-23.69-22.5c-1.81-8.48-3.23-17.06-4.25-25.66c-1.6-13.62-2.18-27.32-1.06-41
		c1.49-18.27,9.18-26.9,27.5-29.24c13.79-1.76,27.76-2.69,41.66-2.82c16.1-0.15,32.21,0.84,48.3,1.65
		c4.69,0.23,9.42,1.18,13.99,2.35c13.27,3.39,19.92,11.66,21.24,26.03c1.46,15.97,0.55,31.9-1.39,47.76
		c-0.82,6.73-2.16,13.4-3.52,20.06c-2.9,14.18-12.05,22.04-26.11,23.78c-11.54,1.42-23.21,1.89-34.83,2.65
		c-3.49,0.23-7.01,0.03-10.52,0.03C349.89,124.55,349.87,124.78,349.86,125z M349.77,119.95c0.02-0.31,0.04-0.61,0.06-0.92
		c3.51,0,7.03,0.16,10.52-0.03c9.65-0.52,19.33-0.85,28.93-1.89c14.85-1.61,21.63-7.64,25.11-22.05c1.46-6.04,2.36-12.23,3.1-18.41
		c1.84-15.42,2.23-30.89,0.77-46.37c-0.74-7.85-3.43-14.75-10.76-18.89c-5.65-3.19-11.98-4.34-18.31-4.67
		c-16.09-0.82-32.21-1.81-48.31-1.69c-12.47,0.09-24.99,1.3-37.38,2.86c-12.07,1.53-20.09,7.7-21.41,21.47
		c-0.77,8.06-1.08,16.21-0.97,24.31c0.19,14.65,1.35,29.22,5.07,43.5c2.98,11.46,10.19,18.24,21.97,19.45
		C321.99,118.05,335.89,118.87,349.77,119.95z"/>
	<path class="st0" d="M314.66,10.44c1.58,7.08,3,13.9,4.64,20.67c2.36,9.81,4.74,19.63,7.36,29.38
		c4.5,16.71,12.81,16.86,24.54,16.82c14.73-0.04,19.01-4.65,22.5-17.97c4-15.24,7.44-30.62,10.98-45.98c0.52-2.26,1.22-3.07,3.7-2.9
		c7.68,0.51,7.78,0.4,7.28,7.84c-2.1,30.71-4.29,61.42-6.34,92.13c-0.19,2.83-0.87,4.28-4.08,4.15c-3.11-0.14-6.26,0.14-9.36,0.56
		c-2.08,0.28-2.58-0.65-3.05-2.33c-1.62-5.81-3.34-11.59-5.1-17.37c-1.78-5.85-5.72-8.95-11.96-8.92c-4.35,0.02-8.7-0.03-13.05,0.15
		c-4.75,0.2-8.14,2.63-9.65,7.1c-2.11,6.25-3.97,12.58-5.8,18.93c-0.51,1.79-1.03,2.74-3.22,2.45c-3.38-0.44-6.8-0.58-10.21-0.63
		c-2.07-0.03-2.75-0.87-2.89-2.85c-0.77-10.74-1.72-21.46-2.47-32.2c-1.52-21.85-2.92-43.72-4.45-65.57
		c-0.15-2.08,0.42-2.96,2.52-3.01C309.2,10.83,311.82,10.61,314.66,10.44z"/>
</g>
</svg>
