<?xml version="1.0" encoding="utf-8"?>
<!-- Generator: Adobe Illustrator 24.0.2, SVG Export Plug-In . SVG Version: 6.00 Build 0)  -->
<svg version="1.1" id="Capa_1" xmlns="http://www.w3.org/2000/svg" xmlns:xlink="http://www.w3.org/1999/xlink" x="0px" y="0px"
	 viewBox="0 0 700 700" style="enable-background:new 0 0 700 700;" xml:space="preserve">
<style type="text/css">
	.st0{fill:#FFFFFF;}
</style>
<g>
	<g>
		<path class="st0" d="M175.48,314.6l12.76,24.75h20.11l-16.31-30.49l27.36-27.13h-18.86l-23.84,23.47l2.82-23.48h-17.81
			l-6.87,57.63h17.66L175.48,314.6z M236.11,306.46c0.12-1.6,0.82-6.34,6.87-6.34h6.4c0,0-0.59,5.67-0.94,7.96l-1.98,16.03
			c-0.32,2.32-0.97,6.8-7.13,6.8h-6.49L236.11,306.46z M226.16,339.33h24c8.39,0,12.56-3.25,13.5-10.57l3.11-25.39
			c0.43-3.63-0.04-6.16-1.46-7.76c-1.53-1.73-4.34-2.75-8.84-2.75h-24.1c-6.01,0-12.54,1.02-13.71,10.68l-3.11,25.39
			c-0.47,3.64,0,6.2,1.47,7.87c1.61,1.83,4.43,2.54,9.15,2.54 M293.96,306.46c0.47-3.85,3.17-6.34,6.87-6.34h6.52l-1.44,12.02
			l-12.7,0.12L293.96,306.46z M283.9,339.33h24.42c8.31,0,12.26-3.12,13.27-10.47l0.33-2.58h-17.72c-1.07,3.97-4.73,4.63-6.81,4.63
			h-6.36l1.24-10.73h30.37l2.07-16.91c0.42-3.5-0.08-5.99-1.53-7.61c-1.62-1.83-4.54-2.79-9.18-2.79h-23.25
			c-9.25,0-13.22,3.15-14.15,10.68l-3.22,25.41c-0.43,3.56,0.06,6.09,1.53,7.75c1.61,1.83,4.38,2.64,8.98,2.64 M552.96,306.46
			c0.47-3.85,3.17-6.34,6.86-6.34h6.53l-1.44,12.02l-12.7,0.12L552.96,306.46z M542.89,339.33h24.42c8.34,0,12.27-3.12,13.28-10.47
			l0.33-2.58H563.2c-1.07,3.97-4.74,4.63-6.81,4.63h-6.38l1.26-10.73h30.37l2.05-16.91c0.42-3.5-0.07-5.99-1.51-7.61
			c-1.62-1.83-4.54-2.79-9.19-2.79h-23.25c-9.24,0-13.21,3.15-14.14,10.68l-3.22,25.41c-0.45,3.56,0.06,6.09,1.53,7.75
			c1.61,1.83,4.38,2.64,8.97,2.64 M351.7,308.73c0,0,4.02-3.31,6.69-5.25c2.67-1.93,6.88-2.49,6.88-2.49s-0.77,5.91-0.92,7.28
			l-3.77,31.08h17.76l4.31-35.97c0.46-3.64-0.02-6.22-1.49-7.88c-1.51-1.73-4.17-2.63-8.37-2.63h-4.07c-5.48,0-9.4,2.75-9.4,2.75
			l-6.67,5.28l0.97-8.03h-17.76l-5.69,46.48h17.75L351.7,308.73z M388,339.35h17.75l5.55-46.48h-17.68L388,339.35z M449.39,307.79
			l-1.94,15.58c0,0-3.5,7.54-11.51,7.54h-1.97l3.04-24.44c0.38-3.28,2.34-6.33,6.89-6.33c1.88-0.02,6.29,0,6.29,0l-0.82,7.65
			 M432.24,292.87c-7.84,0-11.72,3.26-12.54,10.57l-3.11,24.98c-0.43,3.55,0.06,6.08,1.53,7.73c1.53,1.73,4.21,3.21,8.22,3.21h6.66
			c9.1,0,13.56-8.45,13.56-8.45l-2,15.38h-29.94l-0.87,8.61h34.45c6.57,0,13.42-1.19,14.46-10.04l6.22-51.97H432.24z M622.88,307.79
			l-1.94,15.58c0,0-3.5,7.54-11.51,7.54h-1.97l3.04-24.44c0.38-3.28,2.34-6.33,6.9-6.33c1.88-0.02,6.29,0,6.29,0L622.88,307.79z
			 M605.72,292.87c-7.84,0-11.72,3.26-12.53,10.57l-3.12,24.98c-0.43,3.55,0.07,6.08,1.53,7.73c1.53,1.73,4.21,3.21,8.22,3.21h6.66
			c9.11,0,13.56-8.45,13.56-8.45l-2,15.38H588.1l-0.87,8.61h34.45c6.57,0,13.42-1.19,14.46-10.04l6.22-51.97H605.72z M680.51,307.79
			l-1.94,15.58c0,0-3.5,7.54-11.51,7.54h-1.97l3.04-24.44c0.38-3.28,2.35-6.33,6.9-6.33c1.88-0.02,6.29,0,6.29,0L680.51,307.79z
			 M663.37,292.87c-7.87,0-11.73,3.26-12.54,10.57l-3.12,24.98c-0.43,3.55,0.07,6.08,1.53,7.73c1.53,1.73,4.21,3.21,8.22,3.21h6.66
			c9.11,0,13.56-8.45,13.56-8.45l-2,15.38h-29.93l-0.88,8.61h34.45c6.57,0,13.42-1.19,14.46-10.04l6.22-51.97H663.37z
			 M485.57,339.35h23.68c8.5,0,12.86-3.6,13.71-10.91l0.74-6.21c0.43-3.3,0-5.68-1.36-7.28c-2.23-2.63-6.72-3.01-10.68-3.13h-17.4
			l0.58-5.24c0.61-4.77,4.11-6.46,7.19-6.46h5.94l-0.54,6.34h17.85l0.48-3.32c0.41-3.56-0.12-6.11-1.64-7.77
			c-1.56-1.74-4.25-2.56-8.19-2.5h-25.63c-7.75,0-11.61,3.26-12.53,10.59l-0.86,6.33c-0.47,3.93,0.02,6.67,1.5,8.37
			c2.23,2.54,6.65,2.59,10.93,2.65h16.84l-0.35,2.67c-0.13,1.78-1.13,7.43-7.82,7.43h-6.01l0.54-4.61h-18.06l-0.25,2.43
			c-0.47,3.59,0,6.13,1.46,7.78C477.8,338.93,481.9,339.35,485.57,339.35 M63.19,258.77c-5.62,0-16.54,3.05-32.45,9.08
			c-9.16,3.46-17.48,7-20.64,8.36l-1.67,0.73l0.21,1.81c0.79,6.81,2.65,20.31,6.3,34.26c5.47,20.93,18,50.93,46.67,74.9l1.57,1.33
			l1.57-1.33c28.67-23.97,41.21-53.97,46.67-74.9c3.64-13.95,5.52-27.45,6.3-34.26l0.21-1.81l-1.67-0.73
			c-6.82-2.93-13.7-5.72-20.64-8.36C79.73,261.82,68.81,258.77,63.19,258.77 M63.19,261.22c3.66,0,12.1,1.55,31.58,8.92
			c9,3.4,17.14,6.84,20.55,8.31c-1.33,11.44-3.41,22.77-6.25,33.93c-5.41,20.7-17.76,50.12-45.88,73.64
			c-28.12-23.52-40.47-52.94-45.88-73.65c-2.83-11.16-4.91-22.49-6.23-33.93c3.4-1.46,11.53-4.9,20.53-8.3
			C51.08,262.77,59.52,261.22,63.19,261.22"/>
		<path class="st0" d="M63.19,276.63L85,269.9c-9.26-3.22-17.55-5.55-21.81-5.55s-12.56,2.35-21.81,5.55L63.19,276.63z"/>
		<path class="st0" d="M63.19,294.13l30.91-8.72l16.44,4.64c0.59-3.73,1.06-7.03,1.39-9.65l-0.11-0.05l-17.72,5l-30.91-8.72
			l-31.03,8.75L63.19,294.13z M14.46,280.43c0.33,2.59,0.77,5.83,1.37,9.51l16.15-4.57L14.46,280.43z M17.16,297.42
			c0.62,3.28,1.35,6.72,2.2,10.24l15.47-4.78l28.35,8.75l28.35-8.75l15.47,4.78c0.85-3.52,1.57-6.96,2.21-10.24l-17.68,5.46
			l-28.35-8.75l-28.35,8.75L17.16,297.42z M21.21,314.8c0.92,3.19,2,6.56,3.25,10.05l13.08-4.45l25.64,8.73l25.69-8.75l13.03,4.44
			c1.27-3.48,2.35-6.81,3.24-9.99l-16.27,5.54l-25.69-8.75l-25.64,8.73L21.21,314.8z M63.19,346.62l21.27-8.75l-21.27-8.75
			l-21.27,8.75L63.19,346.62z M31.96,341.98l9.96-4.1l-14.71-6.05C28.61,335.14,30.18,338.54,31.96,341.98 M99.17,331.83
			l-14.71,6.05l9.96,4.1C96.19,338.54,97.77,335.14,99.17,331.83 M63.19,364.13l15.9-8.75l-15.9-8.76l-15.9,8.76L63.19,364.13z
			 M89.12,351.33l-10.04,4.05l5.6,2.68C86.09,356.02,87.85,353.36,89.12,351.33 M37.26,351.33l10.03,4.05l-5.6,2.68
			C40.28,356.02,38.52,353.36,37.26,351.33 M62.33,381.15l0.86,0.47l0.86-0.47c3.9-3.45,7.48-7.02,10.74-10.66l-11.6-6.36
			l-11.6,6.36C54.85,374.13,58.43,377.7,62.33,381.15 M52.56,247.75l-1.76,1.76c3.05,3.06,7.99,3.13,11.13,0.15v4.63h2.51v-4.63
			c3.14,2.98,8.08,2.92,11.14-0.14l-1.76-1.76c-2.15,2.15-5.63,2.16-7.79,0.01c-2.15-2.15-2.16-5.63-0.01-7.79
			c2.15-2.15,5.63-2.16,7.79-0.01c0,0,0.01,0.01,0.01,0.01l1.76-1.77c-3.07-3.06-8.01-3.12-11.15-0.14v-4.64h-2.5v4.63
			c-3.14-2.97-8.08-2.9-11.14,0.15l1.76,1.76c2.15-2.15,5.63-2.14,7.77,0s2.14,5.63,0,7.77c-2.15,2.14-5.62,2.14-7.77,0"/>
		<path class="st0" d="M1.85,262.36c-0.02,0.5-0.03,1-0.02,1.5c0,0.21,0.08,21.84,7.6,50.6c5.96,22.82,19.82,55.32,51.95,80.61
			c0,0,0.85,0.67,1.81,1.35c0.96-0.68,1.81-1.34,1.81-1.35c32.13-25.29,45.99-57.79,51.95-80.61c7.51-28.76,7.6-50.39,7.6-50.6
			l-0.02-1.5c-1.17-1.02-5.58-4.87-7.4-6.36c-24.71-20.43-52.75-30.74-53.02-30.83l-0.92-0.33l-0.88,0.32
			c-0.29,0.12-28.33,10.41-53.07,30.84C7.43,257.49,3.02,261.34,1.85,262.36 M63.48,398.46h-0.56l-0.23-0.15
			c-1.21-0.82-2.38-1.75-2.43-1.78c-32.53-25.59-46.56-58.5-52.6-81.6C0.09,285.93,0,264.09,0,263.85c0-1.36,0.06-2,0.06-2.02
			l0.02-0.36l0.28-0.23c0.06-0.06,5.61-4.93,7.71-6.66c25.09-20.72,53.36-31.07,53.62-31.15l1.49-0.56l1.53,0.58
			c0.23,0.07,28.49,10.41,53.58,31.14c2.11,1.74,7.67,6.6,7.71,6.65l0.28,0.25l0.04,0.35c0,0.04,0.06,0.67,0.06,2.04
			c0,0.21-0.09,22.07-7.67,51.07c-6.02,23.08-20.05,55.99-52.59,81.6c-0.05,0.02-1.22,0.95-2.43,1.76L63.48,398.46z"/>
	</g>
</g>
</svg>
