<?xml version="1.0" encoding="utf-8"?>
<!-- Generator: Adobe Illustrator 24.0.2, SVG Export Plug-In . SVG Version: 6.00 Build 0)  -->
<svg version="1.1" id="Capa_1" xmlns="http://www.w3.org/2000/svg" xmlns:xlink="http://www.w3.org/1999/xlink" x="0px" y="0px"
	 viewBox="0 0 700 125" style="enable-background:new 0 0 700 125;" xml:space="preserve">
<style type="text/css">
	.st0{fill:#FFFFFF;}
</style>
<g>
	<g>
		<g>
			<path class="st0" d="M225.76,65.3l9.08,17.62h14.32l-11.61-21.71l19.48-19.31H243.6l-16.97,16.71l2.01-16.72h-12.68l-4.89,41.03
				h12.57L225.76,65.3z M268.92,59.51c0.09-1.14,0.58-4.51,4.89-4.51h4.56c0,0-0.42,4.04-0.67,5.67l-1.41,11.41
				c-0.23,1.65-0.69,4.84-5.08,4.84h-4.62L268.92,59.51z M261.84,82.91h17.09c5.97,0,8.94-2.31,9.61-7.52l2.21-18.07
				c0.31-2.58-0.03-4.39-1.04-5.52c-1.09-1.23-3.09-1.96-6.29-1.96h-17.16c-4.28,0-8.93,0.73-9.76,7.6l-2.21,18.07
				c-0.33,2.59,0,4.41,1.05,5.6C256.48,82.41,258.49,82.91,261.84,82.91 M310.11,59.51c0.33-2.74,2.26-4.51,4.89-4.51h4.64
				l-1.03,8.56l-9.04,0.09L310.11,59.51z M302.94,82.91h17.38c5.92,0,8.73-2.22,9.45-7.45l0.23-1.84H317.4
				c-0.76,2.83-3.37,3.3-4.85,3.3h-4.53l0.88-7.64h21.62L332,57.24c0.3-2.49-0.06-4.26-1.09-5.42c-1.15-1.3-3.23-1.99-6.54-1.99
				h-16.55c-6.58,0-9.41,2.24-10.07,7.6l-2.29,18.09c-0.31,2.53,0.04,4.34,1.09,5.52c1.15,1.3,3.12,1.88,6.39,1.88 M494.48,59.51
				c0.33-2.74,2.26-4.51,4.88-4.51h4.65l-1.03,8.56l-9.04,0.09L494.48,59.51z M487.32,82.91h17.38c5.94,0,8.73-2.22,9.45-7.45
				l0.23-1.84h-12.61c-0.76,2.83-3.37,3.3-4.85,3.3h-4.54l0.9-7.64h21.62l1.46-12.04c0.3-2.49-0.05-4.26-1.07-5.42
				c-1.15-1.3-3.23-1.99-6.54-1.99h-16.55c-6.58,0-9.4,2.24-10.07,7.6l-2.29,18.09c-0.32,2.53,0.04,4.34,1.09,5.52
				c1.15,1.3,3.12,1.88,6.39,1.88 M351.21,61.12c0,0,2.86-2.36,4.76-3.74c1.9-1.37,4.9-1.77,4.9-1.77s-0.55,4.21-0.65,5.18
				l-2.68,22.13h12.64l3.07-25.61c0.33-2.59-0.01-4.43-1.06-5.61c-1.07-1.23-2.97-1.87-5.96-1.87h-2.9c-3.9,0-6.69,1.96-6.69,1.96
				l-4.75,3.76l0.69-5.72h-12.64l-4.05,33.09h12.64L351.21,61.12z M377.05,82.92h12.64l3.95-33.09h-12.59L377.05,82.92z
				 M420.75,60.45l-1.38,11.09c0,0-2.49,5.37-8.19,5.37h-1.4l2.16-17.4c0.27-2.33,1.67-4.51,4.9-4.51c1.34-0.01,4.48,0,4.48,0
				l-0.58,5.45 M408.55,49.83c-5.58,0-8.34,2.32-8.93,7.52l-2.21,17.78c-0.31,2.53,0.04,4.33,1.09,5.5c1.09,1.23,3,2.29,5.85,2.29
				h4.74c6.48,0,9.65-6.02,9.65-6.02l-1.42,10.95H396l-0.62,6.13h24.52c4.68,0,9.55-0.85,10.29-7.15l4.43-37h-26.08V49.83z
				 M544.26,60.45l-1.38,11.09c0,0-2.49,5.37-8.19,5.37h-1.4l2.16-17.4c0.27-2.33,1.67-4.51,4.91-4.51c1.34-0.01,4.48,0,4.48,0
				L544.26,60.45z M532.04,49.83c-5.58,0-8.34,2.32-8.92,7.52l-2.22,17.78c-0.31,2.53,0.05,4.33,1.09,5.5
				c1.09,1.23,3,2.29,5.85,2.29h4.74c6.49,0,9.65-6.02,9.65-6.02l-1.42,10.95H519.5l-0.62,6.13h24.52c4.68,0,9.55-0.85,10.29-7.15
				l4.43-37h-26.08V49.83z M585.29,60.45l-1.38,11.09c0,0-2.49,5.37-8.19,5.37h-1.4l2.16-17.4c0.27-2.33,1.67-4.51,4.91-4.51
				c1.34-0.01,4.48,0,4.48,0L585.29,60.45z M573.08,49.83c-5.6,0-8.35,2.32-8.93,7.52l-2.22,17.78c-0.31,2.53,0.05,4.33,1.09,5.5
				c1.09,1.23,3,2.29,5.85,2.29h4.74c6.49,0,9.65-6.02,9.65-6.02l-1.42,10.95h-21.31l-0.63,6.13h24.52c4.68,0,9.55-0.85,10.29-7.15
				l4.43-37h-26.08V49.83z M446.51,82.92h16.86c6.05,0,9.15-2.56,9.76-7.77l0.53-4.42c0.31-2.35,0-4.04-0.97-5.18
				c-1.59-1.87-4.78-2.14-7.6-2.23H452.7l0.41-3.73c0.43-3.4,2.93-4.6,5.12-4.6h4.23l-0.38,4.51h12.71l0.34-2.36
				c0.29-2.53-0.09-4.35-1.17-5.53c-1.11-1.24-3.03-1.82-5.83-1.78h-18.25c-5.52,0-8.26,2.32-8.92,7.54l-0.61,4.51
				c-0.33,2.8,0.01,4.75,1.07,5.96c1.59,1.81,4.73,1.84,7.78,1.89h11.99l-0.25,1.9c-0.09,1.27-0.8,5.29-5.57,5.29h-4.28l0.38-3.28
				h-12.86l-0.18,1.73c-0.33,2.56,0,4.36,1.04,5.54C440.98,82.62,443.9,82.92,446.51,82.92 M145.82,25.56c-4,0-11.77,2.17-23.1,6.46
				c-6.52,2.46-12.44,4.98-14.69,5.95l-1.19,0.52l0.15,1.29c0.56,4.85,1.89,14.46,4.48,24.39c3.89,14.9,12.81,36.26,33.22,53.32
				l1.12,0.95l1.12-0.95c20.41-17.06,29.34-38.42,33.22-53.32c2.59-9.93,3.93-19.54,4.48-24.39l0.15-1.29l-1.19-0.52
				c-4.86-2.09-9.75-4.07-14.69-5.95C157.6,27.73,149.82,25.56,145.82,25.56 M145.82,27.3c2.61,0,8.61,1.1,22.48,6.35
				c6.41,2.42,12.2,4.87,14.63,5.92c-0.95,8.14-2.43,16.21-4.45,24.15c-3.85,14.74-12.64,35.68-32.66,52.42
				c-20.02-16.74-28.81-37.69-32.66-52.43c-2.01-7.94-3.5-16.01-4.44-24.15c2.42-1.04,8.21-3.49,14.62-5.91
				C137.2,28.4,143.21,27.3,145.82,27.3"/>
			<path class="st0" d="M145.82,38.27l15.53-4.79c-6.59-2.29-12.49-3.95-15.53-3.95c-3.03,0-8.94,1.67-15.53,3.95L145.82,38.27z"/>
			<path class="st0" d="M145.82,50.73l22-6.21l11.7,3.3c0.42-2.66,0.75-5,0.99-6.87l-0.08-0.04l-12.61,3.56l-22-6.21l-22.09,6.23
				L145.82,50.73z M111.13,40.98c0.23,1.84,0.55,4.15,0.98,6.77l11.5-3.25L111.13,40.98z M113.06,53.07
				c0.44,2.33,0.96,4.78,1.57,7.29l11.01-3.4l20.18,6.23L166,56.96l11.01,3.4c0.61-2.51,1.12-4.95,1.57-7.29L166,56.96l-20.18-6.23
				l-20.18,6.23L113.06,53.07z M115.94,65.44c0.65,2.27,1.42,4.67,2.31,7.15l9.31-3.17l18.25,6.21l18.29-6.23l9.28,3.16
				c0.9-2.48,1.67-4.85,2.31-7.11l-11.58,3.94l-18.29-6.23l-18.25,6.21L115.94,65.44z M145.82,88.1l15.14-6.23l-15.14-6.23
				l-15.14,6.23L145.82,88.1z M123.59,84.79l7.09-2.92l-10.47-4.31C121.21,79.92,122.32,82.34,123.59,84.79 M171.44,77.57
				l-10.47,4.31l7.09,2.92C169.32,82.34,170.44,79.92,171.44,77.57 M145.82,100.56l11.32-6.23l-11.32-6.24l-11.32,6.24
				L145.82,100.56z M164.28,91.45l-7.15,2.88l3.99,1.91C162.13,94.79,163.38,92.89,164.28,91.45 M127.36,91.45l7.14,2.88l-3.99,1.91
				C129.51,94.79,128.26,92.89,127.36,91.45 M145.21,112.68l0.61,0.33l0.61-0.33c2.78-2.46,5.32-5,7.65-7.59l-8.26-4.53l-8.26,4.53
				C139.89,107.68,142.44,110.22,145.21,112.68 M138.26,17.71L137,18.96c2.17,2.18,5.69,2.23,7.92,0.11v3.3h1.79v-3.3
				c2.24,2.12,5.75,2.08,7.93-0.1l-1.25-1.25c-1.53,1.53-4.01,1.54-5.55,0.01c-1.53-1.53-1.54-4.01-0.01-5.55
				c1.53-1.53,4.01-1.54,5.55-0.01l0.01,0.01l1.25-1.26c-2.19-2.18-5.7-2.22-7.94-0.1v-3.3h-1.78v3.3
				c-2.24-2.11-5.75-2.06-7.93,0.11l1.25,1.25c1.53-1.53,4.01-1.52,5.53,0s1.52,4.01,0,5.53C142.25,19.23,139.78,19.23,138.26,17.71
				"/>
			<path class="st0" d="M102.16,28.11c-0.01,0.36-0.02,0.71-0.01,1.07c0,0.15,0.06,15.55,5.41,36.02
				c4.24,16.25,14.11,39.38,36.98,57.39c0,0,0.61,0.48,1.29,0.96c0.68-0.48,1.29-0.95,1.29-0.96c22.87-18,32.74-41.14,36.98-57.39
				c5.35-20.47,5.41-35.87,5.41-36.02l-0.01-1.07c-0.83-0.73-3.97-3.47-5.27-4.53C166.63,9.04,146.67,1.7,146.48,1.64l-0.65-0.23
				l-0.63,0.23c-0.21,0.09-20.17,7.41-37.78,21.95C106.13,24.65,102.99,27.39,102.16,28.11 M146.03,125h-0.4l-0.16-0.11
				c-0.86-0.58-1.69-1.25-1.73-1.27c-23.16-18.22-33.15-41.65-37.45-58.09c-5.39-20.64-5.45-36.19-5.45-36.36
				c0-0.97,0.04-1.42,0.04-1.44l0.01-0.26l0.2-0.16c0.04-0.04,3.99-3.51,5.49-4.74C124.45,7.82,144.57,0.46,144.76,0.4l1.06-0.4
				l1.09,0.41c0.16,0.05,20.28,7.41,38.14,22.17c1.5,1.24,5.46,4.7,5.49,4.73l0.2,0.18l0.03,0.25c0,0.03,0.04,0.48,0.04,1.45
				c0,0.15-0.06,15.71-5.46,36.36c-4.29,16.43-14.27,39.86-37.44,58.09c-0.04,0.01-0.87,0.68-1.73,1.25L146.03,125z"/>
		</g>
	</g>
</g>
</svg>
