<?xml version="1.0" encoding="utf-8"?>
<!-- Generator: Adobe Illustrator 24.0.2, SVG Export Plug-In . SVG Version: 6.00 Build 0)  -->
<svg version="1.1" id="Capa_1" xmlns="http://www.w3.org/2000/svg" xmlns:xlink="http://www.w3.org/1999/xlink" x="0px" y="0px"
	 viewBox="0 0 700 125" style="enable-background:new 0 0 700 125;" xml:space="preserve">
<style type="text/css">
	.st0{fill:#FFFFFF;}
</style>
<g>
	<path class="st0" d="M164.86,0c34.52-0.02,62.51,27.93,62.53,62.44c0.01,34.49-28,62.55-62.46,62.56
		c-34.62,0.01-62.67-28.03-62.61-62.58C102.37,27.9,130.3,0.02,164.86,0z M163.23,6.3c-17.39,0.18-38.32,9.84-48.81,31.17
		c-8.49,17.28-7.77,34.6,0.78,51.84c0.41-0.29,0.62-0.44,0.83-0.6c13.14-10.26,26.29-20.51,39.41-30.79
		c0.4-0.32,0.73-0.92,0.81-1.44c0.85-5.84,1.64-11.7,2.46-17.55c1.02-7.34,2.04-14.67,3.05-22.01
		C162.24,13.4,162.73,9.88,163.23,6.3z M214.4,89.1c9.12-16.12,10.13-40.1-3.67-59.21c-10.81-14.98-25.66-22.64-44.15-23.73
		c0.2,1.48,0.37,2.71,0.54,3.93c1.08,7.69,2.15,15.38,3.22,23.07c1.08,7.72,2.18,15.44,3.24,23.17c0.1,0.73,0.34,1.24,0.94,1.71
		c10.45,8.12,20.88,16.26,31.32,24.39C208.68,84.63,211.5,86.84,214.4,89.1z M117.26,92.34c8.55,14.44,27.14,27.61,50.25,26.36
		c19.45-1.06,34.37-10.22,45.22-26.38c-0.45-0.21-0.68-0.32-0.92-0.42c-15.31-6.2-30.63-12.4-45.93-18.62
		c-0.79-0.32-1.44-0.3-2.22,0.02c-12.26,5.05-24.53,10.06-36.8,15.1C123.66,89.7,120.46,91.01,117.26,92.34z"/>
	<path class="st0" d="M296.19,42.73c0,0.55,0,0.93,0,1.36c-0.88,0.13-1.72,0.22-2.56,0.38c-1.46,0.3-2.06,0.93-2.1,2.4
		c-0.06,1.89,0,3.78,0.04,5.68c0.18,8.03,0.37,16.07,0.57,24.09c0.06,2.21,0.7,2.86,2.91,3.13c0.55,0.06,1.1,0.13,1.69,0.21
		c0,0.42,0,0.8,0,1.06c-4.72,0-9.4,0-14.16,0c0-0.2,0-0.57,0-1.03c0.8-0.13,1.64-0.22,2.46-0.41c1.48-0.34,2.05-1.01,2.18-2.49
		c0.04-0.45,0.04-0.91,0.03-1.37c-0.17-9.24-0.33-18.48-0.5-27.73c-0.01-0.34,0-0.67,0-1.01c-0.09-0.01-0.17-0.02-0.26-0.04
		c-0.4,1.08-0.82,2.17-1.21,3.25c-3.56,9.71-7.11,19.41-10.7,29.11c-0.1,0.27-0.44,0.45-0.67,0.67c-0.22-0.24-0.52-0.45-0.62-0.73
		c-3.86-10.5-7.71-21-11.56-31.5c-0.11-0.32-0.26-0.63-0.55-0.92c-0.06,1.22-0.14,2.43-0.19,3.65c-0.33,8.49-0.66,16.97-0.98,25.45
		c-0.01,0.32-0.01,0.65,0.01,0.98c0.11,1.79,0.59,2.36,2.35,2.71c0.76,0.16,1.54,0.24,2.36,0.36c0,0.41,0,0.79,0,1.13
		c-3.75,0-7.46,0-11.24,0c0-0.29,0-0.67,0-1.13c0.69-0.09,1.4-0.17,2.1-0.29c1.76-0.33,2.35-0.98,2.44-2.76
		c0.21-3.98,0.39-7.96,0.56-11.94c0.24-5.58,0.48-11.16,0.71-16.73c0.01-0.32,0.01-0.65-0.01-0.98c-0.14-1.99-0.64-2.54-2.62-2.91
		c-0.35-0.06-0.71-0.09-1.07-0.12c-1.17-0.11-1.21-0.15-0.97-1.29c2.01,0,4,0.02,5.99-0.01c1.04-0.01,2.1-0.06,3.13-0.19
		c0.73-0.09,1.02,0.16,1.26,0.83c3.27,8.94,6.56,17.88,9.85,26.81c0.14,0.36,0.28,0.72,0.5,1.29c0.81-2.16,1.55-4.13,2.28-6.09
		c2.74-7.33,5.48-14.66,8.23-21.99c0.15-0.39,0.14-0.88,0.83-0.88C289.86,42.75,292.99,42.73,296.19,42.73z"/>
	<path class="st0" d="M508.11,60.7c0.29,0.11,0.44,0.2,0.59,0.23c5.55,1.01,8.41,6.59,6.94,12.05c-1.23,4.58-4.92,7.68-9.84,7.93
		c-4.86,0.24-9.74,0.17-14.61,0.22c-1.07,0.01-2.15,0-3.27,0c0-0.47,0-0.85,0-1.29c0.9-0.14,1.8-0.25,2.68-0.45
		c1.26-0.28,1.7-0.79,1.86-2.06c0.08-0.65,0.1-1.3,0.1-1.95c0.01-8.88,0.01-17.77,0-26.65c0-0.39,0-0.78-0.02-1.18
		c-0.12-2.22-0.73-2.84-2.97-3.07c-0.52-0.05-1.04-0.11-1.63-0.17c0-0.43,0-0.84,0-1.3c0.19-0.02,0.42-0.07,0.63-0.07
		c5.07,0,10.14-0.04,15.21,0.04c1.45,0.02,2.96,0.23,4.34,0.67c3.63,1.16,5.65,3.78,6.05,7.55c0.42,3.9-1.1,6.88-4.59,8.78
		C509.16,60.2,508.71,60.4,508.11,60.7z M497.37,61.9c-0.03,0.5-0.05,0.7-0.05,0.89c0,4.57,0,9.14,0,13.7
		c0,0.29,0.01,0.59,0.06,0.88c0.19,1.29,0.55,1.78,1.85,1.87c1.66,0.11,3.34,0.18,4.98,0.03c3.09-0.29,5.23-1.95,6.17-4.94
		c0.85-2.71,0.8-5.47-0.12-8.18c-0.7-2.04-2.09-3.52-4.23-3.78C503.19,62.04,500.31,62.05,497.37,61.9z M497.4,44.72
		c0,5.21,0,10.34,0,15.46c2,0,3.92,0.05,5.84-0.01c2.64-0.09,4.38-1.49,5.31-3.92c0.79-2.07,0.8-4.22,0.43-6.36
		c-0.56-3.24-2.13-4.82-5.36-5.13C501.57,44.57,499.51,44.72,497.4,44.72z"/>
	<path class="st0" d="M416.05,81.66c-0.27-1.43-0.54-2.81-0.83-4.34c-0.17,0.25-0.27,0.37-0.35,0.51
		c-2.58,4.06-7.02,5.18-11.24,2.79c-2.81-1.59-4.44-4.14-5.24-7.16c-1.44-5.41-1.25-10.71,1.95-15.52c2.12-3.18,5.19-4.54,9.05-4.08
		c2.1,0.25,3.49,1.5,4.65,3.12c0.22,0.31,0.43,0.62,0.78,1.15c0.04-0.48,0.06-0.73,0.06-0.96c0-3.17,0.01-6.34-0.01-9.5
		c-0.01-2.16-0.55-2.67-2.71-2.84c-0.46-0.04-1.3,0.38-1.31-0.51c-0.01-0.85,0.83-0.51,1.31-0.6c2.38-0.45,4.75-0.84,7.27-1.29
		c0,0.38,0,0.79,0,1.19c0,10.32,0,20.65,0.01,30.97c0,0.82,0.04,1.63,0.11,2.45c0.12,1.38,0.54,1.83,1.9,2.07
		c0.45,0.08,0.93,0.02,1.36,0.14c0.3,0.08,0.56,0.34,0.84,0.51c-0.28,0.19-0.54,0.5-0.85,0.57c-1.6,0.31-3.22,0.54-4.82,0.84
		C417.37,81.24,416.78,81.46,416.05,81.66z M402.32,67.88c0.06,1.01,0.07,2.28,0.21,3.55c0.27,2.4,0.67,4.8,2.19,6.81
		c2.04,2.71,6.01,2.7,7.98-0.06c0.61-0.86,1.08-1.87,1.38-2.89c1.08-3.59,0.98-7.29,0.68-10.97c-0.17-2.15-0.59-4.27-1.67-6.18
		c-1.28-2.24-3.35-3.22-5.77-2.66c-2.12,0.48-3.16,2.06-3.85,3.95C402.5,62.06,402.43,64.84,402.32,67.88z"/>
	<path class="st0" d="M561.36,81.09c-0.01-0.19-0.02-0.5-0.04-0.85c0.66-0.09,1.28-0.16,1.88-0.27c1.24-0.23,1.74-0.76,1.92-2
		c0.02-0.17,0.05-0.32,0.05-0.49c-0.04-5.45-0.06-10.9-0.13-16.35c-0.01-0.73-0.22-1.49-0.47-2.19c-0.57-1.63-1.77-2.53-3.5-2.73
		c-4.19-0.49-6.86,1.64-6.99,5.94c-0.16,5.22-0.06,10.45-0.04,15.67c0.01,1.26,0.64,1.91,1.87,2.15c0.57,0.11,1.16,0.17,1.77,0.27
		c0,0.32,0,0.63,0,0.86c-4.08,0-8.11,0-12.25,0c-0.01-0.17-0.04-0.47-0.06-0.85c0.67-0.09,1.31-0.17,1.95-0.27
		c1.44-0.22,1.96-0.73,2.07-2.15c0.07-0.98,0.06-1.96,0.06-2.94c0.01-5.1,0-10.19,0-15.28c0-0.29,0.01-0.59,0-0.88
		c-0.05-2.53-0.36-2.83-2.91-2.92c-0.23-0.01-0.49,0.03-0.67-0.06s-0.42-0.32-0.42-0.5s0.22-0.47,0.39-0.51
		c2.35-0.5,4.72-0.97,7.19-1.47c0.17,1.41,0.34,2.92,0.55,4.65c0.37-0.46,0.65-0.79,0.92-1.12c2.31-2.81,5.31-3.7,8.79-2.97
		c4.06,0.84,6.27,3.76,6.37,8.46c0.09,4.67,0.04,9.34,0.04,14.01c0,0.46-0.01,0.91,0.01,1.37c0.06,1.49,0.62,2.1,2.12,2.33
		c0.61,0.09,1.23,0.16,1.9,0.24c0,0.32,0,0.62,0,0.88C569.63,81.09,565.54,81.09,561.36,81.09z"/>
	<path class="st0" d="M321.14,66.89c-5.66,0-11.27,0-17.01,0c0.1,3.5,0.15,6.91,1.94,9.94c2.44,4.15,8.87,4.14,11.42-0.04
		c0.62-1.01,1.04-2.19,1.3-3.35c0.2-0.89,0.5-1.26,1.39-1.11c0.32,0.05,0.64,0.01,0.95,0.01c0.27,4.1-3.34,8.39-7.6,9.17
		c-7.14,1.29-12.58-2.72-13.66-10.15c-0.54-3.66-0.39-7.3,0.93-10.81c2.3-6.16,7.76-8.18,13.35-6.66c2.22,0.6,3.86,2.01,5.02,3.98
		C320.49,60.1,321.38,64.04,321.14,66.89z M316.68,64.83c-0.19-2.63-0.39-5.17-1.69-7.44c-1.72-2.99-5.72-3.45-7.98-0.88
		c-2.06,2.35-2.43,5.3-2.74,8.32C308.46,64.83,312.5,64.83,316.68,64.83z"/>
	<path class="st0" d="M540.42,72.39c0.51,0,1.18,0,1.87,0c-0.1,3.7-2.6,8.21-7.58,9.12c-6.9,1.26-12.28-2.46-13.58-9.43
		c-0.72-3.85-0.56-7.67,0.75-11.39c2.02-5.74,7.58-8.56,13.37-6.81c3.12,0.94,4.96,3.13,6.02,6.09c0.78,2.18,1.06,4.43,1.06,6.88
		c-5.65,0-11.28,0-17.03,0c0.06,3.65,0.11,7.17,2.07,10.24c2.5,3.93,8.83,3.76,11.26-0.3C539.41,75.5,539.8,73.98,540.42,72.39z
		 M537.79,64.81c-0.09-2.34-0.36-4.54-1.24-6.6c-0.81-1.9-2.15-3.19-4.32-3.33c-2.23-0.14-3.83,0.89-4.92,2.76
		c-1.28,2.2-1.65,4.63-1.9,7.17C529.54,64.81,533.61,64.81,537.79,64.81z"/>
	<path class="st0" d="M392.75,66.89c-5.74,0-11.33,0-17.06,0c0.13,3.78,0.09,7.5,2.42,10.65c2.61,3.54,8.68,3.1,10.97-0.8
		c0.76-1.29,1.14-2.81,1.74-4.33c0.52,0,1.22,0,1.92,0c-0.24,5.24-4.2,9.17-9.33,9.3c-6.52,0.17-10.88-3.46-11.91-9.89
		c-0.66-4.14-0.51-8.21,1.21-12.1c2.8-6.34,8.99-7.26,13.67-5.61c1.55,0.55,2.81,1.54,3.76,2.87
		C392.21,59.91,392.69,63.26,392.75,66.89z M375.8,64.8c4.19,0,8.26,0,12.32,0c0.17-2.1-0.55-5.53-1.49-7.26
		c-0.67-1.22-1.6-2.13-2.99-2.51c-2.35-0.62-4.53,0.27-5.86,2.47C376.44,59.72,376.07,62.21,375.8,64.8z"/>
	<path class="st0" d="M447.69,66.92c-5.99,0-11.59,0-17.31,0c0.11,3.44,0.17,6.78,1.86,9.78c2.26,4.04,8.51,4.38,11.18,0.56
		c0.8-1.14,1.14-2.6,1.68-3.92c0.12-0.29,0.16-0.62,0.23-0.95c0.7,0,1.35,0,2.12,0c-0.05,0.45-0.06,0.85-0.16,1.24
		c-1.06,4.72-3.86,7.42-8.33,8.03c-4.86,0.66-9.25-1.48-11.37-5.59c-1.7-3.31-1.95-6.87-1.66-10.5c0.17-2.26,0.7-4.44,1.74-6.48
		c3.05-5.93,9.14-6.58,13.47-4.95c3.07,1.16,4.72,3.65,5.48,6.71C447.12,62.77,447.33,64.75,447.69,66.92z M442.85,64.81
		c0.19-2.14-0.62-5.82-1.64-7.5c-1.81-2.99-5.82-3.35-8.06-0.67c-1.95,2.34-2.31,5.23-2.62,8.17
		C434.71,64.81,438.78,64.81,442.85,64.81z"/>
	<path class="st0" d="M591.62,55.54c-2.45,0-4.7,0.1-6.93-0.02c-3.1-0.17-5.01,1.26-6.06,4.06c-0.15,0.39-0.36,0.78-0.48,1.18
		c-0.21,0.7-0.62,0.93-1.41,0.64c0.43-2.4,0.85-4.82,1.29-7.27c6.55,0,13.02,0,19.66,0c-5.18,8.49-10.3,16.88-15.48,25.37
		c0.27,0.06,0.45,0.14,0.62,0.14c2.29-0.01,4.58-0.01,6.87-0.04c2.15-0.04,3.75-1.05,4.77-2.91c0.52-0.94,0.96-1.93,1.31-2.94
		c0.25-0.73,0.59-1.03,1.46-0.73c-0.48,2.65-0.96,5.33-1.45,8.05c-6.52,0-12.98,0-19.65,0C581.28,72.56,586.4,64.14,591.62,55.54z"
		/>
	<path class="st0" d="M467.1,55.29c0.93-0.52,0.29-2.41,2.08-2.15c0,2.91,0,5.77,0,8.71c-0.39,0-0.76,0-1.16,0
		c-0.24-0.94-0.42-1.94-0.74-2.88c-1.28-3.67-5.53-5.02-8.74-2.81c-1.11,0.76-1.79,1.81-2,3.13c-0.25,1.64,0.24,3.02,1.75,3.82
		c1.69,0.9,3.45,1.71,5.18,2.54c1.18,0.57,2.38,1.08,3.55,1.65c5.87,2.86,4.35,10.28,0.41,12.66c-3.73,2.25-7.54,2.27-11.35,0.15
		c-0.23-0.13-0.44-0.29-0.66-0.42c-0.19-0.12-0.38-0.24-0.54-0.35c-1,0.62-0.67,2.51-2.45,2.45c0-3.19,0-6.28,0-9.4
		c0.75-0.27,1.18-0.21,1.43,0.75c0.32,1.25,0.78,2.51,1.43,3.62c1.8,3.08,5.73,4.12,8.9,2.46c1.73-0.9,2.72-2.33,2.81-4.29
		c0.09-1.9-0.95-3.16-2.54-3.97c-1.92-0.98-3.9-1.83-5.84-2.76c-0.83-0.39-1.63-0.83-2.44-1.25c-5.12-2.68-3.83-9.4-0.55-11.59
		c3.27-2.19,6.7-2.32,10.24-0.73c0.24,0.11,0.46,0.25,0.69,0.37C466.77,55.11,466.97,55.21,467.1,55.29z"/>
	<path class="st0" d="M337.31,80.22c0,0.36,0,0.65,0,0.97c-2.12-0.09-4.2-0.24-6.27-0.24c-2.09,0-4.18,0.16-6.36,0.24
		c-0.02-0.27-0.04-0.57-0.08-0.95c0.69-0.09,1.33-0.17,1.96-0.27c1.55-0.23,2.14-0.83,2.15-2.39c0.02-6.6,0.02-13.19,0-19.79
		c-0.01-1.69-0.37-2.04-2.05-2.24c-0.61-0.07-1.23-0.09-1.9-0.14c0-0.31,0-0.58,0-0.82c2.49-0.42,4.92-0.83,7.47-1.27
		c0.18,1.55,0.36,3.13,0.57,4.91c0.34-0.57,0.55-0.99,0.81-1.39c1.59-2.47,3.79-3.73,6.78-3.36c2.57,0.32,4.26,2.46,3.99,5.03
		c-0.2,1.84-2.01,2.81-3.63,1.92c-0.79-0.43-1.18-1.08-0.98-2.03c0.17-0.8,0.42-1.67-0.39-2.25c-0.86-0.62-1.9-0.54-2.68,0.01
		c-0.82,0.58-1.71,1.35-2.07,2.24c-0.62,1.54-1.15,3.24-1.21,4.89c-0.17,4.67-0.11,9.34-0.09,14.01c0.01,1.97,0.46,2.41,2.45,2.71
		C336.27,80.09,336.75,80.15,337.31,80.22z"/>
	<path class="st0" d="M363.98,55.54c0.82-0.7,0.65-2.42,2.33-2.75c0,3.24,0,6.32,0,9.42c-0.83,0.29-1.17,0.04-1.41-0.85
		c-0.34-1.24-0.78-2.51-1.44-3.61c-2.31-3.84-7.31-3.83-9.68-0.02c-1.35,2.17-1.79,4.6-2,7.09c-0.28,3.3-0.22,6.59,0.67,9.81
		c0.2,0.72,0.48,1.43,0.83,2.09c1.07,2.07,2.77,3.18,5.13,3.15c2.31-0.03,4.04-1.11,5-3.19c0.62-1.35,0.98-2.81,1.49-4.32
		c0.56,0,1.27,0,1.97,0c0.45,4.54-3.64,9.14-8.27,9.33c-4.92,0.21-8.79-2.23-10.6-6.96c-1.97-5.14-1.85-10.32,0.56-15.31
		c2.22-4.62,7.19-7.02,11.8-5.71C361.59,54.07,362.71,54.89,363.98,55.54z"/>
	<path class="st0" d="M474.39,67.16c0-0.94,0-1.82,0-2.76c4.2,0,8.39,0,12.66,0c0,0.9,0,1.79,0,2.76
		C482.88,67.16,478.68,67.16,474.39,67.16z"/>
</g>
</svg>
