<?xml version="1.0" encoding="utf-8"?>
<!-- Generator: Adobe Illustrator 24.0.2, SVG Export Plug-In . SVG Version: 6.00 Build 0)  -->
<svg version="1.1" id="Capa_1" xmlns="http://www.w3.org/2000/svg" xmlns:xlink="http://www.w3.org/1999/xlink" x="0px" y="0px"
	 viewBox="0 0 700 700" style="enable-background:new 0 0 700 700;" xml:space="preserve">
<style type="text/css">
	.st0{fill:#FFFFFF;}
</style>
<path class="st0" d="M91.17,254.51c48.08-0.03,87.08,38.91,87.1,86.98c0.02,48.05-39,87.13-87,87.14
	c-48.22,0.02-87.3-39.04-87.22-87.17C4.12,293.37,43.02,254.54,91.17,254.51z M88.89,263.28c-24.22,0.25-53.38,13.7-67.99,43.42
	c-11.83,24.07-10.83,48.2,1.09,72.21c0.57-0.41,0.87-0.61,1.15-0.83c18.31-14.29,36.62-28.57,54.9-42.89c0.56-0.44,1.02-1.28,1.13-2
	c1.19-8.14,2.29-16.3,3.42-24.45c1.42-10.22,2.84-20.44,4.25-30.66C87.52,273.18,88.2,268.27,88.89,263.28z M160.18,378.62
	c12.71-22.46,14.11-55.86-5.11-82.48c-15.06-20.86-35.74-31.54-61.5-33.06c0.28,2.06,0.52,3.77,0.75,5.48
	c1.5,10.71,2.99,21.42,4.49,32.13c1.51,10.76,3.03,21.51,4.51,32.27c0.14,1.02,0.48,1.73,1.31,2.38
	c14.56,11.31,29.09,22.65,43.63,33.98C152.2,372.4,156.14,375.47,160.18,378.62z M24.86,383.13c11.91,20.12,37.81,38.46,69.99,36.72
	c27.1-1.47,47.87-14.23,62.99-36.75c-0.63-0.29-0.95-0.45-1.28-0.58c-21.33-8.64-42.67-17.27-63.98-25.93
	c-1.1-0.45-2-0.42-3.09,0.03c-17.08,7.03-34.17,14.02-51.26,21.03C33.78,379.46,29.32,381.29,24.86,383.13z"/>
<path class="st0" d="M274.11,314.03c0,0.77,0,1.3,0,1.89c-1.23,0.18-2.4,0.3-3.56,0.53c-2.03,0.42-2.87,1.3-2.93,3.34
	c-0.08,2.63,0,5.27,0.06,7.91c0.25,11.19,0.51,22.38,0.79,33.56c0.08,3.08,0.97,3.99,4.06,4.36c0.76,0.09,1.53,0.18,2.36,0.29
	c0,0.59,0,1.12,0,1.48c-6.58,0-13.1,0-19.73,0c0-0.28,0-0.8,0-1.43c1.12-0.18,2.29-0.31,3.43-0.57c2.06-0.47,2.85-1.4,3.04-3.47
	c0.06-0.63,0.05-1.27,0.04-1.91c-0.23-12.87-0.46-25.74-0.7-38.62c-0.01-0.47,0-0.94,0-1.41c-0.12-0.02-0.24-0.03-0.36-0.05
	c-0.56,1.51-1.14,3.02-1.69,4.53c-4.96,13.52-9.91,27.04-14.9,40.55c-0.14,0.37-0.61,0.62-0.93,0.93c-0.3-0.34-0.72-0.63-0.87-1.02
	c-5.38-14.62-10.74-29.25-16.1-43.88c-0.16-0.45-0.36-0.88-0.77-1.28c-0.09,1.7-0.19,3.39-0.26,5.09
	c-0.46,11.82-0.92,23.64-1.37,35.45c-0.02,0.45-0.01,0.91,0.02,1.36c0.15,2.49,0.82,3.29,3.27,3.78c1.06,0.22,2.15,0.33,3.29,0.5
	c0,0.57,0,1.1,0,1.57c-5.23,0-10.39,0-15.65,0c0-0.41,0-0.93,0-1.58c0.96-0.13,1.95-0.23,2.92-0.41c2.45-0.46,3.27-1.36,3.4-3.85
	c0.29-5.54,0.54-11.09,0.78-16.63c0.34-7.77,0.67-15.54,0.99-23.31c0.02-0.45,0.02-0.91-0.01-1.36c-0.19-2.77-0.89-3.54-3.65-4.05
	c-0.49-0.09-0.99-0.13-1.49-0.17c-1.63-0.15-1.68-0.21-1.35-1.8c2.8,0,5.57,0.03,8.34-0.01c1.45-0.02,2.92-0.09,4.36-0.27
	c1.01-0.13,1.42,0.22,1.76,1.15c4.55,12.46,9.14,24.9,13.72,37.35c0.19,0.5,0.39,1,0.7,1.8c1.13-3.01,2.16-5.75,3.18-8.49
	c3.82-10.21,7.64-20.42,11.46-30.63c0.21-0.55,0.2-1.23,1.16-1.22C265.29,314.06,269.65,314.03,274.11,314.03z"/>
<path class="st0" d="M569.3,339.06c0.41,0.16,0.61,0.28,0.82,0.32c7.73,1.4,11.71,9.18,9.67,16.78c-1.71,6.38-6.86,10.7-13.7,11.04
	c-6.77,0.33-13.57,0.23-20.35,0.3c-1.49,0.02-2.99,0-4.56,0c0-0.65,0-1.18,0-1.79c1.25-0.2,2.51-0.35,3.74-0.63
	c1.75-0.39,2.37-1.1,2.59-2.87c0.11-0.9,0.14-1.81,0.14-2.72c0.01-12.37,0.01-24.75,0-37.12c0-0.55,0-1.09-0.03-1.64
	c-0.17-3.09-1.02-3.96-4.14-4.27c-0.72-0.07-1.45-0.15-2.27-0.24c0-0.6,0-1.17,0-1.81c0.27-0.03,0.58-0.1,0.88-0.1
	c7.06,0,14.13-0.06,21.19,0.05c2.02,0.03,4.12,0.32,6.04,0.94c5.06,1.62,7.87,5.27,8.43,10.51c0.58,5.43-1.53,9.58-6.39,12.23
	C570.76,338.36,570.14,338.64,569.3,339.06z M554.34,340.73c-0.04,0.7-0.07,0.97-0.07,1.24c0,6.36,0,12.73,0,19.09
	c0,0.41,0.02,0.82,0.08,1.22c0.26,1.8,0.77,2.48,2.57,2.61c2.31,0.16,4.65,0.25,6.94,0.04c4.31-0.4,7.28-2.72,8.59-6.88
	c1.19-3.78,1.12-7.62-0.17-11.39c-0.97-2.84-2.91-4.91-5.89-5.26C562.45,340.93,558.44,340.94,554.34,340.73z M554.38,316.81
	c0,7.26,0,14.41,0,21.53c2.78,0,5.46,0.07,8.13-0.02c3.68-0.13,6.1-2.07,7.39-5.46c1.1-2.89,1.11-5.88,0.6-8.86
	c-0.78-4.52-2.97-6.71-7.47-7.14C560.19,316.59,557.32,316.81,554.38,316.81z"/>
<path class="st0" d="M441.06,368.26c-0.38-1.99-0.75-3.92-1.16-6.05c-0.24,0.35-0.37,0.52-0.49,0.71
	c-3.59,5.66-9.78,7.22-15.65,3.89c-3.92-2.22-6.18-5.77-7.3-9.98c-2.01-7.54-1.74-14.92,2.72-21.62c2.95-4.43,7.23-6.33,12.6-5.68
	c2.92,0.35,4.86,2.09,6.48,4.35c0.31,0.43,0.6,0.87,1.09,1.6c0.05-0.67,0.09-1.01,0.09-1.34c0-4.41,0.01-8.83-0.01-13.24
	c-0.02-3.01-0.76-3.72-3.78-3.96c-0.64-0.05-1.81,0.53-1.83-0.71c-0.02-1.19,1.16-0.71,1.82-0.83c3.31-0.62,6.62-1.17,10.13-1.79
	c0,0.53,0,1.1,0,1.66c0,14.38,0,28.76,0.01,43.14c0,1.14,0.05,2.27,0.15,3.41c0.17,1.92,0.75,2.55,2.65,2.88
	c0.63,0.11,1.29,0.03,1.9,0.19c0.42,0.11,0.78,0.47,1.17,0.71c-0.39,0.27-0.75,0.7-1.18,0.79c-2.23,0.43-4.48,0.75-6.72,1.17
	C442.9,367.68,442.08,367.98,441.06,368.26z M421.94,349.06c0.08,1.4,0.1,3.18,0.29,4.94c0.38,3.35,0.94,6.68,3.05,9.48
	c2.84,3.77,8.37,3.76,11.11-0.08c0.85-1.2,1.5-2.61,1.92-4.02c1.5-5,1.37-10.15,0.95-15.28c-0.24-3-0.82-5.95-2.33-8.61
	c-1.78-3.12-4.67-4.48-8.04-3.71c-2.95,0.67-4.4,2.87-5.36,5.5C422.19,340.96,422.09,344.83,421.94,349.06z"/>
<path class="st0" d="M643.48,367.47c-0.01-0.27-0.03-0.7-0.06-1.19c0.92-0.13,1.78-0.22,2.62-0.38c1.73-0.32,2.42-1.06,2.67-2.79
	c0.03-0.23,0.07-0.45,0.07-0.68c-0.05-7.59-0.08-15.19-0.18-22.78c-0.01-1.02-0.31-2.07-0.65-3.05c-0.8-2.27-2.46-3.52-4.87-3.8
	c-5.83-0.68-9.55,2.29-9.74,8.28c-0.22,7.27-0.09,14.56-0.05,21.83c0.01,1.76,0.89,2.66,2.61,2.99c0.8,0.15,1.61,0.24,2.47,0.37
	c0,0.45,0,0.88,0,1.2c-5.68,0-11.3,0-17.06,0c-0.02-0.23-0.05-0.66-0.09-1.19c0.94-0.13,1.83-0.24,2.72-0.37
	c2-0.3,2.73-1.01,2.88-2.99c0.1-1.36,0.09-2.73,0.09-4.09c0.01-7.1,0-14.19,0-21.29c0-0.41,0.01-0.82,0-1.23
	c-0.07-3.52-0.5-3.94-4.05-4.07c-0.32-0.01-0.68,0.04-0.94-0.09c-0.26-0.13-0.58-0.45-0.58-0.69c0-0.24,0.31-0.66,0.55-0.71
	c3.28-0.7,6.57-1.35,10.02-2.05c0.23,1.97,0.48,4.07,0.77,6.48c0.52-0.64,0.9-1.1,1.28-1.56c3.22-3.91,7.4-5.15,12.24-4.14
	c5.65,1.17,8.74,5.24,8.88,11.78c0.13,6.5,0.05,13.01,0.06,19.51c0,0.64-0.01,1.27,0.02,1.91c0.09,2.07,0.87,2.93,2.95,3.24
	c0.85,0.13,1.71,0.22,2.64,0.34c0,0.44,0,0.87,0,1.22C655,367.47,649.3,367.47,643.48,367.47z"/>
<path class="st0" d="M308.86,347.69c-7.88,0-15.7,0-23.69,0c0.14,4.87,0.21,9.62,2.7,13.85c3.4,5.78,12.35,5.76,15.91-0.05
	c0.86-1.4,1.45-3.05,1.81-4.66c0.28-1.24,0.69-1.75,1.93-1.55c0.44,0.07,0.89,0.01,1.33,0.01c0.38,5.71-4.65,11.69-10.59,12.77
	c-9.95,1.8-17.52-3.79-19.03-14.14c-0.75-5.1-0.54-10.17,1.29-15.06c3.21-8.58,10.81-11.4,18.59-9.28c3.09,0.84,5.37,2.8,6.99,5.54
	C307.96,338.23,309.19,343.72,308.86,347.69z M302.64,344.81c-0.26-3.67-0.54-7.2-2.36-10.37c-2.39-4.16-7.97-4.81-11.11-1.23
	c-2.87,3.28-3.39,7.38-3.81,11.59C291.19,344.81,296.82,344.81,302.64,344.81z"/>
<path class="st0" d="M614.31,355.35c0.71,0,1.65,0,2.6,0c-0.14,5.15-3.62,11.44-10.56,12.7c-9.61,1.75-17.11-3.42-18.92-13.14
	c-1-5.36-0.78-10.68,1.05-15.87c2.82-7.99,10.56-11.92,18.62-9.49c4.34,1.31,6.91,4.36,8.39,8.48c1.09,3.03,1.47,6.17,1.48,9.59
	c-7.87,0-15.71,0-23.72,0c0.09,5.09,0.16,9.99,2.89,14.27c3.48,5.47,12.3,5.24,15.68-0.42C612.9,359.68,613.44,357.56,614.31,355.35
	z M610.64,344.79c-0.12-3.26-0.5-6.32-1.73-9.2c-1.13-2.65-2.99-4.45-6.02-4.64c-3.1-0.19-5.33,1.24-6.85,3.85
	c-1.78,3.06-2.3,6.45-2.65,9.99C599.15,344.79,604.82,344.79,610.64,344.79z"/>
<path class="st0" d="M408.61,347.68c-8,0-15.78,0-23.76,0c0.18,5.26,0.13,10.45,3.37,14.83c3.64,4.93,12.09,4.32,15.28-1.11
	c1.06-1.8,1.59-3.92,2.42-6.03c0.72,0,1.7,0,2.68,0c-0.33,7.3-5.85,12.77-13,12.95c-9.08,0.24-15.16-4.82-16.59-13.77
	c-0.92-5.77-0.71-11.43,1.68-16.85c3.9-8.83,12.52-10.11,19.04-7.82c2.16,0.76,3.91,2.15,5.24,4
	C407.86,337.96,408.52,342.63,408.61,347.68z M385,344.78c5.84,0,11.5,0,17.16,0c0.23-2.93-0.77-7.71-2.08-10.11
	c-0.93-1.7-2.23-2.97-4.16-3.49c-3.28-0.87-6.31,0.38-8.16,3.44C385.89,337.7,385.38,341.16,385,344.78z"/>
<path class="st0" d="M485.14,347.72c-8.34,0-16.15,0-24.11,0c0.16,4.79,0.24,9.44,2.59,13.63c3.15,5.63,11.85,6.1,15.58,0.78
	c1.11-1.59,1.59-3.62,2.34-5.46c0.17-0.41,0.22-0.86,0.32-1.32c0.98,0,1.88,0,2.96,0c-0.07,0.62-0.09,1.19-0.22,1.73
	c-1.48,6.58-5.38,10.33-11.6,11.18c-6.77,0.92-12.89-2.06-15.84-7.78c-2.37-4.61-2.71-9.57-2.31-14.62
	c0.24-3.15,0.97-6.19,2.43-9.02c4.25-8.26,12.73-9.17,18.76-6.89c4.27,1.62,6.57,5.09,7.64,9.34
	C484.35,341.94,484.63,344.7,485.14,347.72z M478.39,344.79c0.26-2.98-0.87-8.11-2.29-10.45c-2.52-4.16-8.11-4.67-11.23-0.93
	c-2.72,3.26-3.22,7.28-3.65,11.38C467.06,344.79,472.73,344.79,478.39,344.79z"/>
<path class="st0" d="M685.63,331.88c-3.41,0-6.55,0.14-9.66-0.03c-4.32-0.24-6.98,1.76-8.44,5.66c-0.21,0.55-0.5,1.08-0.67,1.64
	c-0.29,0.97-0.87,1.3-1.97,0.89c0.6-3.35,1.19-6.72,1.8-10.12c9.12,0,18.13,0,27.38,0c-7.21,11.82-14.35,23.52-21.56,35.34
	c0.38,0.09,0.62,0.2,0.86,0.2c3.19-0.01,6.38-0.01,9.57-0.06c2.99-0.05,5.23-1.46,6.65-4.06c0.72-1.31,1.34-2.69,1.82-4.1
	c0.35-1.02,0.82-1.43,2.03-1.02c-0.67,3.69-1.34,7.42-2.02,11.21c-9.08,0-18.08,0-27.37,0
	C671.23,355.58,678.35,343.85,685.63,331.88z"/>
<path class="st0" d="M512.18,331.52c1.29-0.72,0.41-3.36,2.9-3c0,4.05,0,8.04,0,12.13c-0.54,0-1.06,0-1.62,0
	c-0.33-1.31-0.58-2.7-1.03-4.01c-1.78-5.11-7.7-6.99-12.18-3.91c-1.54,1.06-2.49,2.52-2.78,4.36c-0.35,2.29,0.34,4.2,2.44,5.32
	c2.36,1.26,4.8,2.38,7.22,3.54c1.64,0.79,3.31,1.5,4.95,2.3c8.17,3.98,6.06,14.32,0.57,17.63c-5.2,3.13-10.5,3.16-15.81,0.21
	c-0.32-0.18-0.61-0.4-0.92-0.59c-0.26-0.17-0.53-0.34-0.75-0.49c-1.39,0.87-0.94,3.49-3.41,3.41c0-4.44,0-8.75,0-13.1
	c1.05-0.38,1.65-0.29,1.99,1.04c0.45,1.74,1.09,3.49,1.99,5.04c2.51,4.29,7.98,5.74,12.4,3.43c2.41-1.26,3.79-3.25,3.92-5.97
	c0.13-2.64-1.33-4.4-3.54-5.53c-2.67-1.36-5.43-2.55-8.14-3.84c-1.15-0.55-2.27-1.15-3.4-1.74c-7.13-3.73-5.33-13.09-0.77-16.15
	c4.55-3.05,9.33-3.23,14.27-1.01c0.33,0.15,0.64,0.35,0.96,0.52C511.71,331.27,511.99,331.41,512.18,331.52z"/>
<path class="st0" d="M331.39,366.25c0,0.5,0,0.9,0,1.35c-2.95-0.12-5.85-0.34-8.74-0.34c-2.91,0-5.82,0.22-8.86,0.34
	c-0.03-0.38-0.06-0.8-0.11-1.33c0.96-0.13,1.85-0.24,2.73-0.37c2.16-0.32,2.98-1.15,2.99-3.33c0.03-9.19,0.03-18.38,0-27.56
	c-0.01-2.36-0.51-2.84-2.85-3.12c-0.85-0.1-1.71-0.13-2.64-0.2c0-0.43,0-0.81,0-1.14c3.47-0.59,6.86-1.16,10.41-1.77
	c0.25,2.16,0.5,4.36,0.79,6.84c0.47-0.8,0.77-1.38,1.13-1.93c2.21-3.44,5.28-5.19,9.44-4.68c3.58,0.44,5.94,3.43,5.56,7
	c-0.28,2.56-2.8,3.92-5.05,2.68c-1.1-0.6-1.64-1.51-1.36-2.83c0.23-1.11,0.59-2.33-0.54-3.14c-1.2-0.86-2.64-0.75-3.74,0.02
	c-1.14,0.81-2.38,1.88-2.88,3.12c-0.87,2.15-1.6,4.51-1.69,6.81c-0.24,6.5-0.15,13.01-0.13,19.51c0.01,2.74,0.64,3.36,3.41,3.77
	C329.94,366.07,330.61,366.15,331.39,366.25z"/>
<path class="st0" d="M368.54,331.88c1.14-0.97,0.9-3.37,3.24-3.83c0,4.51,0,8.8,0,13.12c-1.15,0.4-1.63,0.05-1.97-1.18
	c-0.48-1.73-1.09-3.5-2.01-5.03c-3.22-5.35-10.18-5.33-13.48-0.03c-1.88,3.02-2.49,6.41-2.78,9.88c-0.39,4.6-0.3,9.18,0.94,13.67
	c0.28,1,0.67,1.99,1.15,2.91c1.49,2.88,3.86,4.43,7.14,4.39c3.22-0.04,5.63-1.54,6.96-4.44c0.86-1.88,1.36-3.92,2.07-6.02
	c0.78,0,1.77,0,2.75,0c0.62,6.32-5.07,12.73-11.52,13c-6.85,0.29-12.24-3.1-14.76-9.7c-2.74-7.16-2.57-14.37,0.78-21.33
	c3.09-6.44,10.01-9.78,16.43-7.96C365.2,329.83,366.76,330.97,368.54,331.88z"/>
<path class="st0" d="M522.33,348.06c0-1.31,0-2.53,0-3.85c5.85,0,11.69,0,17.63,0c0,1.25,0,2.49,0,3.85
	C534.15,348.06,528.31,348.06,522.33,348.06z"/>
</svg>
