<?xml version="1.0" encoding="utf-8"?>
<!-- Generator: Adobe Illustrator 24.0.2, SVG Export Plug-In . SVG Version: 6.00 Build 0)  -->
<svg version="1.1" id="Capa_1" xmlns="http://www.w3.org/2000/svg" xmlns:xlink="http://www.w3.org/1999/xlink" x="0px" y="0px"
	 viewBox="0 0 700 700" style="enable-background:new 0 0 700 700;" xml:space="preserve">
<style type="text/css">
	.st0{fill:#FFFFFF;}
</style>
<path class="st0" d="M347.07,539.75c-50.11-0.01-99.54-5.57-148.03-18.51c-34.48-9.2-67.61-21.79-98.37-40.1
	c-21.78-12.97-41.59-28.34-57.39-48.4c-11.54-14.64-19.92-30.82-23.18-49.33c-4-22.68,0.4-43.93,11.43-63.93
	c9.81-17.79,23.42-32.36,39.07-45.1c24.81-20.21,52.85-34.7,82.54-46.16c34.98-13.51,71.2-22.2,108.28-27.48
	c26.81-3.81,53.74-5.71,80.82-5.93c49.45-0.4,98.25,4.74,146.25,16.79c36,9.04,70.6,21.71,102.78,40.45
	c21.51,12.52,41.17,27.37,57.2,46.6c12.32,14.78,21.49,31.21,25.33,50.25c4.72,23.41,0.48,45.4-10.96,66.14
	c-11.41,20.67-27.74,36.91-46.45,50.92c-25.38,19.02-53.59,32.69-83.28,43.46c-31.48,11.42-63.89,19.1-96.99,23.99
	c-27.15,4.01-54.45,6.19-81.9,6.35C351.84,539.76,349.45,539.75,347.07,539.75z M347.24,208.25c-7.02,0-14.04-0.16-21.06,0.03
	c-25.64,0.67-51.12,3.18-76.43,7.31c-30.27,4.94-59.94,12.24-88.76,22.85c-26.32,9.68-51.42,21.75-74.19,38.28
	c-16.64,12.08-31.35,26.04-42.23,43.69c-8.81,14.28-13.94,29.71-14.02,46.57c-0.07,14.85,3.87,28.75,10.91,41.8
	c9.49,17.61,22.99,31.73,38.53,44.02c21.62,17.1,45.8,29.69,71.31,39.83c38.24,15.21,77.99,24.39,118.74,29.57
	c31.18,3.96,62.47,5.46,93.89,4.59c23.47-0.65,46.82-2.55,70.06-5.92c36.55-5.3,72.25-13.9,106.68-27.4
	c26.75-10.49,52.11-23.56,74.61-41.65c16.11-12.95,30-27.84,39.13-46.64c10.41-21.43,12.09-43.48,4.1-66.05
	c-5.9-16.66-16.02-30.61-28.39-43.02c-15.97-16.02-34.54-28.44-54.48-38.92c-31.94-16.78-65.89-27.95-101-35.78
	C432.69,212.07,390.19,207.87,347.24,208.25z"/>
<path class="st0" d="M347.3,513.76c-50.11,0.03-99.56-5.42-148.02-18.55c-31.33-8.49-61.49-19.89-89.38-36.74
	c-17.18-10.38-32.93-22.51-45.63-38.22c-9.87-12.21-17.08-25.71-19.6-41.4c-2.7-16.83,0.42-32.67,8.37-47.63
	c9.16-17.24,22.6-30.7,37.99-42.36c20.76-15.73,43.84-27.19,68.07-36.47c31.08-11.89,63.23-19.71,96.09-24.78
	c27.65-4.26,55.46-6.45,83.44-6.83c49.9-0.67,99.17,4.22,147.65,16.29c27.09,6.74,53.4,15.74,78.44,28.2
	c20.23,10.06,39.18,22.06,55.35,38.01c12.04,11.89,21.84,25.32,27.01,41.68c6.37,20.16,4.09,39.53-5.64,58.1
	c-9.28,17.71-23.14,31.4-38.95,43.26c-20.84,15.63-43.96,27.01-68.21,36.22c-31.68,12.03-64.43,19.85-97.91,24.84
	c-26.34,3.93-52.81,6.08-79.44,6.36C353.72,513.79,350.51,513.76,347.3,513.76z M346.99,403.95c-82.28,0-164.55,0-246.83,0
	c-0.9,0-1.8-0.05-2.69,0.02c-5.48,0.45-9.14,3.37-11.11,8.41c-1.9,4.86-0.75,10.15,3.02,13.56c3.54,3.21,7.11,6.4,10.87,9.34
	c18.16,14.19,38.46,24.57,59.78,33.05c34.25,13.62,69.86,21.93,106.31,26.95c34.19,4.72,68.54,6.29,103.03,5.05
	c34.87-1.26,69.36-5.42,103.38-13.22c30.96-7.09,60.98-16.89,89.2-31.69c15.48-8.12,29.98-17.64,42.73-29.69
	c2.84-2.68,4.3-5.92,3.91-9.81c-0.73-7.33-5.98-11.97-13.41-11.97C512.44,403.95,429.71,403.95,346.99,403.95z M423.86,330.63
	c57.17,0,114.34,0,171.51,0c5.88,0,10.32-3,12.35-8.27c1.97-5.11,0.66-10.37-3.55-14.26c-1.15-1.06-2.29-2.15-3.45-3.19
	c-16.08-14.4-34.47-25.11-54.13-33.76c-38.6-16.99-79.29-26.17-120.87-31.73c-15.9-2.12-31.91-3.55-47.92-4.74
	c-10.71-0.8-21.49-0.6-32.23-0.92c-1.67-0.05-2.51,0.71-3.38,1.98c-13.69,19.89-29.88,37.44-49.05,52.18
	c-13.98,10.75-29.05,19.63-45.18,26.75c-3.51,1.55-5.21,4.28-5.02,7.93c0.25,4.89,3.84,8.04,9.19,8.05
	C309.37,330.63,366.62,330.63,423.86,330.63z M212.9,249.51c-1.01,0.21-1.44,0.28-1.86,0.4c-9.11,2.59-18.31,4.92-27.32,7.82
	c-27.19,8.72-53.21,20.01-76.85,36.28c-13.25,9.12-25.23,19.6-34.5,32.91c-0.62,0.89-1.17,1.82-2,3.11c1.29,0,2.09,0,2.89,0
	c5.3-0.04,10.6-0.1,15.91-0.11c23.23-0.07,46.46-0.14,69.7-0.14c1.75,0,2.81-0.46,3.79-1.99c12.9-20.19,25.88-40.32,38.83-60.47
	C205.2,261.54,208.89,255.76,212.9,249.51z M211.65,308.28c23.2-4.85,44.25-13.44,63.36-26.6c18.42-12.68,33.53-28.56,46.18-47.64
	c-5.97,0.36-11.41,0.49-16.8,1.06c-15,1.6-29.97,3.41-44.96,5.05c-1.86,0.2-3.08,0.83-4.15,2.45c-13.99,21.1-28.06,42.15-42.1,63.21
	C212.75,306.47,212.35,307.16,211.65,308.28z M325.99,366.23c0,3.22,0,6.17,0,9.41c9.58,0,19.02,0,28.36,0c0,2.57,0,4.84,0,7.24
	c-6.98,0-13.77,0.02-20.57,0c-7.25-0.02-14.5,0.13-21.74-0.18c-8.74-0.38-14.2-7.92-11.74-15.75c1.68-5.34,6.91-8.79,13.48-8.8
	c15.77-0.02,31.54-0.01,47.3-0.01c0.88,0,1.75,0,2.73,0c0-3.26,0-6.27,0-9.37c-0.65-0.05-1.16-0.11-1.67-0.11
	c-16.07-0.01-32.13-0.02-48.2,0.02c-1.78,0-3.58,0.19-5.34,0.49c-14.51,2.44-22.58,17.44-16.32,30.63
	c4.22,8.89,11.94,12.41,21.36,12.48c15.99,0.12,31.98,0.03,47.97,0.03c0.72,0,1.43-0.09,2.18-0.14c0-8.75,0-17.3,0-25.93
	C351.14,366.23,338.62,366.23,325.99,366.23z M462.38,392.11c3.34,0,6.35,0,9.41,0c0-8.32,0.06-16.45-0.02-24.57
	c-0.05-4.28-1.83-8.01-5.22-10.47c-3.15-2.29-6.64-4.39-10.29-5.67c-10.85-3.8-22.1-4.05-33.41-2.5
	c-6.33,0.86-12.46,2.41-17.96,5.85c-4.54,2.84-7.88,6.71-8.07,12.2c-0.29,8.28-0.07,16.57-0.05,24.86c0,0.12,0.16,0.24,0.27,0.39
	c3.03,0,6.07,0,9.44,0c0-2.89,0-5.68,0-8.47c18.79,0,37.26,0,55.9,0C462.38,386.62,462.38,389.29,462.38,392.11z M258.2,392.21
	c0-7.74-0.13-15.2,0.04-22.66c0.15-6.57-2.69-11.37-8.12-14.7c-2.27-1.39-4.74-2.59-7.26-3.42c-12.05-3.97-24.35-4.22-36.75-2.03
	c-5.85,1.04-11.48,2.79-16.34,6.38c-4.42,3.28-6.76,7.59-6.67,13.22c0.11,6.94,0.02,13.89,0.03,20.84c0,0.78,0.07,1.57,0.11,2.26
	c3.24,0,6.18,0,9.38,0c0-2.92,0-5.64,0-8.38c18.74,0,37.21,0,55.93,0c0,2.95,0,5.67,0,8.48
	C251.84,392.21,254.88,392.21,258.2,392.21z M88.65,384.07c1.23,0,2.12,0,3.01,0c14.87,0,29.74,0.01,44.61,0
	c3.52,0,6.79-0.9,9.7-2.93c6.13-4.27,8.75-12.79,6.34-20.65c-2.27-7.38-8.27-11.8-16.36-11.82c-18.38-0.05-36.77-0.02-55.15-0.01
	c-0.58,0-1.16,0.07-1.86,0.12c0,14.49,0,28.86,0,43.33c3.25,0,6.39,0,9.71,0C88.65,389.39,88.65,386.87,88.65,384.07z
	 M513.74,392.19c0-1.07,0-1.87,0-2.68c0-7.91,0.03-15.83-0.02-23.74c-0.01-2,0.25-3.77,2.26-4.69c1.9-0.88,3.53-0.33,5.18,0.89
	c12.5,9.21,25.08,18.31,37.56,27.56c4.05,3,8.21,3.83,12.75,1.57c4.5-2.25,6.21-6.11,6.16-11.04c-0.09-9.63-0.03-19.26-0.03-28.89
	c0-0.78,0-1.57,0-2.33c-3.43,0-6.52,0-9.72,0c0,1,0,1.82,0,2.64c0,7.84,0,15.68-0.01,23.52c0,1.97-0.03,3.95-2.12,5.05
	c-2.09,1.09-3.67,0.02-5.3-1.17c-12.7-9.31-25.42-18.6-38.15-27.88c-3.72-2.71-7.72-3.05-11.81-0.96
	c-4.08,2.08-6.19,5.44-6.17,10.09c0.03,9.93,0.01,19.86,0.01,29.79c0,0.73,0.06,1.46,0.1,2.29
	C507.51,392.19,510.46,392.19,513.74,392.19z M618.95,392.18c0-14.55,0-28.96,0-43.42c-3.12,0-6.08,0-9.11,0
	c0,14.53,0,28.95,0,43.42C612.94,392.18,615.89,392.18,618.95,392.18z"/>
<path class="st0" d="M380.72,495.17c-1.76,0.14-3.28,0.27-5.1,0.42c-0.42-6.96-0.83-13.7-1.26-20.71c2.04-0.22,4.01-0.53,5.99-0.57
	c0.46-0.01,1.12,0.82,1.39,1.4c1.49,3.26,2.87,6.56,4.31,9.84c0.29,0.67,0.63,1.32,1.18,2.45c1.16-4.26,2.35-8.02,3.18-11.85
	c0.45-2.08,1.39-2.91,3.44-2.86c1.32,0.04,2.65-0.15,4.33-0.26c0.51,6.9,1.01,13.71,1.54,20.89c-1.58,0.16-3.07,0.3-4.83,0.48
	c-0.41-4.64-0.79-9.06-1.18-13.48c-0.16-0.02-0.32-0.04-0.48-0.06c-1.13,4.03-2.32,8.04-3.36,12.09c-0.36,1.42-1.06,1.87-2.47,1.9
	c-1.21,0.03-1.7-0.43-2.12-1.47c-1.67-4.14-3.43-8.26-5.61-12.33C380.02,485.71,380.36,490.35,380.72,495.17z"/>
<path class="st0" d="M279,476.7c1.77,0.53,3.83-0.62,4.42,1.89c4.45-2.2,6.6-1.77,8.61,1.43c1.97-0.54,3.82-1.5,5.64-1.45
	c2.91,0.08,4.46,1.95,4.36,4.9c-0.12,3.35-0.52,6.69-0.92,10.01c-0.05,0.42-0.8,1.03-1.26,1.06c-1.02,0.08-2.06-0.15-3.36-0.29
	c0.31-3.16,0.72-6.23,0.84-9.32c0.04-1.12-0.31-2.62-1.06-3.32c-1.21-1.13-3.18,0.15-3.59,2.33c-0.58,3.07-0.97,6.17-1.47,9.49
	c-1.43-0.11-2.81-0.21-4.47-0.34c0.37-3.04,0.76-5.89,1.06-8.76c0.17-1.67,0.68-3.62-1.66-4.25c-1.53-0.41-3.04,1.22-3.4,3.7
	c-0.41,2.79-0.65,5.61-0.99,8.69c-1.43-0.17-2.78-0.34-4.51-0.54C277.82,486.87,278.39,481.96,279,476.7z"/>
<path class="st0" d="M227.2,483.26c-0.9-0.19-1.55-0.42-2.2-0.45c-2.17-0.09-3.25-1.09-3.03-3.32c0.13-1.31-0.56-1.86-1.77-2.05
	c-0.81-0.13-1.63-0.29-2.38-0.59c-2.19-0.85-3.94-0.76-5.05,1.72c-0.2,0.45-1.31,0.77-1.93,0.68c-1.15-0.17-2.24-0.69-3.6-1.15
	c3.26-4.79,6.4-9.38,9.54-13.98c0.42-0.62,0.94-1.18,1.24-1.85c0.98-2.12,2.41-2.68,4.61-1.76c1.04,0.44,2.06,0.5,2.23,2
	c0.72,6.51,1.56,13.01,2.34,19.51C227.23,482.31,227.2,482.6,227.2,483.26z M221.55,474.11c-0.21-2.75-0.4-5.19-0.59-7.62
	c-0.16-0.01-0.32-0.03-0.48-0.04c-1.3,2.1-2.61,4.2-4.01,6.47c1.02,0.27,1.65,0.46,2.29,0.61
	C219.55,473.71,220.35,473.86,221.55,474.11z"/>
<path class="st0" d="M324.84,474.77c1.63,0,2.94,0,4.42,0c0,2.33,0,4.5,0,6.72c5.37-1.75,8.36-1.11,10.16,2.09
	c1.95,3.48,1.15,9.29-1.6,11.63c-2.53,2.15-5.98,1.97-8.54,0c-2.06,0.23-3.53,0.4-5.32,0.61
	C324.26,488.57,324.55,481.74,324.84,474.77z M335.82,487.74c-0.07-0.36,0.02-1.35-0.43-1.91c-0.77-0.96-1.86-2.28-2.83-2.3
	c-1.11-0.02-2.41,1.06-3.32,1.97c-0.54,0.54-0.61,1.66-0.68,2.53c-0.23,3.22,1.28,5.44,3.6,5.44
	C334.31,493.45,335.83,491.28,335.82,487.74z"/>
<path class="st0" d="M437.95,488.94c-1.91-0.15-3.63,1.77-5.2-0.34c-2.78,2.85-5.96,3.38-8.76,1.45c-3.25-2.24-4.58-7.42-2.91-11.29
	c1.47-3.41,4.61-4.49,9.91-3.24c-0.41-2.17-0.8-4.25-1.23-6.52c1.53-0.3,2.9-0.57,4.49-0.88
	C435.48,475.03,436.68,481.82,437.95,488.94z M432.81,483.55c-0.45-1.4-0.62-3-1.44-4.13c-0.67-0.92-2.21-1.84-3.22-1.71
	c-1.01,0.13-2.39,1.45-2.63,2.47c-0.35,1.48-0.04,3.23,0.4,4.74c0.51,1.76,1.61,3.29,3.83,2.95
	C431.48,487.62,432.58,485.86,432.81,483.55z"/>
<path class="st0" d="M455.7,478.81c-3.76,0.81-7.38,1.6-10.99,2.38c-0.14,0.21-0.27,0.42-0.41,0.63c0.91,0.79,1.72,2,2.76,2.26
	c1.06,0.27,2.99-0.01,3.43-0.72c1.3-2.12,3.28-1.92,5.17-2.36c0.11,3.82-2.99,6.24-8.25,6.55c-4.4,0.26-7.54-2.55-8.05-7.2
	c-0.53-4.91,2.44-8.56,7.55-9.28C451.84,470.37,454.65,472.77,455.7,478.81z M450.54,477.25c-0.51-2.57-1.54-3.4-3.58-3.07
	c-1.94,0.32-2.86,1.7-2.65,4.21C446.4,478.01,448.47,477.63,450.54,477.25z"/>
<path class="st0" d="M487.95,477.3c-1.99,0.91-3.83,2.03-5.83,2.6c-1.99,0.58-3.87,0.06-4.81-2.17c-0.95-2.25-0.45-4.28,1.63-5.67
	c1.3-0.86,2.82-1.39,4.11-2.25c0.77-0.51,1.47-1.3,1.85-2.13c0.11-0.24-1.07-1.54-1.52-1.47c-1.08,0.16-2.85,0.71-2.98,1.36
	c-0.53,2.72-2.74,2.19-4.55,2.95c-0.08-0.72-0.23-1.29-0.19-1.84c0.19-3.09,3.62-5.58,8.16-5.97c3.13-0.27,4.88,1.03,5.79,4.32
	c0.59,2.16,1.13,4.33,1.78,6.47c0.3,0.97,0.83,1.86,1.39,3.08C491.17,476.82,489.46,477.08,487.95,477.3z M485.78,471.1
	c-1.25,0.77-2.6,1.41-3.7,2.34c-0.47,0.41-0.76,1.59-0.51,2.12c0.24,0.5,1.33,0.88,2,0.82C486.09,476.16,487.01,473.95,485.78,471.1
	z"/>
<path class="st0" d="M275.78,482.71c0.01,5.06-3.17,8.53-7.81,8.51c-5.51-0.02-9.02-2.94-9.04-7.5c-0.03-5.61,3-9.04,7.99-9.06
	C272.15,474.65,275.78,477.95,275.78,482.71z M263.31,483.88c0.2,2.45,1.21,3.98,3.04,4.28c1.87,0.31,3.38-0.7,3.98-3.02
	c0.38-1.47,0.71-3.14,0.37-4.55c-0.26-1.05-1.52-2.42-2.52-2.58c-1.01-0.17-2.61,0.68-3.29,1.58
	C264.02,480.76,263.81,482.43,263.31,483.88z"/>
<path class="st0" d="M312.98,495.83c-5.3-0.03-8.3-2.96-8.3-8.1c0.01-5.47,2.87-8.35,8.26-8.3c5.4,0.05,8.59,3.09,8.56,8.17
	C321.47,492.69,318.2,495.85,312.98,495.83z M316.63,487.88c-0.04-0.74-0.05-1.26-0.09-1.77c-0.15-2.05-1.23-3.38-3.28-3.58
	c-2.15-0.21-3.33,1.15-3.68,3.09c-0.25,1.36-0.27,2.8-0.12,4.18c0.21,1.85,1.43,2.93,3.29,3.04c1.91,0.12,3.04-0.99,3.54-2.75
	C316.52,489.3,316.55,488.48,316.63,487.88z"/>
<path class="st0" d="M410.59,476.85c5.07-0.06,8.11,3.03,8.14,8.29c0.03,4.87-3.38,8.04-8.73,8.11c-4.87,0.07-7.85-3.15-7.91-8.55
	C402.02,479.72,405.05,476.92,410.59,476.85z M413.9,485.39c-0.1-0.59-0.22-1.86-0.57-3.06c-0.45-1.59-1.5-2.48-3.29-2.38
	c-1.83,0.11-3.03,1.04-3.21,2.79c-0.15,1.44-0.01,2.97,0.32,4.38c0.53,2.23,2.06,3.19,4.08,2.89
	C413.11,489.73,413.96,488.48,413.9,485.39z"/>
<path class="st0" d="M501.53,417.58c0.04-3.98,3-6.9,7-6.89c4.07,0.01,7.05,3.04,7,7.12c-0.06,3.96-3.04,6.91-7,6.92
	C504.5,424.74,501.49,421.66,501.53,417.58z"/>
<path class="st0" d="M279.6,410.69c4.02,0,7.15,3.13,7.09,7.09c-0.06,3.9-3.12,6.92-7.03,6.95c-3.96,0.03-7.16-3.18-7.1-7.11
	C272.62,413.71,275.69,410.69,279.6,410.69z"/>
<path class="st0" d="M325.38,424.73c-3.99-0.06-7.09-3.27-6.96-7.21c0.13-3.94,3.17-6.87,7.09-6.83c3.9,0.04,7.18,3.38,7.05,7.18
	C332.42,421.65,329.14,424.78,325.38,424.73z"/>
<path class="st0" d="M232.29,468.37c1.56,0.38,2.84,0.69,4.22,1.02c-0.64,3.15-1.23,6.14-1.84,9.12c-0.33,1.62-0.54,3.26,1.5,3.85
	c2.03,0.58,3.17-0.74,3.66-2.41c0.78-2.63,1.27-5.35,1.9-8.03c0.1-0.42,0.29-0.82,0.48-1.34c1.44,0.39,2.79,0.76,4.4,1.19
	c-1.12,5-2.21,9.9-3.35,15.02c-1.63-0.98-4-0.01-4.56-2.4c-1.23,0.27-2.45,0.77-3.68,0.76c-3.81-0.05-5.81-2.39-5.14-6.16
	C230.51,475.49,231.44,472.04,232.29,468.37z"/>
<path class="st0" d="M176.08,467.14c-4.04,0.02-7.14-3.06-7.12-7.06c0.03-3.89,3.07-6.9,7.02-6.92c4.02-0.02,7.17,3.1,7.11,7.06
	C183.03,464.17,180.04,467.12,176.08,467.14z"/>
<path class="st0" d="M525.56,460.23c-0.03,4.03-2.9,6.89-6.94,6.9c-4.06,0.01-7.13-3.06-7.06-7.08c0.07-3.96,3.05-6.9,7.01-6.9
	C522.71,453.15,525.59,456.07,525.56,460.23z"/>
<path class="st0" d="M469.72,417.65c0.04,3.89-2.94,6.97-6.85,7.08c-3.85,0.11-7.18-3.11-7.24-7c-0.06-3.86,3.18-7.04,7.15-7.04
	C466.67,410.69,469.68,413.71,469.72,417.65z"/>
<path class="st0" d="M240.79,417.67c0.01,3.95-2.93,6.99-6.84,7.06c-3.91,0.07-7.19-3.13-7.19-7.01c-0.01-3.9,3.22-7.07,7.16-7.02
	C237.86,410.74,240.77,413.69,240.79,417.67z"/>
<path class="st0" d="M561.32,417.74c-0.02,3.88-3.07,6.97-6.93,7c-3.99,0.03-7.03-3.04-7.02-7.08c0.01-4.08,3.04-7.04,7.1-6.96
	C558.35,410.77,561.34,413.84,561.32,417.74z"/>
<path class="st0" d="M181.01,417.72c-0.02-3.9,2.96-6.96,6.84-7.03c4.04-0.07,7.1,2.93,7.11,6.98c0.01,4.03-3.07,7.12-7.05,7.06
	C184.03,424.68,181.02,421.62,181.01,417.72z"/>
<path class="st0" d="M464.52,483.65c-1.48,0.42-2.81,0.8-4.29,1.22c-1.23-5.04-2.41-9.86-3.67-15.04c1.75-0.22,3.22-0.4,4.69-0.58
	c-0.02,0.13-0.03,0.26-0.05,0.39c1.53-0.84,2.97-1.96,4.61-2.45c2.89-0.86,4.84,0.18,5.78,3.07c1.15,3.53,2,7.17,3.04,10.94
	c-1.58,0.42-2.99,0.8-4.57,1.22c-0.81-3.15-1.57-6.1-2.33-9.05c-0.43-1.69-1.01-3.28-3.26-2.77c-1.7,0.38-2.43,1.96-1.96,4.15
	C463.13,477.66,463.81,480.55,464.52,483.65z"/>
<path class="st0" d="M559.95,448.76c-4.12-0.08-6.84-3-6.75-7.24c0.08-3.9,3.18-6.84,7.11-6.74c3.79,0.1,6.87,3.29,6.84,7.1
	C567.12,445.87,564.01,448.84,559.95,448.76z"/>
<path class="st0" d="M134.62,448.77c-4.11,0.03-7.1-2.91-7.1-6.95c0-3.89,3.04-7,6.87-7.04c3.96-0.04,7.14,3.1,7.13,7.04
	C141.52,445.78,138.57,448.74,134.62,448.77z"/>
<path class="st0" d="M142.52,424.72c-3.95,0.07-7.19-3.1-7.18-7.02c0.01-3.89,3.06-6.98,6.93-7.01c3.79-0.03,6.75,2.88,6.88,6.77
	C149.27,421.41,146.31,424.66,142.52,424.72z"/>
<path class="st0" d="M378.01,417.63c0.04,3.97-2.96,7.11-6.77,7.1c-3.9-0.01-6.89-3.02-6.93-6.98c-0.04-4.06,2.96-7.08,7.03-7.06
	C375.1,410.71,377.97,413.69,378.01,417.63z"/>
<path class="st0" d="M410.15,417.72c0-4.04,2.9-7.04,6.8-7.02c3.88,0.01,6.92,3.07,6.94,6.98c0.03,3.95-3.18,7.12-7.13,7.05
	C413.02,424.67,410.16,421.63,410.15,417.72z"/>
<path class="st0" d="M250.23,475.51c-0.99-0.3-1.68-0.5-2.57-0.77c0.14-0.92,0.27-1.77,0.43-2.8c0.93,0.08,1.71,0.16,2.73,0.25
	c0.34-1.36,0.7-2.76,1.1-4.34c1.47,0.27,2.83,0.52,4.41,0.81c-0.26,1.55-0.49,2.98-0.74,4.5c0.95,0.26,1.8,0.5,2.92,0.81
	c-0.09,0.85-0.19,1.76-0.31,2.86c-1.07-0.13-2-0.25-3.29-0.4c-0.48,2.68-1.12,5.34-1.29,8.02c-0.04,0.6,1.57,1.3,2.64,2.12
	c-0.08,0.38-0.26,1.17-0.5,2.26c-1.22-0.1-2.47-0.07-3.66-0.31c-2.91-0.58-3.77-1.77-3.35-4.73
	C249.12,481.07,249.7,478.39,250.23,475.51z"/>
<path class="st0" d="M351.42,496.52c0-7.04,0-13.87,0-21.02c1.25-0.13,2.67-0.28,4.32-0.45c0,7.11,0,13.95,0,21.03
	C354.46,496.21,353.09,496.35,351.42,496.52z"/>
<path class="st0" d="M359.08,481.29c1.55-0.14,2.93-0.26,4.57-0.41c0.31,5.15,0.6,10.08,0.9,15.21c-1.61,0.15-2.98,0.27-4.53,0.41
	C359.71,491.35,359.4,486.4,359.08,481.29z"/>
<path class="st0" d="M347.83,481.05c0,5.01,0,9.9,0,14.95c-1.53,0-2.9,0-4.34,0c0-4.97,0-9.9,0-14.95
	C345.12,481.05,346.5,481.05,347.83,481.05z"/>
<path class="st0" d="M343.63,478.64c0-1.28,0-2.29,0-3.41c1.49,0,2.86,0,4.37,0c0,1.13,0,2.2,0,3.41
	C346.53,478.64,345.17,478.64,343.63,478.64z"/>
<path class="st0" d="M363.37,475.08c0.08,1.33,0.13,2.33,0.2,3.54c-1.49,0-2.84,0-4.43,0c-0.09-0.94-0.19-1.92-0.31-3.1
	C360.35,475.36,361.71,475.23,363.37,475.08z"/>
<path class="st0" d="M455.63,258.29c0.18-3.88,3.62-7,7.46-6.75c3.92,0.25,6.75,3.37,6.6,7.3c-0.15,3.93-3.28,6.9-7.14,6.77
	C458.66,265.49,455.45,262.1,455.63,258.29z"/>
<path class="st0" d="M347.84,239.04c4,0.03,7.1,3.2,7,7.15c-0.1,3.91-3.18,6.91-7.06,6.88c-3.88-0.03-7.17-3.37-7.06-7.17
	C340.82,242.1,344.03,239.01,347.84,239.04z"/>
<path class="st0" d="M424.43,258.18c-3.92,0.01-7.01-3.02-7.02-6.88c-0.01-3.8,3.17-7.02,6.95-7.06c3.83-0.03,7.26,3.35,7.18,7.1
	C431.46,255.18,428.35,258.17,424.43,258.18z"/>
<path class="st0" d="M573.11,292.2c3.94,0.03,6.97,3.05,6.97,6.96c0.01,3.78-3.19,6.97-7,6.97c-3.87,0.01-7.24-3.34-7.14-7.11
	C566.03,295.23,569.24,292.17,573.11,292.2z"/>
<path class="st0" d="M539.35,288.19c-3.89,0-6.98-3.03-7.04-6.94c-0.06-3.79,3.12-7.03,6.93-7.08c3.82-0.05,7.27,3.34,7.21,7.09
	C546.39,285.04,543.17,288.18,539.35,288.19z"/>
<path class="st0" d="M515.48,325.79c-3.9-0.05-6.94-3.1-6.94-6.97c0-3.83,3.1-6.86,7.02-6.85c3.82,0.01,7.11,3.26,7.02,6.92
	C522.48,322.67,519.21,325.84,515.48,325.79z"/>
<path class="st0" d="M379.27,246.93c0.03-3.8,3.12-7.01,6.73-6.99c3.93,0.02,7.06,3.26,6.99,7.23c-0.07,3.93-3.16,6.88-7.1,6.8
	C382.1,253.88,379.25,250.85,379.27,246.93z"/>
<path class="st0" d="M433.35,318.71c0.04,3.75-3.17,7.03-6.96,7.08c-3.88,0.06-7.02-2.99-7.09-6.88c-0.06-3.85,3.05-6.94,6.99-6.93
	C430.06,311.98,433.3,315.08,433.35,318.71z"/>
<path class="st0" d="M567.15,318.84c-0.02,3.78-3.25,6.97-7.04,6.96c-3.92-0.02-6.92-3.06-6.91-7c0.01-3.83,2.95-6.75,6.84-6.81
	C563.9,311.93,567.17,315.08,567.15,318.84z"/>
<path class="st0" d="M477.92,318.78c0,3.79-3.2,6.99-6.99,7.01c-3.91,0.01-6.94-3.02-6.96-6.95c-0.02-3.9,3.07-6.92,7.02-6.86
	C474.79,312.03,477.92,315.11,477.92,318.78z"/>
<path class="st0" d="M388.67,318.82c-0.01,3.8-3.22,6.98-7.02,6.96c-3.91-0.02-6.93-3.06-6.92-6.99c0-3.9,3.11-6.9,7.07-6.81
	C385.61,312.06,388.69,315.12,388.67,318.82z"/>
<path class="st0" d="M507.9,268.3c-0.01,3.83-3,6.98-6.67,7.02c-3.98,0.04-7.08-3.1-7.04-7.12c0.04-3.94,3.07-6.9,7.03-6.86
	C504.98,261.37,507.91,264.42,507.9,268.3z"/>
<path class="st0" d="M326.73,280.8c0.01,3.81-3.18,7.09-6.88,7.06c-3.77-0.03-6.95-3.25-6.94-7.02c0.01-3.89,3.03-6.95,6.9-7
	C323.62,273.79,326.72,276.91,326.73,280.8z"/>
<path class="st0" d="M343.77,318.81c0,3.86-2.94,6.94-6.65,6.98c-3.94,0.04-7.11-3.13-7.06-7.08c0.04-3.75,3.06-6.68,6.93-6.73
	C340.72,311.94,343.78,315.02,343.77,318.81z"/>
<path class="st0" d="M299.1,318.86c-0.02,3.91-2.91,6.92-6.65,6.93c-3.96,0.01-7.02-3.12-6.96-7.13c0.05-3.76,3.06-6.67,6.93-6.68
	C296.16,311.97,299.12,315.02,299.1,318.86z"/>
<path class="st0" d="M406.71,373.93c-1.23-7.59,0.69-11.04,7.84-13.44c8.62-2.9,17.56-3.5,26.55-2.56
	c4.13,0.43,8.22,1.43,12.28,2.35c1.5,0.34,2.93,1.09,4.32,1.81c3.18,1.65,5.04,4.11,4.66,7.92c-0.12,1.25-0.02,2.52-0.02,3.93
	C443.69,373.93,425.28,373.93,406.71,373.93z"/>
<path class="st0" d="M192.81,373.92c-1.26-7.56,0.58-11.1,7.61-13.34c13.25-4.2,26.59-4.07,39.9-0.1c0.14,0.04,0.27,0.12,0.41,0.17
	c6.93,2.63,8.67,5.68,7.45,13.26C229.8,373.92,211.38,373.92,192.81,373.92z"/>
<path class="st0" d="M88.7,374.03c0-5.29,0-10.43,0-15.89c0.78,0,1.49,0,2.21,0c14.85,0,29.71,0.02,44.56-0.01
	c3.29-0.01,5.9,1.12,7.23,4.23c1.41,3.31,1.35,6.72-1.15,9.43c-1.15,1.24-3.16,2.35-4.8,2.36c-15.75,0.17-31.5,0.1-47.25,0.09
	C89.29,374.23,89.08,374.13,88.7,374.03z"/>
</svg>
