<?xml version="1.0" encoding="utf-8"?>
<!-- Generator: Adobe Illustrator 24.0.2, SVG Export Plug-In . SVG Version: 6.00 Build 0)  -->
<svg version="1.1" id="Capa_1" xmlns="http://www.w3.org/2000/svg" xmlns:xlink="http://www.w3.org/1999/xlink" x="0px" y="0px"
	 viewBox="0 0 700 125" style="enable-background:new 0 0 700 125;" xml:space="preserve">
<style type="text/css">
	.st0{fill:#FFFFFF;}
</style>
<g>
	<path class="st0" d="M349.96,125c-18.16,0-36.07-2.02-53.64-6.71c-12.49-3.33-24.5-7.9-35.64-14.53
		c-7.89-4.7-15.07-10.27-20.8-17.54c-4.18-5.3-7.22-11.17-8.4-17.87c-1.45-8.22,0.14-15.92,4.14-23.16
		c3.55-6.45,8.49-11.73,14.16-16.34c8.99-7.32,19.15-12.57,29.91-16.73c12.67-4.9,25.8-8.04,39.24-9.96
		c9.71-1.38,19.47-2.07,29.29-2.15c17.92-0.14,35.6,1.72,52.99,6.08c13.04,3.28,25.58,7.87,37.24,14.66
		c7.79,4.54,14.92,9.92,20.73,16.89c4.46,5.36,7.79,11.31,9.18,18.21c1.71,8.48,0.17,16.45-3.97,23.97
		c-4.13,7.49-10.05,13.37-16.83,18.45c-9.2,6.89-19.42,11.85-30.18,15.75c-11.41,4.14-23.15,6.92-35.14,8.69
		c-9.84,1.45-19.73,2.24-29.68,2.3C351.69,125,350.83,125,349.96,125z M350.02,4.88c-2.54,0-5.09-0.06-7.63,0.01
		c-9.29,0.24-18.52,1.15-27.69,2.65c-10.97,1.79-21.72,4.44-32.16,8.28c-9.54,3.51-18.63,7.88-26.88,13.87
		c-6.03,4.38-11.36,9.44-15.3,15.83c-3.19,5.17-5.05,10.77-5.08,16.87c-0.03,5.38,1.4,10.42,3.95,15.15
		c3.44,6.38,8.33,11.5,13.96,15.95c7.83,6.2,16.6,10.76,25.84,14.43c13.86,5.51,28.26,8.84,43.03,10.71
		c11.3,1.43,22.64,1.98,34.02,1.66c8.5-0.24,16.97-0.92,25.39-2.15c13.24-1.92,26.18-5.04,38.66-9.93
		c9.69-3.8,18.88-8.54,27.03-15.09c5.84-4.69,10.87-10.09,14.18-16.9c3.77-7.77,4.38-15.75,1.49-23.93
		c-2.14-6.04-5.8-11.09-10.29-15.59c-5.79-5.8-12.52-10.31-19.74-14.1c-11.57-6.08-23.88-10.13-36.6-12.96
		C380.99,6.26,365.59,4.74,350.02,4.88z"/>
	<path class="st0" d="M350.05,115.58c-18.16,0.01-36.08-1.96-53.63-6.72c-11.35-3.08-22.28-7.21-32.39-13.31
		c-6.23-3.76-11.93-8.16-16.53-13.85c-3.58-4.42-6.19-9.32-7.1-15c-0.98-6.1,0.15-11.84,3.03-17.26
		c3.32-6.25,8.19-11.12,13.77-15.35c7.52-5.7,15.89-9.85,24.67-13.21c11.26-4.31,22.91-7.14,34.82-8.98
		c10.02-1.54,20.1-2.34,30.23-2.47c18.08-0.24,35.93,1.53,53.5,5.9c9.82,2.44,19.35,5.7,28.42,10.22
		c7.33,3.65,14.2,7.99,20.06,13.77c4.36,4.31,7.91,9.17,9.79,15.1c2.31,7.3,1.48,14.32-2.04,21.05
		c-3.36,6.42-8.38,11.38-14.11,15.68c-7.55,5.66-15.93,9.79-24.72,13.12c-11.48,4.36-23.35,7.19-35.48,9
		c-9.54,1.42-19.14,2.2-28.79,2.3C352.37,115.59,351.21,115.58,350.05,115.58z M349.93,75.79c-29.81,0-59.62,0-89.44,0
		c-0.33,0-0.65-0.02-0.97,0.01c-1.99,0.16-3.31,1.22-4.03,3.05c-0.69,1.76-0.27,3.68,1.09,4.91c1.28,1.16,2.58,2.32,3.94,3.38
		c6.58,5.14,13.94,8.9,21.66,11.98c12.41,4.94,25.31,7.95,38.52,9.77c12.39,1.71,24.84,2.28,37.33,1.83
		c12.64-0.46,25.13-1.96,37.46-4.79c11.22-2.57,22.1-6.12,32.32-11.48c5.61-2.94,10.86-6.39,15.48-10.76
		c1.03-0.97,1.56-2.15,1.42-3.55c-0.26-2.66-2.17-4.34-4.86-4.34C409.88,75.79,379.91,75.79,349.93,75.79z M377.79,49.22
		c20.72,0,41.43,0,62.15,0c2.13,0,3.74-1.09,4.48-3c0.71-1.85,0.24-3.76-1.29-5.17c-0.42-0.38-0.83-0.78-1.25-1.16
		c-5.83-5.22-12.49-9.1-19.61-12.23c-13.99-6.16-28.73-9.48-43.8-11.5c-5.76-0.77-11.56-1.29-17.36-1.72
		c-3.88-0.29-7.79-0.22-11.68-0.33c-0.61-0.02-0.91,0.26-1.22,0.72c-4.96,7.21-10.83,13.57-17.77,18.91
		c-5.07,3.9-10.53,7.11-16.37,9.69c-1.27,0.56-1.89,1.55-1.82,2.87c0.09,1.77,1.39,2.91,3.33,2.92
		C336.3,49.22,357.05,49.22,377.79,49.22z M301.35,19.83c-0.37,0.08-0.52,0.1-0.67,0.14c-3.3,0.94-6.63,1.78-9.9,2.83
		c-9.85,3.16-19.28,7.25-27.85,13.15c-4.8,3.3-9.14,7.1-12.5,11.92C250.2,48.2,250,48.54,249.7,49c0.47,0,0.76,0,1.05,0
		c1.92-0.01,3.84-0.04,5.76-0.04c8.42-0.03,16.83-0.05,25.26-0.05c0.63,0,1.02-0.17,1.37-0.72c4.67-7.32,9.38-14.61,14.07-21.91
		C298.56,24.19,299.89,22.09,301.35,19.83z M300.89,41.12c8.41-1.76,16.03-4.87,22.96-9.64c6.67-4.59,12.15-10.35,16.73-17.26
		c-2.16,0.13-4.13,0.18-6.09,0.38c-5.44,0.58-10.86,1.24-16.29,1.83c-0.67,0.07-1.12,0.3-1.5,0.89
		c-5.07,7.65-10.17,15.27-15.25,22.9C301.29,40.47,301.15,40.72,300.89,41.12z M342.32,62.12c0,1.17,0,2.24,0,3.41
		c3.47,0,6.89,0,10.28,0c0,0.93,0,1.75,0,2.62c-2.53,0-4.99,0.01-7.45,0c-2.63-0.01-5.25,0.05-7.88-0.07
		c-3.17-0.14-5.15-2.87-4.25-5.71c0.61-1.93,2.5-3.19,4.88-3.19c5.71-0.01,11.43,0,17.14,0c0.32,0,0.63,0,0.99,0
		c0-1.18,0-2.27,0-3.4c-0.24-0.02-0.42-0.04-0.61-0.04c-5.82,0-11.64-0.01-17.47,0.01c-0.64,0-1.3,0.07-1.93,0.18
		c-5.26,0.88-8.18,6.32-5.91,11.1c1.53,3.22,4.33,4.5,7.74,4.52c5.79,0.04,11.59,0.01,17.38,0.01c0.26,0,0.52-0.03,0.79-0.05
		c0-3.17,0-6.27,0-9.4C351.44,62.12,346.9,62.12,342.32,62.12z M391.75,71.5c1.21,0,2.3,0,3.41,0c0-3.01,0.02-5.96-0.01-8.9
		c-0.02-1.55-0.66-2.9-1.89-3.79c-1.14-0.83-2.41-1.59-3.73-2.05c-3.93-1.38-8.01-1.47-12.11-0.91c-2.29,0.31-4.51,0.87-6.51,2.12
		c-1.65,1.03-2.86,2.43-2.92,4.42c-0.11,3-0.03,6-0.02,9.01c0,0.04,0.06,0.09,0.1,0.14c1.1,0,2.2,0,3.42,0c0-1.05,0-2.06,0-3.07
		c6.81,0,13.5,0,20.26,0C391.75,69.51,391.75,70.48,391.75,71.5z M317.76,71.54c0-2.8-0.05-5.51,0.01-8.21
		c0.05-2.38-0.97-4.12-2.94-5.33c-0.82-0.5-1.72-0.94-2.63-1.24c-4.37-1.44-8.82-1.53-13.32-0.74c-2.12,0.38-4.16,1.01-5.92,2.31
		c-1.6,1.19-2.45,2.75-2.42,4.79c0.04,2.51,0.01,5.03,0.01,7.55c0,0.28,0.03,0.57,0.04,0.82c1.17,0,2.24,0,3.4,0
		c0-1.06,0-2.04,0-3.04c6.79,0,13.48,0,20.27,0c0,1.07,0,2.05,0,3.07C315.46,71.54,316.56,71.54,317.76,71.54z M256.32,68.59
		c0.45,0,0.77,0,1.09,0c5.39,0,10.78,0,16.16,0c1.28,0,2.46-0.33,3.51-1.06c2.22-1.55,3.17-4.63,2.3-7.48
		c-0.82-2.67-3-4.28-5.93-4.28c-6.66-0.02-13.32-0.01-19.98,0c-0.21,0-0.42,0.03-0.67,0.04c0,5.25,0,10.46,0,15.7
		c1.18,0,2.32,0,3.52,0C256.32,70.51,256.32,69.6,256.32,68.59z M410.36,71.53c0-0.39,0-0.68,0-0.97c0-2.87,0.01-5.74-0.01-8.6
		c0-0.72,0.09-1.37,0.82-1.7c0.69-0.32,1.28-0.12,1.88,0.32c4.53,3.34,9.09,6.63,13.61,9.99c1.47,1.09,2.97,1.39,4.62,0.57
		c1.63-0.82,2.25-2.21,2.23-4c-0.03-3.49-0.01-6.98-0.01-10.47c0-0.28,0-0.57,0-0.84c-1.24,0-2.36,0-3.52,0c0,0.36,0,0.66,0,0.96
		c0,2.84,0,5.68,0,8.52c0,0.71-0.01,1.43-0.77,1.83c-0.76,0.39-1.33,0.01-1.92-0.42c-4.6-3.37-9.21-6.74-13.82-10.1
		c-1.35-0.98-2.8-1.11-4.28-0.35c-1.48,0.75-2.24,1.97-2.24,3.66c0.01,3.6,0,7.2,0,10.79c0,0.26,0.02,0.53,0.04,0.83
		C408.1,71.53,409.17,71.53,410.36,71.53z M448.48,71.52c0-5.27,0-10.49,0-15.73c-1.13,0-2.2,0-3.3,0c0,5.26,0,10.49,0,15.73
		C446.3,71.52,447.37,71.52,448.48,71.52z"/>
	<path class="st0" d="M362.16,108.84c-0.64,0.05-1.19,0.1-1.85,0.15c-0.15-2.52-0.3-4.96-0.46-7.5c0.74-0.08,1.45-0.19,2.17-0.21
		c0.17,0,0.41,0.3,0.5,0.51c0.54,1.18,1.04,2.38,1.56,3.57c0.11,0.24,0.23,0.48,0.43,0.89c0.42-1.54,0.85-2.91,1.15-4.29
		c0.16-0.75,0.5-1.05,1.25-1.04c0.48,0.01,0.96-0.05,1.57-0.09c0.18,2.5,0.37,4.97,0.56,7.57c-0.57,0.06-1.11,0.11-1.75,0.17
		c-0.15-1.68-0.29-3.28-0.43-4.88c-0.06-0.01-0.12-0.01-0.17-0.02c-0.41,1.46-0.84,2.91-1.22,4.38c-0.13,0.51-0.38,0.68-0.9,0.69
		c-0.44,0.01-0.62-0.16-0.77-0.53c-0.61-1.5-1.24-2.99-2.03-4.47C361.9,105.42,362.03,107.1,362.16,108.84z"/>
	<path class="st0" d="M325.3,102.15c0.64,0.19,1.39-0.22,1.6,0.68c1.61-0.8,2.39-0.64,3.12,0.52c0.71-0.2,1.38-0.54,2.04-0.53
		c1.05,0.03,1.62,0.71,1.58,1.78c-0.04,1.21-0.19,2.42-0.33,3.63c-0.02,0.15-0.29,0.37-0.46,0.38c-0.37,0.03-0.75-0.05-1.22-0.11
		c0.11-1.15,0.26-2.26,0.3-3.38c0.01-0.41-0.11-0.95-0.38-1.2c-0.44-0.41-1.15,0.05-1.3,0.84c-0.21,1.11-0.35,2.24-0.53,3.44
		c-0.52-0.04-1.02-0.08-1.62-0.12c0.13-1.1,0.28-2.13,0.38-3.17c0.06-0.61,0.25-1.31-0.6-1.54c-0.55-0.15-1.1,0.44-1.23,1.34
		c-0.15,1.01-0.24,2.03-0.36,3.15c-0.52-0.06-1.01-0.12-1.63-0.2C324.87,105.84,325.08,104.06,325.3,102.15z"/>
	<path class="st0" d="M306.53,104.53c-0.33-0.07-0.56-0.15-0.8-0.16c-0.79-0.03-1.18-0.39-1.1-1.2c0.05-0.47-0.2-0.67-0.64-0.74
		c-0.29-0.05-0.59-0.11-0.86-0.21c-0.79-0.31-1.43-0.28-1.83,0.62c-0.07,0.16-0.47,0.28-0.7,0.25c-0.42-0.06-0.81-0.25-1.3-0.42
		c1.18-1.74,2.32-3.4,3.46-5.07c0.15-0.22,0.34-0.43,0.45-0.67c0.36-0.77,0.87-0.97,1.67-0.64c0.38,0.16,0.75,0.18,0.81,0.72
		c0.26,2.36,0.57,4.71,0.85,7.07C306.54,104.18,306.53,104.29,306.53,104.53z M304.48,101.21c-0.08-1-0.14-1.88-0.21-2.76
		c-0.06,0-0.12-0.01-0.17-0.01c-0.47,0.76-0.95,1.52-1.45,2.34c0.37,0.1,0.6,0.17,0.83,0.22
		C303.76,101.07,304.05,101.12,304.48,101.21z"/>
	<path class="st0" d="M341.91,101.45c0.59,0,1.07,0,1.6,0c0,0.84,0,1.63,0,2.43c1.95-0.63,3.03-0.4,3.68,0.76
		c0.71,1.26,0.42,3.37-0.58,4.21c-0.92,0.78-2.17,0.71-3.09,0c-0.75,0.08-1.28,0.14-1.93,0.22
		C341.7,106.45,341.8,103.98,341.91,101.45z M345.89,106.15c-0.03-0.13,0.01-0.49-0.16-0.69c-0.28-0.35-0.67-0.83-1.03-0.83
		c-0.4-0.01-0.87,0.38-1.2,0.71c-0.2,0.2-0.22,0.6-0.25,0.92c-0.08,1.17,0.46,1.97,1.3,1.97
		C345.34,108.22,345.89,107.43,345.89,106.15z"/>
	<path class="st0" d="M382.89,106.59c-0.69-0.05-1.32,0.64-1.88-0.12c-1.01,1.03-2.16,1.22-3.17,0.53
		c-1.18-0.81-1.66-2.69-1.05-4.09c0.53-1.24,1.67-1.63,3.59-1.17c-0.15-0.79-0.29-1.54-0.45-2.36c0.55-0.11,1.05-0.21,1.63-0.32
		C382,101.55,382.43,104.01,382.89,106.59z M381.03,104.63c-0.16-0.51-0.22-1.09-0.52-1.5c-0.24-0.33-0.8-0.67-1.17-0.62
		c-0.37,0.05-0.87,0.53-0.95,0.89c-0.13,0.54-0.01,1.17,0.14,1.72c0.18,0.64,0.58,1.19,1.39,1.07
		C380.55,106.11,380.95,105.47,381.03,104.63z"/>
	<path class="st0" d="M389.32,102.91c-1.36,0.29-2.67,0.58-3.98,0.86c-0.05,0.08-0.1,0.15-0.15,0.23c0.33,0.29,0.62,0.72,1,0.82
		c0.38,0.1,1.08,0,1.24-0.26c0.47-0.77,1.19-0.7,1.87-0.86c0.04,1.38-1.08,2.26-2.99,2.37c-1.59,0.09-2.73-0.92-2.92-2.61
		c-0.19-1.78,0.88-3.1,2.74-3.36C387.93,99.86,388.94,100.73,389.32,102.91z M387.46,102.35c-0.18-0.93-0.56-1.23-1.3-1.11
		c-0.7,0.12-1.04,0.62-0.96,1.53C385.95,102.62,386.71,102.49,387.46,102.35z"/>
	<path class="st0" d="M401.01,102.37c-0.72,0.33-1.39,0.74-2.11,0.94c-0.72,0.21-1.4,0.02-1.74-0.79c-0.34-0.82-0.16-1.55,0.59-2.05
		c0.47-0.31,1.02-0.5,1.49-0.82c0.28-0.18,0.53-0.47,0.67-0.77c0.04-0.09-0.39-0.56-0.55-0.53c-0.39,0.06-1.03,0.26-1.08,0.49
		c-0.19,0.99-0.99,0.79-1.65,1.07c-0.03-0.26-0.08-0.47-0.07-0.67c0.07-1.12,1.31-2.02,2.96-2.16c1.13-0.1,1.77,0.37,2.1,1.57
		c0.21,0.78,0.41,1.57,0.64,2.34c0.11,0.35,0.3,0.67,0.5,1.12C402.18,102.19,401.56,102.29,401.01,102.37z M400.22,100.12
		c-0.45,0.28-0.94,0.51-1.34,0.85c-0.17,0.15-0.28,0.58-0.18,0.77c0.09,0.18,0.48,0.32,0.72,0.3
		C400.34,101.95,400.67,101.15,400.22,100.12z"/>
	<path class="st0" d="M324.13,104.33c0,1.83-1.15,3.09-2.83,3.08c-2-0.01-3.27-1.07-3.28-2.72c-0.01-2.03,1.09-3.28,2.9-3.28
		C322.82,101.41,324.13,102.6,324.13,104.33z M319.61,104.75c0.07,0.89,0.44,1.44,1.1,1.55c0.68,0.11,1.22-0.25,1.44-1.09
		c0.14-0.53,0.26-1.14,0.13-1.65c-0.09-0.38-0.55-0.88-0.91-0.93c-0.37-0.06-0.95,0.25-1.19,0.57
		C319.87,103.62,319.79,104.23,319.61,104.75z"/>
	<path class="st0" d="M337.61,109.08c-1.92-0.01-3.01-1.07-3.01-2.94c0-1.98,1.04-3.03,2.99-3.01c1.96,0.02,3.11,1.12,3.1,2.96
		C340.69,107.94,339.5,109.09,337.61,109.08z M338.93,106.2c-0.01-0.27-0.02-0.46-0.03-0.64c-0.05-0.74-0.45-1.22-1.19-1.3
		c-0.78-0.08-1.21,0.42-1.33,1.12c-0.09,0.49-0.1,1.01-0.04,1.51c0.08,0.67,0.52,1.06,1.19,1.1c0.69,0.04,1.1-0.36,1.28-1
		C338.89,106.72,338.9,106.42,338.93,106.2z"/>
	<path class="st0" d="M372.98,102.2c1.84-0.02,2.94,1.1,2.95,3c0.01,1.76-1.22,2.91-3.16,2.94c-1.76,0.03-2.84-1.14-2.87-3.1
		C369.87,103.24,370.97,102.23,372.98,102.2z M374.18,105.3c-0.04-0.21-0.08-0.67-0.21-1.11c-0.16-0.58-0.54-0.9-1.19-0.86
		c-0.66,0.04-1.1,0.38-1.16,1.01c-0.05,0.52,0,1.08,0.12,1.59c0.19,0.81,0.75,1.16,1.48,1.05
		C373.89,106.87,374.2,106.42,374.18,105.3z"/>
	<path class="st0" d="M405.93,80.73c0.01-1.44,1.09-2.5,2.54-2.5c1.47,0,2.55,1.1,2.54,2.58c-0.02,1.43-1.1,2.5-2.54,2.51
		C407.01,83.32,405.92,82.21,405.93,80.73z"/>
	<path class="st0" d="M325.52,78.23c1.46,0,2.59,1.13,2.57,2.57c-0.02,1.41-1.13,2.51-2.55,2.52c-1.43,0.01-2.59-1.15-2.57-2.58
		C322.99,79.33,324.1,78.23,325.52,78.23z"/>
	<path class="st0" d="M342.1,83.32c-1.45-0.02-2.57-1.18-2.52-2.61c0.05-1.43,1.15-2.49,2.57-2.47c1.41,0.01,2.6,1.22,2.55,2.6
		C344.65,82.2,343.47,83.34,342.1,83.32z"/>
	<path class="st0" d="M308.37,99.13c0.57,0.14,1.03,0.25,1.53,0.37c-0.23,1.14-0.45,2.22-0.67,3.3c-0.12,0.59-0.2,1.18,0.54,1.4
		c0.74,0.21,1.15-0.27,1.33-0.87c0.28-0.95,0.46-1.94,0.69-2.91c0.04-0.15,0.11-0.3,0.17-0.49c0.52,0.14,1.01,0.28,1.59,0.43
		c-0.41,1.81-0.8,3.59-1.21,5.44c-0.59-0.36-1.45,0-1.65-0.87c-0.45,0.1-0.89,0.28-1.33,0.28c-1.38-0.02-2.11-0.87-1.86-2.23
		C307.73,101.71,308.06,100.46,308.37,99.13z"/>
	<path class="st0" d="M288,98.69c-1.46,0.01-2.59-1.11-2.58-2.56c0.01-1.41,1.11-2.5,2.54-2.51c1.46-0.01,2.6,1.12,2.58,2.56
		C290.52,97.61,289.44,98.68,288,98.69z"/>
	<path class="st0" d="M414.64,96.18c-0.01,1.46-1.05,2.5-2.51,2.5c-1.47,0-2.58-1.11-2.56-2.57c0.03-1.43,1.11-2.5,2.54-2.5
		C413.61,93.62,414.65,94.68,414.64,96.18z"/>
	<path class="st0" d="M394.4,80.75c0.01,1.41-1.07,2.53-2.48,2.57c-1.4,0.04-2.6-1.13-2.62-2.54c-0.02-1.4,1.15-2.55,2.59-2.55
		C393.3,78.23,394.39,79.33,394.4,80.75z"/>
	<path class="st0" d="M311.45,80.76c0,1.43-1.06,2.53-2.48,2.56c-1.42,0.03-2.61-1.13-2.61-2.54c0-1.41,1.17-2.56,2.59-2.54
		C310.39,78.25,311.45,79.32,311.45,80.76z"/>
	<path class="st0" d="M427.6,80.79c-0.01,1.41-1.11,2.53-2.51,2.54c-1.45,0.01-2.55-1.1-2.54-2.57c0-1.48,1.1-2.55,2.57-2.52
		C426.52,78.26,427.6,79.37,427.6,80.79z"/>
	<path class="st0" d="M289.79,80.78c-0.01-1.41,1.07-2.52,2.48-2.55c1.46-0.03,2.57,1.06,2.58,2.53c0,1.46-1.11,2.58-2.55,2.56
		C290.89,83.3,289.79,82.19,289.79,80.78z"/>
	<path class="st0" d="M392.52,104.67c-0.54,0.15-1.02,0.29-1.55,0.44c-0.45-1.83-0.87-3.57-1.33-5.45c0.63-0.08,1.17-0.14,1.7-0.21
		c-0.01,0.05-0.01,0.09-0.02,0.14c0.55-0.3,1.08-0.71,1.67-0.89c1.05-0.31,1.75,0.07,2.09,1.11c0.42,1.28,0.72,2.6,1.1,3.96
		c-0.57,0.15-1.08,0.29-1.66,0.44c-0.29-1.14-0.57-2.21-0.84-3.28c-0.16-0.61-0.37-1.19-1.18-1c-0.62,0.14-0.88,0.71-0.71,1.5
		C392.02,102.5,392.26,103.55,392.52,104.67z"/>
	<path class="st0" d="M427.1,92.03c-1.49-0.03-2.48-1.09-2.45-2.62c0.03-1.41,1.15-2.48,2.58-2.44c1.37,0.04,2.49,1.19,2.48,2.57
		C429.7,90.98,428.57,92.06,427.1,92.03z"/>
	<path class="st0" d="M272.98,92.03c-1.49,0.01-2.57-1.05-2.57-2.52c0-1.41,1.1-2.54,2.49-2.55c1.43-0.01,2.59,1.12,2.58,2.55
		C275.48,90.95,274.41,92.02,272.98,92.03z"/>
	<path class="st0" d="M275.84,83.32c-1.43,0.03-2.61-1.12-2.6-2.54c0-1.41,1.11-2.53,2.51-2.54c1.37-0.01,2.45,1.04,2.49,2.45
		C278.29,82.12,277.22,83.29,275.84,83.32z"/>
	<path class="st0" d="M361.17,80.75c0.01,1.44-1.07,2.58-2.45,2.57c-1.41,0-2.5-1.09-2.51-2.53c-0.01-1.47,1.07-2.57,2.55-2.56
		C360.12,78.24,361.16,79.32,361.17,80.75z"/>
	<path class="st0" d="M372.82,80.78c0-1.46,1.05-2.55,2.46-2.54c1.41,0,2.51,1.11,2.51,2.53c0.01,1.43-1.15,2.58-2.58,2.55
		C373.86,83.3,372.82,82.2,372.82,80.78z"/>
	<path class="st0" d="M314.87,101.72c-0.36-0.11-0.61-0.18-0.93-0.28c0.05-0.33,0.1-0.64,0.16-1.01c0.34,0.03,0.62,0.06,0.99,0.09
		c0.12-0.49,0.25-1,0.4-1.57c0.53,0.1,1.03,0.19,1.6,0.29c-0.09,0.56-0.18,1.08-0.27,1.63c0.34,0.09,0.65,0.18,1.06,0.29
		c-0.03,0.31-0.07,0.64-0.11,1.04c-0.39-0.05-0.72-0.09-1.19-0.14c-0.17,0.97-0.41,1.93-0.47,2.91c-0.01,0.22,0.57,0.47,0.96,0.77
		c-0.03,0.14-0.09,0.42-0.18,0.82c-0.44-0.04-0.89-0.03-1.33-0.11c-1.05-0.21-1.37-0.64-1.21-1.71
		C314.47,103.73,314.68,102.76,314.87,101.72z"/>
	<path class="st0" d="M351.54,109.33c0-2.55,0-5.03,0-7.62c0.45-0.05,0.97-0.1,1.57-0.16c0,2.58,0,5.05,0,7.62
		C352.64,109.22,352.14,109.27,351.54,109.33z"/>
	<path class="st0" d="M354.31,103.81c0.56-0.05,1.06-0.09,1.66-0.15c0.11,1.87,0.22,3.65,0.33,5.51c-0.58,0.05-1.08,0.1-1.64,0.15
		C354.54,107.46,354.43,105.67,354.31,103.81z"/>
	<path class="st0" d="M350.24,103.73c0,1.82,0,3.59,0,5.42c-0.55,0-1.05,0-1.57,0c0-1.8,0-3.59,0-5.42
		C349.26,103.73,349.76,103.73,350.24,103.73z"/>
	<path class="st0" d="M348.72,102.85c0-0.46,0-0.83,0-1.24c0.54,0,1.04,0,1.58,0c0,0.41,0,0.8,0,1.24
		C349.77,102.85,349.27,102.85,348.72,102.85z"/>
	<path class="st0" d="M355.87,101.56c0.03,0.48,0.05,0.84,0.07,1.28c-0.54,0-1.03,0-1.61,0c-0.03-0.34-0.07-0.7-0.11-1.12
		C354.77,101.66,355.27,101.62,355.87,101.56z"/>
	<path class="st0" d="M389.3,23.01c0.07-1.41,1.31-2.54,2.7-2.45c1.42,0.09,2.45,1.22,2.39,2.65c-0.05,1.42-1.19,2.5-2.59,2.45
		C390.4,25.62,389.23,24.39,389.3,23.01z"/>
	<path class="st0" d="M350.24,16.03c1.45,0.01,2.57,1.16,2.54,2.59c-0.04,1.42-1.15,2.5-2.56,2.49s-2.6-1.22-2.56-2.6
		C347.7,17.14,348.86,16.02,350.24,16.03z"/>
	<path class="st0" d="M377.99,22.97c-1.42,0-2.54-1.09-2.54-2.49c0-1.38,1.15-2.54,2.52-2.56c1.39-0.01,2.63,1.21,2.6,2.57
		C380.54,21.88,379.41,22.97,377.99,22.97z"/>
	<path class="st0" d="M431.87,35.3c1.43,0.01,2.53,1.11,2.53,2.52c0,1.37-1.16,2.53-2.54,2.53c-1.4,0-2.62-1.21-2.59-2.58
		C429.3,36.39,430.47,35.29,431.87,35.3z"/>
	<path class="st0" d="M419.64,33.84c-1.41,0-2.53-1.1-2.55-2.51c-0.02-1.37,1.13-2.55,2.51-2.57c1.38-0.02,2.63,1.21,2.61,2.57
		C422.19,32.7,421.02,33.84,419.64,33.84z"/>
	<path class="st0" d="M410.99,47.47c-1.41-0.02-2.51-1.12-2.51-2.53c0-1.39,1.12-2.49,2.54-2.48c1.38,0,2.58,1.18,2.54,2.51
		C413.52,46.34,412.34,47.49,410.99,47.47z"/>
	<path class="st0" d="M361.63,18.89c0.01-1.38,1.13-2.54,2.44-2.53c1.42,0.01,2.56,1.18,2.53,2.62c-0.03,1.42-1.15,2.49-2.57,2.46
		C362.66,21.41,361.62,20.31,361.63,18.89z"/>
	<path class="st0" d="M381.23,44.9c0.01,1.36-1.15,2.55-2.52,2.57c-1.41,0.02-2.54-1.08-2.57-2.49c-0.02-1.4,1.11-2.51,2.53-2.51
		C380.03,42.46,381.21,43.59,381.23,44.9z"/>
	<path class="st0" d="M429.71,44.95c-0.01,1.37-1.18,2.53-2.55,2.52c-1.42-0.01-2.51-1.11-2.5-2.54c0-1.39,1.07-2.45,2.48-2.47
		C428.53,42.45,429.72,43.59,429.71,44.95z"/>
	<path class="st0" d="M397.38,44.93c0,1.37-1.16,2.53-2.53,2.54c-1.42,0-2.51-1.09-2.52-2.52c-0.01-1.41,1.11-2.51,2.54-2.49
		C396.24,42.48,397.38,43.6,397.38,44.93z"/>
	<path class="st0" d="M365.04,44.94c0,1.38-1.17,2.53-2.54,2.52c-1.42-0.01-2.51-1.11-2.51-2.53c0-1.41,1.13-2.5,2.56-2.47
		C363.93,42.49,365.04,43.6,365.04,44.94z"/>
	<path class="st0" d="M408.24,26.64c0,1.39-1.09,2.53-2.42,2.54c-1.44,0.01-2.57-1.12-2.55-2.58c0.01-1.43,1.11-2.5,2.55-2.49
		C407.18,24.13,408.24,25.23,408.24,26.64z"/>
	<path class="st0" d="M342.59,31.17c0,1.38-1.15,2.57-2.49,2.56c-1.37-0.01-2.52-1.18-2.51-2.54c0-1.41,1.1-2.52,2.5-2.54
		C341.47,28.63,342.59,29.76,342.59,31.17z"/>
	<path class="st0" d="M348.77,44.94c0,1.4-1.07,2.51-2.41,2.53c-1.43,0.01-2.58-1.13-2.56-2.57c0.01-1.36,1.11-2.42,2.51-2.44
		C347.66,42.45,348.77,43.57,348.77,44.94z"/>
	<path class="st0" d="M332.58,44.96c-0.01,1.42-1.05,2.51-2.41,2.51c-1.43,0-2.54-1.13-2.52-2.58c0.02-1.36,1.11-2.42,2.51-2.42
		C331.52,42.46,332.59,43.57,332.58,44.96z"/>
	<path class="st0" d="M371.57,64.91c-0.45-2.75,0.25-4,2.84-4.87c3.12-1.05,6.36-1.27,9.62-0.93c1.5,0.16,2.98,0.52,4.45,0.85
		c0.54,0.12,1.06,0.39,1.57,0.66c1.15,0.6,1.83,1.49,1.69,2.87c-0.04,0.45-0.01,0.91-0.01,1.42
		C384.97,64.91,378.3,64.91,371.57,64.91z"/>
	<path class="st0" d="M294.07,64.91c-0.46-2.74,0.21-4.02,2.76-4.83c4.8-1.52,9.63-1.47,14.46-0.04c0.05,0.01,0.1,0.04,0.15,0.06
		c2.51,0.95,3.14,2.06,2.7,4.8C307.47,64.91,300.8,64.91,294.07,64.91z"/>
	<path class="st0" d="M256.34,64.95c0-1.92,0-3.78,0-5.76c0.28,0,0.54,0,0.8,0c5.38,0,10.77,0.01,16.15,0
		c1.19,0,2.14,0.41,2.62,1.53c0.51,1.2,0.49,2.43-0.42,3.42c-0.42,0.45-1.15,0.85-1.74,0.86c-5.71,0.06-11.41,0.04-17.12,0.03
		C256.56,65.02,256.48,64.98,256.34,64.95z"/>
</g>
</svg>
