<?xml version="1.0" encoding="utf-8"?>
<!-- Generator: Adobe Illustrator 24.0.2, SVG Export Plug-In . SVG Version: 6.00 Build 0)  -->
<svg version="1.1" id="Capa_1" xmlns="http://www.w3.org/2000/svg" xmlns:xlink="http://www.w3.org/1999/xlink" x="0px" y="0px"
	 viewBox="0 0 700 125" style="enable-background:new 0 0 700 125;" xml:space="preserve">
<style type="text/css">
	.st0{fill:#FFFFFF;}
</style>
<g>
	<path class="st0" d="M606.51,75.31c22.18,0,44.62,0.04,67.05-0.03c5.67-0.02,10.72,0.15,7.97,8.23c-28.25,0-56.18,0-84.8,0
		c0-14.54,0-28.41,0-42.96c28.6,0,56.54,0,84.47,0c0.64,0.98,1.27,1.96,1.91,2.94c-2.78,1.75-5.52,4.95-8.34,5.02
		c-18.48,0.46-36.97,0.24-55.46,0.24c-4.35,0-8.7,0-12.81,0c-3.51,8.74,1.33,9.25,7.26,9.23c19.69-0.08,39.39-0.21,59.08,0.16
		c3.19,0.06,6.34,2.53,9.51,3.88c-3.16,1.36-6.31,3.84-9.49,3.9c-19.69,0.37-39.38,0.24-59.08,0.16
		C607.89,66.05,602.99,66.53,606.51,75.31z"/>
	<path class="st0" d="M383.84,71.12c-3.3-1.66-6.56-4.65-9.9-4.75c-16.87-0.49-33.77-0.63-50.63-0.08
		c-9.89,0.32-12.37-3.97-12.28-12.68c0.09-8.65,1.45-14.23,12.46-13.9c19.68,0.59,39.39-0.02,59.08,0.35
		c3.19,0.06,6.34,2.54,9.51,3.9c-3.34,1.61-6.66,4.55-10.04,4.62c-20.04,0.44-40.1,0.22-60.01,0.22c-4,8.36,0.84,9.11,6.71,9.1
		c17.28-0.01,34.58,0.41,51.85-0.14c10.29-0.32,11.93,4.76,11.83,13.08c-0.1,8.06-1.19,13.68-11.65,13.45
		c-20.49-0.44-41,0.03-61.49-0.34c-2.64-0.05-5.22-2.86-7.83-4.39c2.74-1.44,5.45-4.08,8.22-4.13c20.83-0.35,41.66-0.19,62.49-0.19
		C382.71,73.88,383.27,72.5,383.84,71.12z"/>
	<path class="st0" d="M155.4,84.18c-10.44,0-20.88-0.21-31.31,0.07c-7.54,0.2-11.26-2.71-11.09-10.26
		c0.18-7.81,0.26-15.64-0.03-23.45c-0.3-8.28,3.9-10.84,11.85-10.74c20.87,0.27,41.75,0.28,62.62,0c8.06-0.11,11.86,2.7,11.73,10.87
		c-0.63,40.19,5.17,32.77-32.94,33.51C162.62,84.24,159.01,84.18,155.4,84.18z M122.58,74.58c22.94,0,44.81,0,66.96,0
		c0-8.8,0-16.78,0-25.01c-22.7,0-44.58,0-66.96,0C122.58,58.05,122.58,65.76,122.58,74.58z"/>
	<path class="st0" d="M295.45,85.31c-3.98-1.59-8.32-2.03-9-3.8c-3.59-9.41-11.3-8.19-18.88-8.14c-15.6,0.1-31.2,0.03-47.44,0.03
		c-0.49,2.41-0.4,4.48-1.33,5.89c-1.21,1.84-3.24,3.16-4.92,4.7c-1.19-1.72-3.37-3.41-3.41-5.16c-0.3-12.42-0.16-24.86-0.16-38.8
		c26.91,0,52.79-0.25,78.64,0.4c2.44,0.06,6.68,5.72,6.7,8.8c0.04,7.88-2.17,15.74-2.79,23.65
		C292.61,76.11,294.15,79.46,295.45,85.31z M286.36,49.64c-22.58,0-44.69,0-66.72,0c0,5.34,0,9.83,0,14.73c22.48,0,44.25,0,66.72,0
		C286.36,59.16,286.36,54.69,286.36,49.64z"/>
	<path class="st0" d="M28.14,73.39c-3.85,5.37-6.1,8.51-8.35,11.65c-0.97-0.43-1.93-0.85-2.9-1.28c0-14.11,0-28.23,0-43.82
		c25.46,0,50.97-0.21,76.47,0.31c2.65,0.05,5.33,4.36,7.72,6.94c0.62,0.67,0.19,2.26,0.26,3.43c1.29,22.76,1.29,22.77-21.97,22.77
		C61.75,73.39,44.14,73.39,28.14,73.39z M91.68,49.76c-22.69,0-44.56,0-67.14,0c0.29,5.46,0.52,9.94,0.81,15.37
		c18.9,0,36.53,0.02,54.16-0.01C94.05,65.1,94.08,65.03,91.68,49.76z"/>
	<path class="st0" d="M417.15,48.8c0,9.22,0,16.92,0,26.46c9.61,0,19.07,0,28.53,0c12.06,0,24.13-0.23,36.17,0.23
		c2.26,0.09,4.4,2.93,6.6,4.5c-1.94,1.39-3.87,3.97-5.83,3.99c-22.1,0.28-44.23,0.51-66.31-0.24c-2.99-0.1-7.8-5.31-8.27-8.62
		c-1.19-8.45-0.36-17.17-0.42-25.78c-0.05-7.05,3.73-9.56,10.63-9.5c20.9,0.16,41.81-0.11,62.7,0.27c2.53,0.05,5,3.07,7.49,4.71
		c-2.44,1.33-4.87,3.77-7.34,3.81C460.24,48.93,439.38,48.8,417.15,48.8z"/>
	<path class="st0" d="M501.92,84.55c0-15.54,0-29.51,0-43.49c6.93,0.08,6.93,0.08,10,16.27c20.19,0,40.51,0,62.11,0
		c0-4.43-0.51-8.34,0.21-12.02c0.38-1.96,2.89-3.53,4.45-5.28c1.45,1.86,4.07,3.68,4.14,5.58c0.4,10.94,0.4,21.91,0,32.86
		c-0.07,1.9-2.72,3.7-4.17,5.55c-1.54-1.76-4.03-3.34-4.42-5.31c-0.71-3.69-0.21-7.6-0.21-11.99c-21.63,0-41.94,0-61.34,0
		C507.12,71.89,515.82,83.05,501.92,84.55z"/>
</g>
</svg>
