<?xml version="1.0" encoding="utf-8"?>
<!-- Generator: Adobe Illustrator 24.0.2, SVG Export Plug-In . SVG Version: 6.00 Build 0)  -->
<svg version="1.1" id="Capa_1" xmlns="http://www.w3.org/2000/svg" xmlns:xlink="http://www.w3.org/1999/xlink" x="0px" y="0px"
	 viewBox="0 0 700 125" style="enable-background:new 0 0 700 125;" xml:space="preserve">
<style type="text/css">
	.st0{fill:#FFFFFF;}
</style>
<g>
	<path class="st0" d="M140.44,0.01c1.05,0.34,2.15,0.55,3.14,1.03c3.9,1.88,5.95,5.05,6.29,9.35c0.02,0.35,0.02,0.69,0.02,1.04
		c0,34.06,0,68.11,0,102.16c0,4.99-2.48,8.86-6.82,10.61c-0.84,0.34-1.74,0.54-2.61,0.8c-19.21,0-38.42,0-57.64,0
		c-0.25-0.08-0.5-0.17-0.75-0.23c-2.72-0.59-5.06-1.89-6.57-4.25c-0.93-1.45-1.44-3.16-2.13-4.74c0-35.52,0-71.03,0-106.55
		c0.09-0.25,0.19-0.48,0.25-0.74c0.75-3.1,2.46-5.53,5.26-7.05c1.22-0.66,2.63-0.97,3.94-1.45C102.02,0.01,121.24,0.01,140.44,0.01z
		 M77.05,62.53c0,17.41,0.01,34.82,0,52.24c0,3.19,3.08,6.54,6.58,6.54c18.67,0.01,37.35,0.01,56.02-0.02c0.77,0,1.58-0.2,2.29-0.5
		c3.26-1.4,4.5-4.1,4.51-7.46c0.02-32.94,0.02-65.88,0-98.82c0-1.6-0.09-3.2-0.23-4.79c-0.27-3.19-3.41-6.03-6.62-6.03
		c-18.63,0-37.27,0-55.9,0c-3.53,0-6.64,3.39-6.64,6.6C77.06,27.72,77.05,45.13,77.05,62.53z"/>
	<path class="st0" d="M425.77,94.45c-0.91-4.17-1.65-8.33-2.77-12.38c-0.78-2.86-1.88-5.69-3.2-8.35c-1.66-3.36-4.64-5.03-8.37-5.21
		c-2.22-0.1-4.44-0.02-6.83-0.02c0,8.63,0,17.25,0,25.94c-3.78,0-7.4,0-11.1,0c0-21.11,0-42.18,0-63.53c1.86,0,3.65-0.02,5.45,0
		c5.68,0.07,11.38-0.06,17.04,0.29c5.21,0.32,10.12,1.85,14.02,5.62c3.91,3.78,5.15,8.53,4.7,13.77
		c-0.55,6.34-3.86,10.77-9.65,13.36c-0.1,0.05-0.19,0.13-0.28,0.19c1.11,0.85,2.29,1.61,3.31,2.54c1.97,1.8,3.19,4.12,4.12,6.58
		c2.57,6.82,3.81,13.96,5.21,21.19C433.45,94.45,429.6,94.45,425.77,94.45z M404.65,40.11c0,6.71,0,13.26,0,19.77
		c3.03,0,5.99,0.18,8.92-0.07c1.75-0.15,3.55-0.75,5.12-1.55c3.87-1.98,5.41-5.36,5.06-9.64c-0.32-3.92-2.52-6.6-6.56-7.84
		C413.1,39.54,408.91,40.03,404.65,40.11z"/>
	<path class="st0" d="M199.03,94.46c-3.78,0-7.38,0-11.05,0c0-21.11,0-42.19,0-63.55c2.2,0,4.38-0.02,6.56,0.01
		c5.3,0.06,10.6-0.01,15.89,0.28c4.37,0.24,8.56,1.45,12.18,4.08c5.36,3.89,7.12,9.35,6.5,15.69c-0.6,6.1-3.89,10.37-9.43,12.92
		c-0.17,0.08-0.34,0.17-0.57,0.29c0.92,0.62,1.83,1.16,2.64,1.82c2.44,1.97,3.88,4.63,4.96,7.5c2.06,5.48,3.24,11.2,4.36,16.92
		c0.25,1.31,0.5,2.63,0.77,4.06c-3.99,0-7.84,0-11.7,0c-0.66-3.31-1.16-6.67-2.02-9.92c-0.87-3.29-1.91-6.56-3.23-9.69
		c-1.79-4.27-5.21-6.4-9.88-6.4c-1.95,0-3.91,0-5.95,0C199.03,77.14,199.03,85.73,199.03,94.46z M199.04,59.97
		c2.78,0,5.42,0.08,8.07-0.02c2.28-0.09,4.48-0.7,6.44-1.89c3.75-2.27,5.09-5.69,4.55-9.91c-0.5-3.88-2.8-6.29-6.49-7.37
		c-4.13-1.21-8.33-0.76-12.57-0.66C199.04,46.79,199.04,53.34,199.04,59.97z"/>
	<path class="st0" d="M257.72,47.82c6.64,0.09,12.35,1.85,16.87,6.52c3.7,3.82,5.55,8.51,6.11,13.73c0.6,5.56,0.06,10.98-2.52,16.03
		c-3.44,6.71-9.08,10.31-16.43,11.36c-3.84,0.55-7.66,0.31-11.39-0.84c-6.56-2.02-11.15-6.23-13.54-12.64
		c-2.69-7.2-2.66-14.49,0.46-21.54c3.4-7.69,9.65-11.55,17.86-12.46C256.1,47.88,257.05,47.86,257.72,47.82z M270.01,71.81
		c-0.06-3-0.48-5.87-1.8-8.54c-1.98-3.99-5.1-6.45-9.6-6.71c-4.55-0.26-8.15,1.7-10.3,5.69c-3.44,6.38-3.47,12.98,0.22,19.22
		c4.14,6.98,13.58,7.24,18.39,0.72C269.21,79.08,269.91,75.51,270.01,71.81z"/>
	<path class="st0" d="M439.99,71.81c0.08-5.92,1.51-11.43,5.41-16.03c5.31-6.27,12.29-8.42,20.23-7.68
		c13.39,1.27,21,12.2,20.29,25.43c-0.28,5.21-1.7,10.07-5.01,14.19c-4.49,5.61-10.54,8-17.57,8.07c-7.69,0.07-14.23-2.51-18.88-8.9
		C441.19,82.43,440.05,77.27,439.99,71.81z M475,71.79c0.02-3.04-0.5-5.95-1.89-8.67c-4.08-8.01-14.3-8.75-19.41-1.42
		c-3.73,5.36-3.67,15.06,0.14,20.42c4.7,6.63,14.09,6.46,18.51-0.35C474.32,78.74,475.02,75.36,475,71.79z"/>
	<path class="st0" d="M486.6,114.82c0-3.04,0-6.03,0-9.15c1.43,0,2.84,0.12,4.22-0.02c2.6-0.27,4.85-1.42,6.7-3.27
		c2.42-2.43,4.2-5.29,5.4-8.48c0.19-0.5,0.09-1.21-0.11-1.73c-3.53-8.91-7.09-17.82-10.65-26.72c-2.03-5.09-4.07-10.18-6.1-15.26
		c-0.11-0.28-0.19-0.57-0.32-0.96c0.45-0.02,0.81-0.06,1.17-0.06c3.27-0.01,6.53,0.02,9.8-0.02c0.79-0.01,1.21,0.17,1.5,0.99
		c3.42,9.53,6.87,19.03,10.32,28.55c0.13,0.36,0.27,0.71,0.51,1.35c0.61-1.74,1.15-3.23,1.65-4.73c2.85-8.38,5.71-16.76,8.53-25.16
		c0.25-0.73,0.55-1.02,1.36-1c3.3,0.06,6.6,0.02,10.11,0.02c-0.4,1.1-0.76,2.08-1.13,3.06c-4.59,12.16-9.13,24.34-13.77,36.48
		c-2.14,5.59-4.56,11.07-8.09,15.97c-3.19,4.43-7.07,7.99-12.43,9.61C492.44,115.1,489.58,115.38,486.6,114.82z"/>
	<path class="st0" d="M579.44,74.35c-0.04,8.11,4.61,12.04,11.17,12.59c5.03,0.43,9.96-0.17,14.85-2.02
		c0.55,2.53,1.08,4.98,1.66,7.68c-1.87,0.61-3.68,1.31-5.54,1.79c-5.65,1.46-11.35,1.94-17.08,0.44
		c-7.33-1.91-12.29-6.48-14.58-13.7c-2.31-7.25-1.87-14.45,1.52-21.28c3.92-7.91,10.52-11.79,19.33-11.66
		c9.92,0.14,16.65,6.06,18.31,16.17c0.47,2.89,0.36,5.88,0.49,8.83c0.02,0.33-0.11,0.67-0.19,1.15
		C599.39,74.35,589.46,74.35,579.44,74.35z M599.16,66.6c0.59-3.23-0.83-7.3-3.39-8.94c-3.58-2.29-7.46-2.32-11.17-0.43
		c-3.72,1.89-4.66,5.51-5.2,9.37C586.07,66.6,592.62,66.6,599.16,66.6z"/>
	<path class="st0" d="M331.11,84.35c3.74,1.99,7.59,3.05,11.7,3.03c1.22-0.01,2.45-0.21,3.63-0.51c1.74-0.44,3.03-1.46,3.38-3.36
		c0.38-2.02,0.11-3.95-1.61-5.2c-1.38-1-2.95-1.78-4.53-2.43c-2.92-1.19-5.84-2.32-8.38-4.25c-7.97-6.06-5.86-16.04,0.55-20.47
		c3.8-2.63,8.08-3.38,12.61-3.07c3.01,0.21,5.9,0.93,8.64,2.23c0.41,0.19,0.8,0.43,1.25,0.66c-0.73,2.46-1.43,4.84-2.1,7.09
		c-2.24-0.58-4.38-1.32-6.59-1.63c-1.76-0.25-3.61-0.13-5.37,0.12c-1.68,0.25-2.92,1.3-3.36,3.08c-0.44,1.76-0.09,3.42,1.32,4.48
		c1.48,1.11,3.18,1.95,4.85,2.77c2.14,1.04,4.44,1.74,6.49,2.9c9.11,5.15,8.6,16.11,2.72,21.25c-3.13,2.74-6.89,3.99-10.93,4.37
		c-4.03,0.39-8.07,0.21-11.96-1.09c-1.34-0.45-2.6-1.11-3.85-1.77c-0.26-0.13-0.53-0.7-0.46-0.97
		C329.73,89.21,330.42,86.85,331.11,84.35z"/>
	<path class="st0" d="M566.33,50.47c-0.64,2.65-1.27,5.24-1.92,7.95c-3.29-1.38-6.64-1.59-10.03-1.47
		c-7.12,0.25-11.89,4.79-12.58,11.91c-0.32,3.33-0.2,6.6,0.93,9.78c1.78,5.01,6.01,8.09,11.33,8.33c3.62,0.17,7.12-0.37,10.64-1.87
		c0.51,2.64,1,5.21,1.57,8.11c-2.21,0.58-4.35,1.27-6.55,1.68c-5.34,1-10.64,0.89-15.74-1.22c-7.91-3.28-12.26-9.35-13.43-17.71
		c-0.76-5.41-0.06-10.67,2.44-15.58c3.58-7.02,9.55-10.71,17.17-11.91c5.02-0.79,9.95-0.37,14.74,1.38
		c0.25,0.09,0.51,0.19,0.75,0.29C565.82,50.21,565.99,50.31,566.33,50.47z"/>
	<path class="st0" d="M321.12,94.63c-3.66,0-7.26,0-10.91,0c0-22.05,0-44.04,0-66.1c3.65,0,7.24,0,10.91,0
		C321.12,50.54,321.12,72.53,321.12,94.63z"/>
	<path class="st0" d="M288.3,28.54c3.66,0,7.24,0,10.89,0c0,22.05,0,44.02,0,66.07c-3.62,0-7.21,0-10.89,0
		C288.3,72.61,288.3,50.62,288.3,28.54z"/>
	<path class="st0" d="M363.88,68.27c0-2.39,0-4.69,0-6.98c0-0.37,0-0.75,0-1.2c7.24,0,14.37,0,21.59,0c0,2.71,0,5.41,0,8.18
		C378.33,68.27,371.2,68.27,363.88,68.27z"/>
	<path class="st0" d="M612.32,47.67c0.02-3.91,3.19-7.01,7.16-7.02c3.99-0.01,7.2,3.2,7.16,7.16c-0.03,3.91-3.25,7.05-7.18,7.02
		C615.44,54.81,612.31,51.65,612.32,47.67z M613.73,47.67c-0.01,3.38,2.43,5.93,5.71,5.96c3.27,0.03,5.81-2.59,5.8-6
		c-0.01-3.22-2.61-5.83-5.79-5.8C616.22,41.86,613.74,44.4,613.73,47.67z"/>
	<path class="st0" d="M80.12,26.12c21.04,0,42,0,63.02,0c0,24.25,0,48.45,0,72.74c-20.97,0-41.96,0-63.02,0
		C80.12,74.66,80.12,50.43,80.12,26.12z M84.26,30.91c0.47,0.37,0.66,0.55,0.86,0.7c1.72,1.26,2.73,2.97,2.74,5.08
		c0.04,14.91,0.03,29.82,0,44.72c0,1.61-0.51,3.12-1.8,4.25c-0.57,0.5-1.1,1.04-1.76,1.67c4.9,0,9.58,0,14.42,0
		c-0.28-0.3-0.43-0.54-0.65-0.67c-2.28-1.46-3.03-3.66-3.03-6.22c-0.01-4.84,0-9.69,0-14.53c0-0.64,0-1.28,0-1.91
		c1.44-0.13,2.77-0.2,4.08-0.36c2.88-0.36,5.75-0.78,8.63-1.15c0.32-0.04,0.85,0.06,1,0.28c0.98,1.42,1.98,2.85,2.78,4.37
		c1.91,3.65,3.07,7.58,3.79,11.62c0.43,2.44,0.24,4.82-1.04,7.01c-0.3,0.52-0.7,1-1.13,1.61c4.28,0,8.35,0,12.42,0
		c0.09,0,0.2-0.06,0.3-0.09c0-0.11,0.02-0.2-0.01-0.25c-0.08-0.13-0.18-0.25-0.29-0.35c-1.26-1.25-2.1-2.75-2.56-4.45
		c-0.52-1.88-0.96-3.79-1.46-5.67c-1.24-4.55-2.98-8.9-5.57-12.87c-0.74-1.14-1.54-2.24-2.28-3.31c1.2-0.76,2.29-1.37,3.29-2.1
		c2.47-1.79,4.43-3.99,5.58-6.86c1-2.48,1.46-5,1.1-7.73c-0.56-4.11-2.51-7.28-5.79-9.73c-3-2.25-6.52-2.94-10.11-3.07
		c-5.26-0.18-10.52-0.05-15.78-0.05C89.52,30.91,87.07,30.91,84.26,30.91z M127.18,66.9c3.12-1.79,5.78-4.22,7.42-7.65
		c1.66-3.5,1.96-7.11,0.76-10.78c-1.93-5.87-6.63-8.98-11.64-9.61c0.43,1.42,1.04,2.82,1.22,4.27c0.12,1,0.43,1.67,1.11,2.35
		c2.48,2.45,3.23,5.58,2.81,8.87c-0.66,5.08-3.72,8.4-8.41,10.3c-0.65,0.26-1.27,0.58-1.91,0.87c0.49,0.98,0.99,1.83,1.35,2.74
		c0.38,0.93,0.82,1.53,1.86,0.89c2.34,2.7,3.92,5.77,5.3,8.97c1.35,3.13,2.16,6.42,2.51,9.79c0.25,2.44-0.56,4.66-2.2,6.55
		c4.27,0,8.42,0,12.88,0c-2.06-1.77-3-3.87-3.51-6.2c-1.03-4.63-2.39-9.17-4.65-13.36C130.64,72.2,128.89,69.66,127.18,66.9z
		 M100.33,64.97c0,0.42,0,0.84,0,1.26c0,6.88,0.02,13.76-0.02,20.64c-0.01,1.05-0.21,2.1-0.38,3.14c-0.33,1.96-1.61,3.29-3.33,4.48
		c4.85,0,9.48,0,14.32,0c-2.96-1.75-3.72-4.33-3.69-7.35c0.06-4.84,0.02-9.69,0.02-14.53c0-0.41,0-0.82,0-1.26
		c1.61-0.13,3.09-0.26,4.6-0.4c-0.29-0.73-0.56-1.34-0.78-1.98c-0.46-1.34-1.17-2.24-2.78-1.87c-0.31,0.07-0.66-0.03-1.05-0.06
		c0-1.08,0-2.07,0-3.15C104.92,64.26,102.7,64.6,100.33,64.97z"/>
	<path class="st0" d="M80.05,102.23c21.08,0,42.04,0,63.05,0c0.03,0.12,0.11,0.26,0.11,0.4c0.01,3.84,0.04,7.69,0,11.53
		c-0.02,2.35-2.07,4.16-4.62,4.17c-4.41,0.02-8.83,0-13.24,0c-13.44,0-26.89,0-40.32,0c-3.17,0-4.97-1.82-4.97-5.01
		C80.05,109.66,80.05,106.01,80.05,102.23z M84.78,104.95c0.45,3.56,0.66,7.05-0.09,10.5c1.08,0,2.35,0,3.33,0
		c-0.17-1.38-0.32-2.67-0.47-3.9c1.96-0.51,3.09,0.08,3.57,1.79c0.05,0.18,0.17,0.33,0.25,0.51c0.89,1.79,2.13,2.24,3.95,1.52
		c-0.93-1.51-1.86-3.04-2.82-4.61c0.21-0.12,0.4-0.24,0.6-0.34c0.96-0.52,1.61-1.86,1.38-2.84c-0.38-1.63-1.23-2.59-2.55-2.61
		C89.5,104.91,87.04,104.95,84.78,104.95z M96.18,110.09c-0.25,3.68,2.7,5.69,5.39,5.67c3.66-0.03,5.64-2.32,5.61-5.56
		c-0.02-3.11-1.8-5.47-5.53-5.54C98.37,104.61,95.99,107.2,96.18,110.09z M129.7,115.48c2.74,0,5.57,0,8.38,0
		c0.1-0.9,0.2-1.73,0.26-2.32c-1.91,0.24-3.76,0.47-5.65,0.7c0-1.13,0-1.98,0-2.97c1.39,0,2.72,0,4.02,0c0-0.65,0-1.17,0-1.82
		c-1.38,0-2.7,0-4.01,0c0-0.83,0-1.53,0-2.4c1.79,0.14,3.5,0.28,5.14,0.41c0-0.57,0-1.32,0-2.09c-2.81,0-5.54,0-8.09,0
		C130.61,108.52,130.61,111.98,129.7,115.48z M127.54,107.61c0-0.47-0.04-0.86,0.01-1.24c0.11-0.91-0.17-1.34-1.18-1.48
		c-1.56-0.23-3.04-0.29-4.56,0.25c-3.76,1.33-4.12,6.44-2.14,8.63c1.54,1.71,3.48,2.09,5.73,1.83c1.96-0.22,2.51-0.25,2.24-2.89
		c-2.35,1.42-4.6,1.33-5.76-0.14c-0.89-1.14-1.08-3.35-0.25-4.59C122.69,106.42,124.42,106.29,127.54,107.61z M106.95,105
		c1.1,1.49,2.13,2.94,3.23,4.36c0.94,1.23,1.77,2.48,1.43,4.12c-0.14,0.68-0.41,1.33-0.61,1.95c1.3,0,2.55,0,3.79,0
		c-0.79-1.82-1.12-3.5,0.14-5.17c1.31-1.73,2.56-3.5,3.85-5.27c-1.15,0-2.36,0-3.5,0c0.12,1.84-1.43,2.76-2.24,4.29
		c-0.88-1.56-2.33-2.54-2.35-4.29C109.45,105,108.2,105,106.95,105z"/>
	<path class="st0" d="M143.21,22.79c-21.14,0-42.09,0-63.16,0c0-2.88-0.02-5.71,0.01-8.54c0.02-1.37,0.09-2.74,0.21-4.1
		c0.17-1.94,2.1-3.44,4.4-3.45c4.18-0.02,8.37-0.01,12.56-0.01c13.67,0,27.34,0.02,41.02-0.02c2.63-0.01,5.14,1.7,5.01,5
		C143.1,15.35,143.21,19.03,143.21,22.79z M84.76,20.25c1.14,0,2.39,0,3.43,0c-0.23-1.34-0.45-2.66-0.68-4.02
		c2.87-0.25,3.17-0.05,4.1,2.29c0.18,0.45,0.45,0.87,0.74,1.27c0.15,0.21,0.42,0.47,0.64,0.48c0.93,0.06,1.87,0.02,2.79,0.02
		c-1.03-1.72-1.99-3.36-2.97-4.99c1.72-0.55,2.05-1.11,1.99-3.43c-0.02-1-0.86-2.29-1.8-2.36c-2.83-0.21-5.66-0.28-8.31-0.39
		C85.38,12.98,85.29,16.59,84.76,20.25z M108.17,14.85c0.21-3.56-2.29-5.87-5.8-5.85c-3.34,0.01-5.8,2.4-5.7,5.75
		c0.12,3.85,2.14,5.85,5.8,5.94C105.39,20.76,108.4,18.76,108.17,14.85z M137.91,12.61c0-0.98,0.06-1.63-0.02-2.26
		c-0.04-0.3-0.31-0.74-0.55-0.81c-1.72-0.44-3.46-0.66-5.18-0.07c-1.11,0.38-2.05,1.57-2.07,2.6c-0.06,2.06,0.6,2.91,2.67,3.38
		c0.81,0.18,1.64,0.24,2.41,0.51c0.44,0.16,0.93,0.59,1.08,1c0.11,0.29-0.21,1.02-0.5,1.13c-0.74,0.29-1.62,0.6-2.36,0.45
		c-1.2-0.25-2.32-0.85-3.54-1.33c0,0.46,0.06,0.99-0.01,1.51c-0.1,0.84,0.21,1.2,1.04,1.39c1.91,0.43,3.78,0.66,5.67-0.05
		c1.38-0.51,2.16-1.46,2.28-2.92c0.14-1.69-0.32-2.56-1.89-3.21c-0.99-0.41-2.1-0.51-3.14-0.83c-0.56-0.17-1.42-0.23-1.28-1.09
		c0.13-0.81,0.85-0.96,1.59-0.96C135.46,11.06,136.76,11.19,137.91,12.61z M113.01,18.7c0-2.93-0.03-5.42,0.02-7.92
		c0.01-0.49,0.35-0.97,0.55-1.47c-1.35,0-2.66,0-3.86,0c1.17,3.68,1.01,7.28,0.14,10.99c2.38,0,4.9,0.02,7.42-0.02
		c0.25,0,0.65-0.31,0.7-0.54c0.17-0.75,0.21-1.53,0.27-1.98C116.59,18.05,114.89,18.36,113.01,18.7z M123.42,9.3
		c-1.33,0-2.61,0-3.7,0c0.71,3.69,0.62,7.32,0.06,10.94c2.58,0,5.24,0,7.95,0c0.13-1,0.25-1.94,0.39-3.1
		c-1.66,1.69-3.53,1.27-5.5,1.29C123.04,15.32,121.99,12.22,123.42,9.3z"/>
	<path class="st0" d="M616.82,43.7c1.34,0,2.57-0.09,3.78,0.02c1.35,0.12,1.98,0.77,2.11,1.87c0.15,1.28-0.32,2.01-1.62,2.55
		c-0.1,0.04-0.21,0.09-0.4,0.17c0.72,1.12,1.42,2.23,2.15,3.38c-0.85,0.31-1.35,0.14-1.72-0.56c-0.37-0.71-0.86-1.36-1.23-2.07
		c-0.41-0.81-1-0.96-1.91-0.62c0,1.06,0,2.16,0,3.34c-0.44,0.03-0.77,0.05-1.17,0.07C616.82,49.1,616.82,46.44,616.82,43.7z
		 M618.06,47.31c0.83-0.06,1.58-0.06,2.32-0.16c0.71-0.09,1.05-0.54,1.04-1.27c-0.01-0.78-0.51-1.08-1.17-1.13
		c-0.71-0.06-1.42-0.01-2.2-0.01C618.06,45.63,618.06,46.4,618.06,47.31z"/>
	<path class="st0" d="M95.09,59.97c0-8.4,0-16.7,0-25.14c3.48,0,6.93-0.12,10.36,0.05c1.73,0.09,3.52,0.48,5.12,1.12
		c3.5,1.39,5.38,4.1,5.92,7.87c0.63,4.39-0.8,7.99-3.97,10.88c-2.62,2.39-5.88,3.61-9.31,4.26c-2.32,0.44-4.7,0.65-7.06,0.94
		C95.83,60,95.49,59.97,95.09,59.97z M100.33,58.37c2.14-0.55,4.09-1.08,6.05-1.53c0.71-0.17,0.89-0.51,0.88-1.19
		c-0.03-3.16-0.02-6.3-0.02-9.46c0-1.3,0-2.59,0-3.99c2.59,0,5.06,0,7.79,0c-0.61-1.02-1.05-1.88-1.61-2.66
		c-0.65-0.91-1.49-1.31-2.72-1.29c-4.34,0.09-8.68,0.03-13.02,0.04c-0.3,0-0.61,0.04-0.96,0.07c0.68,0.62,1.27,1.13,1.82,1.69
		c1.58,1.63,1.71,3.76,1.76,5.81C100.41,49.9,100.33,53.93,100.33,58.37z"/>
	<path class="st0" d="M87.7,109.64c0-1.09,0-1.91,0-2.85c0.95,0,1.9-0.16,2.74,0.06c0.59,0.15,1.36,0.73,1.49,1.25
		c0.14,0.57-0.39,1.23-1.27,1.26C89.72,109.38,88.75,109.53,87.7,109.64z"/>
	<path class="st0" d="M98.71,110.28c0-2.59,0.99-3.59,3.43-3.5c1.25,0.05,2.13,0.92,2.48,2.64c0.28,1.37-0.26,3.38-1.88,4.06
		C100.64,114.39,98.34,112.44,98.71,110.28z"/>
	<path class="st0" d="M87.71,14.07c0-0.93,0-1.76,0-2.76c1.08,0,2.19-0.08,3.27,0.03c0.74,0.07,1.34,0.47,1.3,1.42
		c-0.04,0.89-0.64,1.22-1.33,1.28C89.89,14.14,88.82,14.07,87.71,14.07z"/>
	<path class="st0" d="M99.41,14.91c-0.06-1.38,0.13-2.65,1.53-3.34c2.03-1,3.88-0.17,4.55,2.03c0.81,2.64-0.76,4.95-3.3,4.86
		C100.47,18.4,99.41,17.05,99.41,14.91z"/>
</g>
</svg>
