<?xml version="1.0" encoding="utf-8"?>
<!-- Generator: Adobe Illustrator 24.0.2, SVG Export Plug-In . SVG Version: 6.00 Build 0)  -->
<svg version="1.1" id="Capa_1" xmlns="http://www.w3.org/2000/svg" xmlns:xlink="http://www.w3.org/1999/xlink" x="0px" y="0px"
	 viewBox="0 0 700 125" style="enable-background:new 0 0 700 125;" xml:space="preserve">
<style type="text/css">
	.st0{fill:#FFFFFF;}
</style>
<g>
	<path class="st0" d="M287.5,57.67c0.67-3.7,1.12-7.44,2.04-11.08c6.06-24.05,26.95-42.63,51.53-45.97c1.37-0.19,2.73-0.41,4.1-0.62
		c3.22,0,6.44,0,9.67,0c3.7,0.67,7.46,1.11,11.09,2.05c24.72,6.38,43.26,27.73,46.19,53c0.1,0.88,0.25,1.74,0.38,2.62
		c0,3.22,0,6.44,0,9.67c-0.66,3.65-1.13,7.34-2.02,10.93c-5.98,24.07-27.12,42.93-51.56,46.11c-1.37,0.18-2.72,0.42-4.09,0.62
		c-3.22,0-6.44,0-9.67,0c-3.64-0.66-7.38-1-10.92-2.04c-25.05-7.36-40.35-23.85-45.77-49.42c-0.43-2.05-0.66-4.14-0.98-6.21
		C287.5,64.11,287.5,60.89,287.5,57.67z M288.77,62.47c-0.01,33.82,27.49,61.32,61.25,61.25c33.88-0.07,61.24-27.47,61.21-61.3
		c-0.03-33.76-27.41-61.13-61.17-61.16C316.21,1.25,288.79,28.64,288.77,62.47z"/>
	<path class="st0" d="M350.05,3.67c32.45-0.1,59.23,26.57,58.79,59.63c-0.42,32.24-26.93,58.43-59.57,58.04
		c-32.38-0.38-58.65-27.08-58.12-59.82C291.67,29.39,318.02,3.52,350.05,3.67z M350.07,22.25c-22.2-0.07-40.26,17.95-40.31,40.21
		c-0.05,21.8,17.88,39.92,39.25,40.3c22.71,0.39,41.2-18.01,41.21-39.98C390.22,40.35,372.42,22.33,350.07,22.25z M385.89,34.83
		c2.1-2.77,4.06-5.36,5.95-7.87c-1.27-2-2.79-2.56-4.88-1.71c-1.02,0.42-2.19,0.48-3.4,0.73c0.13-1.29,0.06-2.39,0.37-3.36
		c0.78-2.46-0.22-4.02-1.78-4.91c-2.55,2.25-5.01,4.42-7.52,6.63c0.93,0.87,1.56,1.46,2.21,2.07c1.49-1.43,2.84-2.71,4.5-4.29
		c-0.3,2.66-0.55,4.88-0.82,7.27c2.32-0.51,4.43-0.98,6.98-1.54c-1.41,1.94-2.53,3.48-3.68,5.06
		C384.54,33.57,385.14,34.13,385.89,34.83z M344.53,7.89c0,3.44,0,6.67,0,9.92c1.09,0,1.94,0,2.85,0c0.07-0.93,0.13-1.73,0.18-2.53
		c0.86-0.06,1.58-0.12,2.3-0.17c1.03-0.08,2.02-0.07,2.52,1.08c0.82,1.89,2.34,1.76,4.14,1.44c-0.69-0.98-1.29-1.82-1.95-2.74
		c0.28-0.22,0.55-0.39,0.77-0.61c1.11-1.15,1.36-2.5,0.86-3.99c-0.49-1.47-1.56-2.33-3.08-2.37C350.2,7.83,347.27,7.89,344.53,7.89z
		 M392.31,38.42c0.91,1.7,1.76,3.28,2.64,4.91c0.72-0.41,1.29-0.74,1.9-1.09c-0.71-1.39-1.32-2.69-2.04-3.93
		c-0.57-0.97-0.28-1.4,0.85-1.61c1.22,2.31,2.44,4.63,3.7,7.03c0.71-0.4,1.27-0.71,1.94-1.09c-1.77-3.4-3.47-6.68-5.09-9.79
		c-2.9,1.64-5.71,3.22-8.57,4.83c1.8,3.45,3.5,6.71,5.24,10.03c0.76-0.45,1.33-0.78,1.92-1.13c-1.3-2.52-2.54-4.92-3.84-7.44
		C391.45,38.87,391.87,38.65,392.31,38.42z M393.97,55.19c0.19,2.25,0.96,4.47,2.22,5.89c2.33,2.63,6.14,2.14,7.73-0.99
		c1.42-2.81,0.7-7.23-1.53-9.45c-2.4-2.38-6.02-1.82-7.46,1.24C394.43,52.9,394.27,54.08,393.97,55.19z M366.79,10.54
		c-3.06,0.02-4.87,1.13-5.61,3.09c-0.76,2.01-0.11,4.23,1.79,5.79c2.07,1.69,4.43,2.51,7.12,1.97c3.64-0.74,5.14-4.6,2.92-7.59
		C371.34,11.55,368.97,10.61,366.79,10.54z M295.84,55.82c3.08,2.33,5.94,4.51,8.95,6.78c0.29-1.46,0.95-2.63-0.55-3.62
		c-0.77-0.5,0.07-6.35,0.94-6.59c1.79-0.49,1.56-1.8,1.62-3.27c-3.39,1.13-6.64,2.2-9.87,3.32c-0.3,0.1-0.62,0.5-0.69,0.81
		C296.02,54.22,295.93,55.21,295.84,55.82z M321.32,27.32c1.56-0.78,2.99-0.97,2.79-2.83c-0.03-0.31,0.35-0.79,0.67-0.99
		c1.27-0.79,2.57-1.53,3.89-2.24c0.3-0.16,0.87-0.32,1.04-0.17c1.5,1.33,2.45,0.07,3.73-0.67c-2.27-1.47-4.55-2.67-6.5-4.28
		c-2.06-1.71-3.85-1.7-5.79-0.04c-0.08,0.07-0.12,0.18-0.18,0.27c0.12,0,0.23-0.01,0.35-0.01
		C321.32,19.91,321.32,23.46,321.32,27.32z M314.22,35.71c0.66-0.74,1.23-1.39,1.92-2.16c-0.85-0.69-1.58-1.28-2.39-1.93
		c1.39-1.56,2.6-2.91,3.87-4.33c-0.58-0.54-1.06-0.98-1.61-1.48c-1.34,1.36-2.6,2.65-3.92,3.99c-0.52-0.56-0.96-1.02-1.42-1.5
		c1.85-2.02,3.56-3.9,5.28-5.78c-0.49-0.62-0.92-1.16-1.41-1.77c-2.71,2.95-5.19,5.64-7.55,8.2
		C309.39,31.19,311.72,33.37,314.22,35.71z M307.85,46.91c1.54-3.05,3.05-6.04,4.62-9.14c-0.72-0.37-1.34-0.69-2.03-1.05
		c-1.16,2.28-2.24,4.42-3.34,6.58c-2.37-1.23-4.52-2.34-6.79-3.52c-0.5,0.97-0.96,1.85-1.35,2.61
		C301.92,43.9,304.81,45.36,307.85,46.91z"/>
	<path class="st0" d="M363.95,98.47c0.4-0.66,0.93-1.28,1.17-1.99c0.82-2.4-0.74-4.65-3.34-4.8c-1.61-0.1-3.22-0.05-4.83-0.08
		c-4.51-0.06-8.03-3.46-8.1-7.81c-0.07-4.44,3.42-8.01,7.99-8.09c3.11-0.05,6.22,0.04,9.33-0.04c0.81-0.02,2.32,0.65,2.31-0.72
		c-0.01-1.45-1.56-0.82-2.43-0.84c-3-0.08-6-0.02-9-0.03c-6.04-0.03-10.82-4.78-10.83-10.76c-0.01-5.99,4.73-10.76,10.79-10.83
		c2.67-0.03,5.33,0.01,8-0.01c1.76-0.02,2.73-0.78,2.7-2.02c-0.04-1.24-1.01-1.93-2.79-1.93c-4.72-0.01-9.44,0-14.17,0
		c-0.6,0-1.2,0-1.82,0c0.21-2.67,2.53-4.88,4.98-4.88c2.44,0,4.89,0.06,7.33-0.05c0.54-0.02,1.05-0.63,1.58-0.97
		c-0.54-0.25-1.07-0.69-1.62-0.72c-2.05-0.09-4.11-0.04-6.17-0.04c-2.92,0-4.99-1.5-6.08-4.53c2.31,0,4.57-0.04,6.83,0.01
		c1.5,0.03,2.57-0.42,3.53-1.7c0.61-0.81,1.84-1.37,2.89-1.58c1.34-0.27,2.76-0.08,4.15-0.08c2.84-0.01,3.76-0.94,3.75-3.79
		c8.51,3.3,13.67,14.93,10.21,23.31c-2.4,5.81-7.08,8.5-13.17,8.85c-3.1,0.18-6.22-0.01-9.33,0.08c-0.57,0.02-1.12,0.55-1.68,0.85
		c0.53,0.25,1.06,0.71,1.6,0.72c3.39,0.07,6.78,0.01,10.17,0.04c5.59,0.05,9.9,4.29,9.93,9.75c0.03,5.59-4.2,9.87-9.89,9.94
		c-3.44,0.04-6.89-0.03-10.33,0.05c-0.62,0.01-1.23,0.53-1.84,0.81c0.64,0.26,1.27,0.71,1.93,0.75c1.83,0.1,3.66,0.02,5.5,0.04
		c2.97,0.02,5.34,1.68,6.26,4.34c0.94,2.71,0.12,5.4-2.33,7.22c-0.95,0.71-2.04,1.23-3.07,1.84C364.05,98.65,364,98.56,363.95,98.47
		z"/>
	<path class="st0" d="M334.17,27.96c0,10,0,19.75,0,29.66c3.87,0,7.62,0,11.58,0c-1.37,3.12-1.7,6.15-0.75,9.46
		c-3.68,0-7.14,0-10.8,0c0,10.09,0,20,0,30.19c-3.63-1.62-6.65-3.62-9.32-6.13c-0.31-0.3-0.3-1.03-0.3-1.56
		c-0.02-6.78-0.01-13.55-0.01-20.33c0-0.6,0-1.21,0-2.04c-4.14,0-8.15,0-12.38,0c0-3.29,0-6.35,0-9.56c4.21,0,8.19,0,12.3,0
		c0.03-0.73,0.08-1.32,0.08-1.92c0.01-6.67,0.03-13.33-0.02-20c-0.01-1.1,0.3-1.86,1.17-2.55
		C328.28,31.18,330.95,29.35,334.17,27.96z"/>
	<path class="st0" d="M345,41.64c0.33-3.17-0.19-5.59-3.28-7.03c1.93-0.97,3.16-0.51,4.06,0.66c0.66,0.86,0.99,1.97,1.58,2.89
		c0.97,1.52,2.03,2.99,2.9,4.27c-1.18,2.02-2.47,4.16-3.69,6.34c-1.11,1.97-2.16,2.52-4.57,2.03c0.95-1.04,2.09-1.85,2.58-2.95
		c0.53-1.19,0.46-2.65,0.7-4.34c-1.91,0.91-3.6,2.18-4.99,0.17c-0.36-0.52-0.33-1.76,0.05-2.27C341.7,39.57,343.33,40.51,345,41.64z
		"/>
	<path class="st0" d="M353.37,31.9c-1.33,0-2.67,0.07-3.99-0.04c-0.5-0.04-0.97-0.49-1.45-0.76c0.45-0.3,0.88-0.84,1.34-0.85
		c2.88-0.08,5.77-0.07,8.66-0.01c0.42,0.01,0.83,0.48,1.25,0.74c-0.43,0.3-0.85,0.83-1.3,0.87C356.37,31.96,354.87,31.9,353.37,31.9
		z"/>
	<path class="st0" d="M353.59,29.57c-0.53-0.79-1.09-1.26-1.05-1.66c0.05-0.44,0.65-0.82,1.01-1.22c0.42,0.41,1.05,0.76,1.18,1.25
		C354.8,28.27,354.17,28.78,353.59,29.57z"/>
	<path class="st0" d="M359.7,28.11c-0.84,0.43-1.37,0.93-1.76,0.85c-0.42-0.1-0.73-0.74-1.08-1.15c0.45-0.37,0.88-0.97,1.37-1.03
		C358.56,26.74,359,27.44,359.7,28.11z"/>
	<path class="st0" d="M350.79,27.92c-0.8,0.53-1.28,1.09-1.68,1.04c-0.45-0.06-0.82-0.67-1.23-1.03c0.42-0.41,0.79-1.04,1.29-1.15
		C349.51,26.69,350.01,27.34,350.79,27.92z"/>
	<path class="st0" d="M347.49,12.79c0-0.87,0-1.62,0-2.63c1.7,0,3.35-0.09,4.97,0.06c0.41,0.04,1.05,0.88,1.02,1.33
		c-0.02,0.43-0.73,1.14-1.18,1.18C350.77,12.89,349.21,12.79,347.49,12.79z"/>
	<path class="st0" d="M402.36,56.49c-0.16,1.95-0.9,3.05-2.33,3.27c-1.49,0.24-2.71-0.65-3.17-2.49c-0.22-0.89-0.31-1.86-0.21-2.77
		c0.14-1.25,0.87-2.17,2.2-2.36c1.33-0.19,2.25,0.53,2.75,1.67C401.97,54.66,402.12,55.6,402.36,56.49z"/>
	<path class="st0" d="M368.22,19.03c-2.49-0.03-4.53-1.65-4.46-3.55c0.06-1.55,1.18-2.5,2.93-2.47c2.34,0.03,4.44,1.63,4.48,3.4
		C371.21,18.03,370.06,19.05,368.22,19.03z"/>
	<path class="st0" d="M298.42,54.61c1.41-0.47,2.48-0.83,3.74-1.25c-0.17,1.21-0.32,2.27-0.52,3.67
		C300.53,56.19,299.61,55.51,298.42,54.61z"/>
	<path class="st0" d="M323.92,21.28c0-1.51,0-2.6,0-3.94c1.14,0.73,2.13,1.37,3.29,2.11C326.08,20.08,325.14,20.6,323.92,21.28z"/>
</g>
</svg>
