<?xml version="1.0" encoding="utf-8"?>
<!-- Generator: Adobe Illustrator 24.0.2, SVG Export Plug-In . SVG Version: 6.00 Build 0)  -->
<svg version="1.1" id="Capa_1" xmlns="http://www.w3.org/2000/svg" xmlns:xlink="http://www.w3.org/1999/xlink" x="0px" y="0px"
	 viewBox="0 0 700 125" style="enable-background:new 0 0 700 125;" xml:space="preserve">
<style type="text/css">
	.st0{fill:#FFFFFF;}
</style>
<g>
	<g>
		<path class="st0" d="M680.85,56.38c0,12.81,0,24.1,0,36.24c-44.15,0-87.45,0-133.03,0c0-18.58-0.3-36.89,0.38-55.17
			c0.09-2.29,5.36-6.27,8.27-6.3c38.82-0.42,77.65-0.46,116.47,0.06c2.97,0.04,5.88,4.92,8.81,7.55c-3.01,2.51-5.98,7.14-9.04,7.2
			c-27.92,0.57-55.86,0.35-83.8,0.36c-5.11,0-10.21,0-16.44,0c0,10.76,0,20.11,0,31.24c26.8,0,53.15,0.1,79.49-0.22
			c1.81-0.02,3.57-3.15,5.36-4.84c-2.06-1.42-4.06-3.96-6.19-4.06c-9.45-0.47-18.98,0.32-28.37-0.55c-3.56-0.33-6.81-3.88-10.2-5.97
			c3.13-1.85,6.23-5.22,9.41-5.3C641.27,56.13,660.59,56.38,680.85,56.38z"/>
		<path class="st0" d="M380.8,31.06c0,21.87,0,41.2,0,61.46c-7,0-13.41,0-20.9,0c-0.83-3.27-1.8-7.1-2.92-11.49
			c-1.48-0.45-3.22-1.43-4.97-1.44c-25.12-0.13-50.24-0.24-75.36-0.02c-3.52,0.03-8.9,0.78-10.23,3.01
			c-8.28,13.91-21.19,11.24-36.86,10.12c16.08-20.51,31.06-39.74,46.28-58.8c1.25-1.57,4.09-2.71,6.2-2.72
			C314.6,31.01,347.15,31.06,380.8,31.06z M283.61,61.88c25.06,0,48.95,0,72.91,0c4.19-11.24,1.17-16.07-11.01-15.5
			c-12.74,0.59-25.56,0.73-38.27-0.05C295.71,45.62,288.29,49.8,283.61,61.88z"/>
		<path class="st0" d="M416.68,58.92c0,10.96,0,21.93,0,33.7c-8.13,0-14.93,0-23.42,0c0-18.65-0.31-36.59,0.36-54.5
			c0.09-2.5,5.37-7.14,7.68-6.82c9.04,1.23,20.25,1.42,26.32,6.73c25.65,22.47,48.9,22.52,74.62-0.19
			c7.13-6.29,20.18-6.15,32.35-9.46c0,23.78,0,43.44,0,64.09c-7.16,0-13.92,0-22.16,0c0-11.69,0-23,0-39.37
			c-32.11,29.38-62.74,30.93-93.38,1.33C418.27,55.94,417.48,57.43,416.68,58.92z"/>
		<path class="st0" d="M125.78,30.68c-16.41,21.1-30.22,39.21-44.54,56.93c-2.3,2.85-6.83,5.44-10.43,5.57
			c-16.39,0.59-32.82,0.26-52.56,0.26c16.49-21.19,31.13-40.17,46.06-58.93c1.54-1.93,4.75-3.61,7.22-3.66
			C88.39,30.53,105.27,30.68,125.78,30.68z"/>
		<path class="st0" d="M164.22,33.22c-14.25,18.39-27.18,38.04-43.43,54.55c-6.18,6.27-20.02,5.32-30.37,7.66
			c-0.66-1.44-1.33-2.89-1.99-4.33c14.77-18.96,28.34-39.03,45-56.24c5.52-5.7,18.97-4.06,28.8-5.77
			C162.88,30.46,163.55,31.84,164.22,33.22z"/>
		<path class="st0" d="M199.21,33.28c-14.7,18.91-28.59,38.53-44.66,56.24c-4.29,4.73-15.29,3.65-23.21,5.23
			c-0.72-1.16-1.43-2.33-2.15-3.49c14.95-19.22,29.1-39.14,45.42-57.18c4.11-4.54,15.19-3.05,23.07-4.33
			C198.19,30.92,198.7,32.1,199.21,33.28z"/>
		<path class="st0" d="M230.99,33.41c-14.47,18.61-28.43,37.64-43.81,55.51c-3.44,3.99-11.85,3.89-17.98,5.67
			c-0.64-1.24-1.28-2.48-1.92-3.72c14.48-18.64,28.5-37.65,43.81-55.61c3.37-3.95,11.32-4.17,17.16-6.11
			C229.17,30.57,230.08,31.99,230.99,33.41z"/>
		<path class="st0" d="M263.86,32.64c-23.23,20.07-30.89,50.35-62.22,63.97C211.02,69.29,247.48,30.75,263.86,32.64z"/>
	</g>
</g>
</svg>
