<?xml version="1.0" encoding="utf-8"?>
<!-- Generator: Adobe Illustrator 24.0.2, SVG Export Plug-In . SVG Version: 6.00 Build 0)  -->
<svg version="1.1" id="Capa_1" xmlns="http://www.w3.org/2000/svg" xmlns:xlink="http://www.w3.org/1999/xlink" x="0px" y="0px"
	 viewBox="0 0 700 125" style="enable-background:new 0 0 700 125;" xml:space="preserve">
<style type="text/css">
	.st0{fill:#FFFFFF;}
</style>
<g>
	<path class="st0" d="M172.78,66.15c0-2.43,0-4.87,0-7.3c0.16-1.42,0.3-2.84,0.49-4.26c1.77-12.94,6.88-24.41,15.87-33.87
		C205.81,3.18,226.23-3.1,249.95,1.53c8.55,1.67,16.31,5.3,23.34,10.42c0.62,0.46,1.02,0.43,1.63-0.01
		c1.41-1.01,2.85-1.98,4.34-2.86c13.34-7.86,27.68-10.64,42.98-8.26c9.83,1.52,18.76,5.3,26.84,11.06c0.61,0.44,1.03,0.54,1.72,0.05
		c9.11-6.48,19.21-10.37,30.34-11.56c11.21-1.2,21.98,0.5,32.32,4.97c4.38,1.89,8.47,4.3,12.3,7.08c0.14-0.04,0.22-0.05,0.28-0.09
		c0.25-0.16,0.49-0.32,0.73-0.5c10.3-7.27,21.76-11.25,34.35-11.79c11.76-0.51,22.84,2.1,33.21,7.69
		c28.84,15.56,40.94,50.63,27.23,80.22c-9.37,20.21-25.5,32.12-47.43,36.16c-2.17,0.4-4.37,0.58-6.55,0.87c-2.44,0-4.87,0-7.31,0
		c-0.32-0.06-0.64-0.16-0.97-0.18c-9.41-0.63-18.25-3.21-26.47-7.83c-2.4-1.35-4.69-2.9-7.06-4.38c-0.01,0.01-0.09,0.02-0.15,0.06
		c-0.19,0.12-0.36,0.25-0.54,0.38c-8.25,5.84-17.35,9.62-27.35,11.17c-2.11,0.33-4.23,0.52-6.35,0.78c-2.36,0-4.73,0-7.09,0
		c-0.32-0.06-0.64-0.16-0.96-0.18c-11.71-0.83-22.38-4.57-31.95-11.35c-1.07-0.76-1.73-0.79-2.82-0.02
		c-7.92,5.58-16.68,9.16-26.26,10.69c-2.21,0.35-4.44,0.58-6.67,0.86c-2.36,0-4.73,0-7.09,0c-0.32-0.06-0.64-0.16-0.97-0.18
		c-11.86-0.83-22.63-4.73-32.35-11.54c-0.85-0.59-1.39-0.64-2.26-0.02c-8.03,5.68-16.9,9.35-26.63,10.9
		c-2.21,0.35-4.45,0.57-6.67,0.85c-2.44,0-4.87,0-7.31,0c-0.28-0.06-0.56-0.16-0.85-0.18c-12.06-0.89-23.04-4.81-32.78-11.95
		c-13.72-10.06-22.17-23.48-25.1-40.27C173.26,70.45,173.05,68.29,172.78,66.15z M264.17,21.55c-0.68-0.44-1.23-0.82-1.79-1.15
		c-13.35-7.84-27.44-9.4-42.16-4.7c-19.24,6.15-32.84,23.5-34.16,43.58c-0.93,14.18,3.63,26.53,13.38,36.8
		c15.12,15.91,37.84,20.19,57.85,11.13c2.36-1.07,4.59-2.42,6.98-3.69C254,91.58,248.7,78.01,248.71,62.49
		C248.7,46.97,254,33.39,264.17,21.55z M435.8,103.41c0.33,0.23,0.59,0.43,0.87,0.6c10.08,6.36,21.05,8.88,32.87,7.51
		c13.77-1.6,25.24-7.72,33.73-18.65c11.85-15.25,14.27-32.2,6.55-49.91c-10.73-24.63-38.82-36.03-63.97-26.54
		c-3.52,1.33-6.86,3.02-10.06,5.16c10.31,11.74,15.65,25.33,15.66,40.91C451.45,78.07,445.93,91.6,435.8,103.41z M340.03,103.39
		c-10.36-11.75-15.68-25.38-15.67-40.93s5.52-29.12,15.66-40.85c-16.47-11.44-39.64-11.19-55.95,0.03
		c10.1,11.75,15.41,25.33,15.41,40.85c0.01,15.55-5.32,29.15-15.43,40.92C301.2,114.72,323.12,114.66,340.03,103.39z M415.89,21.6
		c-16.11-11.2-39.14-11.42-55.97,0.02c10.31,11.67,15.65,25.29,15.65,40.84c0.01,15.59-5.5,29.18-15.67,40.94
		c18.68,12.39,41.39,10.16,55.93-0.07c-10.26-11.7-15.6-25.29-15.59-40.87C400.26,46.88,405.79,33.35,415.89,21.6z M274.1,94.66
		c17.63-19.6,15.16-47.68-0.01-64.31C258,47.97,257.41,76.16,274.1,94.66z M425.84,30.33c-16.92,18.96-15.83,46.94,0.01,64.3
		C441.99,76.94,442.49,48.79,425.84,30.33z M349.99,30.33c-17.73,19.63-15.04,48.59,0.07,64.25
		C366.45,76.16,366.24,48.52,349.99,30.33z"/>
</g>
</svg>
