<?xml version="1.0" encoding="utf-8"?>
<!-- Generator: Adobe Illustrator 24.0.2, SVG Export Plug-In . SVG Version: 6.00 Build 0)  -->
<svg version="1.1" id="Capa_1" xmlns="http://www.w3.org/2000/svg" xmlns:xlink="http://www.w3.org/1999/xlink" x="0px" y="0px"
	 viewBox="0 0 700 125" style="enable-background:new 0 0 700 125;" xml:space="preserve">
<style type="text/css">
	.st0{fill:#FFFFFF;}
</style>
<g>
	<path class="st0" d="M166.62,18.39c-0.3-0.26-0.86-0.92-1.56-1.33c-2.39-1.42-4.84-2.75-7.25-4.13c-1.34-0.76-1.43-1.75-0.51-2.94
		c0.6-0.77,1.15-1.58,1.7-2.39c1.49-2.16,3.43-2.9,6.12-2.59c11.8,1.36,23.64,1.97,35.53,1.53c12.34-0.45,24.7-0.82,37.04-0.77
		c9.62,0.04,19.24,1.1,28.87,1.11c7.87,0.01,15.74-0.88,23.6-1.38c7.27-0.46,14.49-0.22,21.68,1.23c1.76,0.36,3.89-0.11,5.63-0.79
		c7.86-3.05,15.94-5.16,24.34-5.72c13.76-0.91,27.18,0.63,39.91,6.3c1.86,0.83,3.65,1,5.67,0.48c9-2.28,18.16-2.21,27.26-1.12
		c11.85,1.41,23.69,1.26,35.55,0.46c15.98-1.07,31.95-1.08,47.92,0.04c10.76,0.75,21.49,0.13,32.2-0.87
		c1.67-0.15,3.34-0.27,5.01-0.41c3.37-0.29,7.33,2.52,7.97,5.84c0.11,0.58-0.45,1.61-1,1.94c-2.79,1.7-5.67,3.25-8.64,4.9
		c0.66,1.62,1.24,3.33,2.04,4.93c0.65,1.32,0.3,2.13-0.93,2.64c-2.18,0.9-4.39,1.75-6.59,2.61c-0.77,0.3-1.55,0.55-2.41,0.86
		c0.25,1.2,0.49,2.27,0.68,3.35c0.33,1.89-0.35,3.39-2.15,4.05c-2.21,0.82-4.5,1.43-6.78,2.07c-3.03,0.86-3.19,1.03-3.24,4.14
		c-0.06,3.88-0.89,4.88-4.79,5.51c-2.2,0.36-4.43,0.59-6.64,0.88c-1.57,0.2-2.53,1.02-2.76,2.64c-0.1,0.69-0.29,1.36-0.46,2.04
		c-0.81,3.21-2.12,4.32-5.41,4.43c-3,0.1-6,0.15-9,0.09c-1.5-0.03-2.49,0.48-2.75,1.92c-0.74,4.2-3.5,5.44-7.37,5.34
		c-2.79-0.07-5.58,0.04-8.37,0.05c-1.25,0.01-2.15,0.38-2.36,1.78c-0.57,3.72-2.93,5.19-6.49,4.93c-3.12-0.24-6.23-0.58-9.34-0.98
		c-1.15-0.15-1.95-0.07-2.53,1.14c-1.35,2.79-3.8,3.58-6.66,3.15c-2.75-0.41-5.45-1.06-8.39-1.65c-2.23,5.86-6.59,3.98-10.78,2.65
		c-0.19,0.21-0.4,0.33-0.46,0.5c-5.9,17.03-17.47,28.9-33.55,36.55c-3.23,1.54-6.02,3.18-6.94,7.09c-1.58-0.54-2.97-0.92-4.28-1.49
		c-1.66-0.73-2.85-0.61-3.65,1.23c-0.41,0.94-1.1,1.76-1.75,2.79c-1-0.5-1.91-0.97-2.83-1.41c-3.53-1.68-2.33-2.08-5.15,1.07
		c-0.55,0.61-1.1,1.24-1.73,1.96c-1.71-1.24-3.33-2.43-5.07-3.7c-1.28,1.17-2.54,2.25-3.72,3.42c-0.83,0.82-1.49,0.83-2.25-0.07
		c-0.94-1.12-1.96-2.17-3.02-3.34c-1.84,1.29-3.43,2.4-5.21,3.65c-0.92-1.03-1.92-1.98-2.7-3.1c-0.88-1.26-1.71-1.3-2.95-0.52
		c-1.22,0.78-2.57,1.35-3.99,2.07c-1.1-1.58-2.13-3.05-3.3-4.74c-1.98,0.66-3.99,1.33-6.29,2.09c-1.07-3.85-4.55-4.64-7.64-6.03
		c-13.36-6-24.17-14.96-31.34-27.86c-2.11-3.8-3.53-7.99-5.28-12.03c-2.17,0.52-4.51,1.23-6.89,1.62c-3.64,0.59-4.67,0.07-6.32-3.24
		c-0.72-1.46-1.72-1.13-2.78-0.97c-3.38,0.51-6.73,1.23-10.12,1.54c-3.22,0.3-4.08-0.3-5.22-3.32c-0.68-1.82-1.8-2.43-3.61-2.41
		c-3.21,0.03-6.42-0.02-9.63-0.07c-2.65-0.05-4.58-1.11-5.2-3.88c-0.44-1.98-1.9-2.61-3.67-2.82c-3.74-0.44-7.49-0.82-11.23-1.27
		c-1.03-0.13-2.04-0.45-3.06-0.64c-2.51-0.48-3.97-1.93-4.07-4.53c-0.06-1.64-0.92-2.16-2.46-2.44c-3.63-0.65-7.21-1.58-10.83-2.31
		c-1.68-0.34-2.68-1.12-2.52-2.94c0.37-4.05-1.78-5.79-5.51-6.43c-1.9-0.33-3.74-1.11-5.54-1.84c-2.27-0.93-2.61-1.73-1.98-4.06
		c0.27-1,0.61-1.99,1.01-3.33c-3.3-1.51-6.63-3.04-9.98-4.54c-3-1.35-3-1.34-1.81-4.99c-0.37,2.53,1.19,2.88,2.57,3.32
		c5.28,1.69,10.68,2.71,16.22,2.56c14.3-0.36,28.6-0.75,42.9-1.23c10.05-0.34,20.08-0.85,30.12-1.28c0.21-0.01,0.42-0.03,0.63-0.02
		c0.61,0.03,1.26,1.89,1.78,0.1c0.36-1.19,1.02-2.53-0.84-3.56c-2.74-1.51-5.44-2.59-8.65-2.61c-10.61-0.1-21.22-0.42-31.83-0.62
		c-16.19-0.3-32.39-0.6-48.58-0.83C168.85,17.47,167.72,18.08,166.62,18.39z M413.37,36.65c0.09,0.25,0.11,0.62,0.29,0.72
		c2.95,1.69,5.77,3.72,8.93,4.85c1.71,0.61,4.13,0.02,5.96-0.69c2.12-0.83,1.94-3.19-0.13-4.22c-2.36-1.17-4.74-2.3-7.16-3.32
		c-3.1-1.3-6.36-0.12-7.93,2.73c-1.24-2.25-2.49-4.5-3.65-6.59c0.08,0.05,0.37,0.24,0.65,0.44c1.86,1.32,3.85,2.28,6.22,1.88
		c1.98-0.33,2.55-1.77,1.26-3.21c-0.99-1.1-2.06-2.13-3.57-3.68c2.88,1.47,5.26,2.3,8.3,0.83c-1.14-1.54-2.16-2.93-3.26-4.43
		c0.73,0.11,1.4,0.27,2.08,0.32c1.65,0.12,3.32-1.19,3.23-2.56c-0.11-1.74-0.95-2.4-2.83-2.3c-5.57,0.28-11.17,0.22-16.74,0.53
		c-2.83,0.15-5.69,0.6-8.44,1.31c-4.48,1.15-5.53,3.45-3.56,7.56c1.2,2.5,2.72,4.85,4.08,7.28c1.56,2.79,2.01,5.59,0.09,8.43
		c-0.29,0.44-0.42,0.98-0.64,1.51c4.61,0.65,5.38,0.08,5.59-3.55c1.57,0.34,3.2,0.69,4.84,1.05c0.21-0.23,0.42-0.45,0.63-0.68
		c-0.85-2.13-1.69-4.25-2.64-6.62C407.52,36.5,409.99,38.28,413.37,36.65z M307.1,27.45c-0.41,0.95-0.82,1.89-1.25,2.83
		c-0.95,2.08-2.09,4.09-2.82,6.24c-0.91,2.67-0.11,4.4,2.41,6.04c0.82-0.91,1.76-1.77,2.45-2.79c0.33-0.49,0.48-1.43,0.24-1.94
		c-1.1-2.39-0.95-4.69,0.65-6.67c1.91-2.37,4.09-4.53,6.14-6.8c1.91-2.12,3.97-4.13,5.64-6.43c2.14-2.92,1.62-4.85-1.74-6.15
		c-2.96-1.15-6.07-2.05-9.19-2.63c-8.66-1.62-17.41-1.04-26.09-0.32c-12.01,1-23.98,0.81-35.94-0.26
		c-13.95-1.25-27.87-0.78-41.82-0.14c-6.75,0.31-13.53,0.15-20.29-0.09c-6.76-0.25-13.49-0.87-20.24-1.32
		c-3.3-0.22-5.51,1.41-7.41,4.71c3.94,1.11,7.59,2.74,11.35,3.08c7.7,0.69,15.46,0.7,23.2,0.96c6.9,0.24,13.81,0.42,20.72,0.64
		c13.81,0.45,27.62,0.91,41.43,1.31c0.5,0.02,1.03-0.63,1.54-0.97c-0.1-0.25-0.19-0.5-0.29-0.75c-6.56-0.76-13.1-1.84-19.68-2.21
		c-10.03-0.57-20.08-0.63-30.13-0.96c-1.03-0.03-2.04-0.45-3.06-0.69c2.16-0.65,4.22-0.95,6.28-0.93
		c6.42,0.07,12.85,0.09,19.26,0.45c7.02,0.38,14.08,0.78,21.03,1.77c12.33,1.75,24.65,2.74,37.1,2.06c2.99-0.16,6.02-0.3,9-0.05
		c3.37,0.28,6.74,0.85,10.06,1.58c2.27,0.49,3.38,2.51,3.23,4.56c-0.15,2.04-1.18,4.01-1.83,6.02c1.43-6.3,0.67-8.02-5.78-8.76
		c-7.94-0.91-15.98-0.98-23.98-1.31c-0.48-0.02-1.3,0.74-1.43,1.27c-0.18,0.73-0.13,2.1,0.28,2.31c1.4,0.69,3,1.01,4.51,1.46
		c-1,1.09-3.09,1.89-2.4,4.83c2.41-0.38,4.79-0.75,6.77-1.06c-0.87,0.95-2.16,2.18-3.25,3.57c-0.83,1.05-0.54,1.81,0.89,2.25
		c2.02,0.63,3.84,0.35,5.6-0.69c0.84-0.49,1.69-0.97,2.54-1.46c-0.84,1.42-2,2.47-2.87,3.7c-0.52,0.73-0.58,1.78-0.85,2.69
		c1.04,0.28,2.26,1.05,3.1,0.75c1.86-0.66,3.54-1.85,4.98-2.66c-0.82,1.9-1.77,4.13-2.73,6.35c0.21,0.25,0.42,0.49,0.63,0.74
		c1.68-0.41,3.37-0.82,4.95-1.2c-0.04,3.85,1.02,4.62,5.53,3.47c-0.35-0.69-0.67-1.36-1.03-2c-1.02-1.79-1.46-3.73-0.5-5.57
		C303.57,33.24,305.39,30.37,307.1,27.45z M444.47,17.68c0.82-0.08,1.56-0.2,2.31-0.22c22.4-0.6,44.8-1.17,67.2-1.8
		c5.64-0.16,11.3-0.32,16.92-0.8c3.92-0.33,7.67-1.58,11.22-3.63c-1.88-2.88-4.11-4.54-7.55-4.21c-4.03,0.38-8.08,0.49-12.1,0.92
		c-11.85,1.27-23.71,0.85-35.55,0.15c-13-0.77-25.94-0.05-38.89,0.78c-6.81,0.43-13.67,0.73-20.49,0.49
		c-11.29-0.4-22.57-1.89-33.86-0.6c-4.03,0.46-8.08,1.47-11.9,2.84c-4.4,1.58-4.75,3.21-1.84,6.94c2,2.57,4.49,4.76,6.67,7.19
		c1.71,1.91,3.45,3.83,4.91,5.94c1.27,1.84,1.68,3.93,0.26,6.04c-0.25,0.37-0.33,1.14-0.11,1.48c0.83,1.25,1.81,2.39,2.74,3.57
		c2.41-1.51,3.41-3.35,2.59-5.83c-0.61-1.83-1.35-3.63-2.14-5.38c-1-2.21-2.34-4.29-3.17-6.56c-1.74-4.75,0.12-8.18,5.14-8.72
		c5.66-0.6,11.39-0.54,17.09-0.71c7.53-0.21,15.07-0.14,22.58-0.61c6.03-0.38,12.01-1.57,18.04-2.08c7.99-0.67,16-1.16,24.01-1.46
		c6.15-0.23,12.31-0.05,18.47-0.05c0.03,0.27,0.06,0.54,0.09,0.81c-1.04,0.22-2.07,0.6-3.11,0.64c-9.27,0.33-18.56,0.38-27.82,0.94
		c-7.34,0.44-14.65,1.46-22.08,2.22c0.13,0.71,0.16,0.98,0.23,1.24C444.36,17.41,444.44,17.59,444.47,17.68z M176.46,35.77
		c5.44,2.32,10.9,3.09,16.52,2.72c5.42-0.36,10.84-0.88,16.25-1.42c7.07-0.71,14.13-1.49,21.19-2.25
		c8.38-0.91,16.76-1.84,25.13-2.72c2.21-0.24,4.43-0.35,6.64-0.52c0.04,0.21,0.08,0.41,0.12,0.62c-1.15,0.39-2.28,0.97-3.46,1.14
		c-6.14,0.82-12.29,1.54-18.45,2.28c-8.85,1.07-17.7,2.13-26.54,3.18c-7.12,0.84-14.24,1.69-21.38,2.42
		c-1.92,0.19-2.75,1.16-2.88,2.9c-0.14,1.72,0.75,2.8,2.43,3.09c3.28,0.57,6.59,1.62,9.85,1.5c5.6-0.21,11.24-0.84,16.76-1.86
		c12.91-2.39,25.76-5.13,38.63-7.71c2.8-0.56,5.61-1.08,8.73-1.67c-1.39-1.01-2.45-1.77-3.27-2.36c0.19-1.6,0.96-3.41,0.38-4.14
		c-1.79-2.26-3.92-4.38-7.32-4.09c-2.71,0.22-5.44,0.18-8.15,0.34c-11.35,0.64-22.7,1.39-34.05,1.93
		c-11.15,0.53-22.31,0.85-33.47,1.32c-0.56,0.02-1.35,0.43-1.61,0.89C177.72,32.71,177.16,34.19,176.46,35.77z M346.33,103.64
		c0.32,0.03,0.64,0.06,0.96,0.1c-0.12,1.62-0.24,3.23-0.36,4.85c-0.22,2.91-0.59,5.81-0.61,8.72c-0.01,2.02,2.43,4.78,3.78,4.74
		c1.7-0.05,3.93-2.78,4.07-5.02c0.03-0.56,0.03-1.12-0.03-1.67c-0.17-1.38-0.44-2.75-0.59-4.13c-0.26-2.4-0.45-4.82-0.68-7.23
		c0.29-0.04,0.57-0.08,0.85-0.12c0.18,0.75,0.46,1.49,0.51,2.25c0.19,2.78,0.35,5.57,0.42,8.36c0.09,3.52,1.83,5.8,4.9,7.15
		c2.7-2.09,3.2-4.71,2.39-7.74c-0.47-1.74-0.95-3.49-1.28-5.25c-0.33-1.79-0.49-3.61-0.72-5.41c0.21-0.05,0.42-0.11,0.64-0.16
		c0.27,0.67,0.65,1.3,0.78,1.99c0.47,2.52,0.92,5.06,1.26,7.6c0.52,3.89,2.56,6.44,6.23,7.7c2.29-2.68,2.74-5.48,1.26-8.59
		c-0.72-1.5-1.38-3.05-1.92-4.62c-0.52-1.53-0.83-3.13-1.23-4.69c0.27-0.09,0.54-0.18,0.81-0.26c0.8,2.16,1.54,4.34,2.4,6.48
		c0.84,2.12,1.57,4.32,2.75,6.24c1.14,1.86,4.88,3.41,5.71,2.78c0.99-0.75,1.27-4.69,0.3-6.53c-1.63-3.15-3.3-6.28-5.11-9.33
		c-1.78-3-1.66-3.97,1.27-5.96c2.88-1.96,5.81-3.85,8.66-5.85c1.55-1.1,2.96-2.38,4.44-3.58c-23.43,16.79-47.46,16.78-72.2,3.33
		c1.24,0.84,2.54,1.69,3.87,2.49c1.61,0.97,3.29,1.83,4.85,2.87c3.28,2.19,3.54,3.19,1.7,6.71c-1.65,3.14-3.42,6.22-5.14,9.32
		c-0.92,1.67-1.17,3.38-0.5,5.22c0.55,1.5,1.55,2.37,2.98,1.37c1.55-1.08,3.26-2.32,4.12-3.91c1.44-2.66,2.24-5.65,3.34-8.5
		c0.55-1.43,1.16-2.83,1.74-4.25c0.28,0.08,0.56,0.16,0.84,0.24c-0.24,1.06-0.39,2.14-0.74,3.17c-1.2,3.54-2.65,7.02-3.62,10.62
		c-0.33,1.21,0.33,2.82,0.87,4.09c0.51,1.2,1.62,1.36,2.82,0.68c2.04-1.17,3.49-2.78,3.94-5.13c0.61-3.21,1.1-6.43,1.71-9.64
		c0.16-0.85,0.58-1.66,0.88-2.48c0.25,0.08,0.5,0.16,0.75,0.24c-0.06,0.67-0.05,1.36-0.18,2.01c-0.66,3.05-1.31,6.11-2.07,9.14
		c-0.81,3.19-0.05,5.73,2.72,7.58c3.17-1.27,4.74-3.68,4.97-6.9c0.17-2.29-0.02-4.6,0.06-6.9
		C345.93,106.41,346.17,105.02,346.33,103.64z M390.9,36.47c-1.29-3.67-3.7-5.71-5.87-7.95c-2.42-2.5-5-4.87-7.17-7.58
		c-1.05-1.31-1.78-3.22-1.82-4.88c-0.05-1.86-0.53-2.64-2.27-3.23c-16.13-5.52-32.29-4.82-48.48-0.38c-1.2,0.33-1.28,1.06-1.16,2.03
		c0.39,2.98-0.62,5.46-2.68,7.58c-1.55,1.59-3.1,3.2-4.64,4.82c-2.1,2.22-4.23,4.43-6.26,6.72c-0.56,0.63-0.83,1.53-1.23,2.3
		C331.18,16.03,367.81,15.69,390.9,36.47z M440.03,29.23c4.04,0.44,7.91,0.89,11.78,1.27c8.6,0.83,17.19,1.61,25.79,2.42
		c6.86,0.65,13.72,1.41,20.59,1.92c6.24,0.46,12.51,0.85,18.77,0.88c2.56,0.01,5.14-1,7.69-1.64c0.47-0.11,1.07-0.58,1.2-1.01
		c0.56-1.89-1.42-4.64-3.41-4.75c-8-0.46-16-0.91-24.01-1.32c-10.59-0.55-21.17-1.04-31.75-1.59c-6.12-0.32-12.24-0.75-18.37-1.11
		c-2.82-0.17-5.64-0.29-8.6-0.45C439.82,25.74,439.91,27.32,440.03,29.23z M440.25,22.05c0.4,0.21,0.51,0.32,0.63,0.33
		c9.68,0.45,19.37,0.91,29.05,1.34c7.87,0.34,15.75,0.72,23.63,0.95c10.11,0.3,20.23,0.63,30.34,0.6c3.81-0.01,7.61-1,11.74-1.58
		c-0.7-1.43-1.19-2.2-1.47-3.04c-0.79-2.31-2.28-2.95-4.72-2.9c-27.27,0.52-54.55,0.91-81.83,1.32
		C444.82,19.1,442.56,20.29,440.25,22.05z M437.27,35.79c5.58,0.87,11,1.69,16.42,2.56c11.61,1.86,23.22,3.69,34.8,5.67
		c7.68,1.31,15.35,1.94,23.06,0.56c0.84-0.15,2-0.96,2.2-1.7c0.65-2.33-0.97-4.25-3.34-4.51c-5.47-0.58-10.94-1.23-16.4-1.83
		c-8.52-0.93-17.04-1.84-25.55-2.78c-6.92-0.76-13.84-1.6-20.76-2.33c-3.57-0.38-7.16-0.6-10.98-0.92
		C436.94,32.55,437.09,34.05,437.27,35.79z M320.89,108.53c1.53-2.76,2.99-5.44,4.5-8.09c0.92-1.62,0.65-2.57-1.08-3.6
		c-8.19-4.86-16.04-10.16-21.61-18.16c-0.45-0.65-1.46-0.97-2.27-1.31c-2.14-0.9-4.32-1.74-6.49-2.57c-0.49-0.19-1.1-0.5-1.52-0.37
		c-1.77,0.55-3.49,1.24-5.22,1.89C291.36,89.17,305.22,103.02,320.89,108.53z M270.76,44.09c-0.61-2.08-1.14-3.84-1.75-5.91
		c-21.29,4.56-42.35,9.07-63.45,13.59c0.28,2.43,0.77,4.31,3.1,4.85c5.41,1.27,10.95,1.81,16.37,0.65
		c6.36-1.37,12.6-3.31,18.86-5.14C252.8,49.53,261.68,46.81,270.76,44.09z M430.46,40.78c1.12,0.2,2.09,0.31,3.02,0.55
		c11.42,2.97,22.82,5.97,34.24,8.95c8.4,2.19,16.72,4.73,25.58,4.42c5.09-0.18,5.76-0.61,6.66-5.92c-1.64-0.4-3.29-0.88-4.97-1.19
		c-16.46-3.06-32.9-6.16-49.39-9.06c-3.81-0.67-7.75-0.81-11.64-0.88C431.19,37.59,430.71,38.23,430.46,40.78z M410.47,77.18
		c-2.57-1.35-4.72-2.78-7.11-0.17c-0.68,0.75-2.17,0.99-3.3,1.04c-2.03,0.08-3.4,0.95-4.43,2.61c-2.8,4.54-6.71,7.99-11.05,10.98
		c-2.81,1.93-5.74,3.68-8.64,5.49c-1.43,0.89-1.79,2.06-1,3.53c1.08,2.02,2.13,4.07,3.35,6c0.25,0.39,1.34,0.63,1.84,0.43
		C394.33,101.31,404.26,91.22,410.47,77.18z M227.15,60.19c0.73,4.05,1.61,4.82,5.26,4.91c1.81,0.05,3.63,0.01,5.44,0.02
		c4.39,0.04,8.52-0.89,12.46-2.94c6.92-3.58,13.92-7.01,20.89-10.48c2.1-1.05,4.23-2.04,6.33-3.05c-1.19-3.46-1.7-3.81-5.22-3.26
		c-1.71,0.27-3.42,0.63-5.06,1.15c-6.61,2.12-13.22,4.26-19.8,6.5C240.69,55.36,233.97,57.79,227.15,60.19z M426.4,45.14
		c10.73,4.66,21.38,9.26,32,13.92c5.91,2.6,11.99,3.91,18.48,3.17c3.5-0.4,4.69-1.28,5.48-4.86c-0.69-0.27-1.38-0.61-2.1-0.81
		c-15.13-4.4-30.28-8.72-45.37-13.24C431.58,42.32,428.96,42.94,426.4,45.14z M420.92,50.21c7.28,4.79,14.74,9.65,22.15,14.59
		c5.54,3.69,11.74,3.93,18.06,3.66c1.7-0.07,2.08-1.3,2.42-2.65c0.38-1.49-0.73-1.74-1.64-2.17c-11.29-5.39-22.58-10.79-33.89-16.15
		c-1.4-0.67-2.91-1.13-4.19-1.62C422.72,47.52,421.81,48.89,420.92,50.21z M285.8,50.75c-3.87-1.05-7.17-1.09-10.26,0.5
		c-9.58,4.94-19.1,10.01-28.67,14.97c-1.24,0.65-1.55,1.53-0.75,2.46c0.69,0.81,1.78,1.74,2.73,1.79c5.82,0.33,11.41-0.67,16.3-4.07
		c5.44-3.77,10.8-7.65,16.13-11.57C282.76,53.76,284.04,52.36,285.8,50.75z M412.05,55.2c2.17,1.62,4.31,3.16,6.4,4.77
		c4.08,3.15,8.09,6.38,12.19,9.51c2.94,2.24,6.51,2.8,10.02,3.08c1.64,0.13,3.36-0.73,5.68-1.3c-1.28-1.33-1.93-2.22-2.78-2.86
		c-7.01-5.28-14.04-10.53-21.1-15.75c-0.99-0.73-2.09-1.39-3.24-1.85c-2.92-1.16-4.04-0.72-5.63,1.94
		C413.1,53.59,412.57,54.39,412.05,55.2z M350.61,98.51c2.7-0.3,6.62-0.51,10.44-1.23c12.13-2.27,22.75-7.43,30.69-17.15
		c6.61-8.1,9.18-17.29,6-27.5c-3.03-9.76-9.83-16.51-18.49-21.49c-11.51-6.61-23.91-8.75-37.03-7.06
		c-11.86,1.53-22.43,5.88-31.1,14.28c-13.33,12.92-13.56,31.43-0.42,44.53C321.34,93.54,334.6,97.98,350.61,98.51z M318.26,8.69
		c3.22,2.12,3.99,2.11,7.36,1.42c6.24-1.28,12.49-2.8,18.81-3.44c10.3-1.04,20.39,0.72,30.16,4.07c2.55,0.88,4.56,0.22,6.71-1.7
		C360.21,0.49,339.37,0.67,318.26,8.69z M293.45,56.03c-2.92-0.77-5.59-1.47-8.78-2.32c-6.63,5.47-14.37,10.68-21.23,17.66
		c1.41,0.69,2.4,1.33,3.48,1.66c3.62,1.09,7.09,0.18,9.81-2.09C282.45,66.16,287.89,61.02,293.45,56.03z M379.34,108.79
		c1.79,4.01,1.14,4.07,4.89,2.21c14.02-6.94,24.93-16.95,30.43-32.01c0.15-0.42,0.21-0.88,0.3-1.32c-2.91-0.69-3.31-0.63-3.9,0.67
		c-6.18,13.6-16.35,23.17-29.78,29.48C380.67,108.1,380.06,108.43,379.34,108.79z M282.41,76.5c4.72,15.57,19.33,30.21,36.26,36.26
		c0.43-1.03,0.86-2.06,1.27-3.03c-0.31-0.26-0.41-0.37-0.53-0.43c-1.56-0.76-3.13-1.5-4.69-2.28
		c-12.52-6.29-22.35-15.29-28.06-28.28C285.72,76.6,284.55,75.89,282.41,76.5z M404.6,58.32c4.58,4.14,8.88,8.22,13.41,12.01
		c2.04,1.71,4.42,3.18,6.89,4.13c1.3,0.5,3.12-0.34,4.7-0.57c-0.68-1.21-1.35-2.43-2.07-3.62c-0.17-0.29-0.5-0.48-0.76-0.71
		c-4.55-4-9.03-8.09-13.69-11.95c-1.32-1.1-3.13-1.63-4.78-2.27c-0.41-0.16-1.21,0.13-1.58,0.48
		C405.92,56.57,405.28,57.5,404.6,58.32z M279.76,71.71c1.29,2.02,3.01,1.91,4.69,1.94c5.34,0.09,8.88-2.9,12.12-6.72
		c1.54-1.82,2.64-3.5,1.93-5.9c-0.19-0.64-0.5-1.59-0.95-1.73c-1.51-0.45-3.84-1.39-4.56-0.74
		C288.35,62.76,284.07,67.33,279.76,71.71z M401.75,58.85c-0.09,1.44,0.05,2.39-0.22,3.21c-1.19,3.64,0.08,6.32,3.08,8.36
		c2.1,1.43,4.11,3.21,6.44,4.04c2,0.71,4.69,1.65,6.42-1.39c-4.09-4.2-8.18-8.48-12.39-12.63C404.33,59.7,403.09,59.46,401.75,58.85
		z M275.42,42.74c4.02-0.91,7.44-2.87,10.51-5.4c1.09-0.89,0.38-2.12-0.74-2.71c-2.16-1.15-4.41-1.7-6.78-0.55
		c-2.38,1.15-4.79,2.23-7.12,3.46c-0.54,0.28-1.23,1.11-1.15,1.57c0.16,0.91,0.59,2.1,1.3,2.51
		C272.58,42.26,274.05,42.38,275.42,42.74z M263.57,34.26c3.25,1.79,6.51,2.29,9.96,0.57c2.05-1.02,4.25-1.75,6.22-2.9
		c1.7-0.98,1.59-2.29-0.24-2.88c-1.86-0.6-3.9-1.08-5.83-0.97c-2.1,0.12-4.17,0.97-6.25,1.51C265.11,30.18,263.6,31.49,263.57,34.26
		z M418.96,31.5c3.14,1.34,6.13,2.62,9.12,3.9c3.16,1.35,5.89,0.13,8.95-1.42c-0.85-1.31-1.35-3.11-2.33-3.43
		c-3.6-1.15-7.32-2.05-11.06-2.53C421.69,27.78,419.72,28.8,418.96,31.5z M426.9,21.08c-0.81,0.51-2.27,1.2-3.42,2.23
		c-1.09,0.97-1.07,2.13,0.68,2.52c3.64,0.81,7.27,1.82,10.96,2.21c1.31,0.14,3.29-0.99,4.05-2.13c0.88-1.33-0.92-3.27-3.15-3.64
		C433.27,21.82,430.52,21.54,426.9,21.08z M264.47,28.36c3.92-0.87,7.84-1.71,11.76-2.64c1.04-0.25,1.62-1.01,0.81-2
		c-1.2-1.46-2.53-2.8-4.72-2.49c-2.82,0.41-5.64,0.74-8.45,1.19c-2.27,0.36-3.23,1.41-3.06,3.11
		C260.94,26.74,262.84,28.11,264.47,28.36z M412.34,39.15c-1.17,0.16-1.94,0.21-2.68,0.38c-1.47,0.35-1.98,1.57-1.23,2.82
		c2.32,3.87,7.88,6.46,12.3,5.57c0.65-0.13,1.37-1.05,1.61-1.75c0.15-0.46-0.34-1.42-0.83-1.78c-2.08-1.51-4.21-2.94-6.42-4.25
		C414.17,39.57,413.04,39.38,412.34,39.15z M281.6,48.27c0.45-0.05,1-0.09,1.55-0.18c3.9-0.61,6.19-3.53,8.58-6.19
		c0.88-0.97,0.11-2.24-1.06-2.29c-1.88-0.09-3.96-0.14-5.61,0.58c-2.39,1.03-4.5,2.72-6.65,4.24c-0.44,0.31-0.87,1.22-0.72,1.64
		c0.26,0.73,0.87,1.49,1.54,1.88C279.85,48.29,280.73,48.17,281.6,48.27z M410.18,53.51c1.04-0.57,2.18-0.8,2.47-1.42
		c0.47-1.01,0.95-2.76,0.44-3.35c-1.66-1.92-3.62-3.68-5.77-5.02c-0.99-0.62-2.72-0.37-4.01-0.07c-1.34,0.32-1.92,1.47-0.96,2.75
		c1.29,1.72,2.57,3.48,4.1,4.96C407.4,52.3,408.82,52.76,410.18,53.51z M298.81,45.11c-2.91-2.27-5.33-2.37-7.61-0.48
		c-1.49,1.24-2.86,2.63-4.23,4.01c-0.34,0.34-0.67,0.96-0.61,1.39c0.36,2.62,4.21,4.25,6.14,2.39
		C294.8,50.2,296.71,47.58,298.81,45.11z M424.83,17.55c-0.11,0.22-0.21,0.44-0.32,0.66c0.92,0.58,1.78,1.48,2.78,1.67
		c2.17,0.41,4.43,0.75,6.62,0.6c2.87-0.19,5.72-0.83,8.54-1.44c0.43-0.09,1.02-1.15,0.91-1.6c-0.12-0.49-1-1.15-1.52-1.12
		C436.16,16.66,430.49,17.12,424.83,17.55z M256.97,16.4c-0.72,1.66-0.21,2.24,0.96,2.78c5.14,2.37,10.4,1.09,15.61,0.5
		c0.71-0.08,1.31-1.18,1.96-1.79c-0.09-0.18-0.17-0.36-0.25-0.54C269.15,17.03,263.06,16.72,256.97,16.4z M397.37,45.55
		c0.85,1.97,1.73,3.77,2.42,5.64c0.71,1.92,1.23,3.9,1.83,5.83c4.23-0.72,5.06-2.36,3.07-5.83c-0.62-1.08-1.39-2.08-2.01-3.16
		C401.52,45.98,399.62,45.63,397.37,45.55z M302.16,45.75c-0.09-0.18-0.18-0.36-0.28-0.54c-1.35,0.71-3,1.13-3.98,2.18
		c-1.35,1.45-2.25,3.33-3.25,5.08c-0.96,1.67-0.3,2.97,1.27,3.81c0.76,0.41,1.65,0.58,2.44,0.84
		C299.67,53.2,300.91,49.48,302.16,45.75z M301.36,75.19c-0.95-3.1-1.75-5.74-2.69-8.8c-1.77,2.18-4.2,3.67-3.37,6.3
		C296.09,75.16,298.81,74.57,301.36,75.19z M398.29,75.89c2.86,0.24,5.02-0.49,5.34-1.94c0.5-2.26-1.01-3.54-2.75-4.92
		C399.99,71.41,399.14,73.63,398.29,75.89z"/>
	<path class="st0" d="M350.92,97.57c-14.66-0.22-27.03-3.96-37.28-13.21c-7.96-7.18-12.32-16.05-11.38-27.04
		c0.39-4.53,2.05-8.63,4.55-12.39c6.86-10.28,16.77-16.06,28.55-18.88c16.23-3.89,31.64-1.97,45.86,7.15
		c4.32,2.78,8.02,6.26,11.02,10.44c8.31,11.58,7.44,25.98-2.24,37.03c-8.33,9.5-19.07,14.4-31.38,16.23
		C355.74,97.33,352.8,97.41,350.92,97.57z M320.88,78.82c1.11,0.91,2.07,1.84,3.16,2.57c1.55,1.04,3.13,2.12,4.83,2.88
		c12.31,5.48,25,6.3,37.86,2.41c2.78-0.84,5.51-2.51,7.7-4.44c6.64-5.84,5.88-14.66-1.48-20.68c-0.99-0.81-1.99-1.59-3.11-2.48
		c1.59-1.3,3-2.32,4.25-3.5c3.95-3.74,4.5-9.57,1.36-14.04c-2.24-3.2-5.36-5.28-8.99-6.52c-12.14-4.16-24.11-3.19-35.87,1.52
		c-3.93,1.57-7.29,3.96-9.81,7.5c0.96,1.1,1.93,2.02,2.67,3.1c0.51,0.75,0.98,1.71,0.99,2.58c0.1,6.27-0.04,12.54,0.12,18.81
		c0.1,3.66-0.12,7.06-3.3,9.54C321.14,78.18,321.09,78.42,320.88,78.82z"/>
	<path class="st0" d="M350.78,85.33c-0.46-0.02-1.36-0.04-2.27-0.12c-6.28-0.57-10.04-4.44-10.22-10.51
		c-0.29-9.63,5.58-14.73,15.24-13.21c9.66,1.51,13.87,12.44,7.7,20.15C358.69,84.82,355.02,85.31,350.78,85.33z"/>
	<path class="st0" d="M362.35,47.04c-0.17,1.23-0.25,2.49-0.52,3.7c-0.91,3.98-3.29,6.72-7.44,7.11c-3,0.29-6.12,0.11-9.1-0.38
		c-2.92-0.48-4.97-2.56-5.94-5.35c-1.08-3.08-1.16-6.3-0.22-9.44c1.01-3.39,4.17-5.81,7.74-6c2.08-0.11,4.2-0.36,6.24-0.1
		C359.58,37.41,362.23,40.55,362.35,47.04z"/>
</g>
</svg>
