<?xml version="1.0" encoding="utf-8"?>
<!-- Generator: Adobe Illustrator 24.0.2, SVG Export Plug-In . SVG Version: 6.00 Build 0)  -->
<svg version="1.1" id="Capa_1" xmlns="http://www.w3.org/2000/svg" xmlns:xlink="http://www.w3.org/1999/xlink" x="0px" y="0px"
	 viewBox="0 0 700 125" style="enable-background:new 0 0 700 125;" xml:space="preserve">
<style type="text/css">
	.st0{fill-rule:evenodd;clip-rule:evenodd;fill:#FFFFFF;}
</style>
<g>
	<path class="st0" d="M394.99,104.78c10.06,0,16.09-7.2,16.09-16.09c0-8.88-6.02-16.08-16.09-16.08h-32.63v32.17L394.99,104.78
		L394.99,104.78z M394.99,48.71c8.86,0,14.25-6.38,14.25-14.25s-5.39-14.25-14.25-14.25h-32.63v28.49H394.99z M316.41,72.61v7.97
		h-20.22V40.75h20.22v7.97h19.3V20.22h-48.62v10.11h-20.22l0-10.11V0h128.12c20.05,0,36.3,16.26,36.3,36.3
		c0.01,8.8-3.19,17.31-9,23.92c6.7,6.87,10.83,16.27,10.83,26.63c0,21.07-17.08,38.14-38.14,38.14H266.87l0-20.22V94.67h20.22v10.11
		h48.63V72.61L316.41,72.61L316.41,72.61z"/>
</g>
</svg>
