<?xml version="1.0" encoding="utf-8"?>
<!-- Generator: Adobe Illustrator 24.0.2, SVG Export Plug-In . SVG Version: 6.00 Build 0)  -->
<svg version="1.1" id="Capa_1" xmlns="http://www.w3.org/2000/svg" xmlns:xlink="http://www.w3.org/1999/xlink" x="0px" y="0px"
	 viewBox="0 0 700 125" style="enable-background:new 0 0 700 125;" xml:space="preserve">
<style type="text/css">
	.st0{fill:#FFFFFF;}
</style>
<g>
	<path class="st0" d="M348.75,125c-25.44-0.08-51.98-2.27-78.19-7.68c-16.41-3.39-32.48-7.94-47.79-14.87
		c-9.5-4.3-18.51-9.4-26.21-16.54c-3.56-3.31-6.68-6.99-8.91-11.35c-4.08-7.99-4.1-16,0-23.98c3.23-6.29,8.12-11.14,13.65-15.41
		c8.96-6.91,19.03-11.84,29.51-15.95c17.34-6.8,35.35-11.1,53.69-14.09c29.64-4.82,59.47-6.09,89.43-4.46
		c25.54,1.38,50.77,4.9,75.43,11.89c13.74,3.9,27.08,8.81,39.48,16c7.06,4.1,13.62,8.84,18.91,15.14
		c4.04,4.82,6.92,10.17,7.55,16.55c0.53,5.29-0.71,10.21-3.22,14.84c-3.64,6.7-9.06,11.77-15.14,16.18
		c-10.26,7.44-21.7,12.54-33.57,16.77c-16.74,5.95-33.99,9.78-51.52,12.46C391.37,123.61,370.76,124.96,348.75,125z M357.17,118.6
		c0,0.02,0,0.05,0,0.07c1.86-0.08,3.72-0.17,5.57-0.24c5.31-0.23,10.62-0.29,15.91-0.74c10.04-0.86,20.09-1.71,30.08-3.01
		c18.44-2.39,36.57-6.31,54.14-12.5c10.31-3.64,20.27-8.02,29.3-14.29c5.06-3.51,9.63-7.54,13.01-12.76
		c4.5-6.94,5.34-14.23,1.85-21.84c-2.07-4.5-5.29-8.16-8.96-11.42c-6.79-6.05-14.65-10.39-22.89-14.09
		c-11.28-5.06-23.03-8.7-35.02-11.63c-19.57-4.79-39.47-7.47-59.54-8.88c-7.55-0.53-15.11-0.92-22.68-0.99
		c-8.86-0.08-17.73,0.12-26.58,0.43c-6.76,0.23-13.53,0.63-20.26,1.3c-8.58,0.85-17.15,1.84-25.68,3.11
		c-14.21,2.13-28.21,5.26-41.91,9.65c-10.54,3.37-20.78,7.45-30.31,13.12c-6.9,4.11-13.29,8.84-17.86,15.61
		c-4.93,7.29-5.86,14.96-1.85,22.98c2.82,5.64,7.21,9.93,12.16,13.67c9.81,7.39,20.91,12.25,32.42,16.28
		c14,4.9,28.41,8.23,43.03,10.7c12.79,2.17,25.65,3.74,38.6,4.43c8.79,0.47,17.6,0.73,26.41,1.01
		C349.81,118.69,353.49,118.6,357.17,118.6z"/>
	<path class="st0" d="M339.35,11.06c4.67,0,10.35-0.15,16.02,0.03c9.42,0.3,18.84,0.66,28.25,1.25c15.83,1,31.52,3.14,47.06,6.34
		c15.09,3.11,29.9,7.19,43.96,13.62c7.97,3.65,15.56,7.94,21.81,14.23c2.61,2.63,4.81,5.57,6.2,9.03c2.79,6.95,1.34,13.3-2.92,19.16
		c-4.34,5.96-10.22,10.14-16.52,13.76c-10.88,6.23-22.61,10.35-34.63,13.73c-12.86,3.61-25.92,6.27-39.16,7.93
		c-9.95,1.25-19.95,2.13-29.95,3c-5.06,0.44-10.16,0.59-15.25,0.73c-6.38,0.18-12.77,0.39-19.15,0.25
		c-9.16-0.2-18.32-0.52-27.46-1.12c-14.04-0.93-28-2.64-41.84-5.24c-17.16-3.22-34.02-7.52-49.97-14.78
		c-8.06-3.67-15.71-8.03-22.01-14.4c-2.8-2.83-5.12-6.01-6.46-9.79c-2.55-7.22-0.61-13.57,3.95-19.35
		c4.59-5.81,10.57-9.91,16.97-13.43c11.21-6.18,23.23-10.29,35.54-13.61c14.87-4.01,29.99-6.69,45.27-8.43
		c7.68-0.88,15.41-1.44,23.12-2.01C327.55,11.56,332.95,11.39,339.35,11.06z M421.13,66.1c-0.51-1-0.89-1.85-1.36-2.64
		c-1.57-2.64-3.8-4.25-6.97-4.43c-5.05-0.29-9.48,1.29-13.17,4.67c-2.91,2.66-5.62,5.53-8.38,8.34c-3.13,3.17-6.67,5.4-11.33,5.27
		c-2.46-0.06-4.48-1.35-5.24-3.4c-0.78-2.11-0.04-5.37,1.59-6.75c0.41-0.35,0.93-0.56,1.48-0.87c0.97,2.42,2.52,3.88,5.03,4.21
		c2.93,0.37,5.76-1.75,6.44-4.93c0.65-3.02-0.97-5.73-3.97-6.51c-2.98-0.78-5.74-0.14-8.15,1.71c-1.56,1.2-2.98,2.58-4.52,3.93
		c-0.06-0.44-0.12-0.86-0.18-1.28c-0.42-2.98-2.42-4.8-5.39-5.14c-2.76-0.32-5.25,0.32-7.28,2.14c-2.5,2.24-4.84,4.65-7.18,7.07
		c-1.36,1.41-2.56,2.98-4.03,4.72c0-1.76,0.13-3.18-0.03-4.57c-0.29-2.63-1.06-5.12-2.85-7.16c-0.95-1.09-2.12-1.16-3.16-0.31
		c-1.15,0.94-1.35,2.06-0.55,3.24c1.26,1.85,1.95,3.87,1.88,6.12c-0.15,4.99-1.67,9.45-5.09,13.19c-2.52,2.76-5.21,5.16-9.13,5.73
		c-4.72,0.68-8.13-2.46-7.81-7.32c0.44-6.62,3.62-11.92,9.22-15.49c2.38-1.52,5.17-2.39,7.92-3.62c0.1-1.79-1.2-2.88-3.65-2.65
		c-6.33,0.58-11.13,3.79-14.48,8.99c-2.36,3.68-4.21,7.68-6.36,11.5c-0.64,1.14-1.37,2.31-2.31,3.21c-1.71,1.64-3.6,3.08-5.43,4.61
		c0.86,2.69,1.49,2.98,3.79,1.55c1.74-1.09,3.41-2.3,5.15-3.48c0.56,2.13,1.5,4.14,3.29,5.57c4.38,3.49,9.24,3.78,14.27,1.74
		c4.6-1.86,8.13-5.16,11.16-8.99c3.68-4.65,7.25-9.38,10.92-14.03c1.74-2.21,3.85-4.04,6.44-5.22c1-0.46,2.13-0.61,2.8,0.32
		c0.44,0.61,0.65,1.7,0.43,2.42c-0.64,2.06-1.35,4.14-2.4,6.02c-2.83,5.06-5.85,10.02-8.79,15.02c-0.97,1.66-1.94,3.32-3.04,5.2
		c2.81,0,5.33-0.05,7.84,0.02c0.97,0.03,1.52-0.28,1.98-1.14c2.04-3.88,4.13-7.73,6.22-11.59c1.17-2.16,2.36-4.3,3.63-6.6
		c0.2,0.54,0.3,0.82,0.41,1.11c1.69,4.39,4.07,5.97,8.79,6.02c2.93,0.03,5.81-0.11,8.58-1.38c0,1.72-0.21,3.28,0.04,4.77
		c0.84,5.11,3.98,8.82,9.81,8.65c4.91-0.15,9.5-1.52,13.69-4.14c1.32,4.46,3.75,4.58,6.92,4.38c1.55-0.1,3.17-0.58,4.58-1.26
		c6.57-3.15,11.1-8.52,15.21-14.3c0.45-0.63,0.75-1.39-0.11-1.98c-0.86-0.59-1.32,0.03-1.89,0.58c-3.15,2.98-6.22,6.05-9.56,8.79
		c-1.59,1.3-3.67,2.09-5.63,2.84c-1.31,0.49-2.38-0.7-1.99-2.05c0.3-1.01,0.75-1.99,1.27-2.91c6.85-12.14,13.73-24.27,20.59-36.41
		c0.75-1.31,1.45-2.65,2.27-4.17c-2.62,0-4.97,0.04-7.32-0.02c-0.85-0.02-1.34,0.22-1.79,0.98c-3.28,5.62-6.61,11.22-9.93,16.81
		C423.31,62.49,422.26,64.22,421.13,66.1z M336.72,28.1c2.29,0.75,4.48,1.46,6.66,2.18c9.01,2.97,18.04,5.8,27.59,6.52
		c8.22,0.62,15.74-1.35,22.58-5.86c1.05-0.69,2.03-1.62,2.75-2.64c0.41-0.57,0.47-1.64,0.24-2.34c-0.13-0.38-1.16-0.57-1.81-0.66
		c-0.64-0.09-1.35-0.07-1.98,0.09c-5.62,1.51-11.39,1.62-17.14,1.68c-4.25,0.05-8.52-0.03-12.73-0.46
		c-8.76-0.88-17.49-1.98-26.22-3.07c-6.01-0.75-11.99-1.85-18.02-2.36c-6-0.51-12.03-0.16-18,0.87c-5.01,0.87-9.88,2.18-14.27,4.82
		c-6.22,3.73-10.44,8.75-10.12,16.5c0.21,5.15,4.51,10.64,10.65,10.38c5.42-0.22,9.61-2.81,13.03-6.81
		c2.18-2.55,3.92-5.37,4.55-8.73c0.09-0.48-0.36-1.05-0.56-1.58c-0.49,0.29-1.16,0.47-1.44,0.9c-2.84,4.5-6.98,7.12-12.09,8.15
		c-3.93,0.78-6.79-2.07-6.3-6.05c0.12-0.92,0.32-1.84,0.62-2.7c1.47-4.14,4.62-6.73,8.37-8.68c6.13-3.19,12.81-4.03,19.58-4.12
		c6.33-0.09,12.48,1.33,18.62,2.7c1.04,0.23,2.07,0.49,3.22,0.76c-1.32,0.83-2.53,1.5-3.63,2.3C324,34.89,318.24,41,313.39,47.94
		c-1.61,2.31-3.2,4.11-6.24,3.88c-0.26-0.02-0.53,0.07-0.78,0.11c-3.41,0.59-6.83,1.21-9.82,3.08c-0.73,0.45-1.41,1.1-1.88,1.81
		c-0.27,0.4-0.06,1.11-0.07,1.68c0.56-0.09,1.25,0,1.66-0.3c3.68-2.6,7.98-2.71,12.56-3.4c-1.57,2.14-2.88,3.97-4.25,5.75
		c-4.96,6.48-10.19,12.73-16.66,17.78c-4.3,3.35-8.94,5.69-14.67,5.73c-5.39,0.04-9.27-5.18-8.71-10.36
		c0.34-3.16,1.87-5.82,4.06-8.03c1.22-1.23,2.83-2.07,4.17-3.2c0.43-0.36,0.6-1.05,0.89-1.59c-0.57-0.23-1.12-0.52-1.71-0.67
		c-0.26-0.07-0.59,0.14-0.89,0.22c-3.74,1.11-6.92,3.09-9.62,5.92c-7.53,7.88-5.4,21.26,4.44,25.9c7.82,3.7,15.58,2.88,22.67-2.1
		c5.63-3.95,9.66-9.48,13.49-15.07c4.44-6.46,8.6-13.11,12.92-19.65c0.3-0.46,0.83-1,1.31-1.07c4.95-0.68,9.91-1.25,14.87-1.91
		c0.89-0.12,1.3,0.19,1.87,0.81c0.72,0.78,1.65,1.48,2.62,1.88c1.45,0.6,1.83,0.22,1.86-1.42c-0.49-0.19-1.05-0.28-1.46-0.58
		c-0.48-0.35-0.83-0.87-1.23-1.31c0.37-0.33,0.71-0.73,1.13-0.97c2.43-1.4,4.04-3.41,4.7-6.15c0.62-2.56-1.06-4.73-3.69-4.81
		c-2.49-0.08-4.56,1.39-5.31,4.16c-0.45,1.65-0.42,3.43-0.63,5.41c-4.14,0.49-8.53,1-13.09,1.53c0.16-0.46,0.18-0.59,0.24-0.7
		c0.19-0.35,0.4-0.69,0.61-1.03c4.26-6.88,9.47-12.89,15.84-17.9C335.57,30.57,336.78,29.83,336.72,28.1z"/>
	<path class="st0" d="M415.44,73.21c0.26,0.12,0.56,0.26,0.89,0.41c-0.08,0.17-0.13,0.34-0.22,0.49c-2.59,4.03-5.27,8.01-9.06,11.02
		c-1.23,0.97-2.63,1.92-4.11,2.35c-5.03,1.47-7.06-0.61-6.94-5.22c0.19-6.93,7.09-15.81,13.72-17.79c1.03-0.31,2.2-0.39,3.28-0.28
		c2.63,0.27,4.09,2.66,3.5,5.67C416.26,70.97,415.81,72.04,415.44,73.21z"/>
	<path class="st0" d="M334.27,48.98c-1.1-2.54-0.19-5.52,1.93-6.35c1.29-0.51,1.93-0.07,1.95,1.34
		C338.18,45.97,336.31,48.38,334.27,48.98z"/>
</g>
</svg>
