<?xml version="1.0" encoding="utf-8"?>
<!-- Generator: Adobe Illustrator 24.0.2, SVG Export Plug-In . SVG Version: 6.00 Build 0)  -->
<svg version="1.1" id="Capa_1" xmlns="http://www.w3.org/2000/svg" xmlns:xlink="http://www.w3.org/1999/xlink" x="0px" y="0px"
	 viewBox="0 0 700 125" style="enable-background:new 0 0 700 125;" xml:space="preserve">
<style type="text/css">
	.st0{fill:#FFFFFF;}
</style>
<g>
	<path class="st0" d="M263.49,65.69c-0.01,0.08-0.04,0.13-0.02,0.16c0.58,0.79,0.13,1.36-0.33,2.01c-2,2.82-3.97,5.66-5.92,8.5
		c-0.24,0.34-0.48,0.48-0.91,0.48c-3.5-0.02-7,0-10.5-0.03c-0.33,0-0.73-0.17-0.97-0.39c-3.34-3.09-5.48-6.83-5.98-11.41
		c-0.15-1.37-0.09-2.74,0.41-4.07c1.16-3.12,2.76-5.99,4.97-8.5c0.95-1.08,2.05-1.94,3.39-2.52c1.85-0.79,3.66-1.67,5.49-2.51
		c0.21-0.1,0.42-0.21,0.74-0.37c-0.57-0.3-1.04-0.57-1.53-0.79c-5.26-2.3-10.52-4.63-15.81-6.89c-1.43-0.61-2.96-0.96-4.55-0.6
		c-0.38,0.09-0.76,0.22-1.1,0.42c-4.17,2.44-8.35,4.87-12.5,7.34c-1.43,0.85-2.79,1.81-4.18,2.72c-1.54,1.01-3.18,1.66-5.02,1.08
		c-2.03-0.64-3.43-2.08-4.32-3.97c-0.6-1.29-0.21-2.58,0.58-3.65c0.8-1.08,1.75-2.06,2.67-3.04c0.7-0.75,1.51-1.4,2.2-2.16
		c1.07-1.16,1.21-2.48,0.46-3.87c-0.63-1.17-1.46-2.18-2.54-2.96c-1.48-1.06-3.05-1.13-4.6-0.17c-1.45,0.9-2.44,2.17-2.89,3.83
		c-0.18,0.65-0.28,1.33-0.51,1.96c-0.22,0.59-0.47,1.19-0.85,1.68c-1.35,1.74-3.03,2.19-4.99,1.17c-1.21-0.63-2.39-1.4-3.4-2.32
		c-1.62-1.48-3.17-3.08-4.61-4.75c-1.16-1.35-1.82-2.97-1.78-4.81c0.03-1.28,0.46-2.41,1.36-3.32c3.18-3.23,6.48-6.32,10.03-9.14
		c0.25-0.2,0.47-0.57,0.54-0.89c0.39-2.05,1.59-3.57,3.16-4.84c2.33-1.88,5.05-3.03,7.85-4c5.86-2.04,11.89-3.33,18.05-4.11
		c6.9-0.88,13.81-1.14,20.75-0.87c5.44,0.21,10.9,0.21,16.32,0.57c10.44,0.7,20.65,2.56,30.58,6c16.69,5.78,33.29,11.79,49.74,18.22
		c15.76,6.16,31.38,12.66,46.84,19.55c17.02,7.59,33.83,15.61,50.27,24.38c13.46,7.18,26.65,14.8,39.22,23.46
		c1.91,1.31,3.76,2.7,5.59,4.13c2.84,2.22,6.03,3.39,9.65,3.37c4.11-0.02,8.22,0,12.34,0c5.16,0,8.53,3.39,8.54,8.56
		c0,2.13-0.3,4.19-1.32,6.08c-1.27,2.38-3.27,3.58-5.96,3.59c-5.89,0.01-11.77,0.01-17.65-0.01c-0.57,0-0.82,0.13-1.02,0.7
		c-0.91,2.62-2.41,4.78-5.13,5.77c-0.82,0.3-1.74,0.46-2.62,0.49c-2.18,0.07-4.38-0.02-6.56,0.03c-3.6,0.09-6.61-1.3-9.24-3.61
		c-3.06-2.68-6.08-5.41-9.1-8.13c-1.1-1-2.21-1.99-3.22-3.07c-2.15-2.3-4.73-3.66-7.89-3.99c-2.41-0.25-4.8-0.68-7.21-0.92
		c-2.33-0.24-4.66-0.39-7-0.52c-3.95-0.22-7.91-0.37-11.86-0.6c-3.64-0.21-7.29-0.45-10.92-0.75c-2.02-0.17-4.03-0.49-6.04-0.78
		c-2.22-0.33-4.08-1.46-5.75-2.85c-3.15-2.61-6.29-5.23-9.28-8.01c-5.67-5.28-11.03-10.87-16.07-16.75
		c-0.35-0.42-0.7-0.84-1.03-1.27c-2.02-2.58-4.76-3.73-7.95-4.01c-2.96-0.27-5.9,0.15-8.83,0.41c-7.41,0.66-14.83,1.13-22.27,1.01
		c-5.73-0.1-11.45-0.44-17.06-1.73c-2-0.46-3.94-1.15-5.91-1.72c-0.26-0.08-0.57-0.16-0.8-0.08c-3.42,1.2-6.98,1.39-10.55,1.33
		c-4.6-0.07-9.15-0.64-13.7-1.25c-5.13-0.69-10.26-1.38-15.4-1.98C266.56,65.55,265.01,65.69,263.49,65.69z M311.27,63.26
		c1.48,0.86,3.01,1.36,4.58,1.76c5.19,1.31,10.48,1.72,15.8,1.71c5.18,0,10.36-0.23,15.54-0.42c2.36-0.09,4.71-0.34,7.06-0.56
		c3.15-0.3,6.29-0.72,9.48-0.55c3.94,0.21,7.27,1.44,9.89,4.58c2.73,3.27,5.68,6.37,8.59,9.48c4.86,5.22,9.76,10.39,15.03,15.21
		c1.99,1.82,4.25,3.12,6.85,3.84c2.37,0.65,4.79,1,7.24,1.12c4.72,0.23,9.44,0.42,14.16,0.66c3.63,0.18,7.25,0.34,10.87,0.61
		c3.4,0.25,6.8,0.53,10.18,0.97c4.03,0.53,7.5,2.26,10.44,5.16c3.1,3.05,6.35,5.95,9.64,8.79c1.71,1.48,3.64,2.7,5.52,3.98
		c0.86,0.58,1.87,0.77,2.94,0.75c2.05-0.04,4.11-0.07,6.17,0c1.53,0.05,2.57-0.61,3.25-1.88c0.38-0.7,0.69-1.47,0.89-2.25
		c0.86-3.52-0.79-6.28-4.32-7.13c-1.09-0.26-2.25-0.29-3.38-0.36c-3.37-0.21-6.34-1.34-8.82-3.69c-4.66-4.43-9.34-8.84-14-13.26
		c-1.75-1.66-3.81-2.48-6.23-2.49c-2.95-0.01-5.91-0.11-8.86-0.15c-3.32-0.04-6.1-1.25-8.42-3.65c-2.17-2.25-3.92-4.8-5.63-7.39
		c-1.07-1.62-2.18-3.26-3.53-4.62c-2.05-2.07-4.35-3.92-6.53-5.87c-0.47-0.42-0.94-0.85-1.34-1.34c-0.29-0.36-0.46-0.84-0.1-1.26
		c0.36-0.41,0.84-0.26,1.21-0.04c0.76,0.46,1.53,0.94,2.22,1.5c5.28,4.3,10.4,8.77,14.56,14.22c1.9,2.49,4.39,3.71,7.61,3.58
		c3.34-0.13,6.7,0,10.04-0.04c2.37-0.03,4.42,0.73,6.21,2.24c0.52,0.44,1.02,0.9,1.51,1.36c4.92,4.6,9.83,9.21,14.76,13.8
		c2.1,1.96,4.69,2.8,7.48,3.14c1.11,0.14,2.23,0.21,3.3,0.47c4.09,1.02,6.21,3.84,6.89,7.85c0.09,0.55,0.31,0.6,0.76,0.6
		c5.43-0.01,10.85-0.01,16.27,0c1.16,0,2.09-0.43,2.62-1.43c0.48-0.91,0.89-1.91,1.12-2.91c0.7-2.96-1.19-5.27-4.23-5.27
		c-3.89,0-7.79-0.06-11.68,0.01c-3.98,0.07-7.63-1.01-10.95-3.08c-1.82-1.14-3.45-2.6-5.17-3.91c-5.84-4.45-12.08-8.28-18.39-12.01
		c-11.67-6.91-23.63-13.3-35.69-19.5c-16.26-8.36-32.71-16.33-49.4-23.78C355,32.77,334.24,24.89,313.3,17.48
		c-11.21-3.97-22.55-7.5-34.23-9.89c-7.62-1.56-15.28-2.71-23.07-2.74c-5.92-0.03-11.85,0.07-17.78,0.15
		c-1.99,0.03-3.99,0.06-5.96,0.27c-4.04,0.44-8.07,0.91-12.09,1.53c-4.09,0.63-8.1,1.59-11.96,3.14c-1.69,0.68-3.33,1.46-4.64,2.78
		c-0.36,0.37-0.64,0.83-1.06,1.41c0.45,0,0.66,0,0.87,0c3.05,0.05,5.91-0.78,8.77-1.71c1-0.33,2.1-0.57,3.14-0.5
		c2.83,0.18,5.67,0.45,8.47,0.88c2.16,0.34,3.78-0.25,5-2.03c0.12-0.18,0.27-0.34,0.39-0.53c0.55-0.83,1.33-1.38,2.31-1.46
		c1.59-0.12,3.18-0.14,4.78-0.16c0.23,0,0.59,0.21,0.67,0.41c0.08,0.2-0.04,0.57-0.21,0.76c-0.28,0.32-0.65,0.59-1.02,0.81
		c-0.35,0.21-0.75,0.36-1.14,0.47c-2.34,0.69-3.86,2.24-4.66,4.51c-0.36,1.01-1.03,1.62-2.11,1.69c-0.67,0.04-1.37,0.05-2.03-0.07
		c-2.17-0.4-4.33-0.82-6.48-1.31c-2.31-0.53-4.48-0.14-6.79,0.95c0.37,0.29,0.73,0.49,0.98,0.78c0.82,0.96,1.63,1.93,2.39,2.95
		c0.41,0.55,0.76,1.24,0.2,1.86c-0.53,0.58-1.21,0.26-1.83,0.04c-1.05-0.37-2.07-0.86-3.15-1.07c-3.06-0.6-6.15-0.37-9.22-0.08
		c-1.67,0.16-3.28,0.1-4.83-0.55c-0.35-0.14-0.56-0.09-0.8,0.15c-0.87,0.86-1.74,1.72-2.63,2.56c-0.3,0.28-0.44,0.52-0.32,0.96
		c0.55,2.02,0.06,3.8-1.3,5.36c-0.14,0.16-0.26,0.34-0.49,0.65c0.95,1.05,1.81,2.19,2.87,3.12c1.19,1.04,2.64,0.44,2.96-1.12
		c0.11-0.51,0.01-1.05,0.12-1.56c0.12-0.56,0.21-1.25,0.58-1.6c1.13-1.05,2.36-2.02,3.62-2.9c0.95-0.67,2.08-1.03,3.26-1.09
		c4.25-0.22,7.61,1.39,10.05,4.91c2.02,2.92,1.91,7.17-0.39,9.86c-1.11,1.29-2.34,2.48-3.54,3.68c-0.4,0.4-0.51,0.81-0.22,1.29
		c0.29,0.48,0.74,0.49,1.21,0.32c0.16-0.06,0.32-0.15,0.46-0.24c1.51-0.93,3.01-1.86,4.53-2.79c6.59-4.04,11.5-9.48,14.16-16.83
		c0.31-0.86,0.58-1.75,1.01-2.56c0.84-1.61,2.21-2.52,4.06-2.29c0.97,0.12,1.98,0.44,2.84,0.91c3.78,2.11,7.63,4.08,11.69,5.63
		c1.24,0.47,2.5,0.58,3.8,0.35c3.3-0.6,6.13-2.12,8.64-4.31c0.37-0.33,0.89-0.59,1.37-0.67c0.36-0.06,0.92,0.11,1.14,0.38
		c0.18,0.23,0.12,0.82-0.05,1.14c-0.32,0.61-0.72,1.21-1.21,1.7c-2.08,2.06-4.19,4.09-6.33,6.09c-0.4,0.37-0.96,0.61-1.49,0.8
		c-1.58,0.55-3.15,0.4-4.68-0.19c-4.32-1.66-8.64-3.35-12.96-5.03c-0.33-0.12-0.67-0.23-1.01-0.29c-1.04-0.2-1.53,0.1-1.92,1.11
		c-0.43,1.1-0.86,2.19-1.3,3.29c-0.21,0.52-0.43,1.04-0.66,1.6c0.29,0.11,0.51,0.18,0.73,0.27c3.6,1.36,7.24,2.62,10.79,4.09
		c4.84,2,9.55,4.29,13.72,7.5c1.46,1.12,2.86,1.67,4.65,1.43c0.95-0.13,1.93-0.11,2.96-0.17c-0.14-0.24-0.23-0.39-0.31-0.55
		c-0.97-1.98-1.98-3.94-2.88-5.95c-1.14-2.53-1.05-5.08,0.38-7.48c1.19-2.01,2.49-3.96,3.76-5.91c0.17-0.26,0.47-0.53,0.75-0.6
		c0.5-0.12,1.1-0.26,1.55-0.1c0.57,0.21,0.61,0.89,0.52,1.43c-0.11,0.68-0.27,1.37-0.52,2.02c-1.54,3.94-1.71,7.82,0.42,11.63
		c0.72,1.3,1.48,2.6,2.01,3.98c0.42,1.09,0.93,1.52,2.17,1.7c3.45,0.47,6.88,1.19,10.3,1.89c1.71,0.34,3.4,0.82,5.08,1.3
		c0.5,0.14,1.18,0.41,1.08,1.05c-0.11,0.68-0.83,0.61-1.36,0.61c-1.22-0.01-2.45-0.06-3.67-0.13c-7.6-0.45-15.21-0.76-22.82-0.17
		c-3.32,0.26-6.6,0.7-9.81,1.62c-2.88,0.82-5.28,2.33-6.94,4.85c-0.77,1.16-1.39,2.42-1.98,3.68c-0.71,1.53-0.87,3.11-0.3,4.77
		c0.56,1.61,1.03,3.26,2.16,4.59c0.77,0.91,1.68,1.47,2.95,1.4c1.35-0.07,2.71-0.03,4.07-0.01c0.44,0.01,0.71-0.11,0.97-0.49
		c1.05-1.59,2.15-3.14,3.22-4.71c0.11-0.16,0.2-0.33,0.27-0.44c-0.31-0.49-0.65-0.91-0.86-1.38c-0.98-2.15,0-3.92,2.34-4.26
		c0.43-0.06,0.87-0.1,1.3-0.1c6.43-0.02,12.75,1,19.1,1.84c5.59,0.74,11.16,1.63,16.82,1.73c2.11,0.03,4.23-0.21,6.34-0.36
		c0.32-0.02,0.72-0.16,0.92-0.39c2.31-2.51,4.2-5.31,5.46-8.5c0.48-1.23,0.51-2.44-0.07-3.62c-0.91-1.84-1.79-3.7-2.8-5.48
		c-2.13-3.74-4.35-7.43-6.52-11.15c-1.35-2.31-2.1-4.78-2.01-7.49c0.11-3.52,2.08-5.73,5.5-6.13c0.85-0.1,1.36,0.38,1.11,1.2
		c-0.16,0.54-0.55,1.02-0.88,1.5c-0.18,0.26-0.48,0.45-0.71,0.68c-1.39,1.39-1.71,3-0.96,4.81c0.23,0.54,0.52,1.06,0.83,1.56
		c2.56,3.97,5.2,7.88,7.7,11.89c1.9,3.06,3.84,6.12,4.59,9.73c0.02,0.12,0.26,0.28,0.41,0.3c2.51,0.32,5.03,0.64,7.55,0.91
		c2.91,0.31,5.82,0.64,8.74,0.84c2.92,0.2,5.85,0.25,8.78,0.36c0.37,0.01,0.78-0.13,1.1-0.02c0.35,0.11,0.81,0.4,0.9,0.7
		c0.08,0.3-0.17,0.8-0.44,1.04c-0.3,0.27-0.77,0.41-1.19,0.5c-4.24,0.91-8.55,1.29-12.88,1.42c-4.36,0.13-8.7-0.01-12.99-0.92
		c-0.19-0.04-0.54,0.08-0.63,0.23C313.44,59.47,312.38,61.33,311.27,63.26z"/>
</g>
</svg>
