<?xml version="1.0" encoding="utf-8"?>
<!-- Generator: Adobe Illustrator 24.0.2, SVG Export Plug-In . SVG Version: 6.00 Build 0)  -->
<svg version="1.1" id="Capa_1" xmlns="http://www.w3.org/2000/svg" xmlns:xlink="http://www.w3.org/1999/xlink" x="0px" y="0px"
	 viewBox="0 0 700 125" style="enable-background:new 0 0 700 125;" xml:space="preserve">
<style type="text/css">
	.st0{fill:#FFFFFF;}
</style>
<g>
	<path class="st0" d="M450.41,100.54c2.82,0.55,5.46,1.34,8.13,1.51c5,0.34,8.77-1.83,11.05-6.37c1.62-3.22,3.22-6.45,5.07-10.14
		c-2.5,0.47-4.49,0.9-6.49,1.2c-5.32,0.79-9.4-1.35-9.88-6.92c-0.23-2.72-1.29-3.08-3.65-1.62c-3,1.87-5.92,3.88-8.92,5.75
		c-3.48,2.17-7.29,3.28-11.4,3c-5.01-0.34-7.4-3.28-6-8.08c1.06-3.59,2.69-7.13,4.73-10.27c2.13-3.31,5.04-6.11,7.87-9.46
		c-3.01-1.52-6.27-1.8-9.63-0.77c-2.88,0.9-4.53,2.69-5.21,5.91c-1.89,9.07-6.91,16.02-15.21,20.44c-0.79,0.42-1.65,0.77-2.5,1.07
		c-8.93,3.18-15.54-1.2-15.73-10.66c-0.07-3.18,0.77-6.38,0.86-9.83c-0.48,0.75-1,1.48-1.43,2.25c-3.27,5.84-7.42,10.92-12.77,15.01
		c-3.27,2.5-6.94,3.86-11,4.32c-6.92,0.78-10.3-1.77-12.19-9.55c-1.3,0.74-2.54,1.42-3.75,2.14c-2.96,1.77-5.81,3.74-8.89,5.27
		c-2.15,1.07-4.55,2.03-6.9,2.19c-5.18,0.36-8.14-3.24-6.71-8.17c1.01-3.44,2.7-6.69,4.19-9.98c1.11-2.46,2.37-4.84,4.02-8.16
		c-2.43,0.51-4.2,0.62-5.73,1.26c-4.66,1.93-7.75,5.57-9.96,9.98c-2.11,4.22-4.03,8.52-6.23,12.67c-0.47,0.87-1.82,1.69-2.82,1.78
		c-3.05,0.23-6.11,0.08-9.71,0.08c2.24-4.54,4.25-8.65,6.28-12.74c2.04-4.11,4.09-8.23,6.23-12.52c-2.78-1.07-5.17-0.32-6.78,1.29
		c-2.72,2.71-5.3,5.69-7.32,8.94c-2.52,4.07-4.52,8.47-6.53,12.82c-0.83,1.79-1.91,2.35-3.78,2.25c-2.79-0.14-5.6-0.04-9.12-0.04
		c2.37-4.72,4.52-9.01,7.04-14.01c-1.25,0.7-1.85,0.96-2.37,1.34c-4.59,3.25-9.14,6.54-13.75,9.77c-1.19,0.83-2.48,1.51-3.78,2.15
		c-4.82,2.34-6.46,1.74-8.75-3.29c-1.62,0.92-3.21,1.88-4.85,2.72c-6.08,3.09-11.35,2.54-14.08-3.81c-0.85-1.98-2.22-2.03-3.93-0.78
		c-1.97,1.44-4.06,2.74-6.17,3.96c-5.65,3.27-11.15,3.13-16.08-1.33c-2.22-2.01-3.88-2.01-6.58-0.59
		c-10.09,5.32-20.85,6.54-31.97,4.01c-2.08-0.48-4.16-1.36-6.02-2.43c-3.32-1.91-4.26-4.57-2.17-7.77c1.89-2.87,4.32-5.69,7.15-7.59
		c9.09-6.07,19.2-6.61,29.55-3.98c2.18,0.55,3.29,0.21,4.26-1.8c4.27-8.9,8.61-17.76,13-26.6c3.8-7.65,8.19-14.93,13.93-21.33
		c9.74-10.88,22.02-15.61,36.48-14.79c10.09,0.57,16.22,7.15,16.01,17.23c-0.04,2.04-0.81,4.4-2.05,6
		c-5.6,7.24-13.09,10.8-22.32,9.79c-2.37-0.26-4.63-1.56-6.94-2.38c0.06-0.24,0.12-0.49,0.18-0.73c2.38-1.06,4.98-1.8,7.09-3.24
		c3.18-2.17,6.33-4.54,8.9-7.37c2.3-2.52,2.79-5.94,0.89-9.12c-1.93-3.23-5.19-4.64-8.63-3.93c-3.36,0.7-6.77,2.08-9.64,3.95
		c-4.71,3.08-7.83,7.77-10.4,12.71c-8.58,16.47-17.05,32.99-25.67,49.43c-1.16,2.21-0.55,3.55,1.12,4.86
		c2.18,1.7,4.64,1.93,7.22,1.24c5.07-1.36,8.79-4.57,11.84-8.66c2.93-3.92,5.69-7.97,8.8-11.74c3.23-3.93,7.25-6.82,12.44-7.77
		c3.35-0.61,6.53-0.41,9.31,1.79c1.54,1.22,2.66,1.17,3.78-0.59c0.4-0.64,1.36-1.26,2.08-1.3c3.16-0.14,6.33-0.06,9.9-0.06
		c-3.3,8.81-8.69,16.38-11.05,25.3c9.2-5.65,18.74-10.83,22.45-21.82c0.95-2.82,2.36-3.84,5.26-3.52c2.24,0.25,4.53,0.07,6.8,0.1
		c0.15,0,0.29,0.18,0.61,0.38c-0.51,1.24-1.04,2.52-1.57,3.79c0.15,0.17,0.3,0.33,0.45,0.5c0.79-0.45,1.55-0.95,2.36-1.34
		c2.52-1.19,4.97-2.71,7.64-3.4c5.76-1.5,7.83-0.26,10.16,5.18c3.18-1.51,6.28-3.2,9.55-4.47c1.9-0.73,4.06-1.07,6.09-1.07
		c2.67,0.01,4.09,1.58,3.78,4.22c-0.27,2.29-0.94,4.62-1.86,6.74c-2.08,4.81-4.46,9.51-6.65,14.28c-0.5,1.07-0.71,2.26-1.06,3.4
		c0.21,0.15,0.42,0.31,0.64,0.46c0.78-0.36,1.62-0.62,2.31-1.08c5.05-3.37,10.1-6.74,15.08-10.23c0.9-0.63,1.53-1.76,2.05-2.79
		c6.28-12.45,12.55-24.91,18.75-37.41c0.82-1.65,1.7-2.5,3.69-2.36c2.79,0.2,5.59,0.05,8.92,0.05c-4.2,8.63-8.21,16.88-12.45,25.6
		c1.69-0.33,2.89-0.57,4.09-0.79c6.08-1.08,9.55,1.25,10.88,7.29c0.11,0.53,0.17,1.07,0.28,1.61c0.4,1.95,1.23,2.22,2.73,0.82
		c2.24-2.1,4.45-4.28,6.92-6.09c3.51-2.57,7.51-3.92,11.96-3.86c4.02,0.05,6.97,1.67,8.8,5.28c0.32,0.64,0.72,1.23,1.21,2.07
		c0.5-0.37,0.96-0.62,1.28-0.98c4.44-5.09,10.05-6.72,16.67-5.96c5.28,0.61,10.61,0.83,16.06,1.23c-1.67,2.87-2.25,6.49-6.31,8.43
		c-4.94,2.36-8.66,6.53-11.68,11.14c-0.68,1.05-1.23,2.24-1.55,3.44c-0.79,2.95,1.11,4.92,4.04,4.08c1.63-0.47,3.25-1.21,4.65-2.15
		c4.89-3.3,9.32-6.96,12.84-11.91c3.05-4.28,6.98-8.09,11.09-11.43c4.28-3.49,9.39-4.63,14.78-1.86c0.72,0.37,1.95,0.54,2.57,0.18
		c3.59-2.13,7.36-0.63,11.6-1.15c-2.28,4.8-4.32,9.08-6.65,13.98c1.56-0.23,2.61-0.25,3.56-0.55c6.62-2.07,12.15-5.46,15.32-12.01
		c3.94-8.15,8.11-16.19,12.11-24.32c0.72-1.47,1.53-2.22,3.28-2.11c2.71,0.16,5.44,0.04,8.82,0.04
		c-4.71,9.22-9.23,18.06-13.82,27.06c3.4-1.03,6.42-2.22,9.56-2.81c5.54-1.06,8.89,3.02,6.69,8.17c-2.45,5.74-5.26,11.34-7.9,16.99
		c-0.4,0.87-0.74,1.78-1.12,2.68c0.48,0.25,0.74,0.51,0.93,0.48c6.47-1.3,12.46-3.4,15.73-9.78c2.65-5.16,5.24-10.34,7.74-15.57
		c0.76-1.59,1.63-2.35,3.5-2.23c2.88,0.18,5.78,0.05,9.32,0.05c-4.59,9.27-8.96,18.1-13.33,26.95c0.17,0.2,0.35,0.39,0.51,0.59
		c0.96-0.28,2.1-0.33,2.87-0.88c5.14-3.67,10.72-6.94,15.11-11.37c3.12-3.14,4.83-7.8,6.77-11.96c1.21-2.6,2.7-3.68,5.56-3.37
		c2.33,0.25,4.7,0.05,7.38,0.05c-0.42,1.22-0.75,2.2-1.22,3.58c0.83-0.36,1.39-0.65,1.99-0.84c3.25-1.06,6.45-2.54,9.79-3.03
		c5.15-0.75,7.78,2.39,5.99,7.26c-1.86,5.08-4.48,9.88-6.77,14.81c-0.38,0.82-0.92,1.59-1.17,2.45c-0.39,1.3-0.61,2.65-0.9,3.98
		c1.31-0.11,2.69,0.02,3.92-0.37c6.8-2.16,12.47-5.53,15.23-12.75c1.73-4.54,4.32-8.77,6.44-13.17c0.65-1.36,1.42-2.08,3.08-2
		c2.98,0.15,5.98,0.04,9.62,0.04c-4.53,9.19-8.9,18.01-13.26,26.84c0.2,0.22,0.38,0.45,0.58,0.68c4.79-0.82,8.51-4.03,12.57-6.43
		c2.12,1.82,2.2,3.34-0.22,4.88c-4.35,2.78-8.57,5.76-12.96,8.46c-1.5,0.93-3.35,1.45-5.1,1.79c-4.15,0.83-6.01-0.4-7.27-4.48
		c-0.13-0.42-0.3-0.82-0.5-1.36c-2.68,1.38-5.17,2.9-7.82,3.99c-2.5,1.02-5.13,2.01-7.78,2.28c-6.02,0.61-9.18-3.28-7.32-8.99
		c1.11-3.42,2.84-6.65,4.36-9.94c1.02-2.21,2.14-4.36,2.92-7.29c-1.73,0.4-3.57,0.54-5.15,1.26c-4.51,2.04-7.42,5.71-9.55,10.04
		c-2.04,4.15-3.9,8.37-6.06,12.46c-0.46,0.87-1.81,1.7-2.82,1.78c-2.87,0.23-5.78,0.08-9.31,0.08c1.81-3.74,3.43-7.08,5.05-10.4
		c-0.11-0.1-0.23-0.21-0.35-0.32c-0.63,0.42-1.23,0.85-1.87,1.25c-4.28,2.71-8.5,5.53-12.9,8.06c-1.77,1.01-3.88,1.56-5.91,1.93
		c-3.47,0.64-5-0.61-6.89-5.29c-0.86,0.43-1.71,0.85-2.54,1.28c-4.39,2.26-8.93,4.08-13.95,4.16c-5.28,0.08-7.53-2.61-5.89-7.62
		c1.23-3.76,3.21-7.28,4.86-10.9c0.99-2.17,2-4.34,3-6.51c-0.21-0.23-0.42-0.46-0.64-0.69c-1.12,0.58-2.35,1.01-3.35,1.76
		c-4.38,3.25-7.6,7.49-10.12,12.27c-0.89,1.68-1.69,3.41-2.66,5.04c-3.44,5.74-6.94,7.16-14.03,5.61c3.2-6.4,6.37-12.74,9.52-19.08
		c-7.79,2.6-15.21,5.42-18.94,13.38c-3.08,6.56-6.16,13.11-9.39,19.59c-3.54,7.08-10.46,10.67-17.92,9.53
		C455.52,108.67,451.51,105.17,450.41,100.54z M365.86,78.69c0.58,1.13,0.85,2.47,1.49,2.68c0.83,0.28,2.35-0.01,2.9-0.64
		c2.14-2.43,4.35-4.91,5.92-7.71c2.54-4.56,4.7-9.34,6.78-14.13c0.37-0.87-0.12-2.82-0.83-3.27c-0.77-0.48-2.35,0.07-3.44,0.5
		c-0.79,0.32-1.5,1.07-1.98,1.81c-2.59,4.02-5.29,7.98-7.56,12.18C367.67,72.78,366.93,75.81,365.86,78.69z M466.73,77.68
		c0.63,1.23,0.91,2.74,1.68,3.07c0.79,0.33,2.17-0.33,3.1-0.88c0.81-0.49,1.5-1.34,2-2.17c2.5-4.07,5.11-8.08,7.3-12.32
		c1.26-2.43,2.14-5.19,2.57-7.89c0.4-2.5-1.46-3.49-3.65-2.21c-0.92,0.53-1.84,1.25-2.43,2.11c-2.29,3.34-4.7,6.64-6.58,10.21
		C469.07,70.76,468.06,74.25,466.73,77.68z M267.51,57.45c-0.42-0.76-0.86-2.33-1.42-2.37c-1.19-0.09-2.81,0.23-3.61,1.04
		c-5.86,5.91-9.66,13.01-11.32,21.16c-0.22,1.09,0.65,2.41,1.02,3.63c1.19-0.46,2.46-0.78,3.55-1.41c0.75-0.43,1.38-1.22,1.81-1.98
		c2.97-5.24,5.94-10.51,8.78-15.82C266.93,60.51,267.06,59.1,267.51,57.45z M401.19,78.26c0.39,0.76,0.69,2.22,1.37,2.43
		c0.89,0.27,2.15-0.34,3.12-0.82c0.69-0.35,1.31-1.04,1.7-1.72c3.24-5.73,6.48-11.46,9.57-17.26c0.56-1.05,0.64-2.46,0.62-3.69
		c-0.03-2.28-1.5-3.16-3.46-1.96c-1.36,0.83-2.77,1.94-3.55,3.28c-2.86,4.91-5.53,9.92-8.12,14.97
		C401.76,74.8,401.65,76.42,401.19,78.26z M204.71,74.44c-0.29-0.46-0.58-0.93-0.88-1.38c-8.67-2.43-17.04-1.53-24.96,2.92
		c-1.23,0.69-1.91,2.37-2.84,3.6c1.36,0.62,2.67,1.67,4.06,1.78c8,0.6,15.45-1.22,22.22-5.61
		C203.07,75.23,203.91,74.87,204.71,74.44z"/>
	<path class="st0" d="M52.79,30.2c0-3.71,0.07-7.42-0.03-11.13c-0.06-2.23,0.84-3.6,2.77-4.78C68.39,6.44,82.4,2.05,97.3,0.53
		c20.83-2.12,40.25,2,57.84,13.72c1.86,1.24,2.62,2.55,2.67,4.8c0.56,23.14-2.81,45.5-13.23,66.44
		c-8.24,16.58-20.2,29.72-36.56,38.71c-1.9,1.04-3.36,1.03-5.29,0.12c-21.93-10.37-35.51-27.83-43.13-50.34
		C55.1,60.63,52.77,45.68,52.79,30.2z M155.5,28.61c0-2.9-0.08-5.79,0.03-8.69c0.07-1.93-0.68-3.1-2.31-4.17
		C136.87,5.03,118.87,0.98,99.53,2.62C84.49,3.89,70.31,8.07,57.35,15.96c-0.93,0.57-2.06,1.78-2.1,2.74
		c-0.94,20.64,0.92,40.91,8.72,60.27c7.67,19.03,20.23,33.72,38.96,42.82c1.74,0.84,3.08,0.84,4.78-0.11
		c15.69-8.84,27.09-21.65,35.01-37.65C151.35,66.57,154.88,47.92,155.5,28.61z"/>
	<path class="st0" d="M640.47,41.51c-3.81,0.06-6.99-3.01-7.02-6.78c-0.04-3.78,3.09-6.88,6.92-6.87c3.73,0.01,6.76,2.93,6.87,6.63
		C647.35,38.27,644.27,41.45,640.47,41.51z"/>
	<path class="st0" d="M569.18,27.87c3.86-0.02,6.89,3,6.88,6.85c-0.02,3.83-3.09,6.84-6.94,6.8c-3.73-0.05-6.68-2.99-6.73-6.72
		C562.34,30.92,565.32,27.88,569.18,27.87z"/>
	<path class="st0" d="M127.15,29.02c0.21,1.5-0.01,3.25,0.68,4.48c3.64,6.43,3.39,13.37,3.01,20.34c-0.13,2.34-0.16,4.75,2.36,5.81
		c1.41,0.6,3.12,0.5,4.99,0.74c-1.73,3.86-5.03,3.15-7.92,2.92c0.68,6.08,1.35,12.02,2.05,18.33c-1.24,0.09-2.44,0.19-4.04,0.31
		c0-2.34,0.03-4.38-0.01-6.44c-0.02-1.17,0.1-2.43-0.3-3.48c-0.54-1.41-1.52-2.66-2.32-3.98c-1.36,1.01-3.16,1.76-4,3.09
		c-1.1,1.77-1.7,3.95-2.05,6.04c-0.32,1.92-0.89,3.04-2.97,3.02c-0.52-0.01-1.05,0.31-1.58,0.37c-3.93,0.55-4.36,0.31-5.98-3.3
		c-0.51-1.14-1.03-2.27-1.76-3.9c-0.75,2.15-1.44,3.78-1.88,5.47c-0.5,1.88-1.42,2.6-3.35,1.93c-2.21-0.77-3.22,0.19-3.25,2.41
		c0,0.27,0,0.54-0.05,0.81c-0.83,5.06,0.18,4.98-6.63,4.47c0.67-2,1.24-3.91,1.96-5.77c0.84-2.18,1.74-4.35,2.75-6.45
		c1.15-2.39,1.57-4.57-0.79-6.56c-0.64-0.53-0.94-1.46-1.79-2.86c-0.99,2.14-1.87,3.76-2.5,5.46c-1.23,3.38-2.29,6.73-4.97,9.47
		c-1.13,1.16-1.1,3.48-1.53,5.28c-0.92,3.89-3,4.65-6.51,2.18c0.36-0.58,0.69-1.19,1.09-1.75c5.69-7.89,7.45-17.03,8.72-26.4
		c1.18-8.68,3.07-17.25,8.13-24.68c5.25-7.69,13.46-10.33,22.25-7.35c0.34,0.11,0.67,0.25,1.03,0.34c1.98,0.48,4.06,0.37,5.02-1.52
		c1.1-2.18-1.11-3.09-2.46-4.19c-0.53-0.43-1.23-0.64-1.86-0.97c-0.03-0.01-0.01-0.16,0.02-0.22c0.05-0.07,0.14-0.11,0.19-0.17
		c1.16,0.33,2.34,0.66,3.51,0.99c0.45,0.78,0.97,1.52,1.33,2.34c1.35,3.05-0.18,5.26-3.43,4.94c-1.44-0.14-2.93-0.32-4.25-0.85
		c-7.65-3.05-13.81,0.23-18.56,5.47c-7.21,7.94-8.68,18.33-10.26,28.49c0.47-0.68,0.71-1.44,0.86-2.22c0.34-1.75,0.6-3.52,3.02-1.81
		c0.19,0.13,0.66,0.21,0.76,0.1c2.31-2.65,5.16-1.98,8.1-1.6c1.24,0.16,2.59-0.79,3.93-0.93c0.79-0.08,1.65,0.4,2.5,0.63
		c-0.25,0.77-0.35,1.65-0.78,2.29c-1.84,2.75-3.17,5.42-1.26,8.79c1.56,2.75,2.78,5.68,4.42,9.11c1.34-3.22,1.14-6.12,1.28-9.39
		c-1.11,0.93-1.87,1.55-2.62,2.18c-0.23-0.14-0.46-0.29-0.69-0.43c1.27-3.56,2.54-7.12,3.59-10.09c-1.27-1.5-2.34-2.76-3.4-4.02
		c0.32-0.4,0.64-0.8,0.95-1.21c1.26,0.68,3.2,1.07,3.68,2.11c1.88,4.04,2.36,4.55,7.24,4.62c-4.47-3.31-4.47-3.31-2.22-4.94
		c0.41,0.56,0.83,1.12,1.02,1.37c0.83-0.72,1.53-1.79,2.08-1.71c1.66,0.21,3.37,0.66,4.86,1.43c0.93,0.49,1.5,1.68,2.24,2.56
		c-0.16,0.19-0.31,0.38-0.47,0.57c2.65,0.8,5.3,2.03,8.51,0.22c-11.46-2.06-18.08-12.04-19.06-26.64c1.53,1.76,1.36,5.76,5.51,3.88
		c-0.32-2.07-0.64-4.22-1.02-6.74c1-0.08,2.08-0.18,3.29-0.28c0.49-0.74,1.07-1.63,1.65-2.51
		C127.22,29.06,127.15,29.02,127.15,29.02z M97.98,85.64c-0.84-1.36-1.37-2.23-1.91-3.1c-0.79,1.01-1.57,2.01-2.35,3.02
		c0.17,0.2,0.35,0.4,0.51,0.6C95.18,86.02,96.12,85.89,97.98,85.64z"/>
	<path class="st0" d="M124.43,23.29c-1.18-0.33-2.36-0.65-3.51-0.99c-5.65-0.32-11.34-0.49-16.98-1.05
		c-1.19-0.11-2.23-1.64-3.34-2.51c1.04-0.97,1.91-2.42,3.13-2.82c4.59-1.52,9.22-1.44,14.52,1.67c-1.08,0.54-2.17,1.08-3.22,1.61
		c3.45,1.18,6.72,2.03,9.74,3.42c3.08,1.42,3.51,3.18,2.38,6.4l0.07,0.03C127.17,26.71,127.03,24.42,124.43,23.29z"/>
	<path class="st0" d="M114.13,48.22c2.47-2.26,4.55-1.95,5.86,1.01c0.64,1.45,1.22,2.93,1.95,4.71c-2.77,0.2-5.04,0.07-6.98-2.39
		c1.06-0.11,1.78-0.2,2.5-0.27c0.15-0.22,0.3-0.46,0.44-0.68C116.68,49.82,115.45,49.05,114.13,48.22z"/>
	<path class="st0" d="M98.83,49.67c1.34,1.71,2.51,3.21,3.89,4.96c-2.07,0.61-3.92,2.54-5.66,0.33
		C95.61,53.14,96.61,50.91,98.83,49.67z"/>
	<path class="st0" d="M109.65,41.6c1.61-0.52,3.43-1.74,4.76-1.34c1.05,0.31,1.5,2.62,2.5,4.62c-2.97-0.98-5.05-1.66-7.12-2.36
		C109.73,42.22,109.69,41.91,109.65,41.6z"/>
</g>
</svg>
