<?xml version="1.0" encoding="utf-8"?>
<!-- Generator: Adobe Illustrator 24.0.2, SVG Export Plug-In . SVG Version: 6.00 Build 0)  -->
<svg version="1.1" id="Capa_1" xmlns="http://www.w3.org/2000/svg" xmlns:xlink="http://www.w3.org/1999/xlink" x="0px" y="0px"
	 viewBox="0 0 700 125" style="enable-background:new 0 0 700 125;" xml:space="preserve">
<style type="text/css">
	.st0{fill:#FFFFFF;}
</style>
<g>
	<path class="st0" d="M412.5,62.48c0.08,34.29-27.79,62.55-62.51,62.52c-34.57-0.03-62.48-27.98-62.48-62.51
		c0-34.69,28.26-62.57,62.61-62.49C384.58,0.08,412.49,27.98,412.5,62.48z M350,124.52c34.28,0,62.02-27.71,62.04-61.99
		c0.02-34.25-27.74-62.04-61.99-62.05c-34.28-0.01-61.99,27.71-62.06,61.98C287.92,96.66,315.78,124.59,350,124.52z"/>
	<path class="st0" d="M291.1,62.5C291.1,29.97,317.46,3.57,350,3.59c32.56,0.01,58.9,26.34,58.92,58.91
		c0.02,32.55-26.41,58.94-58.96,58.91C317.42,121.37,291.11,95.03,291.1,62.5z M348.74,95.64c4.51,0,8.04-0.27,11.55-0.68
		c3.46-0.41,6.9-0.97,10.31-1.69c5.01-1.05,9.94-2.37,14.73-4.19c3.4-1.29,6.69-2.81,9.74-4.82c2.98-1.96,5.42-4.44,7.18-7.54
		c2.13-3.74,2.63-7.7,1.45-11.85c-0.72-2.54-1.93-4.84-3.41-7.01c-0.36-0.53-0.74-1.06-1.18-1.53
		c-9.57-10.32-19.15-20.63-28.73-30.94c-1.7-1.83-3.32-3.76-5.13-5.48c-5.73-5.42-12.48-7.57-20.27-5.94
		c-4.48,0.94-8.31,3.15-11.43,6.5c-11.09,11.91-22.16,23.84-33.23,35.76c-1.8,1.94-3.22,4.15-4.22,6.61
		c-1.89,4.67-1.64,9.22,0.82,13.63c1.22,2.19,2.8,4.1,4.71,5.74c2.25,1.94,4.8,3.41,7.47,4.7c4.09,1.97,8.36,3.44,12.72,4.64
		c6.21,1.71,12.53,2.89,18.94,3.57C343.73,95.44,346.71,95.64,348.74,95.64z"/>
	<path class="st0" d="M349.69,91.81c-3.03-0.01-6.03-0.26-9.03-0.66c-4.56-0.6-9.05-1.52-13.5-2.7c-5.05-1.35-9.99-3.02-14.71-5.28
		c-2.34-1.12-4.6-2.39-6.67-3.98c-1.76-1.35-3.3-2.9-4.49-4.79c-1.2-1.92-1.9-4-1.98-6.27c-0.08-2.07,0.37-4.05,1.21-5.94
		c0.84-1.9,2.01-3.58,3.42-5.1c4.53-4.87,9.06-9.74,13.59-14.61c5.88-6.33,11.74-12.68,17.65-18.97c2.94-3.13,6.57-5.12,10.79-5.89
		c6.77-1.23,12.66,0.69,17.67,5.34c1.11,1.03,2.09,2.2,3.13,3.32c9.3,10.01,18.59,20.02,27.9,30.02c1.27,1.37,2.49,2.76,3.41,4.39
		c1.11,1.96,1.82,4.04,1.95,6.29c0.16,2.77-0.59,5.3-2.1,7.62c-1.23,1.9-2.83,3.45-4.64,4.79c-2.56,1.89-5.36,3.35-8.27,4.63
		c-4.94,2.17-10.07,3.77-15.3,5.04c-3.74,0.91-7.51,1.62-11.32,2.12C355.51,91.58,352.61,91.82,349.69,91.81z M332.89,50.52
		c0.08,0.1,0.12,0.16,0.15,0.22c0.33,0.61,0.62,1.25,0.99,1.84c3.15,5,7.8,7.61,13.53,8.5c2.21,0.35,4.42,0.3,6.63,0.01
		c2.74-0.36,5.34-1.16,7.76-2.51c1.59-0.89,3.02-1.98,4.22-3.36c0.18-0.21,0.37-0.45,0.46-0.71c0.27-0.73-0.22-1.3-0.99-1.19
		c-0.41,0.06-0.73,0.27-1.04,0.51c-0.52,0.41-1.04,0.83-1.58,1.2c-2.4,1.67-5.01,2.84-7.92,3.23c-3.18,0.43-6.32,0.13-9.37-0.85
		c-2.56-0.83-4.75-2.21-6.44-4.34c-1.73-2.17-2.62-4.69-3.03-7.4c-0.02-0.15,0.06-0.35,0.14-0.49c0.34-0.55,0.74-1.06,1.04-1.62
		c0.31-0.58,0.7-0.81,1.36-0.74c0.61,0.06,1.24,0.01,1.9,0.01c-0.05,4.31,1.8,7.27,5.93,8.64c0.17,1.11-0.24,1.71-1.32,1.93
		c-0.07,0.01-0.14,0.03-0.21,0.04c-0.3,0.09-0.46,0.28-0.48,0.57c-0.01,0.28,0.13,0.54,0.41,0.63c0.2,0.06,0.42,0.09,0.63,0.09
		c3.49,0.01,6.97,0.02,10.46-0.01c0.8-0.01,1.61-0.12,2.38-0.31c2.53-0.64,4.69-2.45,4.8-5.64c0.08-2.41-0.78-4.37-2.83-5.73
		c-0.53-0.36-1.12-0.63-1.68-0.95c-0.15-0.08-0.3-0.16-0.5-0.26c0.35-0.16,0.63-0.27,0.9-0.4c1.07-0.55,1.82-1.39,2.09-2.58
		c0.35-1.52,0-2.88-1.08-4.01c-1.17-1.22-2.62-1.87-4.31-1.87c-4.99-0.02-9.98-0.01-14.97-0.01c-0.14,0-0.29,0-0.43,0.02
		c-0.42,0.08-0.61,0.48-0.4,0.86c0.04,0.08,0.11,0.14,0.17,0.2c0.26,0.22,0.27,0.5,0.18,0.79c-0.07,0.22-0.18,0.43-0.3,0.62
		c-1.3,1.99-2.6,3.98-3.9,5.97c-0.06,0.09-0.15,0.16-0.27,0.3c-0.03-1.53,0.12-2.95,0.45-4.34c1.02-4.37,3.59-7.4,7.82-8.95
		c2.86-1.04,5.81-1.34,8.82-0.89c3.74,0.56,7.33,1.57,10.59,3.59c0.24,0.15,0.54,0.33,0.79,0.1c0.27-0.24,0.15-0.56,0.01-0.84
		c-0.67-1.39-1.47-2.7-2.34-3.97c-0.23-0.34-0.55-0.57-0.94-0.68c-0.51-0.14-0.98-0.14-1.34,0.36c-0.44,0.61-1.06,0.68-1.73,0.5
		c-0.4-0.11-0.78-0.26-1.18-0.36c-1.92-0.51-3.88-0.82-5.86-0.96c-1.18-0.08-2.37-0.19-3.53-0.08c-3.82,0.37-7.29,1.74-10.33,4.09
		c-3.88,3-5.82,7-5.96,11.89c-0.06,2.16,0.14,4.28,0.68,6.38c0.05,0.2,0.09,0.37-0.04,0.56c-0.77,1.16-1.51,2.35-2.31,3.48
		c-0.87,1.23-2.1,1.84-3.62,1.89c-0.16,0.01-0.32,0-0.48,0.03c-0.4,0.07-0.68,0.4-0.64,0.74c0.03,0.31,0.27,0.47,0.72,0.5
		c0.03,0,0.07,0,0.11,0c2.13,0,4.26,0,6.38,0c0.5,0,0.73-0.13,0.82-0.45c0.11-0.38-0.07-0.75-0.47-0.98
		c-0.06-0.04-0.13-0.06-0.19-0.1c-0.41-0.27-0.55-0.69-0.3-1.11C332.19,51.56,332.54,51.06,332.89,50.52z M338.49,72.07
		c0.02-2.38-0.68-4.05-2.03-5.41c-1.95-1.97-4.27-3.23-7.08-3.39c-2.95-0.16-5.4,0.84-7.17,3.28c-0.78,1.08-1.33,2.28-1.66,3.58
		c-0.72,2.85-0.03,5.31,2.11,7.33c1.68,1.57,3.66,2.61,5.91,3.09c2.72,0.57,5.1-0.11,7.1-2.05
		C337.58,76.62,338.33,74.24,338.49,72.07z M383.22,74.1c1.83-0.14,3.52-0.45,5.15-1.02c2.3-0.79,4.12-2.2,5.39-4.28
		c1.27-2.07,0.9-4.24-0.56-5.97c-0.62-0.74-1.42-1.18-2.37-1.36c-1.03-0.2-2.03-0.02-3.01,0.28c-1.54,0.47-3.08,0.93-4.67,1.18
		c-0.69,0.11-1.38,0.23-2.08,0.07c-0.49-0.12-0.65-0.32-0.69-0.82c-0.04-0.51,0.13-0.95,0.41-1.36c0.61-0.87,1.43-1.46,2.46-1.7
		c1.67-0.39,3.36-0.47,5.06-0.23c0.17,0.03,0.36,0.04,0.53,0.02c0.35-0.04,0.53-0.32,0.42-0.66c-0.05-0.15-0.13-0.3-0.23-0.42
		c-0.44-0.49-0.9-0.97-1.34-1.46c-0.15-0.17-0.31-0.18-0.53-0.12c-0.63,0.19-1.27,0.37-1.92,0.5c-1.58,0.33-3.13,0.76-4.56,1.52
		c-1.59,0.84-2.72,2.13-3.33,3.84c-0.8,2.24,0.2,5.58,3.84,5.83c1.1,0.07,2.18-0.04,3.24-0.3c1.04-0.26,2.06-0.58,3.1-0.85
		c0.71-0.19,1.43-0.32,2.17-0.27c0.94,0.06,1.38,0.67,1.16,1.58c-0.12,0.5-0.37,0.93-0.7,1.31c-0.72,0.84-1.61,1.43-2.67,1.72
		c-1.92,0.53-3.84,0.59-5.72-0.21c-0.37-0.16-0.72-0.1-0.89,0.12c-0.16,0.2-0.13,0.47,0.14,0.83c0.42,0.58,0.88,1.13,1.28,1.72
		C382.57,74.02,382.86,74.23,383.22,74.1z M368.61,81.04c0.44-0.07,1.27-0.15,2.09-0.34c1.4-0.33,2.73-0.84,3.9-1.71
		c1.06-0.79,1.78-1.8,2-3.12c0.16-0.95,0.04-1.88-0.24-2.81c-0.75-2.51-1.48-5.04-2.24-7.55c-0.21-0.71-0.31-1.37,0.17-2.04
		c0.24-0.33,0.19-0.77-0.06-1.11c-0.25-0.34-0.61-0.32-0.98-0.21c-0.92,0.29-1.84,0.58-2.76,0.87c-0.33,0.1-0.54,0.33-0.66,0.65
		c-0.15,0.41-0.01,0.7,0.4,0.84c0.15,0.05,0.31,0.08,0.47,0.11c0.58,0.08,0.91,0.42,1.07,0.98c0.69,2.42,1.4,4.84,2.1,7.26
		c0.19,0.66,0.26,1.33,0.19,2.02c-0.09,0.88-0.46,1.62-1.16,2.15c-1.07,0.82-2.29,1.2-3.63,0.89c-1.4-0.32-2.42-1.09-2.83-2.55
		c-0.59-2.08-1.22-4.15-1.82-6.22c-0.11-0.38-0.19-0.77-0.23-1.15c-0.06-0.51,0.09-0.95,0.54-1.26c0.29-0.19,0.41-0.49,0.43-0.83
		c0.04-0.63-0.3-0.94-0.92-0.83c-0.33,0.06-0.66,0.15-0.99,0.22c-1.62,0.34-3.25,0.68-4.87,1.03c-0.14,0.03-0.28,0.08-0.39,0.16
		c-0.26,0.17-0.38,0.41-0.36,0.73c0.02,0.32,0.22,0.48,0.48,0.58c0.2,0.07,0.41,0.11,0.62,0.15c0.42,0.08,0.71,0.32,0.87,0.71
		c0.07,0.17,0.12,0.34,0.17,0.51c0.78,2.67,1.59,5.34,2.34,8.02c0.35,1.25,1.09,2.15,2.15,2.82
		C365.62,80.74,366.88,81.02,368.61,81.04z M342.22,66.56c-0.37,0.82-0.73,1.62-1.08,2.42c-0.12,0.28-0.1,0.57,0.16,0.78
		c0.26,0.2,0.55,0.24,0.86,0.1c0.08-0.04,0.15-0.1,0.22-0.15c0.63-0.49,1.36-0.79,2.13-0.98c0.5-0.13,1.02-0.2,1.54-0.05
		c0.55,0.16,0.62,0.23,0.62,0.82c0,3.47,0,6.94,0,10.41c0,0.16,0,0.32-0.02,0.48c-0.09,0.7-0.58,1.19-1.29,1.31
		c-0.16,0.03-0.32,0.06-0.46,0.12c-0.29,0.14-0.49,0.36-0.47,0.71c0.02,0.32,0.19,0.54,0.57,0.61c0.42,0.08,0.85,0.12,1.28,0.13
		c1.43,0.02,2.86,0.03,4.29,0.03c0.72,0,1.43-0.04,2.14-0.07c0.16-0.01,0.32-0.03,0.48-0.06c0.3-0.08,0.51-0.26,0.56-0.58
		c0.05-0.32-0.11-0.56-0.38-0.71c-0.18-0.1-0.4-0.15-0.61-0.18c-0.32-0.04-0.57-0.19-0.8-0.4c-0.34-0.33-0.46-0.74-0.46-1.21
		c0.01-3.54,0-7.08,0.01-10.62c0-0.55,0.06-0.64,0.6-0.76c0.29-0.06,0.61-0.1,0.9-0.07c0.39,0.04,0.77,0.14,1.15,0.26
		c0.62,0.19,1.19,0.48,1.7,0.88c0.32,0.25,0.71,0.23,0.99-0.01c0.26-0.21,0.31-0.47,0.13-0.87c-0.32-0.74-0.66-1.47-0.99-2.2
		c-0.02-0.05-0.06-0.08-0.1-0.13C351.34,67.01,346.79,67,342.22,66.56z M315.38,74.85c0.43-0.4,0.84-0.77,1.25-1.15
		c0.49-0.45,0.98-0.89,1.45-1.35c0.24-0.23,0.24-0.54,0.06-0.78c-0.17-0.22-0.38-0.23-0.72-0.06c-0.37,0.18-0.73,0.4-1.11,0.51
		c-2.17,0.66-4.46-0.46-5.44-2.62c-0.15-0.32-0.11-0.54,0.1-0.82c2.03-2.63,4.06-5.27,6.08-7.91c0.57-0.74,1.23-1.12,2.18-0.76
		c0.39,0.15,0.66,0.01,0.81-0.31c0.15-0.32,0.05-0.67-0.27-0.89c-0.16-0.11-0.34-0.2-0.49-0.32c-1.66-1.21-3.32-2.42-4.98-3.63
		c-0.35-0.26-0.64-0.29-0.92-0.04c-0.28,0.24-0.32,0.55-0.11,0.92c0.1,0.17,0.23,0.32,0.34,0.48c0.44,0.67,0.42,1.3-0.07,1.93
		c-2.09,2.72-4.2,5.43-6.27,8.17c-0.5,0.66-1.28,0.82-1.98,0.41c-0.12-0.07-0.25-0.15-0.38-0.18c-0.31-0.07-0.66,0.1-0.77,0.35
		c-0.1,0.23-0.03,0.47,0.24,0.7c0.08,0.07,0.17,0.13,0.26,0.2c0.74,0.53,1.48,1.07,2.22,1.6c2.32,1.65,4.64,3.29,7.08,4.75
		C314.38,74.32,314.87,74.57,315.38,74.85z"/>
	<path class="st0" d="M350.17,42.83c1.73,0.05,3.42-0.18,5.06,0.33c0.41,0.13,0.82,0.27,1.2,0.45c1.87,0.92,2.79,2.43,2.76,4.52
		c-0.03,2.13-1.05,3.62-2.99,4.49c-1.5,0.68-3.08,0.77-4.67,0.47c-1.02-0.19-1.39-0.68-1.39-1.72c0-2.66,0-5.33,0-7.99
		C350.15,43.22,350.16,43.06,350.17,42.83z"/>
	<path class="st0" d="M350.17,40.74c0-2,0-3.98,0-5.98c0.14-0.02,0.26-0.05,0.37-0.05c1.29,0,2.57-0.01,3.86,0
		c1.58,0.02,2.77,0.98,3.09,2.45c0.38,1.73-0.91,3.54-2.68,3.62c-1.5,0.07-3,0.01-4.5,0.01C350.28,40.8,350.25,40.77,350.17,40.74z"
		/>
	<path class="st0" d="M346.64,42.86c0,2.01,0,4.01,0,6c-2.02-0.45-3.73-3.54-3.32-6C344.41,42.86,345.5,42.86,346.64,42.86z"/>
	<path class="st0" d="M346.62,36.17c-2.47,0.76-4.48,2.09-5.49,4.61c-0.6,0-1.18,0-1.83,0c0.12-0.2,0.2-0.35,0.29-0.49
		c1.12-1.72,2.26-3.43,3.37-5.16c0.2-0.31,0.41-0.44,0.78-0.42c0.55,0.03,1.11,0.01,1.66,0.01
		C346.43,34.72,346.75,35.09,346.62,36.17z"/>
	<path class="st0" d="M346.64,37.44c0,1.16,0,2.22,0,3.28c-0.39,0.12-2.39,0.14-3.02,0.03C344.12,39.21,345.08,38.12,346.64,37.44z"
		/>
	<path class="st0" d="M330.39,65.78c2.25-0.03,4.08,1.91,3.93,4.23c-0.03,0.51-0.13,1.03-0.27,1.53c-0.46,1.62-1.24,3.08-2.29,4.39
		c-0.48,0.61-1.05,1.12-1.75,1.48c-2.31,1.19-5.02-0.21-5.4-2.77c-0.16-1.05-0.06-2.07,0.22-3.08c0.41-1.51,1.12-2.87,2.16-4.03
		c0.41-0.46,0.91-0.86,1.42-1.2C329.02,65.9,329.65,65.78,330.39,65.78z"/>
</g>
</svg>
