<?xml version="1.0" encoding="utf-8"?>
<!-- Generator: Adobe Illustrator 24.0.2, SVG Export Plug-In . SVG Version: 6.00 Build 0)  -->
<svg version="1.1" id="Capa_1" xmlns="http://www.w3.org/2000/svg" xmlns:xlink="http://www.w3.org/1999/xlink" x="0px" y="0px"
	 viewBox="0 0 700 125" style="enable-background:new 0 0 700 125;" xml:space="preserve">
<style type="text/css">
	.st0{fill:#FFFFFF;}
</style>
<g>
	<path class="st0" d="M350.02,66.61c-1.11,3.95-2.43,7.83-4.03,11.61c-3.55,0-7.06,0-10.63,0c0.05-0.13,0.07-0.24,0.12-0.33
		c3.6-6.11,6.06-12.68,7.84-19.52c1.11-4.26,1.93-8.58,2.55-12.93c0.68-4.75,1.11-9.53,1.4-14.32c0.1-1.72,0.16-3.44,0.22-5.15
		c0.01-0.38-0.02-0.76-0.1-1.13c-0.12-0.53-0.46-0.8-1-0.74c-0.43,0.05-0.87,0.16-1.26,0.34c-1.6,0.69-3.18,1.41-4.77,2.12
		c-0.18,0.08-0.36,0.15-0.68,0.28c0.15-0.31,0.24-0.49,0.34-0.67c2.35-4.12,4.45-8.37,6.17-12.79c1.66-4.26,2.95-8.62,3.73-13.13
		c0.01-0.08,0.03-0.15,0.1-0.24c1.69,9.58,5.5,18.33,10.36,26.8c-0.25-0.08-0.4-0.12-0.53-0.17c-1.57-0.7-3.13-1.42-4.71-2.1
		c-0.43-0.19-0.9-0.35-1.36-0.42c-0.66-0.1-1.03,0.19-1.16,0.84c-0.07,0.33-0.08,0.68-0.06,1.01c0.15,2.98,0.27,5.95,0.49,8.92
		c0.18,2.47,0.44,4.94,0.72,7.4c0.48,4.31,1.21,8.59,2.16,12.82c1.08,4.8,2.48,9.51,4.34,14.08c1.2,2.95,2.59,5.81,4.2,8.55
		c0.08,0.14,0.15,0.27,0.26,0.47c-3.59,0-7.11,0-10.69,0C352.46,74.45,351.15,70.58,350.02,66.61z"/>
	<path class="st0" d="M328.11,46.82c-3.32-0.86-6.55-1.58-9.91-2.07c2.33,5.53,4.44,11.05,6.41,16.63
		c1.96,5.56,3.79,11.16,5.53,16.84c-3.03,0-6,0-8.98,0c-3.09-17.06-7.65-33.63-15.41-49.34c0.28,0.14,0.48,0.24,0.67,0.35
		c3.35,1.89,6.5,4.09,9.52,6.46c4.18,3.3,8.08,6.92,11.81,10.72C327.85,46.51,327.93,46.62,328.11,46.82z"/>
	<path class="st0" d="M381.86,44.69c-1.78,0.34-3.4,0.63-5.02,0.97c-1.6,0.34-3.18,0.73-4.8,1.05c6.66-6.82,13.74-13.12,22.2-17.73
		c-0.05,0.12-0.09,0.25-0.14,0.37c-3.47,6.78-6.15,13.88-8.46,21.13c-2.75,8.64-4.9,17.43-6.49,26.35c-0.08,0.45-0.16,0.9-0.24,1.38
		c-2.99,0-5.94,0-8.9,0c-0.02-0.66,3.43-11.32,5.41-16.84C377.42,55.81,379.51,50.29,381.86,44.69z"/>
	<path class="st0" d="M319.14,84.07c0-1.17,0-2.3,0-3.47c20.59,0,41.14,0,61.74,0c0,1.16,0,2.29,0,3.42
		C380.44,84.14,320.44,84.19,319.14,84.07z"/>
	<path class="st0" d="M319.15,94.76c0-1.17,0-2.3,0-3.46c20.59,0,41.14,0,61.74,0c0,1.16,0,2.29,0,3.46
		C360.32,94.76,339.76,94.76,319.15,94.76z"/>
	<path class="st0" d="M377.92,86c0,1.1,0,2.22,0,3.33c-0.42,0.12-55.06,0.15-55.8,0.03c0-1.1,0-2.22,0-3.33
		C322.54,85.9,377.18,85.87,377.92,86z"/>
	<path class="st0" d="M361.81,97.27c-3.12,2.93-4.06,6.64-4.15,10.71c-5.09,0-10.15,0-15.27,0c-0.01-0.18-0.03-0.37-0.04-0.56
		c-0.06-1.7-0.3-3.38-0.85-5c-0.66-1.93-1.41-3.08-3.33-5.06c0.15-0.03,0.27-0.07,0.39-0.08c0.14-0.01,0.28,0,0.42,0
		c7.38,0,14.76,0,22.13,0C361.35,97.27,361.58,97.27,361.81,97.27z"/>
	<path class="st0" d="M362.15,115.17c-8.11,0-16.14,0-24.26,0c-0.01-1.57-0.02-3.11,0.01-4.68c8.12,0,16.17,0,24.25,0
		C362.15,112.06,362.15,113.59,362.15,115.17z"/>
	<path class="st0" d="M342.41,125c0-2.44,0-4.85,0-7.3c5.08,0,10.13,0,15.26,0c0.03,2.41,0.01,4.83,0.01,7.3
		C352.57,125,347.51,125,342.41,125z"/>
	<path class="st0" d="M333.59,97.38c-2.6,2.36-5.58,3.86-9.01,4.69c-0.2-1.63-0.4-3.16-0.59-4.7C324.5,97.23,333,97.23,333.59,97.38
		z"/>
	<path class="st0" d="M376.05,97.31c-0.2,1.6-0.39,3.12-0.58,4.63c-1.78,0.19-7.7-2.87-8.96-4.63
		C369.69,97.31,372.83,97.31,376.05,97.31z"/>
</g>
</svg>
