<?xml version="1.0" encoding="utf-8"?>
<!-- Generator: Adobe Illustrator 24.0.2, SVG Export Plug-In . SVG Version: 6.00 Build 0)  -->
<svg version="1.1" id="Capa_1" xmlns="http://www.w3.org/2000/svg" xmlns:xlink="http://www.w3.org/1999/xlink" x="0px" y="0px"
	 viewBox="0 0 700 125" style="enable-background:new 0 0 700 125;" xml:space="preserve">
<style type="text/css">
	.st0{fill:#FFFFFF;}
</style>
<g>
	<path class="st0" d="M349.92,98.45c-2.32,0-4.65,0.07-6.96-0.02c-2.51-0.09-5.02-0.26-7.53-0.53c-2.72-0.29-5.43-0.67-8.12-1.1
		c-4.09-0.65-8.13-1.55-12.14-2.61c-3.08-0.81-6.14-1.72-9.17-2.73c-4.06-1.36-8.05-2.9-11.92-4.74c-2.29-1.09-4.55-2.24-6.67-3.64
		c-2.15-1.42-3.14-3.5-3.32-6.01c-0.2-2.69,0.36-5.28,1.12-7.84c1.02-3.43,2.44-6.7,4-9.91c2.09-4.32,4.41-8.52,7.06-12.52
		c1.96-2.96,4.11-5.78,6.36-8.53c2.14-2.6,4.3-5.19,6.53-7.71c1.79-2.04,3.67-4,5.56-5.96c2.7-2.8,5.51-5.48,8.4-8.08
		c3.9-3.5,7.95-6.81,12.3-9.73c3.5-2.35,7.14-4.42,11.07-5.98c0.17-0.07,0.34-0.11,0.5-0.19c1.7-0.83,3.46-0.71,5.23-0.35
		c2.14,0.44,4.09,1.37,6.01,2.36c3.24,1.66,6.27,3.65,9.21,5.78c3.7,2.68,7.26,5.53,10.61,8.62c2.49,2.29,4.9,4.69,7.32,7.06
		c2.39,2.35,4.71,4.76,6.89,7.31c2.62,3.06,5.17,6.16,7.51,9.44c0.24,0.33,0.4,0.73,0.59,1.08c0.07,0.12,0.13,0.25,0.22,0.35
		c1.28,1.5,2.31,3.17,3.35,4.83c2.57,4.1,5.01,8.27,7.12,12.63c1.56,3.23,2.98,6.52,3.92,10c0.42,1.53,0.76,3.08,0.85,4.67
		c0.05,0.85,0.12,1.7,0.11,2.55c-0.04,1.96-0.74,3.68-2.08,5.11c-0.72,0.77-1.62,1.33-2.53,1.86c-2.3,1.33-4.69,2.5-7.11,3.58
		c-5.16,2.32-10.48,4.19-15.91,5.77c-3.87,1.12-7.77,2.07-11.72,2.85c-3.19,0.63-6.4,1.15-9.63,1.52c-2.17,0.25-4.33,0.49-6.5,0.64
		c-1.9,0.13-3.8,0.15-5.7,0.19c-1.61,0.03-3.21,0.01-4.82,0.01C349.92,98.47,349.92,98.46,349.92,98.45z M352.09,94.96
		c0-0.02,0-0.04,0-0.05c0.45,0,0.91,0,1.37,0c2.87,0.01,5.75-0.08,8.61-0.37c2.52-0.25,5.04-0.52,7.55-0.89
		c3.18-0.46,6.31-1.15,9.43-1.9c5.86-1.41,11.65-3.04,17.34-5.06c3.81-1.35,7.57-2.83,11.14-4.75c1.13-0.61,2.27-1.23,3.26-2.06
		c1.07-0.89,1.61-2.03,1.62-3.43c0.02-1.27-0.27-2.48-0.65-3.67c-0.78-2.51-1.86-4.89-2.98-7.25c-2.53-5.36-5.3-10.59-8.4-15.65
		c-3.37-5.5-7.04-10.79-11.18-15.74c-1.79-2.14-3.64-4.24-5.57-6.26c-1.82-1.9-3.7-3.76-5.68-5.5c-2.16-1.89-4.43-3.67-6.7-5.43
		c-4.7-3.65-9.52-7.13-14.57-10.28c-1.38-0.86-2.8-1.65-4.33-2.22c-0.77-0.29-1.57-0.51-2.38-0.33c-0.71,0.15-1.44,0.35-2.07,0.68
		c-1.75,0.92-3.5,1.86-5.18,2.91c-4.44,2.78-8.7,5.81-12.87,8.98c-2.71,2.07-5.32,4.26-7.77,6.64c-1.61,1.56-3.18,3.16-4.76,4.75
		c-2.11,2.12-4.1,4.36-5.98,6.69c-4.36,5.39-8.25,11.1-11.78,17.06c-1.84,3.11-3.57,6.27-5.18,9.5c-1.48,2.96-2.93,5.93-4.16,9.01
		c-0.62,1.55-1.18,3.11-1.44,4.77c-0.14,0.89-0.17,1.78,0.07,2.66c0.29,1.06,0.98,1.84,1.86,2.46c1.31,0.93,2.71,1.72,4.16,2.42
		c3.57,1.74,7.27,3.15,11.02,4.45c5.4,1.87,10.88,3.43,16.44,4.74c3.68,0.87,7.4,1.59,11.15,2.09c2.47,0.33,4.95,0.63,7.44,0.81
		c2.21,0.17,4.43,0.18,6.65,0.23C349.08,94.99,350.58,94.96,352.09,94.96z"/>
	<path class="st0" d="M339.69,105.61c0.19-0.01,0.35-0.02,0.5-0.02c4.13,0,8.25,0,12.38,0c1.43,0,2.8,0.21,4.08,0.88
		c0.73,0.38,1.37,0.88,1.88,1.53c1.26,1.58,1.25,3.57-0.04,5.14c-0.27,0.33-0.59,0.64-0.91,0.99c0.16,0.07,0.33,0.14,0.5,0.21
		c1.39,0.53,2.58,1.33,3.35,2.63c0.87,1.47,0.88,2.98,0.01,4.46c-0.9,1.52-2.3,2.38-3.96,2.83c-0.66,0.18-1.37,0.28-2.05,0.28
		c-5.06,0.02-10.12,0.01-15.17,0.01c-0.18,0-0.35,0-0.51,0C339.61,124.07,339.57,106.48,339.69,105.61z M343.03,122.87
		c0.16,0.02,0.29,0.05,0.42,0.05c3.63,0,7.25,0.01,10.88,0c1.19,0,2.26-0.37,3.16-1.17c1.53-1.36,1.6-3.51,0.16-4.95
		c-0.97-0.97-2.17-1.33-3.51-1.33c-3.55,0-7.1,0-10.64,0c-0.15,0-0.3,0.03-0.47,0.05C343.03,117.98,343.03,120.41,343.03,122.87z
		 M343.05,113.76c0.11,0.02,0.16,0.05,0.22,0.05c3.02,0,6.03,0.02,9.04-0.01c0.98-0.01,1.88-0.32,2.63-0.96
		c1.58-1.34,1.5-3.52-0.16-4.75c-0.76-0.56-1.61-0.83-2.55-0.83c-2.87,0-5.75,0-8.63,0c-0.17,0-0.35,0.02-0.55,0.03
		C343.05,109.46,343.05,111.59,343.05,113.76z"/>
	<path class="st0" d="M243.44,105.59c1.08,0,2.11-0.02,3.14,0.02c0.2,0.01,0.43,0.17,0.6,0.32c1.11,1.05,2.21,2.11,3.32,3.16
		c1.82,1.74,3.64,3.48,5.47,5.22c0.13,0.12,0.27,0.23,0.43,0.37c0.51-0.47,1-0.92,1.49-1.38c2.58-2.46,5.16-4.93,7.74-7.4
		c0.22-0.21,0.43-0.31,0.73-0.3c0.97,0.02,1.93,0.01,2.94,0.01c0,6.33,0,12.61,0,18.96c-1.05,0.02-2.09,0.01-3.22,0
		c-0.01-1.77,0-3.51-0.01-5.25c0-1.74,0-3.49,0-5.24c0-1.74,0-3.47,0-5.21c-0.04-0.02-0.08-0.04-0.13-0.06
		c-1.61,1.48-3.17,3.01-4.76,4.51c-1.59,1.51-3.18,3.03-4.8,4.57c-3.2-3.05-6.37-6.07-9.53-9.08c-0.07,0.03-0.08,0.04-0.1,0.05
		c-0.01,0.01-0.03,0.02-0.04,0.04c-0.01,0.02-0.01,0.04-0.01,0.06c0,0.04,0,0.08,0,0.12c0,5.06,0,10.11,0,15.17
		c0,0.04-0.01,0.08-0.01,0.12c0,0.02,0,0.04-0.01,0.06c-0.01,0.02-0.02,0.03-0.03,0.05c-0.43,0.11-2.54,0.14-3.21,0.03
		C243.44,118.23,243.44,111.95,243.44,105.59z"/>
	<path class="st0" d="M453.15,105.65c1.14,0,2.22,0,3.3,0c0.12,0.42,0.15,18.06,0.03,18.85c-1.07,0-2.16,0-3.33,0
		c-0.04-1.49-0.01-2.99-0.02-4.49c0-1.49,0-2.97,0-4.44c-0.47-0.13-15.87-0.15-16.53-0.03c0,2.96,0,5.92,0,8.88
		c-0.46,0.14-2.38,0.17-3.29,0.08c-0.11-0.43-0.14-18.14-0.02-18.85c1.06,0,2.12,0,3.27,0c0.05,0.9,0.02,1.8,0.02,2.7
		c0.01,0.89,0,1.78,0,2.68c0,0.91,0,1.82,0,2.76c5.52,0,10.99,0,16.54,0C453.16,111.08,453.13,108.38,453.15,105.65z"/>
	<path class="st0" d="M374.83,120.72c-0.64,1.1-1.29,2.19-1.89,3.3c-0.23,0.43-0.51,0.58-0.98,0.56c-0.71-0.04-1.43-0.01-2.14-0.01
		c-0.19,0-0.38-0.02-0.64-0.03c0.11-0.22,0.19-0.38,0.27-0.52c3.52-5.95,7.04-11.9,10.55-17.86c0.24-0.41,0.49-0.59,0.98-0.56
		c0.77,0.05,1.55,0.03,2.32,0c0.35-0.01,0.53,0.12,0.7,0.41c1.95,3.31,3.91,6.62,5.86,9.93c1.57,2.66,3.15,5.32,4.72,7.98
		c0.11,0.18,0.21,0.37,0.36,0.65c-0.33,0-0.56,0-0.79,0c-0.74,0-1.47-0.02-2.2,0.01c-0.34,0.01-0.54-0.12-0.7-0.41
		c-0.57-1.02-1.18-2.02-1.74-3.04c-0.17-0.31-0.38-0.44-0.74-0.44c-4.48,0.01-8.96,0.01-13.44,0.01
		C375.16,120.69,375,120.71,374.83,120.72z M382.07,108.32c-0.13,0.19-0.22,0.29-0.28,0.41c-0.31,0.53-0.61,1.06-0.92,1.59
		c-1.57,2.71-3.14,5.41-4.71,8.12c-0.09,0.16-0.15,0.33-0.24,0.52c0.97,0.13,11.84,0.09,12.29-0.06
		C386.17,115.39,384.14,111.89,382.07,108.32z"/>
	<path class="st0" d="M303.94,124.54c-1.14,0-2.15-0.01-3.16,0.01c-0.27,0-0.38-0.16-0.49-0.35c-0.59-1.01-1.19-2.01-1.75-3.04
		c-0.2-0.36-0.43-0.48-0.84-0.48c-4.42,0.01-8.85,0.01-13.27,0c-0.4,0-0.65,0.09-0.85,0.47c-0.55,1.01-1.15,1.99-1.72,2.99
		c-0.16,0.29-0.35,0.42-0.7,0.41c-0.83-0.03-1.67-0.01-2.5-0.01c-0.13,0-0.26-0.02-0.49-0.04c3.75-6.34,7.45-12.61,11.18-18.91
		c1.06,0,2.11,0.01,3.16,0c0.31,0,0.39,0.24,0.51,0.43c0.83,1.39,1.66,2.8,2.49,4.19c2.67,4.52,5.34,9.05,8.02,13.57
		C303.64,124,303.76,124.22,303.94,124.54z M291.1,108.35c-0.45,0.52-6.02,10.18-6.13,10.62c0.05,0.02,0.11,0.05,0.16,0.05
		c3.89,0,7.77,0.01,11.66,0.01c0.1,0,0.2-0.01,0.29-0.03c0.02,0,0.03-0.02,0.04-0.03c0.01-0.02,0.02-0.03,0.06-0.1
		C295.17,115.38,293.14,111.88,291.1,108.35z"/>
	<path class="st0" d="M424,106.46c0,0.63,0,1.2,0,1.84c-0.22-0.07-0.41-0.11-0.58-0.18c-1.9-0.67-3.85-1.06-5.86-1.23
		c-1.59-0.13-3.17-0.15-4.74,0.14c-2.3,0.43-4.41,1.3-6.13,2.93c-1.38,1.3-2.25,2.86-2.36,4.79c-0.1,1.86,0.57,3.46,1.78,4.84
		c1.59,1.81,3.64,2.83,5.95,3.38c1.85,0.45,3.73,0.44,5.62,0.28c2.04-0.17,4.04-0.57,5.97-1.29c0.09-0.03,0.18-0.05,0.32-0.08
		c0.14,0.61,0.03,1.2,0.08,1.84c-0.71,0.19-1.39,0.41-2.08,0.56c-2.9,0.64-5.83,0.92-8.8,0.6c-2.94-0.31-5.7-1.17-8.17-2.84
		c-1.04-0.7-1.96-1.54-2.71-2.56c-2.07-2.82-2.05-6.13,0.08-8.91c1.29-1.68,2.97-2.85,4.87-3.7c2.23-1.01,4.57-1.53,7.01-1.65
		c3.06-0.16,6.05,0.21,8.99,1.01C423.47,106.28,423.72,106.37,424,106.46z"/>
	<path class="st0" d="M330.74,105.67c-1.42,1.55-2.8,3.05-4.18,4.56c-1.89,2.06-3.78,4.12-5.68,6.17c-0.27,0.29-0.36,0.58-0.36,0.95
		c0.01,2.16,0.01,4.32,0.01,6.48c0,0.21,0,0.43,0,0.68c-1.18,0-2.3,0-3.5,0c0-0.23,0-0.44,0-0.65c0-2.12-0.01-4.24,0.01-6.36
		c0.01-0.49-0.12-0.85-0.46-1.22c-2.96-3.2-5.91-6.41-8.86-9.62c-0.29-0.32-0.57-0.64-0.93-1.03c0.22-0.02,0.35-0.03,0.48-0.04
		c0.89,0,1.78,0.01,2.68-0.01c0.33-0.01,0.55,0.11,0.77,0.34c2.05,2.25,4.12,4.5,6.18,6.75c0.6,0.66,1.21,1.3,1.87,2.01
		c0.18-0.18,0.35-0.34,0.5-0.51c2.53-2.76,5.06-5.52,7.6-8.28c0.16-0.18,0.31-0.33,0.6-0.32c0.99,0.02,1.98,0.01,2.97,0.01
		C330.53,105.59,330.61,105.63,330.74,105.67z"/>
	<path class="st0" d="M329.39,92.34c0-0.3,0-0.56,0-0.81c0-12.28,0-24.55,0-36.83c0-0.18-0.02-0.36,0-0.54
		c0.06-0.41-0.13-0.65-0.48-0.85c-2.95-1.67-5.89-3.35-8.84-5.02c-0.97-0.55-1.94-1.08-2.91-1.62c-0.19-0.1-0.38-0.2-0.63-0.33
		c-0.01,0.25-0.03,0.44-0.04,0.63c-0.02,2.76-0.04,5.51-0.05,8.27c-0.02,2.6-0.03,5.19-0.04,7.79c-0.03,4.32-0.06,8.64-0.09,12.97
		c-0.02,2.73-0.05,5.47-0.1,8.21c-0.03,1.42-0.11,2.85-0.18,4.27c-0.01,0.21-0.06,0.42-0.1,0.72c-1.73-0.47-3.31-1.18-4.94-1.73
		c-0.23-1.29-0.04-50.01,0.2-51.15c0.26,0.1,0.52,0.18,0.75,0.31c1.65,0.94,3.31,1.88,4.95,2.84c3.62,2.14,7.22,4.3,10.83,6.45
		c0.45,0.27,0.93,0.51,1.46,0.79c0.02-0.24,0.04-0.41,0.05-0.58c0.03-4.42,0.05-8.84,0.07-13.26c0.01-2.38,0.01-4.76,0.04-7.14
		c0.02-1.94,0.08-3.88,0.13-5.82c0.02-0.51,0.1-1.01,0.17-1.63c0.37,0.17,0.64,0.27,0.89,0.41c1.82,1.01,3.65,2,5.45,3.04
		c4.57,2.63,9.12,5.28,13.69,7.93c0.21,0.12,0.41,0.23,0.62,0.34c6.83-3.87,13.49-7.99,20.42-11.62c0.03-0.02,0.08,0,0.14,0
		c0.21,0.31,0.19,0.68,0.2,1.02c0.07,1.56,0.13,3.13,0.15,4.69c0.03,3.93,0.02,7.85,0.05,11.78c0.02,3.49,0.06,6.98,0.09,10.47
		c0,0.1,0.01,0.2,0.03,0.39c0.21-0.1,0.38-0.18,0.54-0.28c2.57-1.5,5.14-2.99,7.7-4.5c2.61-1.55,5.2-3.12,7.81-4.67
		c0.61-0.36,1.26-0.65,1.99-1.03c0.04,0.34,0.08,0.56,0.08,0.78c0.04,2.26,0.08,4.52,0.09,6.78c0.03,5,0.05,9.99,0.06,14.99
		c0.02,9.38,0.02,18.76,0.03,28.14c0,0.16,0,0.31,0,0.53c-1.64,0.59-3.27,1.18-4.97,1.8c-0.06-0.32-0.14-0.55-0.15-0.77
		c-0.07-1.37-0.14-2.73-0.16-4.1c-0.05-3.07-0.06-6.14-0.08-9.22c-0.02-2.58-0.04-5.15-0.06-7.73c-0.03-4.56-0.06-9.12-0.09-13.68
		c-0.02-2.24-0.04-4.48-0.05-6.72c0-0.2,0-0.39,0-0.7c-0.24,0.12-0.41,0.19-0.57,0.28c-2.86,1.6-5.71,3.19-8.56,4.8
		c-1,0.56-1.99,1.15-3,1.71c-0.34,0.19-0.53,0.41-0.53,0.83c-0.01,0.81-0.12,1.62-0.12,2.43c-0.04,11.8-0.07,23.6-0.1,35.39
		c0,0.18,0,0.35,0,0.59c-1.81,0.3-3.58,0.67-5.41,0.85c-0.2-0.84-0.2-1.63-0.21-2.42c-0.05-2.91-0.08-5.83-0.1-8.74
		c-0.02-2.6-0.03-5.19-0.05-7.79c-0.02-4.52-0.04-9.04-0.06-13.56c0-0.99-0.02-1.98-0.04-2.97c0-0.13-0.01-0.26-0.03-0.51
		c-5.06,3.07-10.03,6.09-15.04,9.12c-4.98-3.02-9.95-6.04-15-9.1c-0.02,0.2-0.04,0.33-0.04,0.45c-0.02,2.95-0.05,5.91-0.07,8.86
		c-0.02,3.49-0.03,6.98-0.04,10.47c-0.01,5.19-0.02,10.39-0.03,15.59c0,0.19,0,0.39,0,0.65C333.17,93.11,331.34,92.66,329.39,92.34z
		 M335.21,27.89c-0.14,7.61-0.08,15.08,0.02,22.52c0.11,0.08,0.17,0.12,0.24,0.16c4.82,2.94,9.64,5.88,14.46,8.83
		c0.28,0.17,0.48,0.14,0.75-0.03c2.06-1.26,4.13-2.51,6.2-3.77c2.52-1.54,5.04-3.08,7.55-4.63c0.87-0.54,0.88-0.56,0.92-1.6
		c0.05-1.17,0.09-2.34,0.09-3.51c0-3.17-0.04-6.34-0.05-9.51c-0.01-2.14,0-4.28-0.01-6.42c0-0.64-0.03-1.29-0.05-2
		c-0.24,0.11-0.4,0.18-0.55,0.26c-0.55,0.31-1.1,0.63-1.66,0.93c-3.96,2.21-7.92,4.42-11.89,6.63c-0.92,0.51-0.94,0.52-1.87,0
		c-4.09-2.27-8.17-4.54-12.26-6.82C336.53,28.63,335.94,28.3,335.21,27.89z"/>
</g>
</svg>
