<?xml version="1.0" encoding="utf-8"?>
<!-- Generator: Adobe Illustrator 24.0.2, SVG Export Plug-In . SVG Version: 6.00 Build 0)  -->
<svg version="1.1" id="Capa_1" xmlns="http://www.w3.org/2000/svg" xmlns:xlink="http://www.w3.org/1999/xlink" x="0px" y="0px"
	 viewBox="0 0 700 125" style="enable-background:new 0 0 700 125;" xml:space="preserve">
<style type="text/css">
	.st0{fill:#FFFFFF;}
</style>
<g>
	<path class="st0" d="M677.92,9.32c2.58,0.52,5.2,0.89,7.72,1.59c2.35,0.66,4.73,1.43,6.88,2.56c5.89,3.11,8.07,8.18,6.47,14.61
		c-1.38,5.58-4.46,10.29-7.95,14.75c-7.79,9.93-17.2,18.23-26.97,26.14c-16.15,13.06-33.41,24.56-51,35.55
		c-0.44,0.28-0.93,0.47-1.8,0.37c0.63-0.9,1.24-1.81,1.89-2.7c4.53-6.28,8.67-12.79,11.2-20.15c0.79-2.3,1.41-4.7,1.8-7.1
		c1.41-8.6-1.96-15.58-9.58-19.91c-7.07-4.02-14.9-5.19-22.86-5.69c-17.43-1.1-34.52,1.48-51.5,4.89
		c-8.82,1.77-17.57,3.91-26.64,5.95c0.42-0.38,0.65-0.69,0.96-0.85c35.78-19.09,72.9-34.85,112.5-44.21
		c10.16-2.4,20.62-3.55,30.94-5.29c0.71-0.12,1.4-0.32,2.1-0.48C667.35,9.32,672.64,9.32,677.92,9.32z M664.92,14.04
		c4.57,1.11,8.89,1.86,13,3.21c8.35,2.75,14.05,7.89,14.32,17.36c0.01,0.31,0.28,0.61,0.47,1c4.76-7.97,2.35-16.39-5.13-19.38
		C680.33,13.34,672.88,13.37,664.92,14.04z"/>
	<path class="st0" d="M0.5,114.11c0.76-1,1.28-1.72,1.84-2.41c13.47-16.45,26.92-32.92,40.44-49.31c0.76-0.92,2.15-1.88,3.25-1.89
		c15.04-0.12,30.08-0.08,45.11-0.07c0.44,0,0.88,0.1,1.56,0.18c0,5.03,0,9.97,0,15.81c1.35-1.34,2.15-2.12,2.92-2.91
		c3.81-3.91,7.57-7.85,11.45-11.69c0.69-0.69,1.83-1.33,2.76-1.33c12.12-0.08,24.24-0.05,36.36-0.04c0.34,0,0.68,0.12,1.16,0.22
		c0,17.82,0,35.54,0,53.48c-11.39,0-22.72,0-34.32,0c0-6.83,0-13.58,0-20.96c-1.03,0.91-1.63,1.38-2.15,1.92
		c-5.66,5.9-11.3,11.84-16.99,17.71c-0.64,0.66-1.6,1.45-2.43,1.46c-10.19,0.1-20.39,0.06-30.91,0.06c0-6.93,0-13.67,0-21.21
		c-1.18,1.07-1.83,1.6-2.4,2.2c-5.6,5.84-11.16,11.72-16.81,17.5c-0.74,0.75-1.96,1.45-2.97,1.46c-12.21,0.1-24.43,0.06-36.63,0.05
		C1.49,114.33,1.23,114.24,0.5,114.11z"/>
	<path class="st0" d="M363.88,114.81c-10.69,0-21.15,0-31.81,0c-0.18-0.84-0.36-1.68-0.55-2.57c-15.01,4.03-29.86,6.48-44-4.31
		c0,1.36,0,2.37,0,3.39c0,1.07,0,2.14,0,3.16c-21.78,0-43.3,0-64.99,0c0-18.15,0-35.86,0-53.82c12.06,0,24.11,0,36.44,0
		c0,10.66,0,21.32,0,32.19c7.32,0,14.37,0,21.48,0c0.09-0.2,0.28-0.43,0.3-0.68c1.05-12.65,8.14-20.35,20.78-22.51
		c9.24-1.58,18.13,0.11,26.89,2.93c0.87,0.28,1.73,0.57,2.59,0.84c0.08,0.02,0.18-0.01,0.52-0.05c0.14-0.74,0.29-1.56,0.47-2.49
		c10.6,0,21.14,0,31.9,0C363.88,85.47,363.88,99.99,363.88,114.81z M324.79,101.76c0.55-0.11,1.83-0.26,3.03-0.65
		c4.37-1.46,6.84-5.35,5.9-9.14c-1.06-4.28-5.77-6.99-11.04-6.37c-5.06,0.6-8.41,3.68-8.37,7.7
		C314.36,98.24,318.42,101.76,324.79,101.76z"/>
	<path class="st0" d="M455.36,98.62c3.09,1.19,6.09,2.76,9.28,3.5c6.73,1.57,13.34,1.09,19.75-1.9c1.53-0.72,3.53-0.54,5.32-0.61
		c2.34-0.09,4.7-0.02,7.89-0.02c-1.5,1.9-2.43,3.4-3.67,4.6c-4.49,4.34-9.97,6.98-15.93,8.59c-13.1,3.55-26.32,4.24-39.28-0.2
		c-4.8-1.64-9.39-4.43-13.43-7.52c-2.58-1.97-4.33-5.31-5.77-8.35c-0.87-1.84-1.5-2.85-3.59-2.58c-3.96,0.5-8.01,0.56-11.85,1.5
		c-4.05,0.99-4.98,2.78-4.98,6.9c0,3.98,0,7.96,0,12.15c-10.78,0-21.37,0-32.15,0c0-14.5,0-28.97,0-43.67c10.53,0,21.13,0,31.97,0
		c0.1,1.04,0.21,2.17,0.35,3.76c7.31-4.51,15.15-6.46,23.87-6.08c0,4.15,0,8.08,0,12.03c0.46,0,0.69,0.07,0.78-0.01
		c11.94-10.65,26.33-12.87,41.58-11.82c7.24,0.5,14.19,2.33,20.67,5.68c4.34,2.24,8.23,5.05,10.95,9.2
		c2.28,3.48,3.22,7.21,2.16,11.39c-0.47,1.84-1.32,2.39-3.2,2.37c-12.48-0.09-24.97-0.04-37.44-0.04c-0.97,0-1.94,0-2.91,0
		C455.6,97.86,455.48,98.24,455.36,98.62z M471.84,85.84c-0.82-3.64-4.55-5.63-9.79-5.36c-4.37,0.23-6.93,2.09-7.28,5.36
		C460.47,85.84,466.13,85.84,471.84,85.84z"/>
	<path class="st0" d="M585.06,114.75c-10.87,0-21.4,0-32.34,0c0-1.03,0-1.99,0-2.95c0-6.25-0.15-12.51,0.07-18.75
		c0.1-2.63-1.14-3.86-3.22-4.69c-4.42-1.75-8.8-1.48-12.85,0.95c-0.99,0.6-1.88,2.22-1.9,3.4c-0.17,7.24-0.09,14.48-0.09,21.96
		c-10.57,0-20.98,0-31.59,0c0-14.7,0-29.41,0-44.27c10.68,0,21.29,0,31.98,0c0.11,1.05,0.22,2.01,0.32,2.92
		c5.48-1.31,10.81-2.85,16.24-3.82c8.81-1.58,17.39-1,25.43,3.54c5.4,3.05,8.18,7.31,8.02,13.69
		C584.88,95.94,585.06,105.18,585.06,114.75z"/>
	<path class="st0" d="M218.6,88.43c-7.26-0.29-14.08-0.8-20.89-0.73c-3.96,0.04-7.92,0.96-11.86,1.65c-1.12,0.2-2.23,0.82-3.2,1.47
		c-2.15,1.43-2.28,3.26-0.01,4.42c2.46,1.26,5.2,2.23,7.93,2.7c8.38,1.43,16.7,0.37,24.98-1.14c0.88-0.16,1.77-0.33,3.04-0.56
		c0,4.73,0.04,9.22-0.06,13.71c-0.01,0.46-0.79,1.18-1.33,1.32c-15.23,3.93-30.55,6.14-46.11,1.9c-5.24-1.43-10.07-3.74-14.12-7.44
		c-8.96-8.18-8.83-19.78,0.36-27.73c6.37-5.51,14.11-7.77,22.26-8.82c12.56-1.61,24.9,0.01,37.1,2.92c0.73,0.17,1.8,1.12,1.82,1.74
		C218.67,78.72,218.6,83.6,218.6,88.43z"/>
</g>
</svg>
