<?xml version="1.0" encoding="utf-8"?>
<!-- Generator: Adobe Illustrator 24.0.2, SVG Export Plug-In . SVG Version: 6.00 Build 0)  -->
<svg version="1.1" id="Capa_1" xmlns="http://www.w3.org/2000/svg" xmlns:xlink="http://www.w3.org/1999/xlink" x="0px" y="0px"
	 viewBox="0 0 700 125" style="enable-background:new 0 0 700 125;" xml:space="preserve">
<style type="text/css">
	.st0{fill:#FFFFFF;}
</style>
<g>
	<path class="st0" d="M367.78,65.01c-0.05-0.11-0.1-0.22-0.13-0.33c-0.25-1.01-0.64-1.93-1.39-2.68c-0.87-0.87-1.91-1.32-3.11-1.35
		c-1.4-0.04-2.8-0.02-4.21-0.03c-2.33-0.01-4.65-0.01-6.98-0.02c-0.36,0-0.72-0.02-1.08-0.08c-0.83-0.14-1.37-0.77-1.36-1.58
		c0.01-0.83,0.64-1.54,1.47-1.64c0.22-0.03,0.44-0.02,0.66-0.02c4.73,0,9.46,0,14.19,0c0.22,0,0.43,0,0.71,0
		c0.1-1.15,0.05-2.24,0.02-3.39c-0.29-0.02-0.54-0.06-0.79-0.06c-4.77,0-9.54,0-14.31,0c-0.4,0-0.8,0.01-1.2,0.05
		c-2.29,0.24-4.12,1.7-4.51,4.2c-0.24,1.54,0.09,3,1.14,4.22c0.92,1.08,2.11,1.68,3.51,1.7c3.67,0.04,7.34,0.02,11,0.04
		c0.4,0,0.8,0.04,1.19,0.1c0.96,0.16,1.28,0.94,1.32,1.64c0.04,0.64-0.31,1.48-1.2,1.75c-0.32,0.1-0.67,0.14-1,0.14
		c-4.87,0.01-9.74,0-14.61,0c-0.27,0-0.55,0-0.95,0c0,0.54,0,0.96,0,1.37c0,0.54-0.01,1.08,0.01,1.62c0.01,0.39,0.07,0.44,0.46,0.46
		c0.1,0.01,0.2,0,0.3,0c5.01,0,10.02,0.01,15.03-0.01c0.66,0,1.33-0.02,1.97-0.16c2.03-0.47,3.16-1.84,3.68-3.79
		c0.05-0.18,0.1-0.37,0.16-0.61"/>
	<path class="st0" d="M420.51,42.08c0,0.59,0,1.09,0,1.59c0,0.25-0.13,0.37-0.37,0.36c-0.12,0-0.24,0-0.36,0
		c-5.17,0-10.34,0-15.51,0.01c-0.66,0-0.67,0-0.9-0.63c-0.79-2.21-1.68-4.38-2.74-6.47c-1.46-2.86-3.12-5.6-5.04-8.18
		c-2.17-2.92-4.58-5.62-7.27-8.07c-2.48-2.26-5.14-4.28-7.98-6.07c-2.8-1.77-5.73-3.29-8.81-4.53c-2.42-0.98-4.88-1.79-7.41-2.43
		c-1.88-0.48-3.78-0.87-5.7-1.16c-3.45-0.53-6.93-0.71-10.42-0.59c-2.56,0.09-5.11,0.37-7.64,0.8c-3.05,0.52-6.03,1.3-8.95,2.29
		c-2.37,0.81-4.67,1.8-6.92,2.92c-2.59,1.29-5.06,2.77-7.4,4.46c-1.46,1.06-2.85,2.21-4.24,3.35c-1.83,1.5-3.5,3.18-5.07,4.95
		c-1.82,2.06-3.5,4.22-5.02,6.52c-2.38,3.59-4.29,7.42-5.8,11.45c-0.12,0.32-0.23,0.64-0.33,0.97c-0.09,0.3-0.25,0.44-0.56,0.41
		c-0.22-0.01-0.44,0-0.66,0c-5.03,0-10.06,0-15.1,0c-0.21,0-0.43,0-0.7,0c0-0.68,0-1.29,0-1.97c0.84-0.1,1.67-0.2,2.5-0.3
		c1.73-0.2,3.46-0.39,5.18-0.61c1.12-0.15,2.18-0.5,3.14-1.14c1.02-0.68,1.66-1.67,2.2-2.73c0.59-1.16,1.14-2.34,1.74-3.5
		c1.45-2.82,3.1-5.51,4.98-8.07c1.41-1.92,2.91-3.78,4.53-5.52c1.93-2.07,3.97-4.02,6.16-5.81c2.28-1.87,4.67-3.6,7.19-5.13
		c3.74-2.28,7.65-4.22,11.81-5.61c1.99-0.67,4-1.31,6.03-1.84c1.7-0.44,3.45-0.7,5.17-1.03c2.21-0.43,4.44-0.58,6.68-0.72
		c1.32-0.08,2.65-0.02,3.97-0.04c2.09-0.03,4.17,0.12,6.24,0.36c2.34,0.27,4.67,0.68,6.97,1.22c4.39,1.02,8.63,2.47,12.69,4.39
		c4.47,2.12,8.65,4.72,12.52,7.81c2.51,2,4.85,4.19,7.02,6.56c2.21,2.41,4.21,4.99,6.02,7.71c1.79,2.7,3.3,5.54,4.7,8.45
		c0.16,0.33,0.33,0.64,0.49,0.97c1.05,2.16,2.82,3.34,5.16,3.66c2.08,0.29,4.17,0.51,6.26,0.77
		C419.44,41.97,419.93,42.02,420.51,42.08z"/>
	<path class="st0" d="M420.51,81c0,0.59,0,1.07,0,1.54c0,0.25-0.14,0.36-0.37,0.39c-0.61,0.09-1.23,0.17-1.84,0.25
		c-1.27,0.15-2.55,0.29-3.82,0.44c-0.71,0.09-1.43,0.18-2.14,0.3c-2.4,0.39-3.99,1.8-5.01,3.96c-1.24,2.63-2.56,5.22-4.1,7.68
		c-1.71,2.72-3.6,5.3-5.7,7.73c-1.55,1.79-3.19,3.49-4.94,5.09c-2.92,2.67-6.05,5.06-9.42,7.15c-2.97,1.84-6.07,3.43-9.3,4.76
		c-3.42,1.41-6.93,2.5-10.54,3.29c-2.25,0.49-4.53,0.84-6.82,1.09c-3.76,0.41-7.52,0.41-11.29,0.16c-3.14-0.21-6.25-0.71-9.31-1.41
		c-2.81-0.64-5.56-1.52-8.27-2.53c-2.37-0.89-4.67-1.94-6.9-3.11c-2.65-1.39-5.18-2.97-7.6-4.73c-3.34-2.42-6.42-5.13-9.21-8.16
		c-2.11-2.28-4.05-4.7-5.79-7.29c-1.66-2.47-3.15-5.02-4.45-7.69c-0.34-0.7-0.67-1.41-1.02-2.11c-0.49-0.97-1.07-1.87-1.94-2.57
		c-1.02-0.82-2.21-1.21-3.47-1.39c-1.82-0.25-3.66-0.42-5.48-0.64c-0.71-0.09-1.42-0.2-2.21-0.32c-0.01-0.56-0.02-1.09-0.01-1.63
		c0-0.19,0.13-0.28,0.31-0.29c0.16-0.01,0.32-0.01,0.48-0.01c5.13,0,10.27,0,15.4,0c0.73,0,0.73,0,0.97,0.7
		c1.57,4.51,3.72,8.72,6.39,12.68c1.35,2,2.82,3.89,4.41,5.7c1.63,1.85,3.39,3.57,5.26,5.19c2.08,1.8,4.28,3.44,6.59,4.94
		c1.89,1.22,3.86,2.29,5.87,3.28c2.94,1.45,6,2.57,9.14,3.49c2.79,0.82,5.64,1.38,8.53,1.74c3.09,0.38,6.18,0.55,9.29,0.42
		c1.48-0.06,2.95-0.23,4.42-0.41c1.45-0.17,2.9-0.36,4.34-0.63c2.27-0.42,4.48-1.04,6.68-1.74c3.64-1.16,7.11-2.71,10.44-4.59
		c2.25-1.27,4.41-2.69,6.46-4.28c2.47-1.92,4.81-3.99,6.95-6.28c3.21-3.45,5.96-7.24,8.22-11.37c1.39-2.55,2.59-5.2,3.56-7.95
		c0.05-0.15,0.12-0.3,0.16-0.45c0.09-0.32,0.32-0.44,0.63-0.44c0.26,0,0.52,0,0.78,0c2.11,0,4.21,0,6.32,0.01
		c2.89,0.01,5.77,0.03,8.66,0.04C420.02,81,420.22,81,420.51,81z"/>
	<path class="st0" d="M337.65,53.84c0,1.19,0,2.27,0,3.43c-0.24,0.01-0.47,0.03-0.7,0.03c-4.55,0-9.1,0-13.65,0
		c-0.36,0-0.72-0.01-1.08,0.01c-0.9,0.04-1.65,0.74-1.62,1.61c0.02,0.79,0.38,1.52,1.44,1.63c0.5,0.05,1,0.09,1.5,0.09
		c3.39,0.01,6.78,0.01,10.17,0.01c0.87,0,1.71,0.13,2.5,0.54c0.94,0.49,1.62,1.23,2.08,2.17c1.07,2.2,0.59,4.83-0.94,6.37
		c-1,1.02-2.26,1.41-3.66,1.41c-3.21,0.01-6.41,0.01-9.62,0.02c-2.01,0-4.01,0-6.02,0c-0.21,0-0.43,0-0.7,0
		c-0.13-1.16-0.04-2.25-0.08-3.41c0.31-0.02,0.56-0.05,0.82-0.05c4.83,0,9.66,0,14.5-0.01c0.36,0,0.72-0.02,1.07-0.1
		c0.86-0.19,1.35-0.87,1.33-1.81c-0.02-0.88-0.51-1.47-1.39-1.62c-0.35-0.06-0.72-0.1-1.07-0.1c-3.69-0.01-7.38,0.02-11.07-0.04
		c-2.06-0.04-3.61-1.34-4.3-3.06c-0.56-1.41-0.58-2.81,0.07-4.19c0.8-1.69,2.16-2.64,4.02-2.85c0.65-0.08,1.32-0.07,1.98-0.07
		c4.55-0.01,9.1,0,13.65,0C337.11,53.84,337.34,53.84,337.65,53.84z"/>
	<path class="st0" d="M292.96,66.58c0.05-2.12,0.02-4.23,0.02-6.35c0.01-2.1,0-4.2,0-6.38c1.28-0.05,2.49-0.05,3.74,0
		c0,5.78,0,11.48,0,17.24c-0.24,0.02-0.46,0.05-0.67,0.05c-1.18,0-2.37-0.01-3.55,0.01c-0.41,0.01-0.71-0.12-1-0.42
		c-2.96-2.99-5.93-5.97-8.9-8.96c-1-1.01-2-2.02-3-3.03c-0.16-0.16-0.34-0.31-0.58-0.44c-0.1,0.85-0.08,1.68-0.08,2.51
		c0,0.86,0,1.72,0,2.58c0,0.84,0,1.68,0,2.52c0,0.86,0,1.72,0,2.58c0,0.84,0,1.68,0,2.58c-0.26,0.02-0.47,0.05-0.68,0.06
		c-0.84,0.01-1.68,0-2.52,0c-0.58,0-0.62-0.03-0.62-0.61c0-2.24,0-4.49,0-6.73c0-3.03,0-6.05,0-9.08c0-0.16,0.01-0.32,0-0.48
		c-0.01-0.27,0.11-0.42,0.39-0.41c0.08,0,0.16,0,0.24,0c1.24,0,2.48,0.01,3.73,0c0.42-0.01,0.71,0.14,1,0.43
		c2.23,2.27,4.49,4.52,6.73,6.78c1.69,1.71,3.37,3.43,5.06,5.14c0.16,0.16,0.34,0.32,0.51,0.48
		C292.84,66.63,292.9,66.61,292.96,66.58z"/>
	<path class="st0" d="M424.78,71.14c-0.22,0-0.41,0-0.61,0c-1.18,0-2.37-0.02-3.55,0c-0.42,0.01-0.71-0.13-1-0.42
		c-3.96-4.01-7.92-8-11.89-12c-0.15-0.15-0.32-0.28-0.52-0.46c-0.17,0.45-0.17,0.84-0.17,1.24c0,3.61,0.01,7.22,0.01,10.82
		c0,0.23,0,0.47,0,0.68c-0.5,0.16-3.07,0.18-3.69,0.06c-0.13-0.51-0.13-16.64,0.01-17.2c0.18-0.01,0.38-0.03,0.57-0.03
		c1.22-0.01,2.45,0.01,3.67-0.02c0.42-0.01,0.72,0.14,1,0.43c2.29,2.33,4.58,4.65,6.88,6.97c1.66,1.68,3.33,3.36,4.99,5.04
		c0.14,0.14,0.29,0.26,0.54,0.48c0.02-0.34,0.05-0.56,0.05-0.79c0-3.77,0-7.54,0-11.3c0-0.23,0-0.47,0-0.68
		c0.53-0.16,3.06-0.18,3.7-0.06C424.91,54.31,424.94,70.42,424.78,71.14z"/>
	<path class="st0" d="M372.4,71.06c0.26-0.44,0.48-0.8,0.7-1.15c2.15-3.45,4.31-6.9,6.46-10.34c1.08-1.73,2.18-3.46,3.25-5.2
		c0.24-0.39,0.51-0.55,0.97-0.53c0.98,0.04,1.96,0.03,2.95,0.01c0.39-0.01,0.63,0.12,0.83,0.46c0.91,1.48,1.84,2.96,2.77,4.44
		c1.6,2.56,3.21,5.12,4.82,7.69c0.89,1.43,1.78,2.85,2.67,4.28c0.06,0.1,0.1,0.21,0.17,0.37c-0.19,0.03-0.34,0.07-0.49,0.07
		c-1.14,0.01-2.29-0.01-3.43,0.01c-0.41,0.01-0.67-0.14-0.87-0.49c-0.42-0.73-0.91-1.42-1.32-2.15c-0.21-0.37-0.46-0.49-0.87-0.49
		c-1.5,0.02-3.01,0.01-4.51,0.01c-2.33,0-4.65,0-6.98-0.01c-0.46,0-0.78,0.1-1.02,0.55c-0.41,0.76-0.91,1.46-1.35,2.2
		c-0.16,0.28-0.37,0.38-0.68,0.38c-1.22-0.01-2.45,0-3.67,0C372.71,71.14,372.62,71.1,372.4,71.06z M380.81,64.79
		c0.33,0.03,0.48,0.05,0.63,0.05c2.38,0.01,4.76,0.02,7.14,0.02c0.28,0,0.57-0.06,0.87-0.1c-0.22-0.67-3.93-6.57-4.34-6.88
		C383.71,60.14,382.3,62.4,380.81,64.79z"/>
	<path class="st0" d="M309.11,71.1c-1.28,0-2.48,0-3.66,0c-0.14-0.5-0.14-16.68,0-17.22c0.14-0.02,0.3-0.05,0.45-0.05
		c0.88,0,1.76-0.01,2.64,0c0.56,0.01,0.61,0.05,0.61,0.63c0.01,0.74,0,1.48,0,2.22c0,4.53,0,9.05,0,13.58
		C309.15,70.53,309.12,70.78,309.11,71.1z"/>
</g>
</svg>
